<svg width="102" height="32" viewBox="0 0 102 32" fill="none" xmlns="http://www.w3.org/2000/svg">
<path fill-rule="evenodd" clip-rule="evenodd" d="M14.6827 30.8523C13.2587 30.8523 11.8713 30.5575 10.5547 29.9746C8.00389 28.8455 6.03818 26.7701 5.01646 24.1278C3.99475 21.4878 4.04046 18.5986 5.14218 15.9952C5.76618 14.5186 6.72618 13.1883 7.91704 12.1438C7.84618 10.5415 8.13875 8.91634 8.76275 7.43977C10.4107 3.54263 14.189 1.02377 18.3856 1.02377H18.7285H21.421C23.6427 1.02377 26.3216 1.02148 26.6416 1.02148C27.4165 1.02148 27.9902 1.51291 28.0953 1.61348C28.1982 1.70491 28.7239 2.22148 28.7239 3.16091C28.7239 3.61348 28.7216 7.23406 28.7193 9.63177L28.717 11.6981C28.7125 13.1403 28.4245 14.5483 27.8599 15.8832C27.2359 17.3598 26.2759 18.6901 25.085 19.7346C25.1559 21.3369 24.8633 22.9621 24.2393 24.4386C22.5867 28.3335 18.8382 30.8523 14.6827 30.8523ZM8.52732 15.2729C8.12046 15.8078 7.77761 16.3975 7.51018 17.0283C6.67818 18.9941 6.64618 21.1746 7.41646 23.1655C8.18675 25.1563 9.66789 26.7198 11.5856 27.5678C12.5753 28.0066 13.6176 28.2283 14.685 28.2283C17.8073 28.2283 20.6279 26.3335 21.8667 23.3986C22.1365 22.7632 22.3239 22.0981 22.4245 21.4238C21.1262 21.9952 19.7045 22.2946 18.301 22.2946C16.8793 22.2946 15.4896 21.9998 14.173 21.4169C12.6462 20.7403 11.2885 19.6912 10.2439 18.3792C9.51932 17.4672 8.92732 16.3952 8.52732 15.2729ZM10.6599 13.3461C11.1925 15.8718 12.8862 17.9861 15.2039 19.0123C16.1936 19.4512 17.2359 19.6729 18.3033 19.6729C19.725 19.6729 21.117 19.2775 22.3376 18.5278C21.805 16.0021 20.1113 13.8878 17.7936 12.8615C16.8039 12.4226 15.7616 12.2009 14.6942 12.2009C13.2725 12.1986 11.8782 12.5963 10.6599 13.3461ZM14.7856 9.57691C16.1776 9.58834 17.5353 9.88548 18.8222 10.4546C20.349 11.1312 21.7067 12.1803 22.7513 13.4901C23.4782 14.4021 24.0702 15.4741 24.4702 16.5963C24.8793 16.0615 25.2199 15.4718 25.4873 14.8409C25.965 13.7095 25.965 12.4089 25.965 11.2592C25.965 11.0215 25.965 10.7701 25.965 10.5095V10.2101C25.965 9.60663 25.965 8.9232 25.965 8.29234C25.9627 7.45577 25.9627 6.61463 25.965 5.89006V5.70034C25.965 5.46263 25.965 5.2432 25.965 5.04663V3.78491C25.965 3.78491 18.477 3.78491 18.4748 3.78491C18.4062 3.78491 18.365 3.78491 18.3422 3.78491C18.333 3.78491 18.3239 3.78491 18.3148 3.78491H18.3056C15.197 3.78491 12.3125 5.66834 11.1285 8.47063C10.8587 9.10606 10.6713 9.7712 10.5707 10.4455C11.8416 9.88777 13.229 9.58606 14.6005 9.57463L14.7856 9.57691Z" fill="#FAFAFA"/>
<path fill-rule="evenodd" clip-rule="evenodd" d="M14.6827 30.7606C13.2725 30.7606 11.8965 30.4681 10.5913 29.8898C8.06331 28.7698 6.1136 26.7126 5.10102 24.0932C4.08845 21.4761 4.13188 18.6121 5.22445 16.0292C5.85074 14.5504 6.81074 13.2224 8.00845 12.1824C7.93074 10.5778 8.21874 8.95264 8.84502 7.47378C10.4793 3.61092 14.2233 1.11264 18.3833 1.11264H18.7262C20.2256 1.11264 26.1547 1.11035 26.637 1.11035C27.3776 1.11035 27.9216 1.57664 28.029 1.67721C28.1342 1.77092 28.6279 2.26007 28.6279 3.15835C28.6279 3.72978 28.6233 9.39835 28.621 11.1218V11.6955C28.6165 13.1264 28.3307 14.5229 27.7707 15.8464C27.1445 17.3252 26.1845 18.6532 24.9867 19.6932C25.0645 21.2978 24.7765 22.9229 24.1502 24.4018C22.5182 28.2624 18.8016 30.7606 14.6827 30.7606ZM8.55931 15.0852C8.09988 15.6612 7.72045 16.3012 7.4256 16.9938C6.58445 18.9824 6.55017 21.1858 7.3296 23.1995C8.10902 25.2109 9.60617 26.7926 11.5467 27.6521C12.5479 28.0955 13.6039 28.3195 14.6827 28.3195C17.8416 28.3195 20.6942 26.4018 21.949 23.4326C22.2439 22.7355 22.4405 22.0109 22.5342 21.2704C21.2062 21.8806 19.7502 22.2029 18.2987 22.2029C16.8885 22.2029 15.5125 21.9104 14.2073 21.3321C12.6942 20.6624 11.3479 19.6201 10.3125 18.3218C9.55817 17.3686 8.95474 16.2578 8.55931 15.0852ZM10.557 13.3001C11.0805 15.8852 12.7925 18.0429 15.165 19.0944C16.1662 19.5378 17.2199 19.7618 18.301 19.7618C19.7639 19.7618 21.1902 19.3504 22.4382 18.5686C21.9147 15.9835 20.2027 13.8258 17.8302 12.7744C16.829 12.3309 15.7753 12.1069 14.6942 12.1069C13.2313 12.1069 11.805 12.5206 10.557 13.3001ZM14.6942 9.66807C16.1045 9.66807 17.4805 9.96064 18.7856 10.5389C20.2987 11.2086 21.645 12.2486 22.6805 13.5492C23.4393 14.5024 24.0427 15.6132 24.4382 16.7881C24.8976 16.2121 25.277 15.5721 25.5719 14.8795C26.0565 13.7321 26.0565 12.4201 26.0565 11.2635C26.0565 10.9892 26.0565 10.6944 26.0565 10.3904V10.3538C26.0565 9.70692 26.0565 8.97549 26.0565 8.29435C26.0542 7.44635 26.0542 6.58464 26.0565 5.89207V5.83264C26.0565 5.54464 26.0565 5.28178 26.0565 5.04864V3.69549H18.4793C18.4016 3.69549 18.3582 3.69549 18.333 3.69549C18.3262 3.69549 18.317 3.69549 18.3102 3.69549H18.3056C15.1605 3.69549 12.2439 5.60178 11.0439 8.43607C10.749 9.13321 10.5525 9.85778 10.4587 10.5984C11.7867 9.98807 13.2427 9.66807 14.6942 9.66807Z" fill="#FAFAFA"/>
<path fill-rule="evenodd" clip-rule="evenodd" d="M14.4883 16.7011C15.0506 16.7011 15.5055 16.2348 15.5055 15.6611C15.5055 15.0874 15.0506 14.6211 14.4883 14.6211C13.926 14.6211 13.4712 15.0874 13.4712 15.6611C13.4712 16.2348 13.926 16.7011 14.4883 16.7011Z" fill="#FAFAFA"/>
<path fill-rule="evenodd" clip-rule="evenodd" d="M19.4736 16.0456C19.4736 16.8113 18.8678 17.4331 18.1181 17.4331C17.3707 17.4331 16.7627 16.8113 16.7627 16.0456C16.7627 15.2799 17.3684 14.6582 18.1181 14.6582C18.8656 14.6605 19.4736 15.2799 19.4736 16.0456Z" fill="#FAFAFA"/>
<path d="M49.5753 11.2344C49.4825 10.366 49.0914 9.68987 48.402 9.20597C47.7192 8.72206 46.831 8.48011 45.7372 8.48011C44.9683 8.48011 44.3087 8.59612 43.7585 8.82812C43.2083 9.06013 42.7874 9.375 42.4957 9.77273C42.2041 10.1705 42.0549 10.6245 42.0483 11.1349C42.0483 11.5592 42.1444 11.9271 42.3366 12.2386C42.5355 12.5502 42.804 12.8153 43.142 13.0341C43.4801 13.2462 43.8546 13.4252 44.2656 13.571C44.6766 13.7169 45.0909 13.8395 45.5085 13.9389L47.4176 14.4162C48.1866 14.5952 48.9257 14.8371 49.6349 15.142C50.3509 15.447 50.9905 15.8314 51.554 16.2955C52.1241 16.7595 52.5748 17.3196 52.9062 17.9759C53.2377 18.6321 53.4034 19.401 53.4034 20.2827C53.4034 21.4759 53.0985 22.5265 52.4886 23.4347C51.8788 24.3362 50.9972 25.0421 49.8438 25.5526C48.697 26.0563 47.3082 26.3082 45.6776 26.3082C44.0933 26.3082 42.7178 26.063 41.5511 25.5724C40.3911 25.0819 39.483 24.366 38.8267 23.4247C38.1771 22.4834 37.8258 21.3366 37.7727 19.9844H41.402C41.455 20.6937 41.6738 21.2836 42.0582 21.7543C42.4427 22.2249 42.9432 22.5762 43.5597 22.8082C44.1828 23.0402 44.8788 23.1562 45.6477 23.1562C46.4498 23.1562 47.1525 23.0369 47.7557 22.7983C48.3655 22.553 48.8428 22.215 49.1875 21.7841C49.5322 21.3466 49.7079 20.8362 49.7145 20.2528C49.7079 19.7225 49.5521 19.285 49.2472 18.9403C48.9422 18.589 48.5147 18.2973 47.9645 18.0653C47.4209 17.8267 46.7846 17.6146 46.0554 17.429L43.7386 16.8324C42.0616 16.4015 40.7358 15.7486 39.7614 14.8736C38.7936 13.992 38.3097 12.822 38.3097 11.3636C38.3097 10.1638 38.6345 9.11316 39.2841 8.21165C39.9403 7.31013 40.8319 6.6108 41.9588 6.11364C43.0857 5.60985 44.3617 5.35795 45.7869 5.35795C47.232 5.35795 48.4981 5.60985 49.5852 6.11364C50.679 6.6108 51.5374 7.3035 52.1605 8.19176C52.7836 9.07339 53.1051 10.0876 53.125 11.2344H49.5753ZM56.033 31.7273V10.7273H59.5728V13.2528H59.7816C59.9672 12.8816 60.229 12.4872 60.5671 12.0696C60.9052 11.6454 61.3626 11.2841 61.9393 10.9858C62.516 10.6809 63.2518 10.5284 64.1467 10.5284C65.3266 10.5284 66.3905 10.83 67.3384 11.4332C68.293 12.0298 69.0487 12.9148 69.6055 14.0881C70.1689 15.2547 70.4506 16.6866 70.4506 18.3835C70.4506 20.0606 70.1755 21.4858 69.6254 22.6591C69.0752 23.8324 68.3261 24.7273 67.3782 25.3438C66.4303 25.9602 65.3564 26.2685 64.1566 26.2685C63.2816 26.2685 62.5558 26.1226 61.979 25.831C61.4023 25.5393 60.9383 25.188 60.587 24.777C60.2423 24.3594 59.9738 23.965 59.7816 23.5938H59.6325V31.7273H56.033ZM59.5629 18.3636C59.5629 19.3513 59.7021 20.2164 59.9805 20.9588C60.2655 21.7012 60.6732 22.2812 61.2035 22.6989C61.7404 23.1098 62.39 23.3153 63.1523 23.3153C63.9478 23.3153 64.614 23.1032 65.1509 22.679C65.6879 22.2481 66.0922 21.6615 66.364 20.919C66.6424 20.17 66.7816 19.3182 66.7816 18.3636C66.7816 17.4157 66.6457 16.5739 66.3739 15.8381C66.1022 15.1023 65.6978 14.5256 65.1609 14.108C64.6239 13.6903 63.9544 13.4815 63.1523 13.4815C62.3834 13.4815 61.7305 13.6837 61.1935 14.0881C60.6566 14.4924 60.2489 15.0592 59.9705 15.7884C59.6987 16.5175 59.5629 17.3759 59.5629 18.3636ZM73.033 26V10.7273H76.6325V26H73.033ZM74.8427 8.55966C74.2726 8.55966 73.7821 8.37074 73.3711 7.9929C72.9601 7.60843 72.7546 7.14773 72.7546 6.61079C72.7546 6.06723 72.9601 5.60653 73.3711 5.22869C73.7821 4.84422 74.2726 4.65199 74.8427 4.65199C75.4194 4.65199 75.9099 4.84422 76.3143 5.22869C76.7253 5.60653 76.9308 6.06723 76.9308 6.61079C76.9308 7.14773 76.7253 7.60843 76.3143 7.9929C75.9099 8.37074 75.4194 8.55966 74.8427 8.55966ZM82.777 10.7273L85.8594 16.3651L88.9915 10.7273H92.7997L88.196 18.3636L92.8793 26H89.0909L85.8594 20.5014L82.6577 26H78.8395L83.4929 18.3636L78.9588 10.7273H82.777ZM95.0838 26V10.7273H98.6832V26H95.0838ZM96.8935 8.55966C96.3234 8.55966 95.8329 8.37074 95.4219 7.9929C95.0109 7.60843 94.8054 7.14773 94.8054 6.61079C94.8054 6.06723 95.0109 5.60653 95.4219 5.22869C95.8329 4.84422 96.3234 4.65199 96.8935 4.65199C97.4702 4.65199 97.9607 4.84422 98.3651 5.22869C98.776 5.60653 98.9815 6.06723 98.9815 6.61079C98.9815 7.14773 98.776 7.60843 98.3651 7.9929C97.9607 8.37074 97.4702 8.55966 96.8935 8.55966Z" fill="#FAFAFA"/>
</svg>
