<svg width="164" height="164" viewBox="0 0 164 164" fill="none" xmlns="http://www.w3.org/2000/svg">
<path d="M68.1877 61.4441C65.8159 63.4284 58.4679 64.8236 51.5695 82.2324L41.4156 73.1017C36.7287 75.48 33.0972 79.5206 31.2307 84.4337L46.5003 98.1547C48.2691 99.7384 50.5938 100.556 52.9646 100.428C55.3353 100.301 57.5586 99.2374 59.1467 97.4726L65.474 90.4289L62.9602 107.099L52.6669 118.571C55.2496 123.106 59.2304 126.683 64.0144 128.77L74.9124 116.647C76.5257 114.853 77.6659 112.684 78.2298 110.338C80.6016 100.384 79.7955 82.8215 81.3302 67.6914C75.1792 66.5443 72.9004 65.1491 68.1877 61.4441Z" fill="#151C1C"/>
<path d="M152.197 62.1417L134.524 80.7907L141.531 49.9415L159.204 31.2925L152.197 62.1417Z" fill="#7F62E9"/>
<path d="M96.169 55.3053C95.9365 55.1503 95.5334 55.2898 95.0063 55.6618L96.2302 56.6695C96.4325 55.9564 96.4325 55.4603 96.169 55.3053Z" fill="#7F62E9"/>
<path d="M85.2246 64.8391C84.8983 65.6762 84.9415 66.3795 85.1936 66.5443C85.4457 66.7092 86.1727 66.5443 86.6623 65.9088L85.2246 64.8391Z" fill="#7F62E9"/>
<path d="M92.2803 55.9874C92.0478 55.8324 91.6447 55.9719 91.1177 56.344L92.3415 57.3516C92.5414 56.654 92.5251 56.1579 92.2803 55.9874Z" fill="#7F62E9"/>
<path d="M56.0186 114.756L52.5918 118.569C55.1745 123.104 59.1553 126.682 63.9393 128.768L67.5203 124.784C62.8116 122.602 58.822 119.123 56.0186 114.756Z" fill="#7F62E9"/>
<path d="M75.7373 58.5295L81.4731 67.4432L82.9923 64.6839L75.7373 58.5295Z" fill="#7F62E9"/>
<path d="M81.6125 36.0515L82.4032 37.7567L82.8372 36.5941L81.6125 36.0515Z" fill="#7F62E9"/>
<path d="M77.5044 77.0391L65.4593 90.4329L64.2346 98.649L77.5044 77.0391Z" fill="#7F62E9"/>
<path d="M48.2364 128.553C47.2288 129.638 46.1901 130.723 45.1205 131.839C44.2679 136.877 44.6709 148.442 46.2986 153.821C50.6229 146.628 52.1894 142.072 54.3761 134.661C52.0204 132.961 49.9482 130.899 48.2364 128.553Z" fill="#7F62E9"/>
<path d="M31.1695 69.1021C30.4254 68.358 29.5728 67.4434 28.4411 66.2188C19.6653 67.4589 10.0083 70.3888 5.91577 72.3266C12.1579 74.6871 18.8444 75.6399 25.4974 75.117L25.8384 75.427C27.3017 73.073 29.0972 70.9427 31.1695 69.1021Z" fill="#7F62E9"/>
<path d="M44.764 76.0315L41.4188 73.0127C36.7354 75.3956 33.1053 79.4346 31.2339 84.3447L34.6288 87.3986C36.9776 82.8035 40.4675 78.8897 44.764 76.0315Z" fill="#7F62E9"/>
<path d="M88.4334 25.9597C88.4995 25.5842 88.4294 25.1974 88.236 24.8686C88.0434 24.5397 87.7391 24.2903 87.3793 24.1648C87.611 23.9506 87.775 23.6733 87.8517 23.3671C87.9284 23.0608 87.9137 22.739 87.8093 22.4409C87.7057 22.143 87.5164 21.8818 87.2667 21.6896C87.0162 21.4973 86.7152 21.3824 86.4002 21.3589C86.5283 21.0856 86.5789 20.7821 86.5446 20.4821C86.5112 20.1821 86.3945 19.8974 86.2085 19.6596C86.0225 19.4219 85.7744 19.2403 85.4913 19.1353C85.2082 19.0302 84.9014 19.0057 84.6052 19.0646C84.6436 18.7637 84.5963 18.4582 84.469 18.1828C84.3417 17.9075 84.1402 17.6733 83.8864 17.5069C83.6327 17.3406 83.3373 17.2488 83.0346 17.2418C82.7311 17.2349 82.4325 17.3132 82.1714 17.4679C82.1159 17.1589 81.973 16.8723 81.759 16.6427C81.545 16.413 81.2692 16.25 80.9649 16.173C80.6605 16.0961 80.3405 16.1086 80.043 16.2091C79.7456 16.3095 79.4834 16.4936 79.288 16.7393C79.1402 16.4433 78.9093 16.1968 78.6236 16.0299C78.338 15.863 78.0099 15.7829 77.6795 15.7993C77.349 15.8157 77.0305 15.928 76.7628 16.1225C76.4951 16.3169 76.2899 16.5851 76.1721 16.8943C75.9848 16.6968 75.7508 16.5496 75.4916 16.4663C75.2325 16.3831 74.9566 16.3663 74.6892 16.4177C74.4219 16.4691 74.1718 16.5868 73.9621 16.7603C73.7522 16.9337 73.5895 17.1571 73.4886 17.4099C73.5153 17.0223 73.4306 16.6351 73.2447 16.294C73.0588 15.9528 72.7793 15.6719 72.4391 15.4842C72.0989 15.2965 71.7122 15.2099 71.3244 15.2344C70.9367 15.2591 70.564 15.3939 70.2503 15.6231C70.0785 15.2267 69.7898 14.8921 69.4227 14.6641C69.0557 14.4362 68.6277 14.3258 68.1962 14.3477C67.7646 14.3696 67.35 14.5228 67.0079 14.7867C66.6658 15.0507 66.4125 15.4128 66.2818 15.8246C65.9269 15.61 65.5149 15.5093 65.1011 15.536C64.6872 15.5626 64.2915 15.7155 63.9672 15.9738C63.6429 16.2322 63.4055 16.5837 63.287 16.9812C63.1685 17.3785 63.1746 17.8027 63.3045 18.1965C62.8895 18.2434 62.499 18.4172 62.1862 18.6942C61.8735 18.9712 61.6537 19.3377 61.5569 19.7441C61.46 20.1505 61.4907 20.5768 61.6449 20.965C61.7991 21.3533 62.0693 21.6845 62.4185 21.9137C62.0915 22.1785 61.8546 22.5383 61.7408 22.9434C61.6269 23.3485 61.6416 23.7789 61.7828 24.1753C61.924 24.5717 62.1848 24.9145 62.5291 25.1564C62.8734 25.3983 63.2844 25.5273 63.7051 25.5257C63.6207 25.9299 63.6617 26.3502 63.8226 26.7304C63.9835 27.1107 64.2567 27.4328 64.6056 27.6535C64.9544 27.8744 65.3625 27.9834 65.775 27.966C66.1875 27.9487 66.5849 27.8058 66.9141 27.5565C67.0445 27.8909 67.2637 28.1832 67.5481 28.4021C67.8325 28.621 68.1713 28.758 68.5279 28.7983C68.4624 29.0297 68.4492 29.2729 68.4893 29.5101C68.5292 29.7474 68.6215 29.9727 68.7594 30.1699C68.8972 30.3671 69.0771 30.5311 69.2861 30.6503C69.4952 30.7693 69.7281 30.8405 69.968 30.8584C69.8384 31.1325 69.7883 31.4374 69.8232 31.7387C69.8581 32.0398 69.9766 32.3252 70.1655 32.5624C70.3543 32.7997 70.6058 32.9793 70.8914 33.0808C71.1772 33.1824 71.4856 33.202 71.7817 33.1372C71.7462 33.4386 71.7958 33.744 71.925 34.0185C72.0542 34.2932 72.2579 34.526 72.5128 34.6907C72.7677 34.8554 73.0637 34.9452 73.3671 34.9502C73.6706 34.9551 73.9693 34.8748 74.2294 34.7184C74.2848 35.0277 74.4285 35.3144 74.6433 35.5437C74.8581 35.7731 75.1348 35.9353 75.4397 36.0106C75.7447 36.0861 76.0651 36.0715 76.362 35.9688C76.6589 35.866 76.9197 35.6794 77.1128 35.4315C77.3083 35.7119 77.5617 35.9468 77.856 36.1207C78.1502 36.2945 78.4782 36.4032 78.8181 36.4392C79.3374 35.501 79.6889 34.4795 79.8567 33.4203C80.0292 32.342 79.8277 31.237 79.2856 30.2889C76.9758 29.5293 78.0144 26.8164 79.5801 27.8706C80.3242 28.3821 80.6065 28.3495 80.6653 27.8551C80.6696 27.7122 80.7125 27.5733 80.7895 27.4528C80.8665 27.3324 80.9747 27.2352 81.1026 27.1714C81.2404 27.4621 81.4611 27.7056 81.7369 27.8712C82.0123 28.0369 82.3313 28.1173 82.6528 28.1025C82.9743 28.0875 83.2843 27.978 83.5429 27.7874C83.8024 27.597 83.9998 27.3341 84.11 27.0318C84.2601 27.1904 84.4404 27.3173 84.6403 27.4049C84.8402 27.4927 85.0556 27.5392 85.2735 27.5422C85.4921 27.545 85.7083 27.5042 85.9107 27.4218C86.113 27.3394 86.2966 27.2175 86.4508 27.0628C86.8343 27.9664 87.1256 28.9065 87.3189 29.8687C87.5515 29.7376 87.7489 29.5513 87.8925 29.3262C88.0369 29.1011 88.1234 28.8441 88.1446 28.5778C88.1658 28.3114 88.1218 28.0439 88.0157 27.7987C87.9096 27.5534 87.7448 27.338 87.536 27.1714C87.7693 27.053 87.9716 26.8819 88.1275 26.6715C88.2833 26.4613 88.3886 26.2176 88.4334 25.9597Z" fill="#7F62E9"/>
<path d="M122.29 21.5263C122.186 20.8978 121.898 20.3143 121.462 19.8497C121.025 19.385 120.462 19.06 119.841 18.9159C119.221 18.7717 118.571 18.8147 117.976 19.0396C117.379 19.2644 116.863 19.6609 116.492 20.1791C116.122 20.6972 115.913 21.3136 115.893 21.9504C115.872 22.5871 116.041 23.2156 116.378 23.7564C116.715 24.2971 117.204 24.7259 117.785 24.9884C118.366 25.2509 119.011 25.3355 119.639 25.2313C120.481 25.0904 121.233 24.6214 121.73 23.9268C122.227 23.2322 122.429 22.3689 122.29 21.5263Z" fill="#7F62E9"/>
<path d="M26.053 93.7979L18.7825 96.1379L21.7866 113.873L26.053 93.7979Z" fill="#7F62E9"/>
<path d="M127.018 63.1339L122.848 66.9629C124.311 67.2725 125.732 67.7565 127.08 68.4046C127.651 68.6478 128.176 68.9889 128.631 69.4122C129.266 70.1408 125.856 69.1022 124.181 68.9162H124.166C124.505 69.0945 124.813 69.3246 125.081 69.5983C125.63 70.2273 121.424 68.8036 121.05 69.0712C122.662 69.7998 125.158 71.1795 125.763 72.2532C126.476 73.5399 122.817 70.9812 120.445 70.9037C121.949 71.6013 123.592 72.5787 124.181 73.6639C124.988 75.1325 122.073 72.44 118.601 72.3307H118.585C121.903 74.346 123.453 76.0023 118.74 73.9584C117.876 73.5719 116.954 73.3309 116.012 73.2453L106.54 81.9069L134.506 80.8218L138.614 62.7153L127.018 63.1339Z" fill="#7F62E9"/>
<path d="M152.197 62.1417L134.524 80.7907L141.531 49.9415L159.204 31.2925L152.197 62.1417Z" stroke="#9CF2A0" stroke-linejoin="round"/>
<path d="M127.018 63.1339L122.848 66.9629C124.311 67.2725 125.732 67.7565 127.08 68.4046C127.651 68.6478 128.176 68.9889 128.63 69.4122C129.266 70.1408 125.856 69.1022 124.181 68.9162H124.166C124.504 69.0945 124.813 69.3246 125.08 69.5983C125.63 70.2273 121.424 68.8036 121.05 69.0712C122.662 69.7998 125.158 71.1795 125.762 72.2532C126.475 73.5399 122.817 70.9812 120.445 70.9037C121.949 71.6013 123.592 72.5787 124.181 73.6639C124.987 75.1325 122.073 72.44 118.6 72.3307H118.585C121.902 74.346 123.453 76.0023 118.74 73.9584C117.876 73.5719 116.954 73.3309 116.012 73.2453L106.54 81.9069L134.506 80.8218L138.614 62.7153L127.018 63.1339Z" stroke="#9CF2A0" stroke-linejoin="round"/>
<path d="M88.4334 25.9597C88.4995 25.5842 88.4294 25.1974 88.236 24.8686C88.0434 24.5397 87.7391 24.2903 87.3793 24.1648C87.611 23.9506 87.775 23.6733 87.8517 23.3671C87.9284 23.0608 87.9137 22.739 87.8093 22.4409C87.7057 22.143 87.5164 21.8818 87.2667 21.6896C87.0162 21.4973 86.7152 21.3824 86.4002 21.3589C86.5283 21.0856 86.5789 20.7821 86.5446 20.4821C86.5112 20.1821 86.3945 19.8974 86.2085 19.6596C86.0225 19.4219 85.7744 19.2403 85.4913 19.1353C85.2082 19.0302 84.9014 19.0057 84.6052 19.0646C84.6436 18.7637 84.5963 18.4582 84.469 18.1828C84.3417 17.9075 84.1402 17.6733 83.8864 17.5069C83.6327 17.3406 83.3373 17.2488 83.0346 17.2418C82.7311 17.2349 82.4325 17.3132 82.1714 17.4679C82.1159 17.1589 81.973 16.8723 81.759 16.6427C81.545 16.413 81.2692 16.25 80.9649 16.173C80.6605 16.0961 80.3405 16.1086 80.043 16.2091C79.7456 16.3095 79.4834 16.4936 79.288 16.7393C79.1402 16.4433 78.9093 16.1968 78.6236 16.0299C78.338 15.863 78.0099 15.7829 77.6795 15.7993C77.349 15.8157 77.0305 15.928 76.7628 16.1225C76.4951 16.3169 76.2899 16.5851 76.1721 16.8943C75.9848 16.6968 75.7508 16.5496 75.4916 16.4663C75.2325 16.3831 74.9566 16.3663 74.6892 16.4177C74.4219 16.4691 74.1718 16.5868 73.9621 16.7603C73.7522 16.9337 73.5895 17.1571 73.4886 17.4099C73.5153 17.0223 73.4306 16.6351 73.2447 16.294C73.0588 15.9528 72.7793 15.6719 72.4391 15.4842C72.0989 15.2965 71.7122 15.2099 71.3244 15.2344C70.9367 15.2591 70.564 15.3939 70.2503 15.6231C70.0785 15.2267 69.7898 14.8921 69.4227 14.6641C69.0557 14.4362 68.6277 14.3258 68.1962 14.3477C67.7646 14.3696 67.35 14.5228 67.0079 14.7867C66.6658 15.0507 66.4125 15.4128 66.2818 15.8246C65.9269 15.61 65.5149 15.5093 65.1011 15.536C64.6872 15.5626 64.2915 15.7155 63.9672 15.9738C63.6429 16.2322 63.4055 16.5837 63.287 16.9812C63.1685 17.3785 63.1746 17.8027 63.3045 18.1965C62.8895 18.2434 62.499 18.4172 62.1862 18.6942C61.8735 18.9712 61.6537 19.3377 61.5569 19.7441C61.46 20.1505 61.4907 20.5768 61.6449 20.965C61.7991 21.3533 62.0693 21.6845 62.4185 21.9137C62.0915 22.1785 61.8546 22.5383 61.7408 22.9434C61.6269 23.3485 61.6416 23.7789 61.7828 24.1753C61.924 24.5717 62.1848 24.9145 62.5291 25.1564C62.8734 25.3983 63.2844 25.5273 63.7051 25.5257C63.6207 25.9299 63.6617 26.3502 63.8226 26.7304C63.9835 27.1107 64.2567 27.4328 64.6056 27.6535C64.9544 27.8744 65.3625 27.9834 65.775 27.966C66.1875 27.9487 66.5849 27.8058 66.9141 27.5565C67.0445 27.8909 67.2637 28.1832 67.5481 28.4021C67.8325 28.621 68.1713 28.758 68.5279 28.7983C68.4624 29.0297 68.4492 29.2729 68.4893 29.5101C68.5292 29.7474 68.6215 29.9727 68.7594 30.1699C68.8972 30.3671 69.0771 30.5311 69.2861 30.6503C69.4952 30.7693 69.7281 30.8405 69.968 30.8584C69.8384 31.1325 69.7883 31.4374 69.8232 31.7387C69.8581 32.0398 69.9766 32.3252 70.1655 32.5624C70.3543 32.7997 70.6058 32.9793 70.8914 33.0808C71.1772 33.1824 71.4856 33.202 71.7817 33.1372C71.7462 33.4386 71.7958 33.744 71.925 34.0185C72.0542 34.2932 72.2579 34.526 72.5128 34.6907C72.7677 34.8554 73.0637 34.9452 73.3671 34.9502C73.6706 34.9551 73.9693 34.8748 74.2294 34.7184C74.2848 35.0277 74.4285 35.3144 74.6433 35.5437C74.8581 35.7731 75.1348 35.9353 75.4397 36.0106C75.7447 36.0861 76.0651 36.0715 76.362 35.9688C76.6589 35.866 76.9197 35.6794 77.1128 35.4315C77.3083 35.7119 77.5617 35.9468 77.856 36.1207C78.1502 36.2945 78.4782 36.4032 78.8181 36.4392C79.3374 35.501 79.6889 34.4795 79.8567 33.4203C80.0292 32.342 79.8277 31.237 79.2856 30.2889C76.9758 29.5293 78.0144 26.8164 79.5801 27.8706C80.3242 28.3821 80.6065 28.3495 80.6653 27.8551C80.6696 27.7122 80.7125 27.5733 80.7895 27.4528C80.8665 27.3324 80.9747 27.2352 81.1026 27.1714C81.2404 27.4621 81.4611 27.7056 81.7369 27.8712C82.0123 28.0369 82.3313 28.1173 82.6528 28.1025C82.9743 28.0875 83.2843 27.978 83.5429 27.7874C83.8024 27.597 83.9998 27.3341 84.11 27.0318C84.2601 27.1904 84.4404 27.3173 84.6403 27.4049C84.8402 27.4927 85.0556 27.5392 85.2735 27.5422C85.4921 27.545 85.7083 27.5042 85.9107 27.4218C86.113 27.3394 86.2966 27.2175 86.4508 27.0628C86.8343 27.9664 87.1256 28.9065 87.3189 29.8687C87.5515 29.7376 87.7489 29.5513 87.8925 29.3262C88.0369 29.1011 88.1234 28.8441 88.1446 28.5778C88.1658 28.3114 88.1218 28.0439 88.0157 27.7987C87.9096 27.5534 87.7448 27.338 87.536 27.1714C87.7693 27.053 87.9716 26.8819 88.1275 26.6715C88.2833 26.4613 88.3886 26.2176 88.4334 25.9597Z" stroke="#9CF2A0" stroke-linejoin="round"/>
<path d="M87.0227 35.5557L133.296 27.7737" stroke="#9CF2A0" stroke-linecap="round" stroke-linejoin="round"/>
<path d="M11.0935 48.2985L78.5276 36.9819" stroke="#9CF2A0" stroke-linecap="round" stroke-linejoin="round"/>
<path d="M82.3101 42.8416L96.1844 55.3052" stroke="#9CF2A0" stroke-linecap="round" stroke-linejoin="round"/>
<path d="M96.2465 56.6696C96.4325 55.972 96.4334 55.4743 96.1845 55.3054C95.9528 55.1488 95.5318 55.2875 95.0064 55.662C94.219 56.2836 93.5067 56.9956 92.885 57.7833" stroke="#9CF2A0" stroke-linecap="round" stroke-linejoin="round"/>
<path d="M38.2678 75.0396C33.0281 70.8695 32.5941 70.7455 28.4395 66.2034C19.6653 67.4435 10.0083 70.3734 5.91577 72.3112C12.1626 74.6715 18.8531 75.6242 25.5104 75.1016L32.6259 81.5039" stroke="#9CF2A0" stroke-linecap="round" stroke-linejoin="round"/>
<path d="M77.6748 42.8726L92.2933 55.9873" stroke="#9CF2A0" stroke-linecap="round" stroke-linejoin="round"/>
<path d="M85.1933 66.5444L75.7371 58.5298L81.4639 67.441" stroke="#9CF2A0" stroke-linecap="round" stroke-linejoin="round"/>
<path d="M118.941 68.2927C119.513 68.4167 124.742 70.2444 125.84 72.1993C126.574 73.5006 122.863 70.9126 120.461 70.8351" stroke="#9CF2A0" stroke-linecap="round" stroke-linejoin="round"/>
<path d="M118.43 70.0012C119.887 70.5283 123.341 71.9871 124.243 73.6287C125.059 75.1185 122.122 72.3885 118.6 72.28" stroke="#9CF2A0" stroke-linecap="round" stroke-linejoin="round"/>
<path d="M118.027 71.9546C121.716 74.1094 123.75 76.1043 118.74 73.9389C116.152 72.8203 97.2817 72.2492 97.2817 72.2492C95.6255 72.0778 94.0442 71.4731 92.6964 70.4958L85.2244 64.822" stroke="#9CF2A0" stroke-linecap="round" stroke-linejoin="round"/>
<path d="M91.1152 56.344L98.7113 63.0874C98.7113 63.0874 117.748 66.6529 119.205 67.069C120.662 67.4851 124.152 68.3695 125.173 69.5338C125.717 70.1531 122.726 69.0843 120.91 68.9913" stroke="#9CF2A0" stroke-linecap="round" stroke-linejoin="round"/>
<path d="M92.3555 57.3516C92.5415 56.654 92.5423 56.1563 92.2935 55.9874C92.0618 55.8308 91.6408 55.9703 91.1153 56.344C88.9703 57.8705 85.7826 62.6027 85.116 65.1957C84.9528 65.8321 84.9822 66.4056 85.1935 66.5443C85.4383 66.7075 86.1392 66.5133 86.6621 65.9243" stroke="#9CF2A0" stroke-linecap="round" stroke-linejoin="round"/>
<path d="M61.5063 71.5981C65.249 71.7557 68.9306 70.6107 71.9238 68.3582" stroke="#9CF2A0" stroke-linecap="round" stroke-linejoin="round"/>
<path d="M81.3335 67.676L82.9922 64.6841" stroke="#9CF2A0" stroke-linecap="round" stroke-linejoin="round"/>
<path d="M82.062 41.3682C81.0388 42.8564 79.1631 42.2053 76.5742 39.7095" stroke="#9CF2A0" stroke-linecap="round" stroke-linejoin="round"/>
<path d="M65.4568 90.4503L77.5044 77.0393L64.2346 98.6492" stroke="#9CF2A0" stroke-linecap="round" stroke-linejoin="round"/>
<path d="M46.5003 98.1377C47.3753 98.9234 48.3966 99.5296 49.5058 99.9204C50.615 100.311 51.7904 100.48 52.9648 100.417C54.1393 100.354 55.2897 100.059 56.3504 99.5517C57.4111 99.0433 58.3613 98.3311 59.1467 97.4556L65.4536 90.4503L62.9602 107.095L52.6669 118.566C55.2496 123.101 59.2304 126.679 64.0144 128.765L74.9124 116.627C76.5256 114.833 77.6659 112.664 78.2298 110.317C80.6025 100.363 79.7955 82.7857 81.3302 67.6712C75.1604 66.524 72.8816 65.1288 68.1845 61.4238C65.1493 63.6423 58.3749 65.2887 51.567 82.217L41.4156 73.0863C36.7323 75.4692 33.1021 79.5082 31.2307 84.4183L46.5003 98.1377Z" stroke="#9CF2A0" stroke-linecap="round" stroke-linejoin="round"/>
<path d="M82.8158 36.5697C82.4054 36.4167 82.0048 36.2385 81.6165 36.0361L82.4038 37.7495" stroke="#9CF2A0" stroke-linecap="round" stroke-linejoin="round"/>
<path d="M83.4572 48.0659C82.315 44.7697 81.3669 39.7298 82.8119 36.5699C88.6814 38.723 88.1846 31.1131 86.4646 27.0916M68.1836 61.4132C68.8432 59.3402 69.2899 57.2054 69.5168 55.0418C69.9117 51.7131 70.8777 48.4774 72.3724 45.477C73.8329 42.4084 77.1862 39.5789 78.8996 36.3153C79.4131 35.4187 79.7392 34.4272 79.8583 33.4009C80.0312 32.3225 79.8296 31.2175 79.2872 30.2695C76.9774 29.5099 78.0209 26.7905 79.5817 27.8512C80.3283 28.3595 80.6204 28.3317 80.6669 27.8357C80.7089 27.5748 80.7612 27.3266 80.8229 27.0916" stroke="#9CF2A0" stroke-linecap="round" stroke-linejoin="round"/>
<path d="M56.0959 114.756C58.8998 119.124 62.8903 122.603 67.6001 124.786" stroke="#9CF2A0" stroke-linecap="round" stroke-linejoin="round"/>
<path d="M34.6101 87.4103C37.2145 82.6781 40.4699 78.7911 44.7485 76.0938" stroke="#9CF2A0" stroke-linecap="round" stroke-linejoin="round"/>
<path d="M54.5148 121.375C51.2397 125.373 48.3098 128.511 45.1205 131.839C44.2679 136.877 44.6709 148.442 46.2986 153.821C50.6229 146.628 52.1894 142.055 54.3761 134.647L61.0109 127.268" stroke="#9CF2A0" stroke-linecap="round" stroke-linejoin="round"/>
<path d="M25.8513 75.4117C27.3147 73.0619 29.1109 70.9367 31.184 69.1023" stroke="#9CF2A0" stroke-linecap="round" stroke-linejoin="round"/>
<path d="M124.243 68.8542C125.933 69.0247 129.371 70.078 128.739 69.3502C128.28 68.9221 127.75 68.5761 127.173 68.3271C124.987 67.2583 122.895 66.9164 120.569 66.2808L102.538 61.9092L95.0137 55.6545" stroke="#9CF2A0" stroke-linecap="round" stroke-linejoin="round"/>
<path d="M66.5754 70.9934L52.6701 91.4252L39.2297 80.7752" stroke="#9CF2A0" stroke-linecap="round" stroke-linejoin="round"/>
<path d="M104.587 24.4716C104.691 25.1001 104.606 25.7454 104.343 26.3259C104.081 26.9064 103.652 27.396 103.111 27.7328C102.571 28.0696 101.942 28.2385 101.306 28.2181C100.669 28.1977 100.053 27.989 99.5345 27.6182C99.0164 27.2476 98.6199 26.7315 98.3947 26.1354C98.1703 25.5394 98.1271 24.89 98.2715 24.2695C98.4151 23.649 98.7406 23.0851 99.2049 22.6492C99.6699 22.2134 100.253 21.925 100.882 21.8208C101.724 21.6814 102.588 21.8824 103.283 22.3794C103.977 22.8765 104.446 23.629 104.587 24.4716Z" stroke="#9CF2A0" stroke-linecap="round" stroke-linejoin="round"/>
<path d="M113.361 23.0144C113.465 23.6429 113.38 24.2882 113.118 24.8687C112.856 25.4491 112.427 25.9387 111.886 26.2755C111.345 26.6123 110.716 26.7812 110.08 26.7608C109.443 26.7404 108.827 26.5316 108.309 26.161C107.791 25.7903 107.394 25.2742 107.169 24.6782C106.944 24.0821 106.901 23.4328 107.046 22.8122C107.189 22.1917 107.515 21.6278 107.979 21.192C108.444 20.7561 109.027 20.4678 109.656 20.3635C110.499 20.2242 111.362 20.425 112.057 20.9222C112.751 21.4192 113.22 22.1717 113.361 23.0144Z" stroke="#9CF2A0" stroke-linecap="round" stroke-linejoin="round"/>
<path d="M122.29 21.5262C122.394 22.1547 122.309 22.8 122.047 23.3805C121.785 23.9609 121.356 24.4506 120.815 24.7874C120.275 25.1242 119.646 25.293 119.009 25.2727C118.372 25.2523 117.756 25.0435 117.238 24.6728C116.72 24.3021 116.323 23.7861 116.098 23.19C115.874 22.594 115.83 21.9446 115.975 21.324C116.118 20.7035 116.444 20.1397 116.908 19.7038C117.373 19.268 117.957 18.9796 118.585 18.8753C119.428 18.7357 120.292 18.9366 120.986 19.4337C121.681 19.9308 122.15 20.6835 122.29 21.5262Z" stroke="#9CF2A0" stroke-linecap="round" stroke-linejoin="round"/>
<path d="M30.0214 10.1787L24.0996 18.5188" stroke="#9CF2A0" stroke-linecap="round" stroke-linejoin="round"/>
<path d="M31.2306 17.3097L22.906 11.3879" stroke="#9CF2A0" stroke-linecap="round" stroke-linejoin="round"/>
<path d="M6.50478 100.075L6.31875 100.137L12.039 105.207L4.4895 113.5L8.53555 117.112L16.0851 108.803L21.789 113.873L26.0529 93.7979L6.50478 100.075Z" stroke="#9CF2A0" stroke-linecap="round" stroke-linejoin="round"/>
<path d="M106.338 111.516L94.3396 107.796L104.431 100.789" stroke="#9CF2A0" stroke-linecap="round" stroke-linejoin="round"/>
<path d="M116.198 109.935L126.212 102.525L114.291 99.1919" stroke="#9CF2A0" stroke-linecap="round" stroke-linejoin="round"/>
<path d="M112.446 94.7737L108.059 116.136" stroke="#9CF2A0" stroke-linecap="round" stroke-linejoin="round"/>
<path d="M15.3911 74.7524L23.433 124.336C23.7204 126.028 24.3382 127.645 25.2511 129.097C26.1641 130.549 27.3542 131.807 28.7536 132.799C30.1529 133.791 31.7341 134.497 33.4066 134.878C35.0792 135.259 36.8103 135.306 38.5011 135.017L44.9486 133.933" stroke="#9CF2A0" stroke-linecap="round" stroke-linejoin="round"/>
<path d="M140.816 74.2117L145.605 103.734C145.894 105.424 145.847 107.156 145.466 108.828C145.085 110.501 144.379 112.082 143.387 113.481C142.395 114.881 141.137 116.071 139.685 116.984C138.233 117.897 136.616 118.515 134.924 118.802L56.8513 131.931" stroke="#9CF2A0" stroke-linecap="round" stroke-linejoin="round"/>
<path d="M61.8024 22.8281L21.2008 29.6494C19.5098 29.9368 17.892 30.5546 16.4398 31.4675C14.9877 32.3804 13.7297 33.5706 12.7377 34.97C11.7459 36.3694 11.0394 37.9505 10.6588 39.623C10.2783 41.2955 10.2311 43.0267 10.5199 44.7174L14.4969 69.2383" stroke="#9CF2A0" stroke-linecap="round" stroke-linejoin="round"/>
<path d="M84.6199 18.9945L117.624 13.4496C119.314 13.1607 121.046 13.208 122.718 13.5885C124.391 13.9691 125.972 14.6755 127.371 15.6674C128.771 16.6594 129.961 17.9174 130.874 19.3695C131.787 20.8216 132.405 22.4395 132.692 24.1305L138.812 61.8598" stroke="#9CF2A0" stroke-linecap="round" stroke-linejoin="round"/>
<path d="M48.2363 128.553C49.9438 130.898 52.0164 132.955 54.3752 134.645" stroke="#9CF2A0" stroke-linecap="round" stroke-linejoin="round"/>
</svg>
