<svg width="144" height="144" viewBox="0 0 144 144" fill="none" xmlns="http://www.w3.org/2000/svg">
<path d="M92.8145 25.402C92.8145 25.402 76.474 46.1 50.3292 33.7538C24.1844 21.4076 -1.96049 54.815 20.5531 75.1498C43.0668 95.4846 21.0355 106.659 36.3304 119.121C53.714 133.286 68.8485 104.563 82.6471 111.099C113.101 125.525 135.663 119.814 130.579 103.11C121.656 73.7892 110.244 71.8817 118.959 56.6305C127.674 41.3794 108.44 9.66845 92.8145 25.402Z" fill="#0E2030"/>
<path d="M83.9182 82.6475L82.6273 89.5782L76.4785 122.525L65.4023 120.457L72.5042 82.3976L72.8419 80.584L83.9182 82.6475Z" fill="#5190D0"/>
<path d="M111.196 66.0728L107.377 86.5485C107.366 86.6086 107.343 86.6658 107.31 86.7169C107.276 86.7681 107.233 86.8122 107.183 86.8467C107.133 86.8812 107.076 86.9055 107.016 86.9181C106.956 86.9307 106.895 86.9314 106.835 86.9201L53.1772 76.9125L59.4927 43.051L100.238 50.6506C107.623 52.0276 112.528 58.931 111.196 66.0728Z" fill="#5190D0"/>
<path d="M70.9534 59.2014L67.164 79.5183L38.9989 74.2652L42.7882 53.9483C44.1834 46.468 51.6196 41.5797 59.397 43.0303C67.1745 44.4808 72.3486 51.7209 70.9534 59.2014Z" fill="#699CFF"/>
<path d="M84.0654 68.6988C81.9898 68.3117 80.6204 66.2945 81.0113 64.1997C81.4021 62.1049 83.4064 60.7165 85.4819 61.1039C86.1435 61.2282 86.7604 61.5255 87.2699 61.9656C87.7793 62.4056 88.1631 62.9728 88.3822 63.6093L114.6 68.4992L113.892 72.2967L87.674 67.4069C87.2402 67.9217 86.6777 68.3125 86.0439 68.5394C85.41 68.7663 84.7274 68.8213 84.0654 68.6988V68.6988Z" fill="#0452A2"/>
<path d="M70.019 59.5748L66.327 79.3695L39.7944 74.4209L43.4867 54.6262C44.8459 47.3381 51.8876 42.5375 59.2143 43.904C66.541 45.2705 71.3782 52.2867 70.019 59.5748Z" fill="#0452A2"/>
<path d="M84.8089 66.7806C85.8757 66.7806 86.7405 65.9158 86.7405 64.849C86.7405 63.7823 85.8757 62.9175 84.8089 62.9175C83.7422 62.9175 82.8774 63.7823 82.8774 64.849C82.8774 65.9158 83.7422 66.7806 84.8089 66.7806Z" fill="#08090D"/>
<path d="M114.903 68.4856L112.587 80.9026C112.577 80.9561 112.546 81.0034 112.501 81.0342C112.457 81.0649 112.401 81.0766 112.348 81.0666L106.26 79.9312C106.249 79.9292 106.24 79.9231 106.234 79.9143C106.228 79.9054 106.226 79.8945 106.228 79.8839L108.574 67.3051C108.576 67.2946 108.582 67.2852 108.591 67.2791C108.599 67.2731 108.61 67.2708 108.621 67.2727L114.871 68.4384C114.881 68.4403 114.89 68.4464 114.897 68.4553C114.903 68.4641 114.905 68.475 114.903 68.4856V68.4856Z" fill="#0452A2"/>
<path d="M48.5747 67.3176C48.831 69.2035 50.9005 71.445 50.9005 71.445C47.7471 71.6685 46.0394 69.8852 45.3046 68.8016C44.3961 69.0642 43.4623 69.2299 42.519 69.296C36.0453 69.7548 30.4724 65.5284 30.0699 59.8511C29.6674 54.1739 34.5885 49.2035 41.0622 48.7448C47.5359 48.286 53.1084 52.5122 53.5108 58.1895C53.7726 61.8824 51.7799 65.2767 48.5747 67.3176Z" fill="#08090D"/>
<path d="M67.1913 79.5307C66.8981 80.2727 61.5371 102.378 44.1887 99.1426C25.1651 95.9219 38.9253 74.2588 38.9253 74.2588L67.1913 79.5307Z" fill="#5190D0"/>
<path d="M41.7902 60.9679C42.6791 60.9679 43.3998 60.2473 43.3998 59.3584C43.3998 58.4694 42.6791 57.7488 41.7902 57.7488C40.9012 57.7488 40.1806 58.4694 40.1806 59.3584C40.1806 60.2473 40.9012 60.9679 41.7902 60.9679Z" fill="#0565C7"/>
<path d="M34.5844 60.2662C35.4788 60.2662 36.2037 59.5412 36.2037 58.6469C36.2037 57.7526 35.4788 57.0276 34.5844 57.0276C33.6901 57.0276 32.9651 57.7526 32.9651 58.6469C32.9651 59.5412 33.6901 60.2662 34.5844 60.2662Z" fill="#0565C7"/>
<path d="M48.927 61.6538C49.8213 61.6538 50.5463 60.9289 50.5463 60.0346C50.5463 59.1403 49.8213 58.4153 48.927 58.4153C48.0327 58.4153 47.3077 59.1403 47.3077 60.0346C47.3077 60.9289 48.0327 61.6538 48.927 61.6538Z" fill="#0565C7"/>
<path d="M83.9183 82.6475L82.6274 89.5782L72.5043 82.3976L72.842 80.584L83.9183 82.6475Z" fill="#0565C7"/>
</svg>
