<svg width="128" height="128" viewBox="0 0 128 128" fill="none" xmlns="http://www.w3.org/2000/svg">
<path d="M57.4724 120C51.9409 120 46.542 118.89 41.4262 116.704C31.5045 112.462 23.8478 104.655 19.8668 94.7208L19.8652 94.7168C15.8834 84.7784 16.0569 73.9024 20.3535 64.0928C22.7704 58.5744 26.4653 53.604 31.0569 49.6896C30.8035 43.7024 31.9416 37.6376 34.3585 32.1184C40.7764 17.4672 55.3608 8 71.5149 8C77.0424 8 82.438 9.108 87.5508 11.292C87.5539 11.2936 87.5611 11.296 87.5611 11.296C97.4828 15.5376 105.139 23.3448 109.12 33.2792C113.104 43.2192 112.931 54.096 108.634 63.9072C106.217 69.4256 102.521 74.396 97.9304 78.3104C98.1846 84.2976 97.0464 90.3624 94.6288 95.8816C88.2101 110.533 73.6257 120 57.4724 120ZM33.5833 61.984C32.1127 63.8888 30.8771 65.976 29.8996 68.2088C26.741 75.4208 26.5996 83.4352 29.5032 90.7752C32.446 98.2152 38.1429 104.055 45.5454 107.22C49.3514 108.847 53.3651 109.672 57.4756 109.672C69.4809 109.672 80.3169 102.645 85.0827 91.7688L85.0843 91.7656C86.0554 89.5488 86.7467 87.2464 87.1471 84.9C82.1967 86.948 76.8154 88.024 71.475 88.024C65.9451 88.024 60.5478 86.9152 55.4335 84.7288C49.4952 82.1896 44.2091 78.244 40.1482 73.3184C37.3836 69.9688 35.1346 66.08 33.5833 61.984ZM42.1519 54.4632C44.2403 63.7264 50.7005 71.4624 59.5504 75.2464C63.3555 76.8736 67.3693 77.6984 71.4782 77.6984C76.8906 77.6984 82.1847 76.2616 86.8354 73.5384C84.7462 64.2752 78.286 56.5392 69.4369 52.7552C65.6318 51.128 61.6188 50.3032 57.5091 50.3032C52.0967 50.3024 46.8026 51.7392 42.1519 54.4632ZM57.5139 39.9752C63.0438 39.9752 68.4411 41.084 73.5562 43.2704C79.4945 45.8088 84.7798 49.7544 88.8415 54.6808C91.6037 58.0312 93.8527 61.9192 95.4048 66.016C96.8754 64.1104 98.111 62.0232 99.0885 59.7912C102.273 52.5208 102.401 44.46 99.4497 37.0952C96.4958 29.724 90.8116 23.9304 83.4435 20.78C79.6375 19.1528 75.6238 18.328 71.5133 18.328C59.5064 18.328 48.6696 25.3568 43.9054 36.2344C42.9343 38.4512 42.243 40.7528 41.8426 43.1C46.793 41.052 52.1735 39.9752 57.5139 39.9752Z" fill="#17B51F"/>
</svg>
