<svg width="128" height="128" viewBox="0 0 128 128" fill="none" xmlns="http://www.w3.org/2000/svg">
<path fill-rule="evenodd" clip-rule="evenodd" d="M56.7315 123.41C51.0355 123.41 45.4858 122.231 40.2195 119.899C30.0161 115.383 22.1532 107.081 18.0663 96.5121C13.9795 85.952 14.1623 74.3955 18.5692 63.9818C21.0652 58.0755 24.9052 52.7543 29.6686 48.5761C29.3852 42.1669 30.5555 35.6663 33.0515 29.7601C39.6435 14.1715 54.7566 4.09606 71.5429 4.09606H72.9143H83.6846C92.5715 4.09606 103.287 4.08691 104.567 4.08691C107.666 4.08691 109.961 6.05263 110.382 6.45491C110.793 6.82063 112.896 8.88691 112.896 12.6446C112.896 14.4549 112.887 28.9372 112.878 38.5281L112.869 46.7932C112.85 52.5623 111.698 58.1943 109.44 63.5338C106.944 69.4401 103.104 74.7612 98.3406 78.9395C98.6241 85.3486 97.4538 91.8492 94.9578 97.7555C88.3475 113.335 73.3532 123.41 56.7315 123.41ZM32.1098 61.0926C30.4823 63.2321 29.1109 65.5909 28.0412 68.1143C24.7132 75.9772 24.5852 84.6995 27.6663 92.6629C30.7475 100.626 36.6721 106.88 44.3429 110.272C48.3018 112.027 52.4709 112.914 56.7406 112.914C69.2298 112.914 80.5121 105.335 85.4675 93.5955C86.5463 91.0538 87.2961 88.3932 87.6983 85.6961C82.5052 87.9818 76.8183 89.1795 71.2046 89.1795C65.5178 89.1795 59.9589 88.0001 54.6926 85.6686C48.5852 82.9623 43.1543 78.7658 38.9761 73.5178C36.0778 69.8698 33.7098 65.5818 32.1098 61.0926ZM40.6401 53.3852C42.7703 63.4881 49.5452 71.9452 58.8161 76.0503C62.7749 77.8058 66.9441 78.6926 71.2138 78.6926C76.9006 78.6926 82.4686 77.1109 87.3509 74.1121C85.2206 64.0092 78.4458 55.5521 69.1749 51.4469C65.2161 49.6915 61.0469 48.8046 56.7772 48.8046C51.0903 48.7955 45.5132 50.3863 40.6401 53.3852ZM57.1429 38.3086C62.7109 38.3543 68.1418 39.5429 73.2892 41.8195C79.3966 44.5258 84.8275 48.7223 89.0058 53.9612C91.9132 57.6092 94.2812 61.8972 95.8812 66.3863C97.5178 64.2469 98.8801 61.8881 99.9498 59.3646C101.861 54.8389 101.861 49.6366 101.861 45.0378C101.861 44.0869 101.861 43.0812 101.861 42.0389V40.8412C101.861 38.4275 101.861 35.6938 101.861 33.1703C101.851 29.8241 101.851 26.4595 101.861 23.5612V22.8023C101.861 21.8515 101.861 20.9738 101.861 20.1875V15.1406C101.861 15.1406 71.9086 15.1406 71.8995 15.1406C71.6252 15.1406 71.4606 15.1406 71.3692 15.1406C71.3326 15.1406 71.2961 15.1406 71.2595 15.1406H71.2229C58.7886 15.1406 47.2503 22.6743 42.5143 33.8835C41.4355 36.4252 40.6858 39.0858 40.2835 41.7829C45.3669 39.5521 50.9166 38.3452 56.4023 38.2995L57.1429 38.3086Z" fill="white"/>
<path fill-rule="evenodd" clip-rule="evenodd" d="M56.7314 123.045C51.0903 123.045 45.5863 121.874 40.3657 119.561C30.2537 115.081 22.4549 106.853 18.4046 96.3749C14.3543 85.9063 14.528 74.4503 18.8983 64.1189C21.4034 58.2035 25.2434 52.8915 30.0343 48.7315C29.7234 42.3132 30.8754 35.8126 33.3806 29.8972C39.9177 14.4458 54.8937 4.45262 71.5337 4.45262H72.9052C78.9029 4.45262 102.619 4.44348 104.549 4.44348C107.511 4.44348 109.687 6.30862 110.117 6.71091C110.537 7.08577 112.512 9.04234 112.512 12.6355C112.512 14.9212 112.494 37.5955 112.485 44.4892V46.7841C112.466 52.5075 111.323 58.0938 109.083 63.3875C106.578 69.3029 102.738 74.6149 97.9474 78.7749C98.2583 85.1932 97.1063 91.6938 94.6012 97.6092C88.0732 113.051 73.2069 123.045 56.7314 123.045ZM32.2377 60.3429C30.4 62.6469 28.8823 65.2069 27.7029 67.9772C24.3383 75.9315 24.2012 84.7452 27.3189 92.8001C30.4366 100.846 36.4252 107.173 44.1874 110.61C48.192 112.384 52.416 113.28 56.7314 113.28C69.3669 113.28 80.7772 105.609 85.7966 93.7326C86.976 90.944 87.7623 88.0458 88.1372 85.0835C82.8252 87.5246 77.0012 88.8138 71.1954 88.8138C65.5543 88.8138 60.0503 87.6435 54.8297 85.3303C48.7772 82.6515 43.392 78.4823 39.2503 73.2892C36.2332 69.4766 33.8194 65.0332 32.2377 60.3429ZM40.2286 53.2023C42.3223 63.5429 49.1703 72.1738 58.6606 76.3795C62.6652 78.1532 66.88 79.0492 71.2046 79.0492C77.056 79.0492 82.7612 77.4035 87.7532 74.2766C85.6594 63.9361 78.8114 55.3052 69.3212 51.0995C65.3166 49.3258 61.1017 48.4298 56.7772 48.4298C50.9257 48.4298 45.2206 50.0846 40.2286 53.2023ZM56.7772 38.6743C62.4183 38.6743 67.9223 39.8446 73.1429 42.1578C79.1954 44.8366 84.5806 48.9966 88.7223 54.1989C91.7577 58.0115 94.1714 62.4549 95.7532 67.1543C97.5909 64.8503 99.1086 62.2903 100.288 59.5201C102.226 54.9303 102.226 49.6823 102.226 45.056C102.226 43.9589 102.226 42.7795 102.226 41.5635V41.4172C102.226 38.8298 102.226 35.9041 102.226 33.1795C102.217 29.7875 102.217 26.3406 102.226 23.5703V23.3326C102.226 22.1806 102.226 21.1292 102.226 20.1966V14.7841H71.9177C71.6069 14.7841 71.4332 14.7841 71.3326 14.7841C71.3052 14.7841 71.2686 14.7841 71.2412 14.7841H71.2229C58.6423 14.7841 46.976 22.4092 42.176 33.7463C40.9966 36.5349 40.2103 39.4332 39.8354 42.3955C45.1474 39.9543 50.9714 38.6743 56.7772 38.6743Z" fill="white"/>
<path fill-rule="evenodd" clip-rule="evenodd" d="M54.8857 65.4869C57.6498 65.4869 59.8857 63.2451 59.8857 60.4869C59.8857 57.7287 57.6498 55.4869 54.8857 55.4869C52.1217 55.4869 49.8857 57.7287 49.8857 60.4869C49.8857 63.2451 52.1217 65.4869 54.8857 65.4869Z" fill="white"/>
<path fill-rule="evenodd" clip-rule="evenodd" d="M77.0518 65.6332C77.0518 69.4965 73.9236 72.6332 70.0518 72.6332C66.1917 72.6332 63.0518 69.4965 63.0518 65.6332C63.0518 61.7699 66.1799 58.6332 70.0518 58.6332C73.9118 58.6447 77.0518 61.7699 77.0518 65.6332Z" fill="white"/>
</svg>
