<svg width="164" height="164" viewBox="0 0 164 164" fill="none" xmlns="http://www.w3.org/2000/svg">
<path d="M59.0569 130.575L46.1592 136.513C46.5002 136.342 60.3281 127.631 60.3281 127.631C60.3281 124.42 58.1382 119.809 54.5303 119.182L56.3441 116.702C54.3825 113.927 51.4789 111.96 48.1745 111.167L40.4544 120.934C39.4535 117.519 37.4366 114.491 34.6721 112.252C32.8018 111.764 30.9923 111.067 29.2774 110.175C28.5431 113.098 27.666 115.289 27.4824 117.616C27.1561 121.665 27.227 130.344 28.5986 133.771C28.2885 135.027 24.7851 150.002 37.3107 150.017H59.429C61.0135 143.64 60.5598 136.943 59.0569 130.575Z" fill="#151C1C"/>
<path d="M101.765 53.6546H66.1411V34.9272H101.765V53.6546Z" fill="#151C1C"/>
<path d="M94.4483 70.7834H73.3516C72.7801 70.7834 72.232 71.0105 71.8279 71.4146C71.4238 71.8187 71.1968 72.3668 71.1968 72.9382C71.1968 73.5098 71.4238 74.0578 71.8279 74.4619C72.232 74.8661 72.7801 75.093 73.3516 75.093H94.4499C95.0211 75.093 95.5693 74.8661 95.9732 74.4619C96.3779 74.0578 96.6047 73.5098 96.6047 72.9382C96.6047 72.3668 96.3779 71.8187 95.9732 71.4146C95.5693 71.0105 95.0211 70.7834 94.4499 70.7834H94.4483Z" fill="#151C1C"/>
<path d="M37.5399 82.7848H24.8281C24.2567 82.7848 23.7086 82.5579 23.3044 82.1533C22.9003 81.7495 22.6733 81.2014 22.6733 80.6299C22.6733 80.0584 22.9003 79.5103 23.3044 79.1063C23.7086 78.7022 24.2567 78.4751 24.8281 78.4751H37.5399C38.1113 78.4751 38.6594 78.7022 39.0635 79.1063C39.4677 79.5103 39.6946 80.0584 39.6946 80.6299C39.6946 81.2014 39.4677 81.7495 39.0635 82.1533C38.6594 82.5579 38.1113 82.7848 37.5399 82.7848Z" fill="#151C1C"/>
<path d="M134.846 69.3273H122.491C122.205 69.3218 121.92 69.3733 121.654 69.4791C121.387 69.5849 121.145 69.7427 120.94 69.9433C120.736 70.1439 120.574 70.3832 120.463 70.6474C120.352 70.9116 120.295 71.1952 120.295 71.4817C120.295 71.7682 120.352 72.0518 120.463 72.316C120.574 72.5801 120.736 72.8195 120.94 73.0202C121.145 73.2207 121.387 73.3786 121.654 73.4843C121.92 73.5901 122.205 73.6417 122.491 73.6361H134.846C135.133 73.6417 135.418 73.5901 135.684 73.4843C135.95 73.3786 136.193 73.2207 136.398 73.0202C136.601 72.8195 136.764 72.5801 136.875 72.316C136.986 72.0518 137.043 71.7682 137.043 71.4817C137.043 71.1952 136.986 70.9116 136.875 70.6474C136.764 70.3832 136.601 70.1439 136.398 69.9433C136.193 69.7427 135.95 69.5849 135.684 69.4791C135.418 69.3733 135.133 69.3218 134.846 69.3273Z" fill="#151C1C"/>
<path d="M30.8271 106.95L33.0129 108.686C33.0129 108.314 33.0439 107.942 33.0594 107.54C32.2891 107.462 31.5358 107.263 30.8271 106.95Z" fill="#7F62E9"/>
<path d="M20.7975 101.092C20.5185 102.052 19.1657 107.556 23.7119 110.439C23.2779 110.625 21.1231 112.145 20.9379 112.284C18.9908 113.724 17.293 115.472 15.9119 117.46C13.075 121.723 12.734 128.11 17.0901 131.506C19.9735 133.738 25.2132 133.924 27.957 131.261C27.3116 126.749 27.1557 122.181 27.492 117.636C27.678 115.248 28.5461 113.202 29.0732 111C30.2669 106.066 29.4771 104.778 28.3756 102.025C26.2828 101.514 27.0269 99.0341 28.4686 99.8704C28.6708 100.003 28.8974 100.092 29.1352 100.135C29.9258 96.1042 31.4605 95.8105 32.8557 97.111C30.8616 94.4928 22.7247 94.5075 20.7975 101.092Z" fill="#7F62E9"/>
<path d="M58.5141 128.746C47.6936 135.633 46.8239 136.165 46.1279 136.513L59.0257 130.575L58.5141 128.746Z" fill="#7F62E9"/>
<path d="M104.323 148.697C101.579 146.372 97.5508 143.55 93.9518 142.496C90.6899 143.435 87.2305 143.435 83.9685 142.496C83.3305 144.314 82.9241 146.206 82.7593 148.126C82.7397 148.355 82.7691 148.585 82.8434 148.803C82.9184 149.02 83.0375 149.22 83.1934 149.389C83.3492 149.558 83.5385 149.693 83.7498 149.784C83.9603 149.875 84.188 149.922 84.4181 149.921C90.6654 149.937 96.0911 150.003 103.842 150.015C103.996 150.016 104.146 149.969 104.272 149.882C104.398 149.794 104.494 149.67 104.546 149.525C104.599 149.381 104.606 149.224 104.566 149.076C104.526 148.927 104.441 148.795 104.323 148.697Z" fill="#7F62E9"/>
<path d="M123.034 129.986C123.022 129.838 122.965 129.697 122.87 129.584C122.774 129.47 122.646 129.388 122.502 129.351C122.359 129.313 122.207 129.321 122.068 129.374C121.93 129.427 121.811 129.522 121.728 129.645C119.403 132.39 116.581 138.901 115.527 142.496C116.425 145.939 116.488 146.79 115.543 150.016H122.968C123.61 150.077 124.182 136.389 123.034 129.986Z" fill="#7F62E9"/>
<path d="M41.7407 38.4153C41.7407 38.8292 41.618 39.2338 41.388 39.5779C41.1581 39.9221 40.8313 40.1904 40.4489 40.3487C40.0664 40.5072 39.6457 40.5486 39.2397 40.4679C38.8337 40.3871 38.4608 40.1878 38.1682 39.8951C37.8755 39.6024 37.6762 39.2296 37.5954 38.8236C37.5146 38.4176 37.5561 37.9968 37.7144 37.6144C37.8729 37.232 38.1412 36.9051 38.4853 36.6752C38.8295 36.4452 39.2341 36.3225 39.648 36.3225C40.2029 36.3228 40.7352 36.5433 41.1275 36.9357C41.52 37.3281 41.7405 37.8603 41.7407 38.4153Z" fill="#7F62E9"/>
<path d="M66.5132 137.754L60.793 141.614C61.9674 140.35 63.0555 139.009 64.05 137.599C64.0329 137.613 64.9785 137.644 66.5132 137.754Z" fill="#7F62E9"/>
<path d="M34.9976 106.718C37.2972 108.368 40.0577 109.253 42.8881 109.247H52.5158" stroke="#9CF2A0" stroke-linecap="round" stroke-linejoin="round"/>
<path d="M59.9248 109.244H56.8398" stroke="#9CF2A0" stroke-linecap="round" stroke-linejoin="round"/>
<path d="M60.4985 109.245H125.018C126.798 109.246 128.56 108.896 130.204 108.216C131.848 107.534 133.342 106.536 134.6 105.278C135.858 104.02 136.856 102.526 137.537 100.882C138.218 99.2382 138.568 97.4759 138.567 95.6964V91.8511" stroke="#9CF2A0" stroke-linecap="round" stroke-linejoin="round"/>
<path d="M138.567 65.8077V43.0041C138.568 41.2247 138.218 39.4627 137.537 37.8186C136.856 36.1747 135.858 34.6808 134.6 33.4227C133.341 32.1645 131.848 31.1666 130.204 30.486C128.56 29.8054 126.798 29.4554 125.018 29.4561H42.8882C41.1088 29.4554 39.3468 29.8054 37.7027 30.486C36.0586 31.1666 34.5648 32.1645 33.3066 33.4227C32.0483 34.6808 31.0503 36.1747 30.3696 37.8186C29.6889 39.4627 29.3388 41.2247 29.3394 43.0041V65.8077" stroke="#9CF2A0" stroke-linecap="round" stroke-linejoin="round"/>
<path d="M29.3394 95.5561V91.8511" stroke="#9CF2A0" stroke-linecap="round" stroke-linejoin="round"/>
<path d="M28.5951 133.769C28.3015 132.943 28.083 132.092 27.9424 131.226" stroke="#9CF2A0" stroke-linecap="round" stroke-linejoin="round"/>
<path d="M30.2717 112.066C31.4332 112.424 32.5678 112.865 33.6667 113.384C34.8792 114.003 35.8751 114.976 36.5223 116.174C38.5452 119.915 40.7544 123.552 43.1417 127.072L54.5048 119.166C56.6596 119.539 58.2628 121.279 59.1709 123.182C59.8663 124.56 60.2525 126.072 60.3026 127.615C59.4565 128.16 48.747 134.964 47.1723 135.924C41.8502 139.17 37.7029 138.054 34.6776 132.592C34.197 131.723 29.6704 124.422 29.6704 124.422" stroke="#9CF2A0" stroke-linecap="round" stroke-linejoin="round"/>
<path d="M33.0129 108.686L30.8271 106.95C31.541 107.263 32.2994 107.462 33.075 107.539" stroke="#9CF2A0" stroke-linecap="round" stroke-linejoin="round"/>
<path d="M41.4926 124.577C40.9903 122.45 40.3057 120.37 39.4463 118.36C37.3658 113.866 34.3535 112.228 33.5865 111.245C33.09 110.49 32.8869 109.581 33.0154 108.686L33.0774 107.539C33.4428 107.57 33.8104 107.511 34.1481 107.369C34.4858 107.225 34.7834 107.001 35.0151 106.718C36.6682 104.617 34.9376 99.0595 32.8604 97.1062" stroke="#9CF2A0" stroke-linecap="round" stroke-linejoin="round"/>
<path d="M32.8582 97.1063C31.463 95.8009 29.9283 96.0995 29.1377 100.13C28.8998 100.088 28.6731 99.9979 28.4711 99.8657C27.0286 99.0302 26.2853 101.509 28.3781 102.02C28.8361 102.917 29.1848 103.865 29.4167 104.845C29.8384 106.891 29.7209 109.012 29.0757 110.999C28.5461 113.202 27.6886 115.247 27.4945 117.634C27.161 122.18 27.3169 126.748 27.9595 131.26C25.2156 133.926 19.9727 133.745 17.0925 131.505C12.7299 128.118 13.0718 121.72 15.9119 117.461C17.2863 115.467 18.9839 113.718 20.9346 112.284C21.1198 112.143 23.2754 110.624 23.7087 110.438C19.1666 107.555 20.5144 102.051 20.7943 101.091C22.0916 96.6404 26.1882 95.2273 29.3359 95.5251C30.6725 95.5675 31.9384 96.1354 32.8582 97.1063Z" stroke="#9CF2A0" stroke-linecap="round" stroke-linejoin="round"/>
<path d="M60.4316 141.956C62.398 140.212 66.2841 134.466 67.707 132.247C70.5986 136.141 76.8369 138.712 83.9377 142.493" stroke="#9CF2A0" stroke-linecap="round" stroke-linejoin="round"/>
<path d="M93.9517 142.512C88.5856 140.136 76.3797 125.908 73.3494 122.515C71.9485 120.949 70.047 119.919 67.9702 119.6" stroke="#9CF2A0" stroke-linecap="round" stroke-linejoin="round"/>
<path d="M59.0118 130.582L46.1279 136.513" stroke="#9CF2A0" stroke-linecap="round" stroke-linejoin="round"/>
<path d="M58.5298 128.746C60.4879 135.746 61.1831 142.964 59.4273 150.016H37.3074C24.2236 150.016 28.6107 133.691 28.6107 133.691C30.8161 133.874 33.0344 133.827 35.2301 133.552" stroke="#9CF2A0" stroke-linecap="round" stroke-linejoin="round"/>
<path d="M93.9519 142.496C97.5484 143.55 101.566 146.387 104.323 148.697C104.441 148.795 104.526 148.927 104.567 149.076C104.607 149.224 104.6 149.382 104.547 149.526C104.495 149.671 104.399 149.795 104.272 149.883C104.147 149.97 103.996 150.016 103.842 150.016C96.0912 150.008 90.6655 149.934 84.4181 149.922C84.1889 149.923 83.9612 149.875 83.7507 149.783C83.5402 149.692 83.3509 149.557 83.1951 149.388C83.0393 149.219 82.9201 149.02 82.8451 148.803C82.77 148.586 82.7406 148.356 82.7594 148.127C82.9299 146.208 83.3362 144.317 83.9686 142.497C87.2305 143.435 90.69 143.435 93.9519 142.496Z" stroke="#9CF2A0" stroke-linecap="round" stroke-linejoin="round"/>
<path d="M115.533 142.496C116.587 138.9 119.424 132.402 121.734 129.645C121.816 129.522 121.936 129.428 122.074 129.376C122.213 129.323 122.365 129.315 122.508 129.352C122.651 129.39 122.779 129.471 122.875 129.585C122.97 129.698 123.027 129.839 123.039 129.986C124.195 136.388 123.611 150.078 122.977 150.016H115.553C116.492 146.791 116.431 145.938 115.533 142.496Z" stroke="#9CF2A0" stroke-linecap="round" stroke-linejoin="round"/>
<path d="M115.533 142.496C106.309 143.039 97.3493 141.768 91.1484 140.701" stroke="#9CF2A0" stroke-linecap="round" stroke-linejoin="round"/>
<path d="M64.0947 118.158C66.3115 117.601 68.1473 118.56 68.0168 119.414C67.9889 119.587 67.9233 119.752 67.8246 119.896C67.7259 120.041 67.5965 120.162 67.4456 120.251" stroke="#9CF2A0" stroke-linecap="round" stroke-linejoin="round"/>
<path d="M63.8623 116.809C66.1876 116.22 68.5439 117.352 67.5518 118.592" stroke="#9CF2A0" stroke-linecap="round" stroke-linejoin="round"/>
<path d="M60.0952 125.878C61.5533 123.904 63.5495 122.392 65.8449 121.522" stroke="#9CF2A0" stroke-linecap="round" stroke-linejoin="round"/>
<path d="M64.0328 119.755C66.1876 119.29 67.6293 120.096 67.5518 120.948C67.4588 121.972 65.4305 123.569 63.6763 122.607" stroke="#9CF2A0" stroke-linecap="round" stroke-linejoin="round"/>
<path d="M55.9253 119.6C56.9174 118.577 62.3007 114 62.6687 114.36C63.0767 114.759 62.1571 116.051 62.1571 116.051" stroke="#9CF2A0" stroke-linecap="round" stroke-linejoin="round"/>
<path d="M55.9253 119.6C57.6405 118.194 59.5654 117.065 61.6301 116.255C64.1777 115.259 66.6718 114.132 69.1021 112.876C69.8364 112.444 68.823 114.721 64.9785 116.642" stroke="#9CF2A0" stroke-linecap="round" stroke-linejoin="round"/>
<path d="M101.765 45.9185H138.567" stroke="#9CF2A0" stroke-linecap="round" stroke-linejoin="round"/>
<path d="M29.3394 45.9185H66.1413" stroke="#9CF2A0" stroke-linecap="round" stroke-linejoin="round"/>
<path d="M41.7407 38.4153C41.7407 38.8292 41.618 39.2338 41.388 39.5779C41.1581 39.9221 40.8313 40.1904 40.4489 40.3487C40.0664 40.5072 39.6457 40.5486 39.2397 40.4679C38.8337 40.3871 38.4608 40.1878 38.1682 39.8951C37.8755 39.6024 37.6762 39.2296 37.5954 38.8236C37.5146 38.4176 37.5561 37.9968 37.7144 37.6144C37.8729 37.232 38.1412 36.9051 38.4853 36.6752C38.8295 36.4452 39.2341 36.3225 39.648 36.3225C40.2029 36.3228 40.7352 36.5433 41.1275 36.9357C41.52 37.3281 41.7405 37.8603 41.7407 38.4153Z" stroke="#9CF2A0" stroke-linecap="round" stroke-linejoin="round"/>
<path d="M48.0811 38.4153C48.0811 38.8292 47.9584 39.2338 47.7284 39.5779C47.4984 39.9221 47.1716 40.1904 46.7892 40.3487C46.4068 40.5072 45.986 40.5486 45.58 40.4679C45.174 40.3871 44.8012 40.1878 44.5085 39.8951C44.2158 39.6024 44.0165 39.2296 43.9357 38.8236C43.855 38.4176 43.8964 37.9968 44.0548 37.6144C44.2132 37.232 44.4815 36.9051 44.8256 36.6752C45.1698 36.4452 45.5744 36.3225 45.9883 36.3225C46.5433 36.3228 47.0755 36.5433 47.4679 36.9357C47.8603 37.3281 48.0808 37.8603 48.0811 38.4153Z" stroke="#9CF2A0" stroke-linecap="round" stroke-linejoin="round"/>
<path d="M54.4527 38.4153C54.4527 38.8292 54.33 39.2338 54.1 39.5779C53.87 39.9221 53.5432 40.1904 53.1608 40.3487C52.7784 40.5072 52.3576 40.5486 51.9516 40.4679C51.5456 40.3871 51.1727 40.1878 50.8801 39.8951C50.5873 39.6024 50.3881 39.2296 50.3073 38.8236C50.2265 38.4176 50.268 37.9968 50.4264 37.6144C50.5848 37.232 50.853 36.9051 51.1972 36.6752C51.5414 36.4452 51.946 36.3225 52.3599 36.3225C52.9149 36.3228 53.4471 36.5433 53.8394 36.9357C54.2319 37.3281 54.4524 37.8603 54.4527 38.4153Z" stroke="#9CF2A0" stroke-linecap="round" stroke-linejoin="round"/>
<path d="M40.4233 120.918L48.1434 111.152C51.4522 111.944 54.3609 113.91 56.3285 116.686L54.4992 119.166" stroke="#9CF2A0" stroke-linecap="round" stroke-linejoin="round"/>
<path d="M56.3592 111.306C57.3668 106.997 58.217 103.555 58.4054 102.501C58.9252 99.6014 58.1607 99.6667 57.0102 102.114C55.4162 105.778 53.0654 109.064 50.1118 111.756" stroke="#9CF2A0" stroke-linecap="round" stroke-linejoin="round"/>
<path d="M58.2196 103.37C59.013 102.618 59.9048 101.976 60.8704 101.463C61.1503 101.34 61.6317 101.511 60.4209 102.932C59.6164 103.878 58.1421 105.787 57.46 106.714" stroke="#9CF2A0" stroke-linecap="round" stroke-linejoin="round"/>
<path d="M56.5763 110.312C57.4968 110.069 58.4027 109.774 59.2892 109.427C60.3882 109.067 61.4252 108.68 59.1342 110.915C57.7331 112.309 56.4522 113.818 55.3052 115.427" stroke="#9CF2A0" stroke-linecap="round" stroke-linejoin="round"/>
<path d="M93.6672 84.2712C93.6297 83.8739 93.4583 83.5002 93.1809 83.213C92.9035 82.9258 92.5363 82.7406 92.1406 82.6892L76.14 80.2244C75.3184 80.1004 74.6714 80.5507 74.6828 81.2483L74.8378 94.1151L64.4049 101.01C63.7848 101.398 64.1414 102.343 65.0095 102.591L81.2247 107.16C81.4378 107.233 81.6648 107.256 81.888 107.226C82.1116 107.196 82.3245 107.116 82.5114 106.99L93.6647 98.3863L93.6672 84.2712Z" stroke="#9CF2A0" stroke-linecap="round" stroke-linejoin="round"/>
<path d="M93.6648 98.393L74.8379 94.1152" stroke="#9CF2A0" stroke-linecap="round" stroke-linejoin="round"/>
<path d="M91.4869 95.9901C91.766 96.053 92.0377 95.9126 92.0377 95.6638V85.0302C92.0287 84.9012 91.9748 84.7789 91.8859 84.6859C91.7962 84.592 91.677 84.5333 91.5481 84.5186L76.9142 82.1933C76.8597 82.177 76.8024 82.1737 76.7465 82.1835C76.6905 82.1925 76.6375 82.2145 76.5912 82.2471C76.545 82.2798 76.5068 82.323 76.4794 82.3728C76.4521 82.4225 76.4364 82.478 76.4336 82.5343L76.5266 92.1774C76.5407 92.299 76.5935 92.4132 76.6773 92.5022C76.761 92.5919 76.8712 92.6515 76.9917 92.6735L91.4869 95.9901Z" stroke="#9CF2A0" stroke-linecap="round" stroke-linejoin="round"/>
<path d="M53.321 91.8511H17.6816V65.8076H53.321V91.8511Z" stroke="#9CF2A0" stroke-linecap="round" stroke-linejoin="round"/>
<path d="M74.8068 91.8511H66.1411V65.8076H101.765V91.8511H93.6883" stroke="#9CF2A0" stroke-linecap="round" stroke-linejoin="round"/>
<path d="M150.209 91.8511H114.585V65.8076H150.209V91.8511Z" stroke="#9CF2A0" stroke-linecap="round" stroke-linejoin="round"/>
<path d="M101.765 53.6546H66.1411V34.9272H101.765V53.6546Z" stroke="#9CF2A0" stroke-linecap="round" stroke-linejoin="round"/>
<path d="M83.9531 53.6548V65.8076" stroke="#9CF2A0" stroke-linecap="round" stroke-linejoin="round"/>
<path d="M93.3936 53.6548V59.7308H132.397V65.8076" stroke="#9CF2A0" stroke-linecap="round" stroke-linejoin="round"/>
<path d="M75.1322 53.6548V59.7308H35.5088V65.8076" stroke="#9CF2A0" stroke-linecap="round" stroke-linejoin="round"/>
<path d="M80.7287 47.7942L73.3652 44.121L80.6357 40.6477" stroke="#9CF2A0" stroke-linecap="round" stroke-linejoin="round"/>
<path d="M87.2703 47.8252L94.5407 44.0892L87.1772 40.6787" stroke="#9CF2A0" stroke-linecap="round" stroke-linejoin="round"/>
<path d="M86.4643 37.6101L81.3486 50.9721" stroke="#9CF2A0" stroke-linecap="round" stroke-linejoin="round"/>
<path d="M45.9266 75.0933C46.213 75.099 46.4977 75.0473 46.7639 74.9416C47.0302 74.8359 47.2727 74.6781 47.4773 74.4774C47.6818 74.2768 47.8443 74.0374 47.9552 73.7733C48.0662 73.5091 48.1233 73.2255 48.1233 72.939C48.1233 72.6525 48.0662 72.3689 47.9552 72.1047C47.8443 71.8406 47.6818 71.6012 47.4773 71.4006C47.2727 71.2 47.0302 71.0422 46.7639 70.9364C46.4977 70.8307 46.213 70.779 45.9266 70.7846H24.8437C24.5572 70.779 24.2726 70.8307 24.0063 70.9364C23.74 71.0422 23.4975 71.2 23.293 71.4006C23.0885 71.6012 22.9259 71.8406 22.815 72.1047C22.7041 72.3689 22.647 72.6525 22.647 72.939C22.647 73.2255 22.7041 73.5091 22.815 73.7733C22.9259 74.0374 23.0885 74.2768 23.293 74.4774C23.4975 74.6781 23.74 74.8359 24.0063 74.9416C24.2726 75.0473 24.5572 75.099 24.8437 75.0933H45.9266Z" stroke="#9CF2A0" stroke-linecap="round" stroke-linejoin="round"/>
<path d="M94.4478 70.7837C95.0189 70.7837 95.5672 71.0107 95.9711 71.4148C96.3758 71.8189 96.6026 72.3669 96.6026 72.9385C96.6026 73.5099 96.3758 74.058 95.9711 74.4621C95.5672 74.8662 95.0189 75.0933 94.4478 75.0933H73.3511C72.7796 75.0933 72.2315 74.8662 71.8274 74.4621C71.4233 74.058 71.1963 73.5099 71.1963 72.9385C71.1963 72.3669 71.4233 71.8189 71.8274 71.4148C72.2315 71.0107 72.7796 70.7837 73.3511 70.7837H94.4478Z" stroke="#9CF2A0" stroke-linecap="round" stroke-linejoin="round"/>
<path d="M37.54 78.4753C38.1133 78.4772 38.6623 78.7068 39.0664 79.1135C39.4705 79.5202 39.6965 80.0707 39.6948 80.644C39.695 80.9263 39.6393 81.206 39.5309 81.4668C39.4226 81.7275 39.2636 81.9642 39.0633 82.1631C38.863 82.3622 38.6252 82.5197 38.3638 82.6266C38.1024 82.7334 37.8224 82.7873 37.54 82.7848H24.8438C24.2723 82.7848 23.7242 82.558 23.3201 82.1542C22.9159 81.7496 22.689 81.2016 22.689 80.6301C22.689 80.0586 22.9159 79.5106 23.3201 79.1064C23.7242 78.7023 24.2723 78.4753 24.8438 78.4753H37.54Z" stroke="#9CF2A0" stroke-linecap="round" stroke-linejoin="round"/>
<path d="M134.846 69.3273C135.133 69.3218 135.418 69.3733 135.684 69.4791C135.95 69.5849 136.193 69.7427 136.398 69.9433C136.601 70.1439 136.764 70.3832 136.875 70.6474C136.986 70.9116 137.043 71.1952 137.043 71.4817C137.043 71.7682 136.986 72.0518 136.875 72.316C136.764 72.5801 136.601 72.8195 136.398 73.0202C136.193 73.2207 135.95 73.3786 135.684 73.4843C135.418 73.5901 135.133 73.6417 134.846 73.6361H122.491C122.205 73.6417 121.92 73.5901 121.654 73.4843C121.387 73.3786 121.145 73.2207 120.94 73.0202C120.736 72.8195 120.574 72.5801 120.463 72.316C120.352 72.0518 120.295 71.7682 120.295 71.4817C120.295 71.1952 120.352 70.9116 120.463 70.6474C120.574 70.3832 120.736 70.1439 120.94 69.9433C121.145 69.7427 121.387 69.5849 121.654 69.4791C121.92 69.3733 122.205 69.3218 122.491 69.3273H134.846Z" stroke="#9CF2A0" stroke-linecap="round" stroke-linejoin="round"/>
<path d="M140.675 77.0156C141.24 77.0266 141.777 77.2585 142.173 77.6615C142.567 78.0645 142.789 78.6064 142.789 79.1708C142.789 79.7353 142.567 80.2772 142.173 80.6802C141.777 81.0831 141.24 81.315 140.675 81.326H122.491C121.927 81.315 121.39 81.0831 120.994 80.6802C120.599 80.2772 120.377 79.7353 120.377 79.1708C120.377 78.6064 120.599 78.0645 120.994 77.6615C121.39 77.2585 121.927 77.0266 122.491 77.0156H140.675Z" stroke="#9CF2A0" stroke-linecap="round" stroke-linejoin="round"/>
<path d="M73.52 56.3513L75.1632 53.6548L76.698 56.4288" stroke="#9CF2A0" stroke-linecap="round" stroke-linejoin="round"/>
<path d="M82.3252 56.3513L83.9684 53.6548L85.4876 56.4288" stroke="#9CF2A0" stroke-linecap="round" stroke-linejoin="round"/>
<path d="M91.8125 56.3513L93.4557 53.6548L94.9749 56.4288" stroke="#9CF2A0" stroke-linecap="round" stroke-linejoin="round"/>
<path d="M147.698 53.8245L142.132 59.3432" stroke="#9CF2A0" stroke-linecap="round" stroke-linejoin="round"/>
<path d="M147.682 59.3587L142.148 53.8098" stroke="#9CF2A0" stroke-linecap="round" stroke-linejoin="round"/>
<path d="M20.627 55.6381L23.0763 59.0951L25.9442 54.0879" stroke="#9CF2A0" stroke-linecap="round" stroke-linejoin="round"/>
<path d="M34.6565 112.253C32.7862 111.763 30.9767 111.066 29.2617 110.175" stroke="#9CF2A0" stroke-linecap="round" stroke-linejoin="round"/>
<path d="M84.2477 15.0226L81.0388 16.0768L82.899 17.751L80.4497 20.4949L81.7674 21.6731L84.2167 18.9292L86.077 20.5879L87.4566 13.9685L84.2477 15.0226Z" stroke="#9CF2A0" stroke-linecap="round" stroke-linejoin="round"/>
<path d="M99.8271 119.6C99.8271 119.823 99.7611 120.042 99.6362 120.229C99.5122 120.415 99.3352 120.559 99.1287 120.645C98.9215 120.731 98.6939 120.754 98.4744 120.71C98.2549 120.666 98.0534 120.559 97.8951 120.4C97.7368 120.242 97.6291 120.041 97.5859 119.821C97.5418 119.602 97.5647 119.374 97.6503 119.167C97.736 118.96 97.8804 118.783 98.0664 118.659C98.2533 118.534 98.4719 118.468 98.6955 118.468C98.9949 118.47 99.2821 118.59 99.4934 118.802C99.7056 119.013 99.8255 119.3 99.8271 119.6Z" stroke="#9CF2A0" stroke-linecap="round" stroke-linejoin="round"/>
<path d="M4.48926 150.015H159.51" stroke="#9CF2A0" stroke-linecap="round" stroke-linejoin="round"/>
<path d="M66.5131 137.754L60.7773 141.629" stroke="#9CF2A0" stroke-linecap="round" stroke-linejoin="round"/>
<path d="M64.0327 137.613C68.4378 137.817 72.8271 138.278 77.1785 138.994" stroke="#9CF2A0" stroke-linecap="round" stroke-linejoin="round"/>
<path d="M67.7066 132.25L66.668 130.746" stroke="#9CF2A0" stroke-linecap="round" stroke-linejoin="round"/>
</svg>
