<svg width="264" height="264" viewBox="0 0 264 264" fill="none" xmlns="http://www.w3.org/2000/svg">
<path d="M209.311 111.913L208.917 109.286C208.845 108.826 208.866 108.356 208.977 107.903C209.088 107.451 209.288 107.025 209.564 106.65C210.122 105.893 210.957 105.387 211.886 105.245L206.546 106.042C205.722 106.17 204.969 106.584 204.419 107.211C203.869 107.838 203.557 108.639 203.537 109.473L193.396 110.786C194.669 111.984 195.842 113.15 196.765 114.18L204.108 113.292C204.36 114.094 204.889 114.78 205.601 115.226C206.314 115.673 207.162 115.85 207.993 115.726L213.299 114.926C212.839 114.994 212.37 114.97 211.919 114.855C211.468 114.74 211.044 114.537 210.673 114.256C210.302 113.976 209.99 113.624 209.756 113.222C209.522 112.819 209.371 112.375 209.311 111.913Z" fill="#151C1C"/>
<path d="M89.9332 85.6607C83.5947 82.7476 74.0122 70.1902 72.2404 73.584C71.321 75.3308 83.1955 97.6389 84.0938 100.883C88.1573 98.2016 92.7886 96.5015 97.6219 95.9171C95.9959 92.7478 96.2454 88.5804 89.9332 85.6607Z" fill="#151C1C"/>
<path d="M66.1265 138.838C64.4839 138.617 62.814 138.719 61.2104 139.137C54.4228 140.733 39.7508 136.667 39.8506 140.485C39.9255 143.004 65.7522 153.262 66.8003 154.308C68.1868 149.915 70.521 145.88 73.6378 142.488C71.321 141.408 69.4455 139.362 66.1265 138.838Z" fill="#151C1C"/>
<path d="M231.171 36.6473C229.145 36.7723 227.201 37.4957 225.586 38.726C223.971 39.9562 222.758 41.638 222.099 43.5584C221.606 44.9937 221.438 46.5205 221.606 48.0288C221.774 49.5371 222.275 50.9893 223.072 52.2808C223.869 53.5722 224.943 54.6708 226.216 55.4972C227.488 56.3237 228.929 56.8575 230.433 57.0602C231.937 57.2638 233.467 57.1313 234.914 56.6721C236.36 56.213 237.687 55.4387 238.798 54.4051C239.909 53.3714 240.777 52.1041 241.339 50.6945C241.902 49.285 242.144 47.7682 242.05 46.2535C241.882 43.5368 240.641 40.9981 238.602 39.1953C237.592 38.3027 236.416 37.6182 235.14 37.181C233.865 36.7438 232.516 36.5624 231.171 36.6473ZM226.405 51.6989C225.961 51.5643 225.572 51.2906 225.296 50.9181C225.02 50.5457 224.87 50.0943 224.87 49.6306C224.87 49.1669 225.019 48.7154 225.295 48.3428C225.571 47.9703 225.96 47.6964 226.404 47.5616C226.847 47.4268 227.323 47.4382 227.759 47.5942C228.196 47.7502 228.571 48.0425 228.829 48.4279C229.087 48.8133 229.214 49.2714 229.191 49.7346C229.169 50.1977 228.998 50.6414 228.704 51.0001C228.34 51.4433 227.816 51.7243 227.245 51.7816C226.961 51.8105 226.676 51.7816 226.405 51.6989ZM233.167 45.7098C232.575 45.5324 232.049 45.1834 231.655 44.7071C231.262 44.2307 231.018 43.6483 230.955 43.0335C230.892 42.4186 231.013 41.7989 231.302 41.2527C231.591 40.7065 232.036 40.2583 232.58 39.9647C233.124 39.6711 233.742 39.5453 234.358 39.6033C234.973 39.6612 235.557 39.9003 236.037 40.2902C236.516 40.6802 236.869 41.2035 237.052 41.7941C237.234 42.3847 237.237 43.016 237.06 43.6083C236.82 44.4014 236.276 45.0673 235.547 45.4609C234.817 45.8545 233.962 45.944 233.167 45.7098ZM234.789 52.8021C234.638 52.7597 234.497 52.6876 234.374 52.59C234.25 52.4924 234.148 52.3713 234.072 52.2338C233.996 52.0962 233.948 51.9449 233.931 51.7887C233.915 51.6325 233.929 51.4745 233.974 51.3239C234.019 51.1733 234.093 51.0331 234.192 50.9115C234.292 50.7898 234.414 50.6892 234.553 50.6154C234.692 50.5417 234.844 50.4963 235 50.4818C235.157 50.4673 235.315 50.4841 235.464 50.5312C235.761 50.6245 236.009 50.8307 236.155 51.1053C236.301 51.3799 236.334 51.7009 236.245 51.999C236.156 52.2972 235.954 52.5485 235.682 52.6987C235.409 52.849 235.089 52.8861 234.789 52.8021Z" fill="#151C1C"/>
<path d="M218.544 181.284C218.767 182.41 218.651 183.576 218.21 184.635C217.77 185.695 217.025 186.6 216.07 187.235C215.115 187.87 213.993 188.209 212.846 188.207C211.699 188.205 210.578 187.864 209.625 187.226C208.832 186.695 208.183 185.977 207.735 185.135C207.287 184.293 207.053 183.354 207.054 182.4C207.055 181.446 207.292 180.507 207.743 179.667C208.193 178.826 208.845 178.11 209.638 177.581C210.432 177.052 211.344 176.727 212.293 176.635C213.243 176.543 214.2 176.686 215.081 177.053C215.961 177.419 216.738 177.997 217.342 178.735C217.946 179.473 218.359 180.348 218.544 181.284Z" fill="#151C1C"/>
<path d="M185.526 68.7928C185.156 56.0909 194.564 58.5863 199.58 75.4307C197.583 66.8962 210.016 56.565 210.904 105.572C210.444 105.779 210.042 106.095 209.731 106.491C206.742 99.3332 201.039 103.664 201.82 109.512C201.924 110.295 201.357 110.709 200.175 109.418C198.936 108.032 197.493 108.8 197.356 110.292L194.082 110.692C189.308 105.924 185.445 100.325 182.682 94.1703C177.117 82.5165 180.261 68.9911 189.669 88.1562C187.085 82.0188 185.68 75.45 185.526 68.7928Z" fill="#7F62E9"/>
<path d="M199.601 114.058C200.109 115.713 200.336 117.442 200.273 119.174C200.036 117.131 199.066 115.693 197.579 114.122L199.601 114.058Z" fill="#7F62E9"/>
<path d="M166.092 77.6727C165.668 76.7533 165.041 75.5056 164.445 74.3577C166.365 74.6046 166.915 75.9009 166.092 77.6727Z" fill="#7F62E9"/>
<path d="M157.682 122.717C155.811 123.516 155.287 127.034 155.985 131.95L167.04 130.104C164.119 125.787 160.253 121.669 157.682 122.717Z" fill="#7F62E9"/>
<path d="M177.819 162.996C177.395 165.442 176.097 166.964 173.702 165.916C175.074 164.965 176.447 163.992 177.819 162.996Z" fill="#7F62E9"/>
<path d="M151.47 86.2846C149.199 86.1598 148.449 84.7624 149.547 82.6912C150.121 83.9231 150.762 85.1236 151.47 86.2846Z" fill="#7F62E9"/>
<path d="M202.448 127.583C202.448 127.865 202.336 128.135 202.137 128.334C201.938 128.533 201.668 128.644 201.387 128.644C201.105 128.644 200.836 128.533 200.637 128.334C200.437 128.135 200.326 127.865 200.326 127.583C200.326 127.302 200.437 127.032 200.637 126.833C200.836 126.634 201.105 126.522 201.387 126.522C201.668 126.522 201.938 126.634 202.137 126.833C202.336 127.032 202.448 127.302 202.448 127.583Z" fill="#7F62E9"/>
<path d="M219.891 121.694C219.87 121.961 219.75 122.21 219.553 122.392C219.356 122.573 219.099 122.674 218.831 122.674C218.563 122.674 218.305 122.573 218.109 122.392C217.912 122.21 217.791 121.961 217.77 121.694C217.787 121.424 217.906 121.17 218.103 120.985C218.3 120.799 218.56 120.696 218.831 120.696C219.101 120.696 219.362 120.799 219.559 120.985C219.756 121.17 219.875 121.424 219.891 121.694Z" fill="#7F62E9"/>
<path d="M226.827 102.78C226.827 102.922 226.799 103.063 226.743 103.195C226.687 103.326 226.605 103.445 226.503 103.544C226.4 103.643 226.279 103.72 226.145 103.771C226.012 103.823 225.87 103.846 225.727 103.841C225.585 103.836 225.445 103.802 225.316 103.742C225.186 103.682 225.07 103.596 224.975 103.49C224.88 103.384 224.807 103.26 224.76 103.125C224.714 102.99 224.695 102.847 224.705 102.705C224.724 102.43 224.85 102.174 225.054 101.989C225.259 101.805 225.527 101.708 225.802 101.717C226.078 101.727 226.338 101.843 226.529 102.041C226.721 102.24 226.828 102.504 226.827 102.78Z" fill="#7F62E9"/>
<path d="M243.245 93.2969C243.229 93.567 243.11 93.8207 242.913 94.0061C242.715 94.1916 242.455 94.2948 242.184 94.2948C241.914 94.2948 241.653 94.1916 241.456 94.0061C241.259 93.8207 241.14 93.567 241.124 93.2969C241.14 93.0268 241.259 92.7732 241.456 92.5878C241.653 92.4023 241.914 92.2991 242.184 92.2991C242.455 92.2991 242.715 92.4023 242.913 92.5878C243.11 92.7732 243.229 93.0268 243.245 93.2969Z" fill="#7F62E9"/>
<path d="M198.132 145.276C198.122 145.551 198.006 145.811 197.808 146.002C197.61 146.193 197.346 146.3 197.071 146.3C196.796 146.299 196.533 146.192 196.335 146.001C196.138 145.81 196.022 145.55 196.011 145.276C196.021 145.001 196.137 144.741 196.335 144.55C196.533 144.359 196.796 144.252 197.071 144.251C197.346 144.253 197.61 144.36 197.807 144.551C198.005 144.742 198.122 145.001 198.132 145.276Z" fill="#7F62E9"/>
<path d="M179.441 138.887C179.431 139.162 179.315 139.422 179.117 139.613C178.919 139.804 178.655 139.911 178.38 139.912C178.105 139.911 177.842 139.804 177.644 139.613C177.447 139.422 177.331 139.162 177.32 138.887C177.33 138.613 177.446 138.353 177.644 138.162C177.842 137.971 178.105 137.864 178.38 137.863C178.655 137.864 178.919 137.971 179.116 138.162C179.314 138.353 179.431 138.613 179.441 138.887Z" fill="#7F62E9"/>
<path d="M184.981 120.442C184.965 120.712 184.846 120.966 184.649 121.151C184.452 121.337 184.191 121.44 183.921 121.44C183.65 121.44 183.39 121.337 183.193 121.151C182.995 120.966 182.877 120.712 182.86 120.442C182.877 120.172 182.995 119.918 183.193 119.733C183.39 119.548 183.65 119.444 183.921 119.444C184.191 119.444 184.452 119.548 184.649 119.733C184.846 119.918 184.965 120.172 184.981 120.442Z" fill="#7F62E9"/>
<path d="M180.115 101.182C180.094 101.449 179.973 101.698 179.777 101.88C179.58 102.062 179.322 102.163 179.055 102.163C178.787 102.163 178.529 102.062 178.332 101.88C178.136 101.698 178.015 101.449 177.994 101.182C178.01 100.912 178.129 100.659 178.326 100.473C178.524 100.288 178.784 100.185 179.055 100.185C179.325 100.185 179.586 100.288 179.783 100.473C179.98 100.659 180.099 100.912 180.115 101.182Z" fill="#7F62E9"/>
<path d="M159.704 93.2969C159.687 93.567 159.568 93.8207 159.371 94.0061C159.174 94.1916 158.914 94.2948 158.643 94.2948C158.372 94.2948 158.112 94.1916 157.915 94.0061C157.718 93.8207 157.599 93.567 157.582 93.2969C157.599 93.0268 157.718 92.7732 157.915 92.5878C158.112 92.4023 158.372 92.2991 158.643 92.2991C158.914 92.2991 159.174 92.4023 159.371 92.5878C159.568 92.7732 159.687 93.0268 159.704 93.2969Z" fill="#7F62E9"/>
<path d="M173.203 122.555H169.36L179.441 132.25L173.203 122.555Z" fill="#7F62E9"/>
<path d="M205.892 120.496C204.951 120.245 204.045 119.876 203.197 119.398L205.742 122.767C205.675 122.007 205.725 121.241 205.892 120.496Z" fill="#7F62E9"/>
<path d="M206.491 126.785C207.397 131.395 206.618 136.177 204.295 140.26L207.788 137.191C208.252 133.668 207.805 130.086 206.491 126.785Z" fill="#7F62E9"/>
<path d="M210.908 105.575C210.009 56.565 197.583 66.8962 199.58 75.4307C194.564 58.5863 185.159 56.0909 185.526 68.7928C185.681 75.4498 187.087 82.0184 189.669 88.1562C180.261 68.9924 177.119 82.5152 182.681 94.1703C185.436 100.311 189.288 105.898 194.046 110.657M200.273 119.173C200.035 117.126 199.06 115.688 197.568 114.112" stroke="#9CF2A0" stroke-linecap="round" stroke-linejoin="round"/>
<path d="M77.8551 166.361C69.6595 166.934 61.4487 165.485 53.9446 162.141C46.4406 158.796 39.8732 153.659 34.82 147.182C29.7668 140.704 26.3826 133.084 24.965 124.991C23.5474 116.899 24.1399 108.582 26.6903 100.773C28.8101 94.2709 32.2375 88.2714 36.7617 83.1432C41.286 78.015 46.8114 73.8664 52.9982 70.9526C59.185 68.0387 65.9025 66.4212 72.7375 66.1995C79.5726 65.9777 86.3808 67.1565 92.7434 69.6632C99.1061 72.1699 104.889 75.9517 109.736 80.7759C114.583 85.6001 118.392 91.3648 120.929 97.7155C123.466 104.066 124.676 110.869 124.487 117.705C124.298 124.541 122.712 131.266 119.827 137.466" stroke="#9CF2A0" stroke-linecap="round" stroke-linejoin="round"/>
<path d="M88.7353 126.186C81.3987 130.603 73.513 135.044 66.1265 138.838" stroke="#9CF2A0" stroke-linecap="round" stroke-linejoin="round"/>
<path d="M111.248 82.4165C127.344 76.3289 138.776 74.5545 141.118 78.5985C144.192 83.9112 130.637 97.8385 108.603 113.31" stroke="#9CF2A0" stroke-linecap="round" stroke-linejoin="round"/>
<path d="M50.032 146.598C27.5479 156.654 10.5801 160.652 7.66044 155.606C5.28975 151.513 12.8011 142.281 26.4998 131.177" stroke="#9CF2A0" stroke-linecap="round" stroke-linejoin="round"/>
<path d="M169.36 122.555L179.441 132.25L149.347 85.4111" stroke="#9CF2A0" stroke-linecap="round" stroke-linejoin="round"/>
<path d="M211.232 114.607C211.282 124.264 203.197 119.398 203.197 119.398" stroke="#9CF2A0" stroke-linecap="round" stroke-linejoin="round"/>
<path d="M203.197 119.398L205.743 122.71" stroke="#9CF2A0" stroke-linecap="round" stroke-linejoin="round"/>
<path d="M209.76 106.423C206.903 99.4618 200.93 103.491 201.813 109.609C201.899 110.212 201.419 110.791 200.179 109.417C198.952 108.051 197.518 108.803 197.365 110.272M197.783 119.523C199.43 121.195 201.401 121.245 199.605 114.058C199.52 113.997 199.437 113.935 199.355 113.871" stroke="#9CF2A0" stroke-linecap="round" stroke-linejoin="round"/>
<path d="M166.24 75.3308C173.304 87.4233 189.863 114.259 201.252 122.542C201.882 123.066 202.624 123.44 203.421 123.634C204.217 123.829 205.047 123.839 205.849 123.665C205.688 122.605 205.705 121.526 205.898 120.471" stroke="#9CF2A0" stroke-linecap="round" stroke-linejoin="round"/>
<path d="M207.589 137.385C208.961 132.993 206.491 126.779 206.491 126.779C206.491 126.779 212.347 145.658 176.897 165.564" stroke="#9CF2A0" stroke-linecap="round" stroke-linejoin="round"/>
<path d="M173.203 122.555H159.161" stroke="#9CF2A0" stroke-linecap="round" stroke-linejoin="round"/>
<path d="M204.295 140.26C204.295 140.26 229.399 119.377 246.816 91.1756C244.625 87.4061 241.141 84.5595 237.01 83.1638C231.503 91.1065 225.539 98.7222 219.148 105.972" stroke="#9CF2A0" stroke-linecap="round" stroke-linejoin="round"/>
<path d="M167.068 163.192C151.398 168.133 134.627 170.762 117.136 172.35C113.638 172.664 110.135 171.808 107.177 169.915C104.219 168.023 101.973 165.202 100.791 161.894C94.7231 144.853 89.0952 128.386 81.5524 102.78C84.3557 100.455 87.5545 98.6543 90.9957 97.4629C94.0276 96.4251 97.1908 95.8206 100.392 95.6675L120.077 137.989L167.04 130.109" stroke="#9CF2A0" stroke-linecap="round" stroke-linejoin="round"/>
<path d="M173.702 165.912C180.763 169.001 177.924 152.94 173.203 141.707C170.538 135.368 162.212 120.099 157.458 122.855C155.769 123.833 155.315 127.261 155.985 131.975" stroke="#9CF2A0" stroke-linecap="round" stroke-linejoin="round"/>
<path d="M96.8442 150.69L75.2598 140.839C70.5454 145.302 67.2918 151.086 65.9268 157.433C81.4997 169.597 98.1459 180.321 115.66 189.473C117.746 190.586 120.056 191.216 122.419 191.315C124.782 191.415 127.136 190.981 129.309 190.047C146.416 182.822 162.683 173.749 177.819 162.991" stroke="#9CF2A0" stroke-linecap="round" stroke-linejoin="round"/>
<path d="M97.6178 95.9171C92.7845 96.5013 88.1532 98.2014 84.0898 100.883C83.1915 97.6389 71.317 75.3322 72.2364 73.584C74.0174 70.1941 83.592 82.7371 89.9292 85.6673C96.248 88.5765 95.9958 92.7478 97.6178 95.9171Z" stroke="#9CF2A0" stroke-linecap="round" stroke-linejoin="round"/>
<path d="M66.1265 138.838C64.4839 138.617 62.814 138.718 61.2104 139.137C54.4228 140.733 39.7508 136.667 39.8506 140.485C39.9255 143.004 65.7522 153.261 66.8003 154.308C68.1868 149.915 70.521 145.88 73.6378 142.488C71.321 141.408 69.4455 139.362 66.1265 138.838Z" stroke="#9CF2A0" stroke-linecap="round" stroke-linejoin="round"/>
<path d="M154.613 61.2565C154.613 61.2565 154.613 58.2869 154.588 53.6703C154.562 48.8291 156.44 47.9018 157.158 53.3958C157.236 53.9947 158.156 60.0087 158.431 61.7805C158.581 62.7537 159.278 65.4409 160.178 65.3267C162.646 65.0049 167.296 59.6055 168.761 61.2092C169.714 62.2599 166.845 66.053 164.718 68.6207C164.119 69.3421 163.747 70.225 163.649 71.1578C163.552 72.0907 163.733 73.0314 164.17 73.8612C164.244 74.0083 165.959 77.4586 166.092 77.67" stroke="#9CF2A0" stroke-linecap="round" stroke-linejoin="round"/>
<path d="M154.985 62.4792C154.985 62.4792 151.792 52.3726 151.591 51.6989C150.007 46.4045 148.315 47.6076 149.095 52.3726C149.839 56.9157 150.671 62.4543 150.671 62.4543" stroke="#9CF2A0" stroke-linecap="round" stroke-linejoin="round"/>
<path d="M151.469 64.0972C149.923 61.0206 148.563 57.8539 147.397 54.6144C145.495 49.4265 144.073 50.7228 144.951 55.4878C145.43 58.4319 146.132 61.3351 147.053 64.172" stroke="#9CF2A0" stroke-linecap="round" stroke-linejoin="round"/>
<path d="M149.533 82.7172C148.456 84.774 149.209 86.1609 151.47 86.2844C156.067 86.534 164.16 81.7965 166.092 77.6724C166.922 75.9033 166.365 74.607 164.445 74.3574" stroke="#9CF2A0" stroke-linecap="round" stroke-linejoin="round"/>
<path d="M148.821 66.7741C147.007 64.3697 145.491 61.7545 144.307 58.9856C142.141 53.8633 140.779 55.27 141.986 60.1335C142.308 61.4311 142.643 62.5528 142.934 63.5024C143.788 66.2211 144.606 68.9674 145.38 71.7124C146.225 74.7333 149.17 82.9171 151.47 86.2912" stroke="#9CF2A0" stroke-linecap="round" stroke-linejoin="round"/>
<path d="M156.609 61.98C151.968 63.4523 149.347 65.823 146.328 69.666" stroke="#9CF2A0" stroke-linecap="round" stroke-linejoin="round"/>
<path d="M157.757 64.1511C156.122 65.8015 154.85 67.7746 154.021 69.9445C153.191 72.1143 152.824 74.4332 152.941 76.7532" stroke="#9CF2A0" stroke-linecap="round" stroke-linejoin="round"/>
<path d="M238.058 83.5895C238.058 83.5895 241.203 77.8001 240.278 73.2596C239.181 67.8747 240.065 67.7631 242.749 72.4611C244.528 75.5752 245.543 83.0405 245.543 83.0405" stroke="#9CF2A0" stroke-linecap="round" stroke-linejoin="round"/>
<path d="M246.068 89.9778C246.068 89.9778 250.857 82.167 252.007 76.9016C253.004 72.3349 251.283 74.3825 250.659 75.8509" stroke="#9CF2A0" stroke-linecap="round" stroke-linejoin="round"/>
<path d="M246.602 73.0823C246.848 71.3897 246.928 69.6773 246.841 67.9692C246.517 63.128 245.365 63.4511 244.595 67.6198C244.247 69.5762 243.781 71.5096 243.198 73.4093" stroke="#9CF2A0" stroke-linecap="round" stroke-linejoin="round"/>
<path d="M245.693 72.0369C247.832 74.3252 249.187 77.2353 249.561 80.3454" stroke="#9CF2A0" stroke-linecap="round" stroke-linejoin="round"/>
<path d="M246.841 70.4895C247.215 69.4387 247.566 68.2659 247.892 66.9709C249.034 62.4278 250.038 63.3524 249.813 67.445C249.635 70.3192 249.121 73.1626 248.283 75.9177" stroke="#9CF2A0" stroke-linecap="round" stroke-linejoin="round"/>
<path d="M249.561 70.4146C250.734 65.4736 251.909 66.2722 251.582 70.739C251.302 73.7345 250.57 76.6702 249.411 79.4469" stroke="#9CF2A0" stroke-linecap="round" stroke-linejoin="round"/>
<path d="M73.2135 190.217L73.8124 193.66" stroke="#9CF2A0" stroke-linecap="round" stroke-linejoin="round"/>
<path d="M71.1423 197.478L67.6736 198.102" stroke="#9CF2A0" stroke-linecap="round" stroke-linejoin="round"/>
<path d="M81.0992 195.731L77.6305 196.33" stroke="#9CF2A0" stroke-linecap="round" stroke-linejoin="round"/>
<path d="M75.5592 203.617L74.9603 200.148" stroke="#9CF2A0" stroke-linecap="round" stroke-linejoin="round"/>
<path d="M77.6253 196.33C76.9832 196.449 76.3205 196.372 75.7223 196.111C75.1242 195.849 74.6182 195.414 74.2695 194.862C74.0375 194.496 73.8804 194.087 73.8072 193.66C73.8859 194.086 73.8791 194.524 73.787 194.948C73.695 195.372 73.5197 195.773 73.2712 196.128C73.0227 196.483 72.7061 196.786 72.3397 197.017C71.9734 197.249 71.5645 197.406 71.1371 197.478C71.5633 197.401 72.0006 197.409 72.4239 197.501C72.8472 197.593 73.2481 197.768 73.6037 198.015C73.9591 198.264 74.2617 198.58 74.4937 198.946C74.7258 199.312 74.8826 199.721 74.9551 200.148C74.8765 199.722 74.8833 199.284 74.9753 198.861C75.0674 198.437 75.2427 198.036 75.4912 197.681C75.7396 197.325 76.0563 197.023 76.4226 196.791C76.789 196.559 77.1978 196.403 77.6253 196.33Z" stroke="#9CF2A0" stroke-linecap="round" stroke-linejoin="round"/>
<path d="M123.072 42.166L123.496 44.5866" stroke="#9CF2A0" stroke-linecap="round" stroke-linejoin="round"/>
<path d="M121.599 47.2817L119.179 47.706" stroke="#9CF2A0" stroke-linecap="round" stroke-linejoin="round"/>
<path d="M128.635 46.0591L126.191 46.4833" stroke="#9CF2A0" stroke-linecap="round" stroke-linejoin="round"/>
<path d="M124.719 51.6238L124.294 49.1782" stroke="#9CF2A0" stroke-linecap="round" stroke-linejoin="round"/>
<path d="M126.191 46.4832C125.889 46.5366 125.58 46.5298 125.281 46.4633C124.982 46.3967 124.699 46.2717 124.449 46.0955C124.198 45.9192 123.985 45.6952 123.822 45.4362C123.658 45.1773 123.547 44.8886 123.496 44.5867C123.55 44.8885 123.543 45.198 123.477 45.4974C123.41 45.7967 123.285 46.08 123.109 46.3309C122.933 46.5817 122.709 46.7952 122.45 46.9591C122.19 47.123 121.901 47.234 121.599 47.2857C121.901 47.2323 122.21 47.2391 122.509 47.3057C122.808 47.3722 123.091 47.4972 123.341 47.6735C123.592 47.8497 123.805 48.0738 123.968 48.3327C124.132 48.5916 124.243 48.8804 124.294 49.1823C124.241 48.8804 124.247 48.5709 124.313 48.2715C124.38 47.9722 124.505 47.6889 124.681 47.4381C124.857 47.1872 125.081 46.9737 125.341 46.8098C125.6 46.6459 125.889 46.5349 126.191 46.4832Z" stroke="#9CF2A0" stroke-linecap="round" stroke-linejoin="round"/>
<path d="M242.973 110.191L244.046 116.229" stroke="#9CF2A0" stroke-linecap="round" stroke-linejoin="round"/>
<path d="M239.355 122.917L233.317 123.99" stroke="#9CF2A0" stroke-linecap="round" stroke-linejoin="round"/>
<path d="M256.773 119.847L250.734 120.92" stroke="#9CF2A0" stroke-linecap="round" stroke-linejoin="round"/>
<path d="M247.116 133.622L246.042 127.583" stroke="#9CF2A0" stroke-linecap="round" stroke-linejoin="round"/>
<path d="M250.731 120.92C249.984 121.051 249.218 121.034 248.478 120.869C247.738 120.704 247.037 120.395 246.416 119.96C245.795 119.524 245.266 118.97 244.859 118.33C244.452 117.69 244.175 116.976 244.044 116.229C244.308 117.738 243.962 119.29 243.082 120.544C242.202 121.798 240.861 122.651 239.352 122.917C240.099 122.785 240.865 122.803 241.605 122.968C242.346 123.132 243.047 123.442 243.668 123.877C244.289 124.313 244.818 124.867 245.225 125.507C245.632 126.147 245.909 126.861 246.04 127.608C245.776 126.099 246.122 124.547 247.001 123.293C247.881 122.039 249.223 121.186 250.731 120.92Z" stroke="#9CF2A0" stroke-linecap="round" stroke-linejoin="round"/>
<path d="M212.854 182.407L166.565 201.421" stroke="#9CF2A0" stroke-linecap="round" stroke-linejoin="round"/>
<path d="M155.636 215.57L212.854 182.407L143.159 236.606" stroke="#9CF2A0" stroke-linecap="round" stroke-linejoin="round"/>
<path d="M218.544 181.284C218.767 182.41 218.651 183.576 218.21 184.635C217.77 185.695 217.025 186.6 216.069 187.235C215.115 187.87 213.993 188.209 212.846 188.207C211.699 188.205 210.578 187.864 209.625 187.226C208.832 186.695 208.183 185.977 207.735 185.135C207.287 184.293 207.053 183.354 207.054 182.4C207.055 181.446 207.292 180.507 207.743 179.667C208.193 178.826 208.845 178.11 209.638 177.581C210.432 177.052 211.344 176.727 212.293 176.635C213.243 176.543 214.2 176.686 215.081 177.053C215.961 177.419 216.738 177.997 217.342 178.735C217.946 179.473 218.359 180.348 218.544 181.284Z" stroke="#9CF2A0" stroke-linecap="round" stroke-linejoin="round"/>
<path d="M214.975 104.826C242.773 77.3009 194.414 54.9166 222.212 27.3943" stroke="#9CF2A0" stroke-linecap="round" stroke-linejoin="round"/>
<path d="M92.9014 96.8652L110.894 145.7" stroke="#9CF2A0" stroke-linecap="round" stroke-linejoin="round"/>
<path d="M110.894 145.7C111.79 148.122 113.499 150.157 115.729 151.459C117.959 152.76 120.572 153.247 123.121 152.836" stroke="#9CF2A0" stroke-linecap="round" stroke-linejoin="round"/>
<path d="M123.146 152.836L174.326 144.502" stroke="#9CF2A0" stroke-linecap="round" stroke-linejoin="round"/>
<path d="M196.76 114.184L204.195 113.285L203.621 109.467L193.391 110.79L196.76 114.184Z" stroke="#9CF2A0" stroke-linecap="round" stroke-linejoin="round"/>
<path d="M211.881 105.275L206.541 106.073C205.848 106.18 205.202 106.49 204.684 106.963C204.167 107.436 203.801 108.052 203.633 108.733C203.521 109.185 203.5 109.656 203.571 110.116L203.965 112.743C204.102 113.672 204.602 114.509 205.355 115.07C206.108 115.631 207.053 115.871 207.983 115.736L213.3 114.926" stroke="#9CF2A0" stroke-linecap="round" stroke-linejoin="round"/>
<path d="M217.296 114.332C217.757 114.262 218.199 114.102 218.597 113.861C218.996 113.62 219.343 113.302 219.618 112.927C220.174 112.169 220.407 111.221 220.266 110.291L219.872 107.664C219.736 106.734 219.236 105.897 218.483 105.335C217.729 104.774 216.784 104.534 215.854 104.669L211.886 105.268C211.193 105.375 210.547 105.685 210.03 106.158C209.512 106.631 209.146 107.247 208.978 107.928C208.867 108.38 208.846 108.85 208.917 109.311L209.311 111.931C209.408 112.622 209.709 113.269 210.174 113.789C210.639 114.309 211.248 114.679 211.924 114.852C212.374 114.967 212.841 114.992 213.299 114.926L217.296 114.332Z" stroke="#9CF2A0" stroke-linecap="round" stroke-linejoin="round"/>
<path d="M231.171 36.6473C229.145 36.7723 227.201 37.4957 225.586 38.726C223.971 39.9562 222.758 41.638 222.099 43.5584C221.606 44.9937 221.438 46.5205 221.606 48.0288C221.774 49.5371 222.275 50.9893 223.072 52.2808C223.869 53.5722 224.943 54.6708 226.216 55.4972C227.488 56.3237 228.929 56.8575 230.433 57.0602C231.937 57.2638 233.467 57.1313 234.914 56.6721C236.36 56.213 237.687 55.4387 238.798 54.4051C239.909 53.3714 240.777 52.1041 241.339 50.6945C241.902 49.285 242.144 47.7682 242.05 46.2535C241.882 43.5368 240.641 40.9981 238.602 39.1953C237.592 38.3027 236.416 37.6182 235.14 37.181C233.865 36.7438 232.516 36.5624 231.171 36.6473ZM226.405 51.6989C225.961 51.5643 225.572 51.2906 225.296 50.9181C225.02 50.5457 224.87 50.0943 224.87 49.6306C224.87 49.1669 225.019 48.7154 225.295 48.3428C225.571 47.9703 225.96 47.6964 226.404 47.5616C226.847 47.4268 227.323 47.4382 227.759 47.5942C228.196 47.7502 228.571 48.0425 228.829 48.4279C229.087 48.8133 229.214 49.2714 229.191 49.7346C229.169 50.1977 228.998 50.6414 228.704 51.0001C228.34 51.4433 227.816 51.7243 227.245 51.7816C226.961 51.8105 226.676 51.7816 226.405 51.6989ZM233.167 45.7098C232.575 45.5324 232.049 45.1834 231.655 44.7071C231.262 44.2307 231.018 43.6483 230.955 43.0335C230.892 42.4186 231.013 41.7989 231.302 41.2527C231.591 40.7065 232.036 40.2583 232.58 39.9647C233.124 39.6711 233.742 39.5453 234.358 39.6033C234.973 39.6612 235.557 39.9003 236.037 40.2902C236.516 40.6802 236.869 41.2035 237.052 41.7941C237.234 42.3847 237.237 43.016 237.06 43.6083C236.82 44.4014 236.276 45.0673 235.547 45.4609C234.817 45.8545 233.962 45.944 233.167 45.7098ZM234.789 52.8021C234.638 52.7597 234.497 52.6876 234.374 52.59C234.25 52.4924 234.148 52.3713 234.072 52.2338C233.996 52.0962 233.948 51.9449 233.931 51.7887C233.915 51.6325 233.929 51.4745 233.974 51.3239C234.019 51.1733 234.093 51.0331 234.192 50.9115C234.292 50.7898 234.414 50.6892 234.553 50.6154C234.692 50.5417 234.844 50.4963 235 50.4818C235.157 50.4673 235.315 50.4841 235.464 50.5312C235.761 50.6245 236.009 50.8307 236.155 51.1053C236.301 51.3799 236.334 51.7009 236.245 51.999C236.156 52.2972 235.954 52.5485 235.682 52.6987C235.409 52.849 235.089 52.8861 234.789 52.8021Z" stroke="#9CF2A0"/>
</svg>
