<svg width="264" height="264" viewBox="0 0 264 264" fill="none" xmlns="http://www.w3.org/2000/svg">
<path d="M153.767 125.209C137.524 119.969 133.63 103.574 133.63 103.574C134.176 102.795 134.708 102.007 135.227 101.21L135.753 92.7518C127.268 90.4061 132.084 80.0749 132.084 80.0749C128.194 74.3883 124.946 68.2874 122.402 61.8843C117.691 62.3432 113.179 64.0103 109.301 66.7242C112.544 77.5505 118.02 90.917 129.659 108.725C124.651 114.977 116.476 124.862 112.538 130.002L81.1481 115.949L73.9927 130.748L109.226 148.789C111.66 149.928 114.414 150.182 117.015 149.508C119.615 148.833 121.9 147.273 123.474 145.096L131.185 134.465C134.279 139.207 136.65 143.1 145.238 146.693C154.374 142.582 158.33 137.603 161.757 130.748C158.792 129.381 156.088 127.506 153.767 125.209Z" fill="#5E6AD2"/>
<path d="M154.191 189.163L152.918 182.201L182.662 176.712L183.934 183.673L154.191 189.163Z" fill="#5E6AD2"/>
<path d="M180.218 183.299L175.551 178.01L200.679 155.852L205.344 161.141L180.218 183.299Z" fill="#5E6AD2"/>
<path fill-rule="evenodd" clip-rule="evenodd" d="M54.0616 10.5133C63.6442 9.34161 73.3649 10.8004 82.1815 14.7332C99.1454 22.2905 109.566 37.0295 112.675 53.1305C112.675 53.1305 112.751 55.3002 112.915 56.9722C111.879 57.5974 109.839 55.8597 108.057 54.3401C106.449 52.9702 105.05 51.779 104.788 52.6629C104.536 53.5127 105.142 54.4229 106.106 55.8676C107.4 57.8062 109.335 60.7062 110.698 65.7142L109.385 66.782C109.783 68.3738 110.724 71.0505 111.831 74.2027L112.286 75.499C110.082 85.029 105.203 94.1046 97.4931 101.527C90.9082 107.896 82.7896 112.456 73.9241 114.766C73.7271 114.818 72.3848 113.946 70.789 112.91C68.6075 111.491 65.9518 109.767 65.0981 109.672C63.744 109.521 66.946 113.652 68.329 115.438C68.4551 115.598 68.5655 115.74 68.6548 115.858C61.6776 116.949 54.5531 116.638 47.6971 114.946C40.8411 113.253 34.3908 110.212 28.7226 106C23.0545 101.788 18.2819 96.4892 14.6834 90.413C11.085 84.3367 8.73264 77.6047 7.76372 70.6096C6.7948 63.6145 7.22868 56.4965 9.04006 49.6709C10.8514 42.8453 14.004 36.4488 18.3139 30.8546C22.6237 25.2604 28.0045 20.5806 34.1424 17.0881C40.2802 13.5957 47.0507 11.3606 54.0616 10.5133ZM55.4617 21.8965C62.958 20.9797 70.5626 22.1206 77.4598 25.1971C104.637 37.304 110.341 72.9733 89.438 93.0933C84.6955 97.6813 78.9297 101.075 72.6167 102.995C66.3036 104.915 59.6244 105.306 53.1306 104.136C46.6367 102.965 40.5144 100.266 35.2692 96.2628C30.024 92.2592 25.8063 87.0654 22.9644 81.1102C20.1224 75.1551 18.7378 68.6093 18.9248 62.0134C19.1117 55.4175 20.8649 48.9607 24.0396 43.176C27.2143 37.3914 31.7194 32.4448 37.183 28.7448C42.6466 25.0448 48.9119 22.6974 55.4617 21.8965Z" fill="#167EFF"/>
<path d="M205.419 170.798L208.463 166.182L203.772 162.488L201.303 164.709L205.419 170.798Z" fill="#167EFF"/>
<path d="M221.54 176.393L217.6 185.456C216.411 188.216 214.363 190.52 211.76 192.023L231.424 207.354L243.003 193.081L221.54 176.393Z" fill="#167EFF"/>
<path d="M200.804 107.318C204.081 107.776 207.407 106.944 210.083 104.999C212.759 103.053 214.576 100.145 215.151 96.8866C211.113 95.5876 206.855 95.1105 202.63 95.4833C198.404 95.8562 194.296 97.0715 190.547 99.0577C191.354 101.231 192.732 103.146 194.538 104.6C196.343 106.054 198.508 106.993 200.804 107.318Z" fill="#167EFF"/>
<path d="M125.62 102.327L107.454 88.2036C104.842 93.7395 101.063 98.644 96.3755 102.58L119.754 121.02L129.686 108.719L125.62 102.327Z" fill="#167EFF"/>
<path d="M140.192 122.189L131.212 134.566C131.844 135.727 132.579 136.829 133.408 137.859L140.192 122.189Z" fill="#167EFF"/>
<path d="M135.602 95.3391L139.169 92.82C138.038 92.8938 136.903 92.8687 135.776 92.7451L135.602 95.3391Z" fill="#167EFF"/>
<path d="M159.33 108.341C159.593 106.329 159.136 104.289 158.041 102.581C156.945 100.873 155.281 99.6074 153.343 99.0075C153.591 98.295 153.667 97.5343 153.567 96.7866C151.92 84.7598 149.425 77.3483 145.307 73.1073C142.512 70.1863 136.799 70.6617 133.405 74.9277C130.035 79.2001 130.882 84.8359 130.86 85.3035C131.202 81.1053 133.161 77.2041 136.325 74.4233C137.21 73.6963 138.252 73.1839 139.368 72.926C139.193 76.7204 142.213 82.7332 145.856 81.2359C148.293 80.2417 148.586 84.6508 143.785 84.6508C142.487 95.0555 142.887 106.979 147.678 116.691L148.452 118.162C150.806 122.451 154.173 126.101 158.259 128.793C160.972 128.934 163.631 127.993 165.65 126.174C167.669 124.356 168.883 121.811 169.026 119.097C169.167 116.384 168.225 113.726 166.407 111.707C164.589 109.688 162.044 108.474 159.33 108.331V108.341Z" fill="#167EFF"/>
<path d="M205.419 170.798L208.463 166.181L203.772 162.488L201.303 164.709L205.419 170.798Z" stroke="#101623" stroke-linejoin="round"/>
<path d="M221.54 176.393L217.6 185.456C216.411 188.216 214.363 190.52 211.76 192.023L231.424 207.354L243.003 193.081L221.54 176.393Z" stroke="#101623"/>
<path d="M125.62 102.327L107.454 88.2036C104.842 93.7395 101.063 98.644 96.3755 102.58L119.754 121.02L129.686 108.719L125.62 102.327Z" stroke="#101623"/>
<path d="M131.709 79.544C127.94 74.0346 124.825 68.106 122.426 61.8774C117.714 62.3346 113.201 64.0043 109.326 66.7239C112.57 77.5529 118.034 90.9036 129.683 108.72" stroke="#101623" stroke-linecap="round" stroke-linejoin="round"/>
<path d="M113.318 59.1827C112.619 55.5424 112.351 51.8323 112.52 48.1292C112.445 46.2157 112.577 44.2997 112.914 42.4146C113.833 37.2437 115.093 37.748 115.509 42.739C116.527 54.9641 119.449 59.008 120.524 62.1523" stroke="#101623" stroke-linecap="round" stroke-linejoin="round"/>
<path d="M112.693 43.9866C111.856 42.222 110.772 40.5857 109.474 39.127C109.08 38.7488 108.161 38.7107 109.299 41.872C109.544 42.5471 110.519 45.4655 110.821 46.5136C111.522 48.6045 112.089 50.7378 112.518 52.9006" stroke="#101623" stroke-linecap="round" stroke-linejoin="round"/>
<path d="M112.869 56.263C112.695 58.7335 108.879 54.9128 107.08 53.4681C105.46 52.1678 103.14 51.3417 106.406 56.0634C108.342 59.0758 109.806 62.3661 110.748 65.8206" stroke="#101623" stroke-linecap="round" stroke-linejoin="round"/>
<path d="M207.191 173.393L201.303 164.709" stroke="#101623" stroke-linecap="round" stroke-linejoin="round"/>
<path d="M135.809 92.6807C135.809 92.6807 135.533 96.1375 135.259 101.203C134.708 101.984 134.167 102.772 133.637 103.567" stroke="#101623" stroke-linecap="round" stroke-linejoin="round"/>
<path d="M139.17 92.895L135.612 95.3091" stroke="#101623" stroke-linecap="round" stroke-linejoin="round"/>
<path d="M176.799 176.887L156.861 154.903" stroke="#101623" stroke-linecap="round" stroke-linejoin="round"/>
<path d="M140.167 122.164L133.405 137.834" stroke="#101623" stroke-linecap="round" stroke-linejoin="round"/>
<path d="M191.57 163.861C183.824 151.41 172.574 141.524 159.232 135.44" stroke="#101623" stroke-linecap="round" stroke-linejoin="round"/>
<path d="M154.994 181.818L145.308 146.668" stroke="#101623" stroke-linecap="round" stroke-linejoin="round"/>
<path d="M183.335 180.554L183.934 183.673L154.191 189.163L152.918 182.201L175.551 178.035" stroke="#101623" stroke-linecap="round" stroke-linejoin="round"/>
<path d="M158.234 128.827C160.907 128.898 163.502 127.923 165.467 126.109C167.432 124.295 168.612 121.786 168.755 119.116C168.897 116.446 167.993 113.825 166.232 111.812C164.472 109.799 161.996 108.553 159.331 108.338C159.593 106.326 159.136 104.286 158.041 102.578C156.945 100.87 155.281 99.6048 153.343 99.0049C154.151 96.6631 151.653 81.9464 147.154 75.3768C142.933 69.2117 136.763 70.6551 133.381 74.925C129.999 79.1948 130.857 84.832 130.835 85.3008" stroke="#101623" stroke-linecap="round" stroke-linejoin="round"/>
<path d="M205.419 170.798L222.413 144.946C225.656 139.731 225.531 138.084 226.978 134.492C233.766 130.798 249.162 126.456 256.773 125.458C251.183 134.192 238.083 139.356 232.918 150.187L217.572 185.42C216.665 187.507 215.266 189.343 213.495 190.771C211.724 192.199 209.633 193.177 207.401 193.621C205.169 194.064 202.863 193.961 200.68 193.319C198.497 192.678 196.501 191.517 194.864 189.937L184.284 179.732" stroke="#101623" stroke-linecap="round" stroke-linejoin="round"/>
<path d="M180.218 183.299L175.551 178.01L200.679 155.852L205.344 161.141L180.218 183.299Z" stroke="#101623" stroke-linecap="round" stroke-linejoin="round"/>
<path d="M68.3004 117.922C71.0205 117.647 66.4984 113.334 65.7551 112.011C64.7503 110.219 63.6851 108.142 68.3753 111.437C72.175 113.836 76.1162 116.002 80.1775 117.924" stroke="#101623" stroke-linecap="round" stroke-linejoin="round"/>
<path d="M158.982 188.265L161.052 195.701C162.403 200.48 165.563 204.544 169.861 207.029C174.154 209.525 213.355 228.339 213.355 228.339C223.811 234.25 228.076 247.653 236.411 253.842C235.937 246.181 232.643 230.51 229.424 223.502C225.989 221.834 224.318 221.828 219.543 218.413L182.088 192.087L179.943 184.401" stroke="#101623" stroke-linecap="round" stroke-linejoin="round"/>
<path d="M140.167 122.164C138.746 124.011 130.223 135.804 123.474 145.121C121.898 147.296 119.613 148.854 117.013 149.527C114.413 150.201 111.66 149.948 109.226 148.812L73.9927 130.773L81.1284 115.977L112.519 130" stroke="#101623" stroke-linecap="round" stroke-linejoin="round"/>
<path d="M153.767 125.208C156.104 127.498 158.807 129.381 161.764 130.779C158.455 138.396 152.791 143.328 145.258 146.718C136.646 143.113 134.288 139.257 131.179 134.494" stroke="#101623" stroke-linecap="round" stroke-linejoin="round"/>
<path d="M199.232 157.099C183.773 136.379 167.392 133.1 161.764 130.779" stroke="#101623" stroke-linecap="round" stroke-linejoin="round"/>
<path d="M133.63 103.574C133.63 103.574 137.523 119.968 153.767 125.209C151.262 122.738 149.195 119.861 147.653 116.699C142.85 107 142.463 95.0647 143.76 84.6599H144.409C148.349 84.4353 148.276 80.2403 145.832 81.2451C142.187 82.7384 139.17 76.7283 139.345 72.9365C138.229 73.1963 137.188 73.7081 136.3 74.4325C134.455 76.0482 133.008 78.0684 132.072 80.3354C131.136 82.6025 130.736 85.0551 130.904 87.5021C131.368 90.674 133.553 93.2089 139.17 92.8989" stroke="#101623" stroke-linecap="round" stroke-linejoin="round"/>
<path d="M133.63 103.574C131.284 107.12 112.994 128.802 110.548 132.77" stroke="#101623" stroke-linecap="round" stroke-linejoin="round"/>
<path d="M58.9949 120.767C57.7971 120.916 55.3279 121.417 54.6029 121.565C51.3102 122.243 51.7344 123.112 52.2585 123.162C54.3783 123.363 57.822 123.338 59.7934 123.586C62.9627 123.987 69.0765 124.56 71.4722 125.982" stroke="#101623" stroke-linecap="round" stroke-linejoin="round"/>
<path d="M59.6184 123.562C59.0931 123.761 58.6202 123.936 58.3956 124.036C55.2514 125.233 55.8266 126.039 56.3494 126.006C58.4718 125.881 61.8656 125.258 63.8607 125.182C66.26 125.137 68.6582 125.321 71.0227 125.731" stroke="#101623" stroke-linecap="round" stroke-linejoin="round"/>
<path d="M150.772 51.8722C150.734 52.5142 150.505 53.1303 150.116 53.6422C149.727 54.1541 149.194 54.5388 148.585 54.7472C148.131 54.9034 147.648 54.9569 147.17 54.9038C146.692 54.8507 146.232 54.6924 145.823 54.4402C145.414 54.188 145.066 53.8482 144.804 53.4453C144.542 53.0424 144.372 52.5865 144.308 52.1102C144.243 51.634 144.285 51.1494 144.43 50.6912C144.575 50.2331 144.82 49.8128 145.147 49.4607C145.474 49.1086 145.875 48.8334 146.322 48.6549C146.768 48.4764 147.248 48.3991 147.728 48.4285C148.587 48.4849 149.389 48.8785 149.959 49.5235C150.529 50.1685 150.822 51.0127 150.772 51.8722Z" stroke="#101623" stroke-linecap="round" stroke-linejoin="round"/>
<path d="M237.035 130.374C237.76 123.342 236.12 116.27 232.372 110.276C228.625 104.282 222.986 99.7093 216.347 97.2815C210.829 95.2652 204.861 94.8182 199.105 95.9904C193.349 97.1626 188.031 99.9079 183.742 103.921C179.452 107.935 176.36 113.059 174.808 118.725C173.257 124.39 173.307 130.375 174.952 136.014" stroke="#101623" stroke-linecap="round" stroke-linejoin="round"/>
<path d="M203.273 158.793C206.844 159.047 210.431 158.683 213.879 157.72" stroke="#101623" stroke-linecap="round" stroke-linejoin="round"/>
<path d="M204.346 81.9898C202.476 81.732 200.572 81.8918 198.771 82.4578C196.97 83.0237 195.317 83.9817 193.931 85.2628C192.544 86.5439 191.459 88.1164 190.752 89.8671C190.046 91.6178 189.737 93.5032 189.846 95.3878C189.995 97.9084 190.887 100.328 192.41 102.342C193.933 104.356 196.018 105.874 198.403 106.703C200.788 107.533 203.365 107.637 205.809 107.003C208.253 106.368 210.454 105.024 212.135 103.139C213.815 101.254 214.898 98.9131 215.247 96.4122C215.71 93.0547 214.823 89.6506 212.779 86.9468C210.735 84.243 207.703 82.4603 204.346 81.9898Z" stroke="#101623" stroke-linecap="round" stroke-linejoin="round"/>
<path d="M110.001 43.9116C106.818 35.7952 101.691 28.585 95.0686 22.915C88.4463 17.245 80.5324 13.289 72.0228 11.3948C63.5131 9.50055 54.6684 9.72617 46.2663 12.0518C37.8643 14.3774 30.1624 18.7318 23.8379 24.732C17.5134 30.7323 12.76 38.1945 9.99571 46.4626C7.23145 54.7307 6.54101 63.5513 7.98511 72.1488C9.4292 80.7463 12.9636 88.8573 18.2775 95.7686C23.5913 102.68 30.5219 108.18 38.4597 111.784C47.9182 116.004 58.3878 117.424 68.6285 115.877" stroke="#101623" stroke-linecap="round" stroke-linejoin="round"/>
<path d="M112.247 75.4019C110.63 82.3929 107.611 88.9831 103.373 94.7735C99.1352 100.564 93.7663 105.434 87.5914 109.089C83.3246 111.608 78.7209 113.507 73.9189 114.729" stroke="#101623" stroke-linecap="round" stroke-linejoin="round"/>
<path d="M77.46 25.197C70.563 22.1205 62.9587 20.9794 55.4625 21.896C47.9662 22.8126 40.8609 25.7524 34.9084 30.4001C28.9559 35.0478 24.3807 41.2281 21.6736 48.2782C18.9664 55.3284 18.2293 62.9825 19.5414 70.4197C20.8535 77.8569 24.1652 84.7967 29.1214 90.4948C34.0776 96.193 40.4914 100.435 47.675 102.765C54.8585 105.095 62.5409 105.426 69.8982 103.722C77.2555 102.018 84.0103 98.3441 89.4382 93.0932C110.341 72.9732 104.637 37.3039 77.46 25.197Z" stroke="#101623" stroke-linecap="round" stroke-linejoin="round"/>
<path d="M39.5815 150.486L50.6614 159.269L61.9645 141.927" stroke="#101623" stroke-linecap="round" stroke-linejoin="round"/>
<path d="M136.6 158.197L125.819 159.568" stroke="#101623" stroke-linecap="round" stroke-linejoin="round"/>
<path d="M131.883 164.285L130.511 153.48" stroke="#101623" stroke-linecap="round" stroke-linejoin="round"/>
<path d="M75.2142 128.228C71.7201 125.921 68.0197 123.942 64.1606 122.318C61.0623 121.185 57.846 120.407 54.5728 119.997C49.7565 119.406 49.2062 118.11 54.448 117.402C56.3767 117.168 58.3207 117.085 60.2624 117.152C63.9439 117.199 67.6096 117.651 71.1925 118.5" stroke="#101623" stroke-linecap="round" stroke-linejoin="round"/>
<path d="M17.0498 107.965C17.0277 108.753 16.7725 109.516 16.3167 110.158C15.8609 110.8 15.2248 111.293 14.4889 111.574C13.753 111.855 12.9504 111.911 12.1825 111.736C11.4146 111.56 10.716 111.161 10.175 110.589C9.63397 110.016 9.27486 109.296 9.14306 108.52C9.01127 107.743 9.11271 106.945 9.43457 106.226C9.75642 105.507 10.2842 104.9 10.9512 104.481C11.6183 104.062 12.3945 103.85 13.1818 103.873C14.2365 103.905 15.2354 104.354 15.9601 105.121C16.6849 105.888 17.0767 106.91 17.0498 107.965Z" stroke="#120071" stroke-linecap="round" stroke-linejoin="round"/>
<path d="M48.8757 43.5601H39.6001L39.7999 52.359" stroke="#6153BD" stroke-linecap="round" stroke-linejoin="round"/>
<path d="M69.54 43.5601H78.8156L79.0155 52.359" stroke="#6153BD" stroke-linecap="round" stroke-linejoin="round"/>
<path d="M49.7899 83.1603H40.5143L40.3145 74.3613" stroke="#6153BD" stroke-linecap="round" stroke-linejoin="round"/>
<path d="M70.4546 83.1603H79.7302L79.5303 74.3613" stroke="#6153BD" stroke-linecap="round" stroke-linejoin="round"/>
<path fill-rule="evenodd" clip-rule="evenodd" d="M54.4385 57.4116H65.7754L66.0372 68.7486H54.7003L54.4385 57.4116Z" fill="#6153BD"/>
<path fill-rule="evenodd" clip-rule="evenodd" d="M44.6553 61.6055H49.6013L49.7152 66.5525H44.7692L44.6553 61.6055Z" fill="#6153BD"/>
<path fill-rule="evenodd" clip-rule="evenodd" d="M57.416 47.9595H62.3621L62.476 52.9055H57.5299L57.416 47.9595Z" fill="#6153BD"/>
<path fill-rule="evenodd" clip-rule="evenodd" d="M69.625 60.6074H74.572L74.6859 65.5535H69.7399L69.625 60.6074Z" fill="#6153BD"/>
<path fill-rule="evenodd" clip-rule="evenodd" d="M57.4336 73.8145H62.3796L62.4935 78.7605H57.5475L57.4336 73.8145Z" fill="#6153BD"/>
<path fill-rule="evenodd" clip-rule="evenodd" d="M44.3394 47.958H50.8501L51 54.4688H44.4902L44.3394 47.958Z" fill="#6153BD"/>
<path fill-rule="evenodd" clip-rule="evenodd" d="M44.8999 72.25H51.4107L51.5616 78.7608H45.0508L44.8999 72.25Z" fill="#6153BD"/>
<path fill-rule="evenodd" clip-rule="evenodd" d="M67.7695 47.958H74.2793L74.4302 54.4688H67.9194L67.7695 47.958Z" fill="#6153BD"/>
<path fill-rule="evenodd" clip-rule="evenodd" d="M68.3301 72.25H74.8409L74.9907 78.7608H68.48L68.3301 72.25Z" fill="#6153BD"/>
<path d="M54.4385 57.4116H65.7754L66.0372 68.7486H54.7003L54.4385 57.4116Z" fill="#6153BD" stroke="#6153BD" stroke-linecap="round" stroke-linejoin="round"/>
<path d="M44.6553 61.6055H49.6013L49.7152 66.5525H44.7692L44.6553 61.6055Z" fill="#6153BD" stroke="#6153BD" stroke-linecap="round" stroke-linejoin="round"/>
<path d="M57.416 47.9595H62.3621L62.476 52.9055H57.5299L57.416 47.9595Z" fill="#6153BD" stroke="#6153BD" stroke-linecap="round" stroke-linejoin="round"/>
<path d="M69.625 60.6074H74.572L74.6859 65.5535H69.7399L69.625 60.6074Z" fill="#6153BD" stroke="#6153BD" stroke-linecap="round" stroke-linejoin="round"/>
<path d="M57.4336 73.8145H62.3796L62.4935 78.7605H57.5475L57.4336 73.8145Z" fill="#6153BD" stroke="#6153BD" stroke-linecap="round" stroke-linejoin="round"/>
<path d="M44.3394 47.958H50.8501L51 54.4688H44.4902L44.3394 47.958Z" fill="#6153BD" stroke="#6153BD" stroke-linecap="round" stroke-linejoin="round"/>
<path d="M44.8999 72.25H51.4107L51.5616 78.7608H45.0508L44.8999 72.25Z" fill="#6153BD" stroke="#6153BD" stroke-linecap="round" stroke-linejoin="round"/>
<path d="M67.7695 47.958H74.2793L74.4302 54.4688H67.9194L67.7695 47.958Z" fill="#6153BD" stroke="#6153BD" stroke-linecap="round" stroke-linejoin="round"/>
<path d="M68.3301 72.25H74.8409L74.9907 78.7608H68.48L68.3301 72.25Z" fill="#6153BD" stroke="#6153BD" stroke-linecap="round" stroke-linejoin="round"/>
</svg>
