<svg width="144" height="144" viewBox="0 0 144 144" fill="none" xmlns="http://www.w3.org/2000/svg">
<path d="M66.3511 27.8747C66.3511 27.8747 61.8736 50.9408 36.1277 51.8521C10.3818 52.7634 3.33655 89.8992 29.4728 96.7968C55.609 103.694 42.7333 121.546 59.9365 125.162C79.4891 129.271 79.7316 100.344 93.3281 99.8792C123.336 98.853 138.865 85.11 128.012 73.963C108.963 54.396 99.1485 57.5501 99.8148 41.9132C100.481 26.2763 72.2917 9.03129 66.3511 27.8747Z" fill="#DFECF6"/>
<path d="M95.8756 44.4863L34.7593 57.0995C32.8121 57.5014 31.5594 59.4057 31.9612 61.3528L39.8331 99.4955C40.235 101.443 42.1393 102.695 44.0864 102.294L105.203 89.6804C107.15 89.2785 108.403 87.3742 108.001 85.4271L100.129 47.2844C99.7271 45.3372 97.8228 44.0844 95.8756 44.4863Z" fill="#0565C7"/>
<path d="M94.0818 49.0658L87.043 50.5185C85.8747 50.7596 85.123 51.9022 85.3641 53.0705L86.8168 60.1093C87.0579 61.2777 88.2005 62.0293 89.3688 61.7882L96.4077 60.3355C97.576 60.0944 98.3276 58.9518 98.0865 57.7835L96.6338 50.7447C96.3927 49.5763 95.2502 48.8247 94.0818 49.0658Z" fill="#7BB8F7"/>
<path d="M65.9086 78.7774L42.1587 83.6789C42.0808 83.695 42.0307 83.7711 42.0467 83.849L42.7653 87.3307C42.7814 87.4085 42.8575 87.4587 42.9354 87.4426L66.6854 82.5411C66.7633 82.525 66.8134 82.4488 66.7973 82.3709L66.0788 78.8893C66.0627 78.8114 65.9865 78.7613 65.9086 78.7774Z" fill="#7BB8F7"/>
<path d="M77.5688 83.9476L43.6585 90.946C43.5806 90.9621 43.5305 91.0382 43.5466 91.1161L44.2651 94.5977C44.2812 94.6756 44.3573 94.7257 44.4352 94.7097L78.3455 87.7113C78.4234 87.6952 78.4735 87.619 78.4575 87.5411L77.7389 84.0595C77.7228 83.9816 77.6467 83.9315 77.5688 83.9476Z" fill="#7BB8F7"/>
<path d="M107.121 99.5721C112.785 99.5721 117.376 94.9809 117.376 89.3173C117.376 83.6537 112.785 79.0625 107.121 79.0625C101.457 79.0625 96.8662 83.6537 96.8662 89.3173C96.8662 94.9809 101.457 99.5721 107.121 99.5721Z" fill="#7BB8F7" stroke="#7BB8F7" stroke-width="15" stroke-miterlimit="10"/>
<path d="M111.072 88.4589H108.151C108.129 88.4589 108.106 88.4544 108.086 88.4458C108.065 88.4372 108.046 88.4246 108.03 88.4086C108.014 88.3927 108.001 88.3737 107.993 88.3529C107.984 88.332 107.979 88.3097 107.979 88.2872V85.3671C107.979 85.1394 107.889 84.9209 107.728 84.7598C107.567 84.5988 107.348 84.5083 107.121 84.5083C106.893 84.5083 106.674 84.5988 106.513 84.7598C106.352 84.9209 106.262 85.1394 106.262 85.3671V88.2872C106.262 88.3097 106.257 88.332 106.249 88.3529C106.24 88.3737 106.227 88.3927 106.212 88.4086C106.196 88.4246 106.177 88.4372 106.156 88.4458C106.135 88.4544 106.113 88.4589 106.09 88.4589H103.17C102.944 88.4609 102.727 88.5523 102.568 88.7132C102.409 88.874 102.319 89.0913 102.319 89.3177C102.319 89.5442 102.409 89.7614 102.568 89.9223C102.727 90.0831 102.944 90.1745 103.17 90.1766H106.09C106.136 90.1766 106.18 90.1947 106.212 90.2269C106.244 90.2591 106.262 90.3028 106.262 90.3484V93.2684C106.262 93.4962 106.353 93.7146 106.514 93.8757C106.675 94.0367 106.893 94.1272 107.121 94.1272C107.349 94.1272 107.567 94.0367 107.728 93.8757C107.889 93.7146 107.98 93.4962 107.98 93.2684V90.3484C107.98 90.3028 107.998 90.2591 108.03 90.2269C108.062 90.1947 108.106 90.1766 108.152 90.1766H111.072C111.298 90.1745 111.514 90.0831 111.674 89.9223C111.833 89.7614 111.923 89.5442 111.923 89.3177C111.923 89.0913 111.833 88.874 111.674 88.7132C111.514 88.5523 111.298 88.4609 111.072 88.4589V88.4589Z" fill="white"/>
</svg>
