<svg width="264" height="264" viewBox="0 0 264 264" fill="none" xmlns="http://www.w3.org/2000/svg">
<path d="M138.092 106.183C135.201 107.927 131.929 108.944 128.559 109.147C129.346 111.377 129.931 113.674 130.306 116.009L136.095 118.555L139.614 113.439C139.297 110.984 138.789 108.558 138.092 106.183Z" fill="#5E6AD2"/>
<path d="M175.249 62.2378C160.725 80.3548 148.772 87.1924 140.787 89.9125C142.933 95.6021 144.605 99.8444 145.384 104.96C145.408 105.01 173.228 94.1547 186.111 71.5997C183.446 67.517 179.68 64.2713 175.249 62.2378Z" fill="#5E6AD2"/>
<path d="M134.348 91.5093C132.999 91.7293 131.616 91.565 130.356 91.0352C128.534 93.1563 125.415 93.88 121.746 94.0048C121.197 94.7756 120.491 95.4218 119.675 95.9013C121.459 98.7272 123.081 101.652 124.535 104.66C130.299 104.311 134.666 103.263 137.686 100.568C136.896 97.439 135.777 94.4026 134.348 91.5093Z" fill="#5E6AD2"/>
<path d="M72.4608 122.777C86.9844 122.228 105.626 119.888 119.7 114.942C117.754 109.494 115.289 104.246 112.338 99.27C101.547 103.335 92.9932 103.322 70.9885 104.835C76.1699 104.55 77.2889 122.105 72.4608 122.777Z" fill="#5E6AD2"/>
<path d="M188.426 57.7931L192.294 61.2867C192.662 61.614 193.144 61.7821 193.635 61.754C194.126 61.7259 194.586 61.5041 194.914 61.137L206.793 47.9426C206.956 47.7604 207.08 47.5479 207.162 47.3173C207.242 47.0865 207.276 46.8422 207.263 46.5982C207.249 46.3542 207.187 46.1154 207.08 45.8953C206.974 45.6753 206.826 45.4784 206.643 45.3158L197.759 37.304C197.577 37.141 197.364 37.0155 197.134 36.9348C196.903 36.8541 196.659 36.8197 196.414 36.8336C196.17 36.8475 195.932 36.9094 195.712 37.0159C195.491 37.1223 195.295 37.2711 195.132 37.4538L183.253 50.6561C183.09 50.8382 182.964 51.0507 182.884 51.2815C182.802 51.5121 182.768 51.7566 182.783 52.0006C182.796 52.2446 182.857 52.4835 182.964 52.7035C183.07 52.9236 183.22 53.1205 183.402 53.2829L184.322 54.1064C185.707 52.0547 188.793 47.7431 189.79 47.4895C190.491 48.4715 189.734 51.1427 189.057 53.5332C188.488 55.5369 187.977 57.3435 188.426 57.7931Z" fill="#5E6AD2"/>
<path d="M187.031 205.853C182.496 207.103 177.863 207.963 173.182 208.423C178.274 215.535 177.349 217.132 179.146 220.526C187.407 223.92 205.649 226.989 214.508 227.164C207.915 218.979 195.043 214.686 187.031 205.853Z" fill="#167EFF"/>
<path d="M64.4505 169.593C58.9109 169.792 53.3667 169.348 47.9293 168.27C42.74 179.5 39.0467 193.499 37.1738 202.559C50.1016 196.488 50.426 183.223 63.6021 181.895C63.2485 177.775 63.5347 173.625 64.4505 169.593Z" fill="#167EFF"/>
<path d="M73.5838 106.682C71.862 106.906 70.215 107.056 68.6428 107.156C69.8406 104.287 71.9368 104.037 73.5838 106.682Z" fill="#167EFF"/>
<path d="M74.707 120.432C73.3844 123.701 71.0387 123.526 69.3667 120.307C71.5377 120.311 73.4592 120.357 74.707 120.432Z" fill="#167EFF"/>
<path d="M136.694 141.294C135.396 144.738 134.067 148.032 132.623 151.226C133.589 154.291 134.975 157.943 135.512 159.238C134.598 151.426 136.719 141.325 136.694 141.294Z" fill="#167EFF"/>
<path d="M126.737 51.481C122.754 51.485 118.936 53.0691 116.119 55.8856C113.303 58.7019 111.719 62.5206 111.715 66.5036C111.685 68.7585 112.079 70.9989 112.876 73.1087C110.92 69.6392 107.819 66.9571 104.105 65.5212C100.39 64.0854 96.2913 63.9849 92.5105 65.2371C88.7297 66.4893 85.5017 69.0163 83.3783 72.3858C81.2551 75.7554 80.3685 79.7579 80.8704 83.7089C81.3723 87.6599 83.2316 91.3136 86.13 94.0452C89.0284 96.7767 92.7859 98.4162 96.7596 98.6832C100.733 98.9503 104.676 97.8282 107.914 95.5092C111.152 93.1899 113.483 89.8178 114.51 85.9695C116.681 87.1674 119.6 87.3171 121.471 88.6397C121.165 88.0276 119.943 85.8093 119.225 85.72C114.365 85.4205 114.533 81.0036 117.353 81.8021C118.701 82.1764 119.025 81.877 118.798 81.2032C117.126 77.5835 118.473 68.7036 125.635 76.1611C127.189 77.6527 128.509 79.3692 129.553 81.2531C133.227 80.5533 136.508 78.5081 138.752 75.5176C140.998 72.5271 142.048 68.8065 141.694 65.0834C141.342 61.3605 139.613 57.903 136.847 55.3873C134.079 52.8715 130.473 51.4786 126.733 51.481H126.737Z" fill="#167EFF"/>
<path d="M127.361 87.5918C126.487 87.8416 125.594 88.0173 124.691 88.1172L128.908 90.1634C128.083 89.535 127.53 88.6151 127.361 87.5918Z" fill="#167EFF"/>
<path d="M250.164 100.767C250.438 101.392 250.89 101.921 251.466 102.288C252.04 102.655 252.711 102.844 253.392 102.83C254.074 102.816 254.737 102.6 255.295 102.209C255.855 101.819 256.286 101.271 256.533 100.636C256.781 100 256.835 99.3059 256.688 98.64C256.541 97.9741 256.2 97.3667 255.708 96.8946C255.215 96.4226 254.594 96.1071 253.923 95.988C253.252 95.869 252.56 95.9517 251.936 96.2257C251.521 96.4067 251.145 96.6679 250.831 96.9944C250.517 97.3209 250.27 97.7063 250.106 98.1283C249.941 98.5504 249.862 99.0008 249.871 99.4538C249.882 99.9066 249.981 100.353 250.164 100.767Z" fill="#167EFF"/>
<path d="M230.974 109.227C231.247 109.852 231.7 110.381 232.275 110.748C232.849 111.115 233.52 111.304 234.202 111.29C234.884 111.276 235.547 111.06 236.105 110.669C236.665 110.279 237.096 109.731 237.342 109.096C237.591 108.46 237.645 107.766 237.497 107.1C237.35 106.434 237.01 105.827 236.518 105.355C236.025 104.883 235.404 104.567 234.733 104.448C234.062 104.329 233.369 104.412 232.746 104.686C232.331 104.867 231.955 105.128 231.641 105.454C231.327 105.781 231.08 106.166 230.916 106.588C230.751 107.01 230.672 107.461 230.681 107.914C230.691 108.367 230.791 108.813 230.974 109.227Z" fill="#167EFF"/>
<path d="M73.2346 193.5L79.049 206.177C80.2056 208.694 82.3138 210.649 84.9105 211.612C87.5072 212.576 90.3801 212.471 92.8988 211.318L148.448 185.863" stroke="#120071" stroke-linecap="round" stroke-linejoin="round"/>
<path d="M173.777 174.259L221.566 152.374C224.082 151.217 226.038 149.108 227.001 146.512C227.965 143.915 227.86 141.043 226.707 138.524L193.093 65.1323" stroke="#120071" stroke-linecap="round" stroke-linejoin="round"/>
<path d="M182.81 51.9312C180.487 51.3296 178.028 51.55 175.849 52.555L141.715 68.183" stroke="#120071" stroke-linecap="round" stroke-linejoin="round"/>
<path d="M60.408 105.409L85.8824 93.7446" stroke="#120071" stroke-linecap="round" stroke-linejoin="round"/>
<path d="M49.8272 110.25L47.157 111.473C44.64 112.63 42.6849 114.738 41.7209 117.334C40.7567 119.931 40.8626 122.804 42.0151 125.323L62.3294 169.642" stroke="#120071" stroke-linecap="round" stroke-linejoin="round"/>
<path d="M157.282 146.579L171.456 140.091C172.008 139.835 172.434 139.371 172.646 138.8C172.856 138.23 172.832 137.599 172.579 137.046L171.206 134.002C170.95 133.45 170.487 133.023 169.915 132.812C169.345 132.602 168.715 132.625 168.162 132.879L153.663 139.517" stroke="#120071" stroke-linecap="round" stroke-linejoin="round"/>
<path d="M134.623 156.965L128.359 159.835" stroke="#120071" stroke-linecap="round" stroke-linejoin="round"/>
<path d="M127.336 87.6166C127.507 88.3996 127.877 89.1252 128.411 89.7233C128.944 90.3216 129.622 90.7721 130.381 91.0315C131.64 91.5637 133.025 91.7281 134.373 91.5056C150.694 88.976 164.911 75.1105 175.249 62.2339C179.678 64.2672 183.442 67.5113 186.106 71.5919C173.228 94.1508 145.403 105.006 145.378 104.952" stroke="#120071" stroke-linecap="round" stroke-linejoin="round"/>
<path d="M124.666 88.1157C124.666 88.1157 136.691 87.5694 125.864 76.3871C118.43 68.7089 117.107 77.3498 118.724 81.0615C119.177 82.1004 118.338 82.057 117.329 81.7773C114.505 80.9892 114.335 85.3957 119.201 85.6951C119.591 85.9019 119.932 86.1915 120.199 86.5436C123.514 91.3782 123.419 94.2309 117.953 96.8249C103.855 103.515 95.993 103.064 70.9885 104.837" stroke="#120071" stroke-linecap="round" stroke-linejoin="round"/>
<path d="M124.691 88.1157L128.883 90.162" stroke="#120071" stroke-linecap="round" stroke-linejoin="round"/>
<path d="M72.436 122.778C86.9596 122.229 105.601 119.888 119.675 114.942" stroke="#120071" stroke-linecap="round" stroke-linejoin="round"/>
<path d="M73.5839 106.682C67.7397 107.438 61.8276 107.514 55.966 106.906C54.1683 106.655 52.3917 106.271 50.6507 105.758C48.6468 105.21 46.6797 104.535 44.7614 103.737C39.471 101.562 38.1734 102.539 43.138 106.332C48.681 110.006 54.7017 112.903 61.0318 114.942" stroke="#120071" stroke-linecap="round" stroke-linejoin="round"/>
<path d="M74.7068 120.432C70.8441 120.201 57.8546 120.169 54.0195 120.532C47.2804 121.18 49.5541 119.683 51.6555 118.41C53.1764 117.491 60.3397 115.69 57.7195 113.813" stroke="#120071" stroke-linecap="round" stroke-linejoin="round"/>
<path d="M49.7811 105.484C48.6332 104.635 46.3886 102.663 45.7385 102.09C42.7505 99.4631 43.6922 98.8182 44.2662 99.0691C46.5659 100.082 50.1055 102.138 52.2779 103.037C55.7715 104.482 62.4095 107.379 65.7035 107.304" stroke="#120071" stroke-linecap="round" stroke-linejoin="round"/>
<path d="M52.0481 102.964C51.6238 102.438 51.2508 102.014 51.0499 101.766C48.5479 98.6806 49.5526 98.1973 50.0767 98.5467C52.1781 99.9441 55.346 102.532 57.3384 103.762C59.7361 105.174 62.2588 106.361 64.8747 107.308" stroke="#120071" stroke-linecap="round" stroke-linejoin="round"/>
<path d="M68.6428 107.156C70.5761 102.522 74.4901 105.171 75.4187 112.439C76.5088 120.976 72.4189 126.186 69.3665 120.307" stroke="#120071" stroke-linecap="round" stroke-linejoin="round"/>
<path d="M188.426 57.793C187.507 56.5702 189.674 51.8288 189.899 50.3815C190.273 47.9609 190.58 45.2461 186.754 50.8556C183.691 55.128 180.383 59.2191 176.846 63.1083" stroke="#120071" stroke-linecap="round" stroke-linejoin="round"/>
<path d="M188.426 57.7931L192.294 61.2867C192.662 61.614 193.144 61.782 193.635 61.754C194.126 61.7259 194.586 61.504 194.914 61.137L206.793 47.9426C206.956 47.7604 207.08 47.5479 207.162 47.3171C207.242 47.0865 207.276 46.8421 207.263 46.5982C207.249 46.3542 207.187 46.1152 207.08 45.8953C206.974 45.6753 206.826 45.4782 206.643 45.3158L197.759 37.304C197.577 37.141 197.364 37.0155 197.134 36.9347C196.903 36.8541 196.659 36.8197 196.414 36.8336C196.17 36.8474 195.932 36.9094 195.712 37.0159C195.492 37.1223 195.295 37.2711 195.132 37.4538L183.253 50.6561C183.09 50.8382 182.964 51.0507 182.884 51.2814C182.802 51.5121 182.768 51.7566 182.783 52.0006C182.796 52.2446 182.857 52.4835 182.965 52.7035C183.071 52.9237 183.22 53.1205 183.402 53.2829L184.322 54.1064" stroke="#120071" stroke-linecap="round" stroke-linejoin="round"/>
<path d="M185.53 70.7471C189.425 66.5797 208.121 56.4665 205.645 56.0987C202.745 55.6666 197.526 58.5482 196.961 58.8648" stroke="#120071" stroke-linecap="round" stroke-linejoin="round"/>
<path d="M201.187 56.9092C201.776 56.5257 204.192 54.9641 206.194 53.8779C208.196 52.7917 203.848 52.7549 201.253 54.1025" stroke="#120071" stroke-linecap="round" stroke-linejoin="round"/>
<path d="M191.538 60.6063C191.188 60.4119 189.203 59.4689 185.306 60.6405" stroke="#120071" stroke-linecap="round" stroke-linejoin="round"/>
<path d="M211.634 137.925C212.014 138.754 212.14 139.677 211.995 140.578C211.849 141.478 211.441 142.316 210.821 142.984C210.2 143.652 209.396 144.122 208.508 144.332C207.622 144.543 206.692 144.487 205.837 144.169C204.982 143.851 204.24 143.288 203.705 142.548C203.171 141.809 202.867 140.929 202.834 140.017C202.8 139.106 203.037 138.205 203.515 137.429C203.994 136.651 204.691 136.034 205.52 135.654C206.071 135.399 206.665 135.256 207.271 135.234C207.876 135.21 208.482 135.306 209.049 135.518C209.618 135.729 210.138 136.05 210.582 136.463C211.026 136.877 211.383 137.374 211.634 137.925Z" stroke="#120071" stroke-linecap="round" stroke-linejoin="round"/>
<path d="M211.486 142.12C211.866 142.949 211.992 143.872 211.848 144.773C211.702 145.673 211.293 146.511 210.673 147.179C210.052 147.848 209.248 148.317 208.36 148.527C207.474 148.738 206.544 148.682 205.689 148.364C204.834 148.046 204.092 147.483 203.557 146.743C203.023 146.004 202.719 145.124 202.687 144.212C202.652 143.301 202.889 142.4 203.367 141.623C203.846 140.846 204.544 140.229 205.372 139.849C205.923 139.594 206.518 139.451 207.123 139.429C207.729 139.405 208.334 139.501 208.902 139.712C209.47 139.924 209.99 140.244 210.434 140.658C210.878 141.072 211.236 141.568 211.486 142.12Z" stroke="#120071" stroke-linecap="round" stroke-linejoin="round"/>
<path d="M81.744 131.344C83.3427 130.616 85.1649 130.551 86.8114 131.164C88.4577 131.776 89.7943 133.017 90.528 134.613L94.4459 143.197C95.1739 144.795 95.2387 146.618 94.626 148.264C94.0133 149.911 92.773 151.247 91.1769 151.981L78.8992 157.596C77.3004 158.323 75.4782 158.389 73.8319 157.776C72.1854 157.164 70.8489 155.923 70.1152 154.327L66.175 145.742C65.4468 144.144 65.3821 142.321 65.9948 140.675C66.6075 139.028 67.8479 137.693 69.444 136.958L81.744 131.344Z" stroke="#120071" stroke-linecap="round" stroke-linejoin="round"/>
<path d="M203.399 125.473C203.951 125.217 204.378 124.753 204.589 124.182C204.799 123.612 204.775 122.981 204.522 122.428L203.149 119.384C202.893 118.832 202.43 118.405 201.858 118.194C201.288 117.984 200.658 118.008 200.105 118.261L176.896 128.867C176.344 129.123 175.917 129.587 175.706 130.157C175.496 130.728 175.519 131.358 175.773 131.911L177.145 134.956C177.402 135.507 177.865 135.934 178.437 136.145C179.007 136.356 179.637 136.332 180.19 136.078L203.399 125.473Z" stroke="#120071" stroke-linecap="round" stroke-linejoin="round"/>
<path d="M250.164 100.767C250.438 101.392 250.89 101.921 251.466 102.288C252.04 102.655 252.711 102.844 253.392 102.83C254.074 102.816 254.737 102.6 255.295 102.209C255.855 101.819 256.286 101.271 256.533 100.636C256.781 100 256.835 99.3059 256.688 98.64C256.541 97.9741 256.2 97.3667 255.708 96.8946C255.215 96.4226 254.594 96.1071 253.923 95.988C253.252 95.869 252.56 95.9517 251.936 96.2257C251.521 96.4067 251.145 96.6679 250.831 96.9944C250.517 97.3209 250.27 97.7063 250.106 98.1283C249.941 98.5504 249.862 99.0008 249.871 99.4538C249.882 99.9066 249.981 100.353 250.164 100.767Z" stroke="#120071" stroke-linecap="round" stroke-linejoin="round"/>
<path d="M230.974 109.227C231.247 109.851 231.7 110.381 232.275 110.748C232.849 111.115 233.52 111.303 234.202 111.289C234.884 111.275 235.547 111.059 236.105 110.669C236.665 110.278 237.096 109.73 237.342 109.095C237.591 108.46 237.645 107.765 237.497 107.099C237.35 106.434 237.01 105.826 236.518 105.354C236.025 104.882 235.404 104.567 234.733 104.447C234.062 104.328 233.369 104.411 232.746 104.685C232.331 104.866 231.955 105.127 231.641 105.454C231.327 105.78 231.08 106.166 230.916 106.588C230.751 107.01 230.672 107.46 230.681 107.913C230.691 108.366 230.791 108.813 230.974 109.227Z" stroke="#120071" stroke-linecap="round" stroke-linejoin="round"/>
<path d="M132.642 151.273C134.087 148.079 135.4 144.737 136.694 141.291C136.719 141.316 134.593 151.423 135.521 159.233" stroke="#120071" stroke-linecap="round" stroke-linejoin="round"/>
<path d="M112.313 99.2701C118.677 109.576 121.946 122.178 123.044 124.175C129.382 127.743 141.286 124.749 145.154 120.531C146.894 106.763 145.285 101.825 140.787 89.9121" stroke="#120071" stroke-linecap="round" stroke-linejoin="round"/>
<path d="M123.044 124.175C117.778 129.615 111.889 123.726 104.378 163.577C87.3339 163.477 81.1451 164.899 65.1742 166.771C62.3543 175.833 63.1529 185.562 66.4968 195.72L109.419 181.619C112.433 180.625 115.106 178.8 117.13 176.355C123.42 168.738 128.639 160.299 132.642 151.269C138.014 168.283 152.511 194.063 161.948 208.968C176.396 208.968 188.401 206.497 197.935 201.482C172.455 181.769 150.128 133.53 145.155 120.529" stroke="#120071" stroke-linecap="round" stroke-linejoin="round"/>
<path d="M119.675 95.9013C121.464 98.7299 123.096 101.654 124.566 104.66C130.331 104.311 134.698 103.263 137.717 100.568C136.925 97.4375 135.805 94.3997 134.373 91.5054" stroke="#120071" stroke-linecap="round" stroke-linejoin="round"/>
<path d="M139.618 113.444L136.099 118.56L130.306 116.015C129.931 113.677 129.346 111.379 128.559 109.147C131.93 108.942 135.201 107.923 138.092 106.177C138.79 108.556 139.301 110.986 139.618 113.444Z" stroke="#120071" stroke-linecap="round" stroke-linejoin="round"/>
<path d="M187.031 205.853C195.043 214.686 207.915 218.979 214.508 227.164C205.649 226.989 187.407 223.92 179.146 220.526C177.349 217.132 178.272 215.535 173.182 208.423C177.864 207.964 182.498 207.104 187.031 205.853Z" stroke="#120071" stroke-linecap="round" stroke-linejoin="round"/>
<path d="M64.4505 169.592C58.9107 169.792 53.3666 169.348 47.9293 168.27C42.74 179.499 39.0467 193.499 37.1738 202.558C50.1016 196.488 50.426 183.223 63.6021 181.895C63.2484 177.775 63.5346 173.624 64.4505 169.592Z" stroke="#120071" stroke-linecap="round" stroke-linejoin="round"/>
<path d="M121.771 94.0297C125.44 93.9049 128.559 93.1812 130.381 91.0601" stroke="#120071" stroke-linecap="round" stroke-linejoin="round"/>
<path d="M129.532 81.228C132.331 80.6925 134.921 79.3715 136.998 77.4196C139.074 75.4676 140.552 72.965 141.26 70.2043C141.968 67.4435 141.874 64.5384 140.993 61.8282C140.11 59.1181 138.476 56.7147 136.279 54.8989C134.083 53.083 131.415 51.9296 128.587 51.5734C125.76 51.2171 122.889 51.6727 120.311 52.8868C117.732 54.1011 115.552 56.0237 114.026 58.4305C112.499 60.8372 111.689 63.6286 111.69 66.4785C111.656 68.7338 112.053 70.9747 112.86 73.081C110.898 69.6168 107.795 66.9414 104.079 65.5123C100.363 64.0832 96.2666 63.989 92.4892 65.246C88.7119 66.503 85.4884 69.033 83.37 72.4035C81.2515 75.7741 80.3697 79.7758 80.8751 83.7247C81.3805 87.6734 83.2418 91.324 86.1409 94.0524C89.04 96.7808 92.7967 98.4174 96.769 98.6824C100.741 98.9475 104.682 97.8247 107.918 95.5059C111.154 93.1869 113.484 89.8161 114.509 85.9694C116.68 87.1672 119.6 87.3169 121.47 88.6395" stroke="#120071" stroke-linecap="round" stroke-linejoin="round"/>
<path d="M131.254 204.83L136.869 217.032" stroke="#120071" stroke-linecap="round" stroke-linejoin="round"/>
<path d="M140.163 208.124L127.96 213.763" stroke="#120071" stroke-linecap="round" stroke-linejoin="round"/>
<path d="M159.128 36.9824L154.853 38.921C154.587 39.0244 154.344 39.1811 154.14 39.3815C153.936 39.5819 153.775 39.8217 153.667 40.0865C153.558 40.3513 153.506 40.6354 153.511 40.9213C153.517 41.2072 153.58 41.489 153.699 41.7493C153.817 42.0097 153.988 42.2432 154.199 42.4355C154.411 42.6278 154.659 42.775 154.929 42.8679C155.2 42.9608 155.486 42.9975 155.773 42.9759C156.058 42.9541 156.335 42.8745 156.588 42.7417L158.984 41.6529C159.484 41.4394 160.049 41.4301 160.556 41.627C161.063 41.8237 161.474 42.2111 161.7 42.7064C161.926 43.2015 161.948 43.7653 161.764 44.2774C161.58 44.7895 161.203 45.2093 160.714 45.4473L156.41 47.4174" stroke="#120071" stroke-linecap="round" stroke-linejoin="round"/>
<path d="M155.385 36.9824L160.151 47.4148" stroke="#120071" stroke-linecap="round" stroke-linejoin="round"/>
<path d="M63.3948 35.6401L63.9687 38.9841" stroke="#120071" stroke-linecap="round" stroke-linejoin="round"/>
<path d="M61.399 42.6523L58.0801 43.2263" stroke="#120071" stroke-linecap="round" stroke-linejoin="round"/>
<path d="M70.9813 40.9556L67.6624 41.5545" stroke="#120071" stroke-linecap="round" stroke-linejoin="round"/>
<path d="M65.6656 48.5416L65.0667 45.2227" stroke="#120071" stroke-linecap="round" stroke-linejoin="round"/>
<path d="M65.0671 45.2225C64.921 44.396 64.4529 43.6612 63.7658 43.1794C63.0784 42.6975 62.2282 42.5079 61.4014 42.6522C62.2284 42.5062 62.9637 42.0377 63.4455 41.3498C63.9276 40.6621 64.1168 39.8111 63.9717 38.9839C64.1175 39.8107 64.5854 40.5458 65.2726 41.0279C65.9599 41.5101 66.8103 41.6997 67.6374 41.5555C66.8106 41.7016 66.0756 42.1698 65.5937 42.8574C65.1117 43.5448 64.9223 44.3955 65.0671 45.2225Z" stroke="#120071" stroke-linecap="round" stroke-linejoin="round"/>
<path d="M10.5601 152.112C22.5895 158.576 25.1099 140.133 37.138 146.596" stroke="#120071" stroke-linecap="round" stroke-linejoin="round"/>
<path d="M214.062 78.5765C213.655 78.8899 213.164 79.0755 212.652 79.1099C212.139 79.1443 211.627 79.0258 211.182 78.7696C210.737 78.5133 210.377 78.1307 210.15 77.6703C209.921 77.2098 209.836 76.6921 209.901 76.1826C209.968 75.673 210.184 75.1946 210.521 74.8078C210.86 74.421 211.305 74.1431 211.802 74.0094C212.297 73.8757 212.822 73.8921 213.31 74.0565C213.796 74.2209 214.222 74.526 214.536 74.9331C214.953 75.4804 215.138 76.1701 215.049 76.8524C214.959 77.5346 214.605 78.1543 214.062 78.5765Z" stroke="#120071" stroke-linecap="round" stroke-linejoin="round"/>
<path d="M231.415 43.0637L226.549 49.8777L223.08 42.2402L231.415 43.0637Z" stroke="#120071" stroke-linecap="round" stroke-linejoin="round"/>
<path d="M117.015 12.1952L99.7701 19.4334L115.094 8.70158L111.126 1.4897C110.996 1.25544 110.811 1.05578 110.588 0.90743C110.365 0.759068 110.109 0.666355 109.843 0.637027C109.577 0.607699 109.307 0.642635 109.057 0.738881C108.807 0.835127 108.584 0.989911 108.406 1.19024L87.6671 24.2746C87.4386 24.5338 87.2955 24.8573 87.2577 25.2009C87.2198 25.5445 87.2887 25.8914 87.4551 26.1942C87.6217 26.4972 87.8775 26.7414 88.1879 26.8935C88.4982 27.0457 88.848 27.0984 89.1893 27.0445L119.81 21.8789C120.073 21.836 120.322 21.7308 120.536 21.5718C120.75 21.4129 120.923 21.205 121.041 20.9656C121.158 20.7261 121.216 20.462 121.21 20.1955C121.205 19.9289 121.135 19.6675 121.008 19.4334L117.015 12.1952Z" stroke="#120071" stroke-linecap="round" stroke-linejoin="round"/>
<path d="M117.015 12.1952L99.7701 19.4334L115.094 8.70158L111.126 1.4897C110.996 1.25544 110.811 1.05578 110.588 0.90743C110.365 0.759068 110.109 0.666355 109.843 0.637027C109.577 0.607699 109.307 0.642635 109.057 0.738881C108.807 0.835127 108.584 0.989911 108.406 1.19024L87.6671 24.2746C87.4386 24.5338 87.2955 24.8573 87.2577 25.2009C87.2198 25.5445 87.2887 25.8914 87.4551 26.1942C87.6217 26.4972 87.8775 26.7414 88.1879 26.8935C88.4982 27.0457 88.848 27.0984 89.1893 27.0445L119.81 21.8789C120.073 21.836 120.322 21.7308 120.536 21.5718C120.75 21.4129 120.923 21.205 121.041 20.9656C121.158 20.7261 121.216 20.462 121.21 20.1955C121.205 19.9289 121.135 19.6675 121.008 19.4334L117.015 12.1952Z" fill="#5E6AD2"/>
<path d="M117.015 12.1952L99.7701 19.4334L115.094 8.70158L111.126 1.4897C110.996 1.25544 110.811 1.05578 110.588 0.90743C110.365 0.759068 110.109 0.666355 109.843 0.637027C109.577 0.607699 109.307 0.642635 109.057 0.738881C108.807 0.835127 108.584 0.989911 108.406 1.19024L87.6671 24.2746C87.4386 24.5338 87.2955 24.8573 87.2577 25.2009C87.2198 25.5445 87.2887 25.8914 87.4551 26.1942C87.6217 26.4972 87.8775 26.7414 88.1879 26.8935C88.4982 27.0457 88.848 27.0984 89.1893 27.0445L119.81 21.8789C120.073 21.836 120.322 21.7308 120.536 21.5718C120.75 21.4129 120.923 21.205 121.041 20.9656C121.158 20.7261 121.216 20.462 121.21 20.1955C121.205 19.9289 121.135 19.6675 121.008 19.4334L117.015 12.1952Z" stroke="#120071" stroke-linecap="round" stroke-linejoin="round"/>
</svg>
