<svg width="264" height="264" viewBox="0 0 264 264" fill="none" xmlns="http://www.w3.org/2000/svg">
<path d="M205.916 118.27L165.857 115.275C161.977 114.981 158.083 115.623 154.503 117.147L143.847 121.688C142.414 124.29 140.653 126.697 138.607 128.85C133.466 134.34 113.752 144.547 103.346 146.693C100.894 147.129 98.3671 146.687 96.2088 145.445C91.4943 149.228 86.5543 152.72 81.416 155.904C81.416 155.904 91.1483 183.628 127.385 167.957L156.208 155.455L149.894 170.602C150.069 179.261 150.119 190.616 149.545 198.183C156.311 200.245 163.528 200.313 170.333 198.382C173.052 179.915 175.123 150.768 168.086 139.763L202.525 139.439C206.864 131.623 206.482 127.178 205.916 118.27Z" fill="#5E6AD2"/>
<path d="M141.931 107.539L146.123 89.0977C146.169 88.8978 146.175 88.6908 146.141 88.4886C146.107 88.2863 146.033 88.0928 145.924 87.919C145.815 87.7452 145.673 87.5946 145.506 87.4757C145.339 87.3568 145.15 87.272 144.95 87.2261C144.75 87.1802 144.543 87.1742 144.341 87.2083C144.139 87.2424 143.945 87.316 143.772 87.4249C143.598 87.5338 143.447 87.6759 143.328 87.843C143.209 88.0102 143.125 88.1991 143.079 88.399L138.138 110.134" fill="#5E6AD2"/>
<path d="M141.931 107.539L146.123 89.0977C146.169 88.8978 146.175 88.6908 146.141 88.4886C146.107 88.2863 146.033 88.0928 145.924 87.919C145.815 87.7452 145.673 87.5946 145.506 87.4757C145.339 87.3568 145.15 87.272 144.95 87.2261C144.75 87.1802 144.543 87.1742 144.341 87.2083C144.139 87.2424 143.945 87.316 143.772 87.4249C143.598 87.5338 143.447 87.6759 143.328 87.843C143.209 88.0102 143.125 88.1991 143.079 88.399L138.138 110.134C138.759 112.426 140.428 115.5 141.931 107.539Z" fill="#5E6AD2"/>
<path d="M138.687 37.6651C138.687 40.7597 137.769 43.7848 136.05 46.3578C134.33 48.9309 131.887 50.9363 129.028 52.1206C126.169 53.3048 123.023 53.6147 119.988 53.011C116.952 52.4072 114.165 50.9171 111.976 48.7289C109.788 46.5406 108.298 43.7527 107.694 40.7176C107.09 37.6824 107.4 34.5364 108.585 31.6774C109.769 28.8184 111.774 26.3747 114.347 24.6555C116.92 22.9362 119.946 22.0186 123.04 22.0186C127.189 22.0213 131.167 23.6707 134.101 26.6044C137.034 29.5381 138.684 33.5162 138.687 37.6651Z" fill="#5E6AD2"/>
<path d="M220.392 120.241C217.521 127.048 213.466 133.292 208.414 138.683C211.184 139.107 213.954 139.733 216.325 140.105C218.794 139.028 221.109 137.628 223.21 135.94C229.777 130.65 243.305 124.087 246.268 120.344C240.902 119.568 227.776 120.092 220.392 120.241Z" fill="#167EFF"/>
<path d="M169.63 213.573C162.715 210.962 156.318 207.142 150.74 202.292C150.415 205.063 149.916 207.858 149.617 210.254C150.787 212.684 152.272 214.949 154.034 216.992C159.55 223.33 166.612 236.606 170.451 239.451C171.053 234.061 170.056 220.959 169.63 213.573Z" fill="#167EFF"/>
<path d="M83.9612 134.465C83.4621 134.715 82.9381 134.939 82.414 135.164C79.9666 132.288 77.6669 129.29 75.5239 126.18C75.7485 126.706 82.636 141.602 94.0652 147.217C94.8138 146.618 95.5375 146.044 96.2113 145.47C91.9414 143.149 87.5048 138.657 83.9612 134.465Z" fill="#167EFF"/>
<path d="M149.592 158.297C149.592 158.297 149.816 163.562 149.941 170.575L156.205 155.452L149.592 158.297Z" fill="#167EFF"/>
<path d="M82.3892 68.9844C82.3892 68.9844 78.0195 60.798 67.7408 65.7902C57.4622 70.7825 59.4559 90.8446 59.4559 90.8446C59.4559 90.8446 50.3212 95.2117 45.4551 102.573C37.9188 113.978 41.7132 131.196 65.1482 131.196C64.031 126.281 63.6442 121.227 64.0003 116.199C64.6241 107.34 67.8433 99.2294 70.6881 90.9195C74.3157 80.1772 73.5369 81.0362 74.8056 77.0947C71.7848 74.2249 75.3796 70.7811 77.0016 73.5747C77.6885 74.7043 77.8527 74.7489 78.4017 74.921C81.3752 75.8522 86.7707 76.8911 89.6969 75.9218C89.7009 75.8456 89.9504 68.9844 82.3892 68.9844Z" fill="#167EFF"/>
<path d="M76.8493 94.388L74.1792 87.7002C75.0697 88.8941 76.1191 89.9592 77.2985 90.8694C77.0793 92.0324 76.9293 93.2073 76.8493 94.388Z" fill="#167EFF"/>
<path d="M112.16 207.708C112.333 208.552 112.251 209.428 111.926 210.226C111.601 211.023 111.046 211.706 110.333 212.189C109.619 212.671 108.779 212.931 107.917 212.936C107.056 212.941 106.213 212.69 105.494 212.216C104.775 211.741 104.213 211.064 103.879 210.27C103.545 209.476 103.454 208.601 103.617 207.755C103.78 206.91 104.191 206.131 104.796 205.519C105.402 204.906 106.176 204.487 107.02 204.314C107.58 204.196 108.159 204.19 108.722 204.297C109.284 204.404 109.82 204.623 110.298 204.939C110.776 205.255 111.187 205.662 111.507 206.137C111.826 206.612 112.048 207.146 112.16 207.708Z" fill="#167EFF"/>
<path d="M138.687 37.6651C138.687 40.7597 137.769 43.7848 136.05 46.3578C134.33 48.9309 131.887 50.9364 129.028 52.1206C126.169 53.3048 123.023 53.6147 119.988 53.011C116.952 52.4072 114.165 50.9171 111.976 48.7289C109.788 46.5406 108.298 43.7527 107.694 40.7176C107.09 37.6824 107.4 34.5364 108.585 31.6774C109.769 28.8184 111.774 26.3747 114.347 24.6555C116.92 22.9362 119.946 22.0186 123.04 22.0186C127.189 22.0213 131.167 23.6707 134.101 26.6044C137.034 29.5381 138.684 33.5162 138.687 37.6651Z" stroke="#101623"/>
<path d="M172.899 167.405L185.801 173.918C188.449 175.251 191.518 175.479 194.334 174.553C197.15 173.627 199.485 171.622 200.825 168.977L215.598 139.73" stroke="#101623" stroke-linecap="round" stroke-linejoin="round"/>
<path d="M224.956 121.214L234.065 103.197C235.397 100.549 235.626 97.4806 234.699 94.6646C233.773 91.8485 231.768 89.5146 229.124 88.1745L137.959 42.1162M86.2822 102.055L112.731 49.6617" stroke="#101623" stroke-linecap="round" stroke-linejoin="round"/>
<path d="M234.489 93.9639L158.351 106.242L130.208 51.5845" stroke="#101623" stroke-linecap="round" stroke-linejoin="round"/>
<path d="M116.633 171.573C108.078 180.981 96.8696 187.573 84.4892 190.478C72.1088 193.383 59.1385 192.464 47.2911 187.843C39.4264 184.776 32.2598 180.157 26.2187 174.261C20.1776 168.365 15.3857 161.312 12.1287 153.524C7.22374 141.792 5.99193 128.848 8.59592 116.401C11.1999 103.954 17.5173 92.5897 26.7141 83.8076" stroke="#101623" stroke-linecap="round" stroke-linejoin="round"/>
<path d="M76.8493 96.4594C76.7797 94.5681 76.9399 92.6755 77.3274 90.8223C80.3692 92.8568 82.8831 91.592 84.7284 88.9599C87.0953 85.1292 88.3104 80.6985 88.2286 76.1963" stroke="#101623" stroke-linecap="round" stroke-linejoin="round"/>
<path d="M75.524 126.18C77.6661 129.29 79.9649 132.288 82.4115 135.164C86.3441 133.515 89.9667 131.208 93.1236 128.342C95.4623 126.219 97.5606 123.846 99.3806 121.264C95.0747 115.634 91.0846 109.769 87.4287 103.696C85.648 100.734 82.9754 98.4127 79.7939 97.0634C78.4293 96.5332 76.9558 96.3448 75.5017 96.5144C74.4219 96.7977 73.2906 96.8228 72.1993 96.5878C71.1079 96.3528 70.0872 95.8642 69.2197 95.1616" stroke="#101623" stroke-linecap="round" stroke-linejoin="round"/>
<path d="M206.115 120.216C209.509 120.341 216.247 120.316 220.364 120.241C217.501 127.046 213.454 133.29 208.412 138.683C207.14 138.483 204.444 138.209 203.222 138.134" stroke="#101623" stroke-linecap="round" stroke-linejoin="round"/>
<path d="M246.266 120.341C247.688 120.54 248.602 120.866 248.711 121.314C249.402 124.148 234.569 131.033 227.899 136.412C225.959 137.996 223.789 139.275 221.464 140.205C219.767 140.516 218.025 140.483 216.341 140.105C218.815 139.031 221.133 137.63 223.234 135.94C229.783 130.66 243.298 124.109 246.266 120.341Z" stroke="#101623" stroke-linecap="round" stroke-linejoin="round"/>
<path d="M220.392 120.241C227.778 120.092 240.905 119.568 246.266 120.341C243.296 124.084 229.776 130.654 223.208 135.938C221.108 137.628 218.792 139.03 216.32 140.105C213.95 139.731 211.18 139.107 208.41 138.683C213.463 133.292 217.519 127.049 220.392 120.241Z" stroke="#101623" stroke-linecap="round" stroke-linejoin="round"/>
<path d="M169.331 198.675C169.106 202.418 169.331 207.933 169.63 213.598C162.725 210.982 156.338 207.163 150.765 202.318C150.914 201.046 151.014 199.773 151.039 198.575" stroke="#101623" stroke-linecap="round" stroke-linejoin="round"/>
<path d="M170.454 239.451C170.304 240.895 170.032 241.802 169.58 241.946C166.797 242.833 159.345 228.149 153.734 221.683C152.071 219.798 150.708 217.668 149.691 215.369C149.326 213.684 149.3 211.942 149.617 210.247C150.783 212.679 152.268 214.945 154.034 216.985C159.55 223.351 166.611 236.606 170.454 239.451Z" stroke="#101623" stroke-linecap="round" stroke-linejoin="round"/>
<path d="M169.631 213.573C170.055 220.959 171.053 234.062 170.454 239.447C166.611 236.602 159.532 223.341 154.037 216.988C152.273 214.947 150.788 212.681 149.62 210.25C149.919 207.854 150.418 205.058 150.743 202.288C156.32 207.14 162.715 210.961 169.631 213.573Z" stroke="#101623" stroke-linecap="round" stroke-linejoin="round"/>
<path d="M94.0678 147.217C82.6386 141.602 75.7511 126.704 75.5239 126.18" stroke="#101623" stroke-linecap="round" stroke-linejoin="round"/>
<path d="M83.9614 134.465C87.5076 138.658 91.9495 143.171 96.2154 145.498C98.379 146.724 100.903 147.157 103.351 146.721C113.766 144.619 133.471 134.368 138.612 128.878C147.921 118.936 147.157 111.361 146.348 98.7081C146.02 93.5674 145.373 93.6909 144.601 96.0813C143.452 99.6485 142.002 108.296 140.808 111.703C140.696 112.046 140.467 112.337 140.159 112.526C139.24 113.052 138.661 111.902 138.189 110.28C137.689 108.559 137.331 106.265 136.866 104.896C136.051 102.48 134.387 100.279 134.121 107.366C133.967 111.533 133.956 118.711 129.43 121.341C125.908 123.348 122.237 125.083 118.45 126.531C114.533 128.065 110.43 129.072 106.249 129.526C103.976 129.647 100.932 127.055 98.0371 123.038" stroke="#101623" stroke-linecap="round" stroke-linejoin="round"/>
<path d="M141.931 107.539L146.123 89.0977C146.169 88.8978 146.175 88.6908 146.141 88.4886C146.107 88.2863 146.033 88.0928 145.924 87.919C145.815 87.7452 145.673 87.5946 145.506 87.4757C145.339 87.3568 145.15 87.272 144.95 87.2261C144.75 87.1802 144.543 87.1742 144.341 87.2083C144.139 87.2424 143.945 87.316 143.772 87.4249C143.598 87.5338 143.447 87.6759 143.328 87.843C143.209 88.0102 143.125 88.1991 143.079 88.399L138.138 110.134" stroke="#101623" stroke-linecap="round" stroke-linejoin="round"/>
<path d="M149.6 158.321C153.493 156.649 156.211 155.452 156.211 155.452L149.941 170.575" stroke="#101623" stroke-linecap="round" stroke-linejoin="round"/>
<path d="M96.2138 145.495C91.5001 149.266 86.558 152.742 81.4157 155.904C73.0319 150.053 67.2099 141.21 65.1479 131.196" stroke="#101623" stroke-linecap="round" stroke-linejoin="round"/>
<path d="M143.827 121.689L155.531 116.723C158.429 115.498 161.576 114.976 164.714 115.201L205.916 118.27C206.843 126.892 206.732 131.852 202.522 139.431L168.133 139.756" stroke="#101623" stroke-linecap="round" stroke-linejoin="round"/>
<path d="M82.3892 68.9844C82.3892 68.9844 78.0195 60.798 67.7408 65.7902C57.4622 70.7825 59.4559 90.8446 59.4559 90.8446C59.4559 90.8446 50.3212 95.2117 45.4551 102.573C37.9188 113.978 41.7132 131.196 65.1482 131.196C64.031 126.281 63.6442 121.227 64.0003 116.199C64.6241 107.34 67.8433 99.2294 70.6881 90.9195C71.3369 88.998 72.8841 84.3065 73.4082 82.3588C73.8823 80.5384 74.1069 79.2644 74.8056 77.0947C71.7848 74.2249 75.3796 70.7811 77.0016 73.5747C77.7174 74.7568 77.8566 74.6885 78.6407 74.9472C80.5819 75.5856 85.8119 77.0342 89.7035 75.8666C89.7009 75.8706 89.9504 68.9844 82.3892 68.9844Z" stroke="#101623" stroke-linecap="round" stroke-linejoin="round"/>
<path d="M33.1274 73.2753C24.2807 77.5425 15.9572 82.8185 8.32257 88.998C8.1077 89.1316 7.92846 89.3154 7.80022 89.5335C7.67198 89.7517 7.59858 89.9977 7.58631 90.2504C7.57404 90.5032 7.62327 90.7551 7.72978 90.9847C7.83628 91.2142 7.99688 91.4145 8.1978 91.5683L13.8874 96.0851C17.3351 91.563 22.0095 87.7411 26.7062 83.793C23.0912 88.4695 19.925 93.4765 17.2498 98.7474L23.3715 103.596C23.569 103.753 23.8013 103.861 24.049 103.909C24.2966 103.958 24.5523 103.946 24.7944 103.875C25.0366 103.804 25.2581 103.676 25.4404 103.502C25.6228 103.327 25.7605 103.112 25.842 102.873L35.4732 75.1298C35.5857 74.8188 35.5975 74.4802 35.5069 74.1621C35.4164 73.844 35.228 73.5624 34.9685 73.3573C34.7091 73.1522 34.3917 73.0339 34.0612 73.0191C33.7308 73.0044 33.4041 73.094 33.1274 73.2753Z" stroke="#101623" stroke-linecap="round" stroke-linejoin="round"/>
<path d="M202.322 25.7132C197.356 23.2413 191.791 26.7639 192.59 31.9518L190.269 34.0966L193.463 34.3461C196.283 39.1125 203.445 39.3134 205.791 34.6206C206.508 32.979 206.546 31.12 205.896 29.4506C205.246 27.7812 203.961 26.4373 202.322 25.7132Z" stroke="#101623" stroke-linecap="round" stroke-linejoin="round"/>
<path d="M231.868 169.901C230.346 169.114 228.573 168.962 226.939 169.481C226.13 169.737 225.38 170.151 224.731 170.699C224.083 171.246 223.548 171.916 223.159 172.671C223.159 172.671 218.942 180.907 215.398 180.656L233.016 189.765C230.746 187.02 234.638 178.611 234.638 178.611C235.03 177.858 235.268 177.034 235.34 176.189C235.412 175.343 235.317 174.491 235.059 173.682C234.802 172.873 234.388 172.123 233.84 171.474C233.293 170.825 232.623 170.29 231.868 169.901Z" stroke="#101623" stroke-linecap="round" stroke-linejoin="round"/>
<path d="M227.102 186.72C226.912 187.11 226.645 187.458 226.318 187.744C225.99 188.029 225.609 188.247 225.197 188.383C224.785 188.519 224.349 188.572 223.917 188.538C223.484 188.503 223.062 188.383 222.676 188.183C222.291 187.984 221.949 187.709 221.67 187.376C221.392 187.042 221.184 186.657 221.057 186.241C220.93 185.826 220.887 185.39 220.931 184.958C220.975 184.526 221.105 184.107 221.313 183.726" stroke="#101623" stroke-linecap="round" stroke-linejoin="round"/>
<path d="M251.083 74.5742L246.417 90.645" stroke="#101623" stroke-linecap="round" stroke-linejoin="round"/>
<path d="M256.773 84.9302L240.702 80.2637" stroke="#101623" stroke-linecap="round" stroke-linejoin="round"/>
<path d="M149.966 189.939C157.055 191.106 164.275 191.238 171.402 190.333" stroke="#101623" stroke-linecap="round" stroke-linejoin="round"/>
<path d="M196.383 117.621C197.508 125.107 196.296 132.758 192.915 139.531" stroke="#101623" stroke-linecap="round" stroke-linejoin="round"/>
<path d="M112.16 207.708C112.332 208.552 112.251 209.428 111.926 210.226C111.6 211.023 111.046 211.706 110.332 212.189C109.619 212.671 108.778 212.931 107.917 212.936C107.056 212.941 106.212 212.69 105.493 212.216C104.774 211.741 104.213 211.064 103.878 210.27C103.544 209.476 103.453 208.601 103.617 207.755C103.78 206.91 104.19 206.131 104.796 205.519C105.402 204.906 106.175 204.487 107.019 204.314C107.58 204.196 108.158 204.19 108.721 204.297C109.284 204.404 109.82 204.623 110.297 204.939C110.776 205.255 111.187 205.662 111.506 206.137C111.826 206.612 112.048 207.146 112.16 207.708Z" stroke="#101623" stroke-linecap="round" stroke-linejoin="round"/>
<path d="M110.188 194.058C111.861 192.493 113.961 191.459 116.221 191.088C118.481 190.717 120.801 191.025 122.886 191.972C124.972 192.919 126.731 194.463 127.939 196.409C129.148 198.355 129.752 200.616 129.675 202.906C129.598 205.195 128.844 207.411 127.508 209.271C126.172 211.132 124.314 212.555 122.169 213.36C120.025 214.164 117.69 214.315 115.46 213.794C113.23 213.272 111.204 212.101 109.639 210.428C107.543 208.184 106.423 205.199 106.526 202.13C106.629 199.06 107.946 196.157 110.188 194.058Z" stroke="#101623" stroke-linecap="round" stroke-linejoin="round"/>
<path d="M81.416 155.904C81.416 155.904 91.1483 183.629 127.385 167.957L149.6 158.321C149.876 168.804 150.456 186.547 149.574 198.176C156.34 200.237 163.556 200.306 170.361 198.375C173.081 179.908 175.184 150.757 168.14 139.756C159.014 125.501 130.957 134.64 130.957 134.64" stroke="#101623" stroke-linecap="round" stroke-linejoin="round"/>
<path d="M77.3272 90.8223C76.1249 89.9651 75.0685 88.9198 74.1987 87.7266L76.8492 94.3881" stroke="#101623" stroke-linecap="round" stroke-linejoin="round"/>
</svg>
