<svg width="264" height="264" viewBox="0 0 264 264" fill="none" xmlns="http://www.w3.org/2000/svg">
<path d="M232.89 116.906C229.903 116.906 228.779 102.366 231.767 102.133C215.612 103.853 199.025 106.495 187.75 104.704C183.791 109.585 180.562 115.015 178.162 120.824C176.639 115.356 176.084 109.664 176.524 104.005C174.379 103.83 150.972 88.3097 141.116 82.5452C138.979 83.9908 137.159 85.8553 135.766 88.0256C134.371 90.1959 133.433 92.6269 133.006 95.1709L167.548 116.185L170.269 112.267C169.633 113.832 169.277 115.496 169.218 117.184C169.118 120.577 170.216 125.542 174.307 134.258C178.3 135.456 184.814 133.609 189.779 130.739C189.554 127.62 191.077 123.802 192.225 120.609C191.343 119.963 190.417 119.38 189.455 118.862C204.094 119.826 217.869 118.735 232.89 116.906Z" fill="#5E6AD2"/>
<path d="M111.193 139.838C103.606 139.245 95.9939 139.036 88.3859 139.215C88.8609 137.598 89.1456 135.931 89.2344 134.249C82.9957 135.871 76.9567 135.92 68.9226 134.774V134.674C65.19 137.143 61.9314 145.898 64.2719 152.334L57.7929 166.017L39.3278 154.236C33.7629 157.705 30.968 162.146 28.9217 168.959L52.2031 184.904C53.7648 185.975 55.5358 186.704 57.3994 187.042C59.2631 187.381 61.1773 187.32 63.0159 186.865C64.8545 186.41 66.576 185.571 68.067 184.402C69.5579 183.234 70.7847 181.763 71.6663 180.088L79.1028 165.94L69.7173 158.771C71.0938 159.575 72.5718 160.189 74.1119 160.599C81.773 162.72 92.9763 161.872 100.511 160.949C98.2951 169.764 96.5628 178.694 95.322 187.699C100.073 190.895 105.867 192.154 111.516 191.217C115.737 179.389 119.303 167.337 122.198 155.116C122.63 153.377 122.679 151.564 122.34 149.804C122.001 148.046 121.283 146.38 120.236 144.926C119.188 143.473 117.837 142.264 116.275 141.386C114.714 140.507 112.979 139.979 111.193 139.838Z" fill="#5E6AD2"/>
<path d="M220.464 62.4318C220.276 62.2424 220.053 62.0922 219.806 61.9896C219.56 61.887 219.296 61.8342 219.029 61.8342C218.762 61.8342 218.498 61.887 218.252 61.9896C218.005 62.0922 217.782 62.2424 217.594 62.4318L217.069 62.9572L216.544 62.4318C216.163 62.0513 215.646 61.8375 215.108 61.8376C214.57 61.8378 214.053 62.0517 213.672 62.4325C213.293 62.8132 213.079 63.3295 213.079 63.8679C213.079 64.4061 213.293 64.9224 213.674 65.3029L217.089 68.6967L220.457 65.3029C220.648 65.1155 220.799 64.8923 220.903 64.6461C221.005 64.4 221.059 64.1357 221.059 63.8687C221.06 63.6018 221.008 63.3373 220.905 63.0906C220.803 62.844 220.653 62.6202 220.464 62.4318Z" fill="#5E6AD2"/>
<path d="M77.5806 208.41L74.1119 207.886L72.5647 204.766L71.0175 207.886L67.5501 208.41L70.0706 210.83L69.4716 214.274L72.5647 212.652L75.6591 214.274L75.0602 210.83L77.5806 208.41Z" fill="#5E6AD2"/>
<path d="M181.811 99.0337L179.184 101.529C179.427 100.836 179.578 100.115 179.633 99.383C180.37 99.3477 181.1 99.2305 181.811 99.0337Z" fill="#151C1C"/>
<path d="M192.741 119.028C192.566 119.527 192.391 120.051 192.192 120.604C191.311 119.958 190.385 119.374 189.422 118.857C190.545 118.903 191.643 118.978 192.741 119.028Z" fill="#151C1C"/>
<path d="M213.053 77.6042C208.965 74.2104 197.881 83.7431 197.881 83.7431C199.926 73.6614 184.955 82.2983 179.914 87.2117C182.509 85.1405 184.581 89.631 184.356 92.1764C184.356 92.7766 184.68 92.9014 185.604 92.2526C187.525 90.8551 188.898 94.1741 185.279 95.7199C185.036 95.9828 184.858 96.2971 184.754 96.6393C184.091 98.5226 184.047 100.569 184.629 102.479C201.424 99.0402 217.12 80.9731 213.053 77.6042Z" fill="#151C1C"/>
<path d="M184.206 154.161L182.21 155.883L180.463 148.471L184.206 154.161Z" fill="#151C1C"/>
<path d="M129.384 38.0275C127.384 38.0275 125.428 38.6207 123.765 39.7319C122.102 40.8432 120.806 42.4226 120.04 44.2705C119.275 46.1185 119.075 48.1519 119.465 50.1137C119.855 52.0754 120.818 53.8775 122.233 55.2918C123.647 56.7062 125.449 57.6693 127.411 58.0595C129.373 58.4499 131.406 58.2496 133.254 57.4841C135.102 56.7187 136.681 55.4223 137.792 53.7593C138.903 52.0962 139.497 50.1409 139.497 48.1407C139.5 46.812 139.239 45.4958 138.732 44.2678C138.224 43.0396 137.479 41.9237 136.54 40.9843C135.6 40.0447 134.485 39.2998 133.257 38.7925C132.029 38.2851 130.712 38.0252 129.384 38.0275ZM129.633 54.2979C129.633 54.3641 129.607 54.4276 129.56 54.4745C129.513 54.5212 129.45 54.5475 129.384 54.5475C129.35 54.5495 129.317 54.5442 129.286 54.5324C129.255 54.5206 129.227 54.5022 129.203 54.4787C129.179 54.455 129.161 54.4268 129.149 54.3957C129.137 54.3645 129.132 54.3312 129.134 54.2979V46.4622C129.135 46.3961 129.161 46.3328 129.208 46.2861C129.254 46.2394 129.318 46.213 129.384 46.2127C129.417 46.2107 129.45 46.2159 129.481 46.2278C129.513 46.2396 129.541 46.258 129.564 46.2815C129.588 46.3051 129.606 46.3334 129.618 46.3645C129.63 46.3956 129.635 46.429 129.633 46.4622V54.2979ZM128.685 42.6704C128.693 42.4871 128.771 42.3138 128.904 42.1869C129.036 42.0599 129.213 41.9892 129.396 41.9892C129.58 41.9892 129.756 42.0599 129.889 42.1869C130.021 42.3138 130.1 42.4871 130.107 42.6704C130.1 42.8538 130.021 43.027 129.889 43.1539C129.756 43.2809 129.58 43.3517 129.396 43.3517C129.213 43.3517 129.036 43.2809 128.904 43.1539C128.771 43.027 128.693 42.8538 128.685 42.6704Z" fill="#151C1C"/>
<path d="M69.5702 158.678L79.1028 165.94L81.3238 161.747C77.222 161.642 73.1999 160.591 69.5702 158.678Z" fill="#151C1C"/>
<path d="M77.8052 103.68L74.8106 101.66C75.6715 101.764 76.5396 101.797 77.4059 101.76C77.4743 102.412 77.608 103.055 77.8052 103.68Z" fill="#151C1C"/>
<path d="M170.233 112.265C169.597 113.829 169.241 115.493 169.182 117.181L167.51 116.158L170.233 112.265Z" fill="#151C1C"/>
<path d="M90.5819 112.44C90.8044 113.527 90.9628 114.627 91.0561 115.734C91.5302 115.509 92.0543 115.234 92.5783 114.96L90.5819 112.44Z" fill="#151C1C"/>
<path d="M97.3932 189.745C96.8206 191.392 96.0956 193.039 95.5978 194.485C95.9851 196.145 96.5888 197.747 97.3932 199.251C99.9136 203.918 102.434 213.076 104.43 215.372C105.528 212.103 106.701 203.894 107.475 199.276C103.58 196.716 100.167 193.491 97.3932 189.745Z" fill="#151C1C"/>
<path d="M30.968 152.264C29.2657 152.19 27.5612 152.35 25.9022 152.739C20.7117 153.936 11.2053 153.936 8.48524 155.259C11.3301 157.205 18.9399 160.524 23.1822 162.471C26.6892 159.378 30.7202 156.935 35.0855 155.259C33.6132 154.261 32.2157 153.138 30.968 152.264Z" fill="#151C1C"/>
<path d="M75.3097 87.7384C74.4862 86.3909 72.6829 86.4657 72.8642 87.4889C71.7425 86.4907 69.796 86.9635 70.0193 88.1127C68.6731 87.0147 67.101 87.8882 67.424 88.9362C66.2525 88.0379 64.9798 88.9363 65.3791 90.0093C63.7071 89.2856 62.3097 90.5347 64.2811 92.5048C65.1295 93.3532 68.8215 96.0969 70.8927 99.5656C71.0201 99.0666 71.0083 98.5424 70.8588 98.0497C70.7093 97.557 70.4275 97.1147 70.0443 96.7707C67.998 95.2235 69.3955 93.3782 70.6931 94.6495C71.841 95.7725 71.468 94.1242 70.6432 92.6532C70.8141 92.8005 71.0193 92.9026 71.24 92.9497C71.4607 92.997 71.6897 92.988 71.9059 92.9235C72.1222 92.859 72.3187 92.7412 72.4775 92.5807C72.6361 92.4203 72.752 92.2226 72.8142 92.0057C72.9779 92.1293 73.1665 92.2158 73.3669 92.259C73.5675 92.3022 73.7749 92.3013 73.975 92.2561C74.1751 92.2109 74.3629 92.1228 74.5253 91.9976C74.6878 91.8725 74.821 91.7134 74.9157 91.5315C75.8351 92.179 77.0867 91.7811 77.1366 90.8078C76.5824 89.8569 75.9585 88.8088 75.3097 87.7384Z" fill="#151C1C"/>
<path d="M68.8255 121.073L67.0051 123.418C66.7555 122.446 66.506 121.497 66.2315 120.575C67.076 120.724 68.8255 121.073 68.8255 121.073Z" fill="#151C1C"/>
<path d="M43.3691 114.91C43.3605 115.129 43.2675 115.336 43.1093 115.488C42.9513 115.64 42.7405 115.725 42.5213 115.725C42.3021 115.725 42.0913 115.64 41.9333 115.488C41.7753 115.336 41.6822 115.129 41.6735 114.91C41.6822 114.691 41.7753 114.484 41.9333 114.332C42.0913 114.18 42.3021 114.095 42.5213 114.095C42.7405 114.095 42.9513 114.18 43.1093 114.332C43.2675 114.484 43.3605 114.691 43.3691 114.91Z" fill="#151C1C"/>
<path d="M54.7484 107.424C54.7484 107.649 54.6591 107.864 54.4999 108.024C54.3409 108.183 54.125 108.272 53.9 108.272C53.675 108.272 53.4592 108.183 53.3 108.024C53.141 107.864 53.0515 107.649 53.0515 107.424C53.0515 107.199 53.141 106.983 53.3 106.824C53.4592 106.665 53.675 106.575 53.9 106.575C54.125 106.575 54.3409 106.665 54.4999 106.824C54.6591 106.983 54.7484 107.199 54.7484 107.424Z" fill="#151C1C"/>
<path d="M65.6536 115.758C65.6536 115.983 65.5642 116.199 65.4051 116.358C65.246 116.518 65.0301 116.607 64.8051 116.607C64.5802 116.607 64.3644 116.518 64.2052 116.358C64.0461 116.199 63.9567 115.983 63.9567 115.758C63.9567 115.534 64.0461 115.318 64.2052 115.159C64.3644 114.999 64.5802 114.91 64.8051 114.91C65.0301 114.91 65.246 114.999 65.4051 115.159C65.5642 115.318 65.6536 115.534 65.6536 115.758Z" fill="#151C1C"/>
<path d="M80.5252 118.129C80.5252 118.354 80.4358 118.57 80.2767 118.729C80.1175 118.888 79.9018 118.978 79.6768 118.978C79.4518 118.978 79.236 118.888 79.0768 118.729C78.9178 118.57 78.8283 118.354 78.8283 118.129C78.8283 117.904 78.9178 117.688 79.0768 117.529C79.236 117.37 79.4518 117.281 79.6768 117.281C79.9018 117.281 80.1175 117.37 80.2767 117.529C80.4358 117.688 80.5252 117.904 80.5252 118.129Z" fill="#151C1C"/>
<path d="M88.2638 105.153C88.2638 105.378 88.1743 105.594 88.0153 105.753C87.8561 105.912 87.6403 106.001 87.4153 106.001C87.1903 106.001 86.9745 105.912 86.8154 105.753C86.6563 105.594 86.5669 105.378 86.5669 105.153C86.5669 104.928 86.6563 104.712 86.8154 104.553C86.9745 104.394 87.1903 104.304 87.4153 104.304C87.6403 104.304 87.8561 104.394 88.0153 104.553C88.1743 104.712 88.2638 104.928 88.2638 105.153Z" fill="#151C1C"/>
<path d="M102.734 104.978C102.734 105.203 102.644 105.419 102.485 105.578C102.326 105.737 102.11 105.827 101.885 105.827C101.66 105.827 101.444 105.737 101.285 105.578C101.126 105.419 101.037 105.203 101.037 104.978C101.037 104.753 101.126 104.537 101.285 104.378C101.444 104.219 101.66 104.13 101.885 104.13C102.11 104.13 102.326 104.219 102.485 104.378C102.644 104.537 102.734 104.753 102.734 104.978Z" fill="#151C1C"/>
<path d="M107.625 93.4754C107.625 93.7003 107.535 93.9161 107.376 94.0753C107.217 94.2344 107.001 94.3238 106.776 94.3238C106.551 94.3238 106.335 94.2344 106.176 94.0753C106.017 93.9161 105.928 93.7003 105.928 93.4754C105.928 93.2504 106.017 93.0346 106.176 92.8754C106.335 92.7163 106.551 92.6269 106.776 92.6269C107.001 92.6269 107.217 92.7163 107.376 92.8754C107.535 93.0346 107.625 93.2504 107.625 93.4754Z" fill="#151C1C"/>
<path d="M74.2616 129.782C74.2616 130.007 74.1722 130.223 74.0131 130.382C73.8541 130.541 73.6381 130.63 73.4132 130.63C73.1882 130.63 72.9724 130.541 72.8132 130.382C72.6541 130.223 72.5647 130.007 72.5647 129.782C72.5647 129.557 72.6541 129.341 72.8132 129.182C72.9724 129.023 73.1882 128.933 73.4132 128.933C73.6381 128.933 73.8541 129.023 74.0131 129.182C74.1722 129.341 74.2616 129.557 74.2616 129.782Z" fill="#151C1C"/>
<path d="M87.4127 128.933C87.4127 129.158 87.3233 129.374 87.1642 129.533C87.0051 129.692 86.7892 129.782 86.5642 129.782C86.3393 129.782 86.1235 129.692 85.9643 129.533C85.8052 129.374 85.7158 129.158 85.7158 128.933C85.7158 128.708 85.8052 128.492 85.9643 128.333C86.1235 128.174 86.3393 128.085 86.5642 128.085C86.7892 128.085 87.0051 128.174 87.1642 128.333C87.3233 128.492 87.4127 128.708 87.4127 128.933Z" fill="#151C1C"/>
<path d="M233.314 103.581C232.441 103.631 230.894 103.705 230.544 103.73C231.193 101.66 232.344 101.634 233.314 103.581Z" fill="#151C1C"/>
<path d="M234.113 115.559C233.489 117.256 232.466 117.331 231.592 115.759C232.316 115.714 233.19 115.634 234.113 115.559Z" fill="#151C1C"/>
<path d="M142.31 87.2131C142.31 87.4381 142.221 87.6538 142.062 87.813C141.903 87.9721 141.686 88.0615 141.462 88.0615C141.237 88.0615 141.02 87.9721 140.862 87.813C140.703 87.6538 140.613 87.4381 140.613 87.2131C140.613 86.9881 140.703 86.7723 140.862 86.6131C141.02 86.454 141.237 86.3646 141.462 86.3646C141.686 86.3646 141.903 86.454 142.062 86.6131C142.221 86.7723 142.31 86.9881 142.31 87.2131Z" fill="#151C1C"/>
<path d="M227.475 106.85C227.466 107.069 227.374 107.276 227.215 107.428C227.057 107.58 226.846 107.665 226.628 107.665C226.409 107.665 226.197 107.58 226.039 107.428C225.881 107.276 225.789 107.069 225.779 106.85C225.789 106.631 225.881 106.423 226.039 106.271C226.197 106.119 226.409 106.035 226.628 106.035C226.846 106.035 227.057 106.119 227.215 106.271C227.374 106.423 227.466 106.631 227.475 106.85Z" fill="#151C1C"/>
<path d="M207.538 162.795C207.53 161.361 207.447 159.928 207.288 158.503L214.5 151.815L207.538 162.795Z" fill="#151C1C"/>
<path d="M137.369 196.732C127.621 197.95 117.724 196.899 108.448 193.663" stroke="#9CF2A0" stroke-linecap="round" stroke-linejoin="round"/>
<path d="M187.351 158.925C181.337 173.01 170.412 184.431 156.608 191.065" stroke="#9CF2A0" stroke-linecap="round" stroke-linejoin="round"/>
<path d="M191.343 122.944C191.896 125.926 192.221 128.946 192.317 131.978" stroke="#9CF2A0" stroke-linecap="round" stroke-linejoin="round"/>
<path d="M139.241 72.0393C153.805 74.3285 167.099 81.6696 176.795 92.7766" stroke="#9CF2A0" stroke-linecap="round" stroke-linejoin="round"/>
<path d="M124.093 71.4903C126.933 71.2622 129.785 71.2204 132.63 71.3656C133.13 71.3918 133.654 71.4155 134.153 71.4654" stroke="#9CF2A0" stroke-linecap="round" stroke-linejoin="round"/>
<path d="M79.577 95.67C88.8687 83.6741 102.177 75.434 117.057 72.4636" stroke="#9CF2A0" stroke-linecap="round" stroke-linejoin="round"/>
<path d="M66.4771 137.343C66.3752 135.231 66.3834 133.115 66.502 131.004C66.6218 128.756 66.855 126.516 67.2008 124.292" stroke="#9CF2A0" stroke-linecap="round" stroke-linejoin="round"/>
<path d="M95.4468 187.324C88.2228 182.692 82.0169 176.64 77.2063 169.533" stroke="#9CF2A0" stroke-linecap="round" stroke-linejoin="round"/>
<path d="M179.64 99.3633C180.366 99.3414 181.086 99.2325 181.786 99.0389L179.19 101.509" stroke="#9CF2A0" stroke-linecap="round" stroke-linejoin="round"/>
<path d="M244.669 106.126L249.585 103.88C252.703 102.458 252.737 100.941 249.011 102.133C248.785 102.206 243.246 103.853 242.373 103.98C241.699 104.078 240.534 104.178 240.403 103.73C239.902 102.023 241.979 97.4103 240.528 96.9427C239.581 96.6393 237.962 99.6155 236.934 101.759C236.214 103.259 234.964 103.506 233.316 103.581" stroke="#9CF2A0" stroke-linecap="round" stroke-linejoin="round"/>
<path d="M243.77 106.226C243.77 106.226 251.257 105.306 251.756 105.228C255.646 104.662 255.374 106.13 252.055 107.049C248.886 107.927 245.068 109.019 245.068 109.019" stroke="#9CF2A0" stroke-linecap="round" stroke-linejoin="round"/>
<path d="M243.77 108.996C246.226 109.069 248.684 109.003 251.132 108.796C255.049 108.49 254.624 109.794 251.307 110.618C249.26 111.177 247.175 111.586 245.068 111.841" stroke="#9CF2A0" stroke-linecap="round" stroke-linejoin="round"/>
<path d="M234.113 115.559C234.113 115.559 239.528 115.204 240.576 115.11C242.596 114.926 244.671 114.604 246.69 114.336C247.389 114.243 248.212 114.115 249.161 113.942C252.657 113.285 253.177 111.988 249.21 112.095C247.081 112.146 244.954 111.945 242.872 111.497" stroke="#9CF2A0" stroke-linecap="round" stroke-linejoin="round"/>
<path d="M243.621 105.028C244 108.136 243.322 111.282 241.699 113.959" stroke="#9CF2A0" stroke-linecap="round" stroke-linejoin="round"/>
<path d="M240.676 104.978C240.09 106.527 239.189 107.936 238.028 109.118C236.868 110.299 235.476 111.226 233.938 111.841" stroke="#9CF2A0" stroke-linecap="round" stroke-linejoin="round"/>
<path d="M192.757 119.038C192.582 119.537 192.407 120.061 192.208 120.614C190.91 119.741 189.809 119.176 189.438 118.867C190.561 118.913 191.659 118.988 192.757 119.038Z" stroke="#9CF2A0" stroke-linecap="round" stroke-linejoin="round"/>
<path d="M167.513 116.183L170.233 112.265C169.526 113.809 169.159 115.486 169.156 117.184" stroke="#9CF2A0" stroke-linecap="round" stroke-linejoin="round"/>
<path d="M176.524 104.005C177.427 104.005 178.593 103.23 179.194 101.509C179.436 100.817 179.587 100.095 179.644 99.3633C177.298 99.3883 174.285 98.1813 177.697 90.5058C178.431 88.8561 179.856 86.3331 181.627 86.7192C183.349 87.0962 184.531 90.1446 184.385 92.1042C184.326 92.946 184.91 92.7398 185.602 92.2473C187.536 90.8656 188.897 94.1675 185.278 95.7147C185.038 95.9787 184.858 96.2926 184.753 96.6341C183.819 100.574 183.786 103.82 187.747 104.719" stroke="#9CF2A0" stroke-linecap="round" stroke-linejoin="round"/>
<path d="M179.939 87.2131C184.98 82.297 199.953 73.6627 197.906 83.7444C197.906 83.7444 208.984 74.213 213.077 77.6055C217.149 80.9757 201.474 99.0402 184.68 102.484" stroke="#9CF2A0" stroke-linecap="round" stroke-linejoin="round"/>
<path d="M232.89 116.906C229.936 116.906 228.778 102.366 231.767 102.133C215.744 103.841 199.127 106.513 187.75 104.704C183.791 109.585 180.562 115.015 178.162 120.824C176.639 115.356 176.084 109.664 176.524 104.005C174.379 103.83 150.972 88.3098 141.116 82.5452C138.979 83.9908 137.159 85.8553 135.766 88.0257C134.371 90.1959 133.433 92.6269 133.006 95.171L169.16 117.184C169.151 117.587 169.16 118.01 169.182 118.461C169.368 121.808 170.648 126.574 174.253 134.249C178.712 135.579 185.624 133.13 189.775 130.73C189.512 127.083 191.638 122.482 192.761 119.041C206.185 119.654 219.005 118.59 232.89 116.906Z" stroke="#9CF2A0" stroke-linecap="round" stroke-linejoin="round"/>
<path d="M174.274 134.249L152.715 157.33C148.821 161.49 145.98 166.521 144.431 172.004L136.371 200.175C138.596 202.14 141.262 203.537 144.145 204.246C147.027 204.955 150.038 204.955 152.92 204.246L161.194 174.272C185.68 152.84 181.485 156.503 184.201 154.16L197.552 174.496C198.336 175.689 199.37 176.696 200.581 177.452C201.793 178.205 203.152 178.689 204.569 178.866C205.985 179.045 207.422 178.913 208.783 178.481C210.143 178.05 211.394 177.329 212.448 176.368L237.676 153.336C237.013 150.476 235.685 147.812 233.8 145.561C231.917 143.31 229.528 141.534 226.829 140.378L207.283 158.503C207.283 158.503 203.914 136.27 189.741 130.73" stroke="#9CF2A0" stroke-linecap="round" stroke-linejoin="round"/>
<path d="M182.21 155.883L180.463 148.471L184.206 154.161" stroke="#9CF2A0" stroke-linecap="round" stroke-linejoin="round"/>
<path d="M137.943 201.372C136.959 206.665 135.454 211.847 133.451 216.844C131.551 221.134 130.061 224.976 130.606 225.628C132.516 227.912 139.012 218.046 143.832 215.522C144.98 214.952 146.007 214.164 146.853 213.201C148.546 211.202 147.601 208.884 149.572 204.716" stroke="#9CF2A0" stroke-linecap="round" stroke-linejoin="round"/>
<path d="M236.658 150.268C240.79 146.751 245.123 143.476 249.635 140.462C253.551 137.866 256.87 135.421 256.77 134.598C256.417 131.653 245.593 136.425 240.202 135.97C238.92 135.836 237.625 135.947 236.384 136.295C233.888 137.049 233.564 139.414 229.646 141.885" stroke="#9CF2A0" stroke-linecap="round" stroke-linejoin="round"/>
<path d="M132.478 79.7004C132.478 74.1841 136.768 63.9002 138.442 63.057C138.487 63.0368 138.535 63.0282 138.583 63.0326C138.631 63.0369 138.677 63.0537 138.718 63.0814C138.757 63.1093 138.789 63.1468 138.81 63.1907C138.831 63.2346 138.84 63.2832 138.836 63.3315C138.262 69.2234 134.44 79.2867 139.767 83.525" stroke="#9CF2A0" stroke-linecap="round" stroke-linejoin="round"/>
<path d="M133.651 92.6519C131.729 91.3542 129.019 89.1057 129.109 86.9123C129.36 80.8496 129.322 78.0035 129.334 75.6079C129.343 73.8361 130.737 73.7849 131.68 76.8556C132.507 79.5494 133.376 83.3438 133.376 83.3438" stroke="#9CF2A0" stroke-linecap="round" stroke-linejoin="round"/>
<path d="M137.669 70.3175C138.194 69.4441 138.763 68.5444 138.991 68.1727C140.659 65.4592 141.329 66.1238 141.187 66.6255C140.632 68.5877 139.291 71.5403 138.842 73.3619C138.172 76.0426 137.032 79.7845 139.157 82.9681" stroke="#9CF2A0" stroke-linecap="round" stroke-linejoin="round"/>
<path d="M112.191 159.056C112.191 159.056 107.225 160.129 100.513 160.953" stroke="#9CF2A0" stroke-linecap="round" stroke-linejoin="round"/>
<path d="M66.4022 137.468C67.0508 136.387 67.907 135.445 68.9213 134.698V134.798C76.9567 135.945 82.9957 135.896 89.2344 134.272C89.1456 135.955 88.8609 137.621 88.3859 139.238C95.9704 139.063 103.573 139.271 111.193 139.862C112.978 140 114.71 140.525 116.27 141.403C117.831 142.279 119.18 143.486 120.226 144.938C121.271 146.391 121.987 148.055 122.323 149.812C122.659 151.57 122.608 153.38 122.172 155.116C119.282 167.34 115.717 179.394 111.493 191.224C105.843 192.16 100.049 190.902 95.297 187.705C96.5389 178.701 98.2716 169.771 100.488 160.955C92.9526 161.875 81.7506 162.719 74.0883 160.606C69.5478 159.354 65.8467 156.741 64.2378 152.296C62.4003 147.253 64.0552 141.135 66.4022 137.468Z" stroke="#9CF2A0" stroke-linecap="round" stroke-linejoin="round"/>
<path d="M88.4109 139.264C87.1631 139.289 85.9404 139.339 84.7176 139.389" stroke="#9CF2A0" stroke-linecap="round" stroke-linejoin="round"/>
<path d="M81.3028 161.746L71.6624 180.088C70.7807 181.763 69.554 183.234 68.063 184.402C66.5721 185.571 64.8506 186.41 63.012 186.865C61.1733 187.32 59.2592 187.381 57.3955 187.042C55.5319 186.704 53.7609 185.975 52.1991 184.904L28.9217 168.959C30.9706 162.139 33.7695 157.694 39.3475 154.224L57.7679 166.017L64.2561 152.292" stroke="#9CF2A0" stroke-linecap="round" stroke-linejoin="round"/>
<path d="M69.5951 158.678L79.1028 165.94" stroke="#9CF2A0" stroke-linecap="round" stroke-linejoin="round"/>
<path d="M77.8052 103.68L74.8106 101.634C75.673 101.731 76.542 101.756 77.4085 101.709" stroke="#9CF2A0" stroke-linecap="round" stroke-linejoin="round"/>
<path d="M83.395 104.304C82.9458 104.579 82.4966 104.83 82.0475 105.103C81.5597 105.486 80.956 105.692 80.3357 105.688C79.7153 105.683 79.1148 105.468 78.6326 105.078C77.8677 104.119 77.439 102.935 77.4125 101.709C81.4262 101.474 81.6718 98.7749 77.1353 90.7803C77.0881 91.013 76.9798 91.2291 76.8218 91.4064C76.6638 91.5835 76.4616 91.7158 76.2358 91.7893C76.0099 91.8629 75.7686 91.8752 75.5365 91.8251C75.3043 91.775 75.0897 91.6642 74.9144 91.5039C74.8247 91.6907 74.6939 91.8548 74.5318 91.9839C74.3697 92.113 74.1804 92.2037 73.9783 92.2493C73.7762 92.2949 73.5664 92.2942 73.3646 92.2472C73.1627 92.2003 72.9742 92.1082 72.8129 91.9781C72.7506 92.1949 72.6347 92.3925 72.4759 92.5528C72.3173 92.7132 72.1208 92.831 71.9047 92.8956C71.6885 92.9602 71.4596 92.9694 71.239 92.9225C71.0183 92.8755 70.813 92.7739 70.6419 92.6269C71.4903 94.0979 71.8397 95.7449 70.6918 94.622C69.3942 93.3506 67.9967 95.2209 70.0443 96.7444C70.4275 97.088 70.7093 97.5301 70.8589 98.0226C71.0085 98.5151 71.0201 99.0393 70.8927 99.538C72.0766 101.265 72.5499 103.382 72.214 105.448C71.9894 106.499 70.4922 107.32 68.6678 106.846C70.8442 110.756 75.3228 114.358 79.6781 112.819C84.4707 111.131 83.395 104.304 83.395 104.304Z" stroke="#9CF2A0" stroke-linecap="round" stroke-linejoin="round"/>
<path d="M114.4 83.7982C120.564 79.137 120.807 69.2812 120.807 62.2138C120.807 61.9892 121.13 61.6884 121.305 61.8198C122.864 62.8337 124.938 73.3422 124.439 78.8717" stroke="#9CF2A0" stroke-linecap="round" stroke-linejoin="round"/>
<path d="M121.473 92.1777C123.241 91.4656 124.706 90.1597 125.616 88.4844C127.516 84.2553 128.181 79.575 127.534 74.984C127.196 72.9902 126.161 73.1623 125.264 76.1818C124.464 78.8769 123.217 82.4953 123.217 82.4953" stroke="#9CF2A0" stroke-linecap="round" stroke-linejoin="round"/>
<path d="M114.297 83.7325C116.015 81.6311 117.631 77.901 117.557 75.9323C117.355 73.725 116.971 71.5382 116.409 69.3942C116.296 68.8688 116.951 68.1701 118.854 71.7583" stroke="#9CF2A0" stroke-linecap="round" stroke-linejoin="round"/>
<path d="M91.0561 115.734C90.9628 114.627 90.8044 113.527 90.5819 112.44L92.5494 114.926" stroke="#9CF2A0" stroke-linecap="round" stroke-linejoin="round"/>
<path d="M89.2593 134.273H89.2843C90.3573 127.935 91.5302 121.522 91.0561 115.734C101.021 110.506 113.686 100.373 121.527 93.4753C122.416 92.5862 119.302 88.6486 118.446 87.6386C117.567 86.6023 114.131 82.7869 112.919 83.3937C103.759 91.268 93.8832 98.2687 83.42 104.304" stroke="#9CF2A0" stroke-linecap="round" stroke-linejoin="round"/>
<path d="M108.972 191.542C108.329 194.088 107.837 196.672 107.5 199.278C103.595 196.72 100.18 193.483 97.4182 189.72C97.5181 189.502 97.6015 189.277 97.6677 189.046" stroke="#9CF2A0" stroke-linecap="round" stroke-linejoin="round"/>
<path d="M97.3932 199.246C96.5888 197.742 95.9851 196.14 95.5978 194.48C95.1733 195.483 94.9502 196.56 94.9411 197.65C95.255 199.204 95.8019 200.701 96.5632 202.091C99.1335 206.882 101.704 216.914 103.55 216.789C103.825 216.764 104.124 216.24 104.424 215.367C102.459 213.076 99.9386 203.918 97.3932 199.246Z" stroke="#9CF2A0" stroke-linecap="round" stroke-linejoin="round"/>
<path d="M97.3932 189.745C96.8206 191.392 96.0956 193.039 95.5978 194.485C95.9851 196.145 96.5888 197.747 97.3932 199.251C99.9136 203.918 102.434 213.076 104.43 215.372C105.528 212.103 106.701 203.894 107.475 199.276C103.58 196.716 100.167 193.491 97.3932 189.745Z" stroke="#9CF2A0" stroke-linecap="round" stroke-linejoin="round"/>
<path d="M29.9948 165.79C27.7926 164.547 25.5177 163.439 23.1822 162.471C26.6794 159.383 30.7027 156.949 35.0606 155.284C35.7343 155.733 35.8342 155.908 36.483 156.282" stroke="#9CF2A0" stroke-linecap="round" stroke-linejoin="round"/>
<path d="M28.0982 150.817C26.5161 150.699 24.9252 150.825 23.3818 151.193C18.0914 152.414 7.71164 152.215 7.35833 154.036C7.30842 154.311 7.73265 154.735 8.48129 155.259C11.2013 153.936 20.7077 153.936 25.9233 152.764C27.5819 152.373 29.2867 152.213 30.989 152.291C30.1351 151.609 29.1516 151.107 28.0982 150.817Z" stroke="#9CF2A0" stroke-linecap="round" stroke-linejoin="round"/>
<path d="M30.968 152.264C29.2657 152.19 27.5612 152.35 25.9022 152.739C20.7117 153.936 11.2053 153.936 8.48523 155.259C11.3301 157.205 18.9399 160.524 23.1822 162.471C26.6892 159.378 30.7202 156.935 35.0855 155.259C33.6132 154.261 32.2158 153.138 30.968 152.264Z" stroke="#9CF2A0" stroke-linecap="round" stroke-linejoin="round"/>
<path d="M15.1232 116.557C14.1749 116.881 12.9508 117.253 11.7083 117.63C9.41117 118.324 8.56403 117.905 10.8599 116.332C13.0305 114.859 15.4256 113.746 17.9522 113.038" stroke="#9CF2A0" stroke-linecap="round" stroke-linejoin="round"/>
<path d="M20.2375 110.144C19.5446 110.82 18.9174 111.561 18.3646 112.357C17.3725 113.843 16.7015 115.52 16.3945 117.281" stroke="#9CF2A0" stroke-linecap="round" stroke-linejoin="round"/>
<path d="M14.2497 114.411C5.93985 117.331 4.89701 115.969 11.8541 112.789C14.5384 111.64 17.3328 110.768 20.1942 110.186" stroke="#9CF2A0" stroke-linecap="round" stroke-linejoin="round"/>
<path d="M30.5241 116.606C27.0475 116.411 19.6294 117.708 14.2497 119.495C11.904 120.269 10.6497 119.758 13.2515 117.798C14.3477 116.979 15.5224 116.27 16.7583 115.682" stroke="#9CF2A0" stroke-linecap="round" stroke-linejoin="round"/>
<path d="M16.12 111.192C13.3264 111.841 6.95905 112.08 16.8687 108.871C18.4158 108.371 20.2835 107.952 22.0343 107.573C22.1332 106.923 22.0193 106.258 21.7099 105.677C20.6591 103.917 21.0138 103.202 22.733 104.254C24.9149 105.739 27.5058 106.507 30.1445 106.45" stroke="#9CF2A0" stroke-linecap="round" stroke-linejoin="round"/>
<path d="M22.0343 107.571C22.0232 108.23 22.1483 108.884 22.4016 109.492C22.655 110.1 23.0313 110.65 23.5069 111.106C23.9823 111.562 24.5469 111.915 25.1653 112.143C25.7835 112.371 26.4422 112.469 27.1001 112.43" stroke="#9CF2A0" stroke-linecap="round" stroke-linejoin="round"/>
<path d="M77.1314 90.8052C77.0815 91.7784 75.8338 92.1777 74.9104 91.5289C74.8159 91.7109 74.6827 91.8703 74.5204 91.9954C74.3579 92.1207 74.1699 92.2091 73.9699 92.2542C73.7698 92.2993 73.5622 92.3003 73.3617 92.2569C73.1611 92.2134 72.9725 92.1269 72.809 92.003C72.7465 92.2197 72.6305 92.4171 72.4717 92.5774C72.3129 92.7376 72.1164 92.8553 71.9003 92.9198C71.6842 92.9843 71.4553 92.9933 71.2348 92.9463C71.0142 92.8993 70.809 92.7975 70.638 92.6505C71.4615 94.1229 71.8358 95.7712 70.6879 94.6469C69.3902 93.3755 67.998 95.2156 70.039 96.7681C70.4228 97.1115 70.7049 97.5539 70.8547 98.0466C71.0043 98.5396 71.0156 99.064 70.8875 99.563C68.8176 96.0956 65.1243 93.3506 64.2758 92.5021C62.3057 90.532 63.7019 89.283 65.3738 90.0067C64.9798 88.9336 66.2473 88.0366 67.4188 88.9336C67.0944 87.8829 68.6679 87.0121 70.0141 88.1101C69.7895 86.9622 71.736 86.4881 72.8589 87.4862C72.6842 86.4631 74.4849 86.3856 75.3045 87.7358C75.9612 88.8062 77.1314 90.8052 77.1314 90.8052Z" stroke="#9CF2A0" stroke-linecap="round" stroke-linejoin="round"/>
<path d="M67.0012 123.418L68.8255 121.073C67.9284 120.899 67.08 120.723 66.2315 120.575" stroke="#9CF2A0" stroke-linecap="round" stroke-linejoin="round"/>
<path d="M68.6731 106.85C68.3487 106.725 52.6496 102.632 30.5937 104.748C29.3976 109.215 29.5346 113.934 30.9877 118.324C42.7813 117.365 54.6516 118.123 66.2276 120.573C67.6334 125.17 68.5366 129.905 68.9213 134.696" stroke="#9CF2A0" stroke-linecap="round" stroke-linejoin="round"/>
<path d="M53.2262 78.2531C53.2847 78.9292 53.1414 79.6074 52.8145 80.2021C52.4874 80.7967 51.9916 81.2811 51.3894 81.5941C50.7872 81.9069 50.1057 82.0342 49.4313 81.96C48.7567 81.8856 48.1193 81.613 47.5997 81.1765C47.08 80.74 46.7015 80.1593 46.5118 79.5077C46.3222 78.8562 46.3299 78.1629 46.5342 77.5158C46.7385 76.8686 47.1299 76.2966 47.6592 75.8719C48.1885 75.4472 48.832 75.1889 49.508 75.1298C50.4146 75.0536 51.3146 75.3393 52.0113 75.9245C52.708 76.5098 53.1448 77.3468 53.2262 78.2531Z" stroke="#9CF2A0" stroke-linecap="round" stroke-linejoin="round"/>
<path d="M190.021 197.231H179.215" stroke="#9CF2A0" stroke-linecap="round" stroke-linejoin="round"/>
<path d="M184.619 202.645V191.816" stroke="#9CF2A0" stroke-linecap="round" stroke-linejoin="round"/>
<path d="M38.4859 104.229C37.2656 108.785 37.4925 113.608 39.1347 118.029" stroke="#9CF2A0" stroke-linecap="round" stroke-linejoin="round"/>
<path d="M108.227 87.3365C111.978 89.8447 115.032 93.2632 117.102 97.2724" stroke="#9CF2A0" stroke-linecap="round" stroke-linejoin="round"/>
<path d="M233.314 103.581C232.441 103.631 230.894 103.705 230.544 103.73C231.193 101.66 232.344 101.634 233.314 103.581Z" stroke="#9CF2A0" stroke-linecap="round" stroke-linejoin="round"/>
<path d="M234.113 115.559C233.489 117.256 232.466 117.331 231.592 115.759C232.316 115.714 233.19 115.634 234.113 115.559Z" stroke="#9CF2A0" stroke-linecap="round" stroke-linejoin="round"/>
<path d="M186.103 132.525C196.209 139.618 198.974 148.373 203.22 163.916C203.369 164.458 203.654 164.953 204.048 165.355C204.443 165.756 204.933 166.049 205.473 166.208C206.013 166.365 206.584 166.382 207.132 166.257C207.681 166.131 208.188 165.869 208.605 165.492L232.344 143.981" stroke="#9CF2A0" stroke-linecap="round" stroke-linejoin="round"/>
<path d="M146.852 204.691L155.46 171.704L180.763 149.719" stroke="#9CF2A0" stroke-linecap="round" stroke-linejoin="round"/>
<path d="M82.322 138.241C81.3673 139.858 80.0789 141.253 78.5428 142.334C77.0066 143.413 75.2578 144.154 73.4132 144.505" stroke="#9CF2A0" stroke-linecap="round" stroke-linejoin="round"/>
<path d="M96.6695 179.189C99.1953 181.011 102.073 182.287 105.119 182.938C108.165 183.586 111.313 183.594 114.362 182.96" stroke="#9CF2A0" stroke-linecap="round" stroke-linejoin="round"/>
<path d="M46.0642 158.531C41.1744 161.825 38.0525 167.165 36.1586 173.897" stroke="#9CF2A0" stroke-linecap="round" stroke-linejoin="round"/>
<path d="M214.5 151.815L207.539 162.795C207.531 161.361 207.448 159.928 207.289 158.503" stroke="#9CF2A0" stroke-linecap="round" stroke-linejoin="round"/>
<path d="M114.408 83.7982C117.983 81.1031 118.854 77.0999 118.979 73.4578C118.723 70.9106 118.29 68.3846 117.681 65.8979C117.603 65.3988 118.305 64.7999 119.728 67.6697L120.551 69.4611" stroke="#9CF2A0" stroke-linecap="round" stroke-linejoin="round"/>
<path d="M129.384 38.0275C127.384 38.0275 125.428 38.6207 123.765 39.7319C122.102 40.8432 120.806 42.4226 120.04 44.2705C119.275 46.1185 119.075 48.1519 119.465 50.1137C119.855 52.0754 120.818 53.8775 122.233 55.2918C123.647 56.7062 125.449 57.6693 127.411 58.0595C129.373 58.4499 131.406 58.2496 133.254 57.4841C135.102 56.7187 136.681 55.4223 137.792 53.7593C138.903 52.0962 139.497 50.1409 139.497 48.1407C139.5 46.812 139.239 45.4958 138.733 44.2678C138.224 43.0396 137.48 41.9237 136.54 40.9843C135.6 40.0447 134.485 39.2998 133.257 38.7925C132.029 38.2851 130.712 38.0252 129.384 38.0275Z" stroke="#9CF2A0" stroke-linejoin="round"/>
</svg>
