<svg width="264" height="264" viewBox="0 0 264 264" fill="none" xmlns="http://www.w3.org/2000/svg">
<path d="M209.311 111.912L208.917 109.285C208.845 108.825 208.866 108.355 208.977 107.903C209.088 107.45 209.288 107.024 209.564 106.649C210.122 105.892 210.957 105.387 211.886 105.244L206.546 106.041C205.722 106.17 204.969 106.583 204.419 107.211C203.869 107.838 203.557 108.638 203.537 109.472L193.396 110.785C194.669 111.983 195.842 113.149 196.765 114.179L204.108 113.291C204.36 114.093 204.889 114.779 205.601 115.226C206.314 115.672 207.162 115.849 207.993 115.725L213.299 114.925C212.839 114.994 212.37 114.97 211.919 114.855C211.468 114.74 211.044 114.536 210.673 114.256C210.302 113.975 209.99 113.623 209.756 113.221C209.522 112.819 209.371 112.374 209.311 111.912Z" fill="#5E6AD2"/>
<path d="M89.9332 85.6602C83.5947 82.7471 74.0122 70.1897 72.2404 73.5835C71.321 75.3303 83.1955 97.6384 84.0938 100.883C88.1573 98.2011 92.7886 96.501 97.6219 95.9166C95.9959 92.7473 96.2454 88.5799 89.9332 85.6602Z" fill="#5E6AD2"/>
<path d="M66.1265 138.837C64.4839 138.616 62.814 138.718 61.2104 139.137C54.4228 140.733 39.7508 136.666 39.8506 140.484C39.9255 143.003 65.7522 153.261 66.8003 154.308C68.1868 149.915 70.521 145.88 73.6378 142.487C71.321 141.408 69.4455 139.361 66.1265 138.837Z" fill="#5E6AD2"/>
<path d="M231.171 36.6468C229.145 36.7718 227.201 37.4952 225.586 38.7255C223.971 39.9558 222.758 41.6376 222.099 43.5579C221.606 44.9932 221.438 46.5201 221.606 48.0283C221.774 49.5366 222.275 50.9888 223.072 52.2803C223.869 53.5717 224.943 54.6703 226.216 55.4967C227.488 56.3232 228.929 56.857 230.433 57.0597C231.937 57.2633 233.467 57.1308 234.914 56.6716C236.36 56.2125 237.687 55.4382 238.798 54.4046C239.909 53.3709 240.777 52.1036 241.339 50.694C241.902 49.2845 242.144 47.7677 242.05 46.253C241.882 43.5363 240.641 40.9976 238.602 39.1948C237.592 38.3022 236.416 37.6177 235.14 37.1805C233.865 36.7433 232.516 36.5619 231.171 36.6468ZM226.405 51.6984C225.961 51.5638 225.572 51.2901 225.296 50.9176C225.02 50.5452 224.87 50.0938 224.87 49.6301C224.87 49.1664 225.019 48.7149 225.295 48.3424C225.571 47.9698 225.96 47.6959 226.404 47.5611C226.847 47.4263 227.323 47.4377 227.759 47.5937C228.196 47.7497 228.571 48.042 228.829 48.4274C229.087 48.8128 229.214 49.2709 229.191 49.7341C229.169 50.1972 228.998 50.6409 228.704 50.9996C228.34 51.4428 227.816 51.7238 227.245 51.7811C226.961 51.81 226.676 51.7811 226.405 51.6984ZM233.167 45.7093C232.575 45.5319 232.049 45.1829 231.655 44.7066C231.262 44.2302 231.018 43.6478 230.955 43.033C230.892 42.4181 231.013 41.7984 231.302 41.2522C231.591 40.706 232.036 40.2578 232.58 39.9642C233.124 39.6706 233.742 39.5449 234.358 39.6028C234.973 39.6607 235.557 39.8998 236.037 40.2897C236.516 40.6797 236.869 41.203 237.052 41.7936C237.234 42.3842 237.237 43.0155 237.06 43.6078C236.82 44.4009 236.276 45.0668 235.547 45.4604C234.817 45.854 233.962 45.9435 233.167 45.7093ZM234.789 52.8016C234.638 52.7592 234.497 52.6871 234.374 52.5895C234.25 52.4919 234.148 52.3708 234.072 52.2333C233.996 52.0957 233.948 51.9444 233.931 51.7882C233.915 51.632 233.929 51.474 233.974 51.3234C234.019 51.1728 234.093 51.0326 234.192 50.911C234.292 50.7893 234.414 50.6887 234.553 50.615C234.692 50.5412 234.844 50.4958 235 50.4813C235.157 50.4669 235.315 50.4837 235.464 50.5308C235.761 50.624 236.009 50.8302 236.155 51.1048C236.301 51.3794 236.334 51.7004 236.245 51.9986C236.156 52.2967 235.954 52.548 235.682 52.6983C235.409 52.8485 235.089 52.8856 234.789 52.8016Z" fill="#5E6AD2"/>
<path d="M218.544 181.284C218.767 182.409 218.651 183.576 218.21 184.635C217.77 185.695 217.025 186.599 216.07 187.235C215.115 187.87 213.993 188.208 212.846 188.207C211.699 188.205 210.578 187.864 209.625 187.226C208.832 186.695 208.183 185.976 207.735 185.135C207.287 184.293 207.053 183.353 207.054 182.4C207.055 181.446 207.292 180.507 207.743 179.667C208.193 178.826 208.845 178.11 209.638 177.581C210.432 177.052 211.344 176.727 212.293 176.635C213.243 176.543 214.2 176.686 215.081 177.052C215.961 177.419 216.738 177.996 217.342 178.734C217.946 179.473 218.359 180.348 218.544 181.284Z" fill="#5E6AD2"/>
<path d="M185.526 68.7923C185.156 56.0904 194.564 58.5858 199.58 75.4302C197.583 66.8957 210.016 56.5645 210.904 105.571C210.444 105.779 210.042 106.094 209.731 106.491C206.742 99.3328 201.039 103.663 201.82 109.512C201.924 110.294 201.357 110.708 200.175 109.417C198.936 108.031 197.493 108.8 197.356 110.292L194.082 110.691C189.308 105.923 185.445 100.325 182.682 94.1698C177.117 82.516 180.261 68.9906 189.669 88.1557C187.085 82.0183 185.68 75.4495 185.526 68.7923Z" fill="#167EFF"/>
<path d="M199.601 114.057C200.109 115.712 200.336 117.442 200.273 119.173C200.036 117.13 199.066 115.692 197.579 114.121L199.601 114.057Z" fill="#167EFF"/>
<path d="M166.092 77.672C165.668 76.7526 165.041 75.5048 164.445 74.3569C166.365 74.6039 166.915 75.9002 166.092 77.672Z" fill="#167EFF"/>
<path d="M157.682 122.716C155.811 123.515 155.287 127.034 155.985 131.95L167.04 130.103C164.119 125.786 160.253 121.668 157.682 122.716Z" fill="#167EFF"/>
<path d="M177.819 162.996C177.395 165.442 176.097 166.964 173.702 165.916C175.074 164.965 176.447 163.992 177.819 162.996Z" fill="#167EFF"/>
<path d="M151.47 86.2839C149.199 86.1591 148.449 84.7617 149.547 82.6904C150.121 83.9224 150.762 85.1228 151.47 86.2839Z" fill="#167EFF"/>
<path d="M202.448 127.583C202.448 127.864 202.336 128.134 202.137 128.333C201.938 128.532 201.668 128.644 201.387 128.644C201.105 128.644 200.836 128.532 200.637 128.333C200.437 128.134 200.326 127.864 200.326 127.583C200.326 127.301 200.437 127.031 200.637 126.832C200.836 126.633 201.105 126.521 201.387 126.521C201.668 126.521 201.938 126.633 202.137 126.832C202.336 127.031 202.448 127.301 202.448 127.583Z" fill="#167EFF"/>
<path d="M219.891 121.693C219.87 121.96 219.75 122.209 219.553 122.391C219.356 122.573 219.099 122.674 218.831 122.674C218.563 122.674 218.305 122.573 218.109 122.391C217.912 122.209 217.791 121.96 217.77 121.693C217.787 121.423 217.906 121.169 218.103 120.984C218.3 120.799 218.56 120.695 218.831 120.695C219.101 120.695 219.362 120.799 219.559 120.984C219.756 121.169 219.875 121.423 219.891 121.693Z" fill="#167EFF"/>
<path d="M226.827 102.779C226.827 102.922 226.799 103.063 226.743 103.194C226.687 103.326 226.605 103.444 226.503 103.543C226.4 103.642 226.279 103.72 226.145 103.771C226.012 103.822 225.87 103.846 225.727 103.841C225.585 103.836 225.445 103.802 225.316 103.742C225.186 103.681 225.07 103.596 224.975 103.489C224.88 103.383 224.807 103.259 224.76 103.124C224.714 102.989 224.695 102.846 224.705 102.704C224.724 102.43 224.85 102.173 225.054 101.989C225.259 101.805 225.527 101.707 225.802 101.717C226.078 101.727 226.338 101.843 226.529 102.041C226.721 102.239 226.828 102.504 226.827 102.779Z" fill="#167EFF"/>
<path d="M243.245 93.2962C243.229 93.5663 243.11 93.82 242.913 94.0054C242.715 94.1908 242.455 94.2941 242.184 94.2941C241.914 94.2941 241.653 94.1908 241.456 94.0054C241.259 93.82 241.14 93.5663 241.124 93.2962C241.14 93.0261 241.259 92.7725 241.456 92.587C241.653 92.4016 241.914 92.2983 242.184 92.2983C242.455 92.2983 242.715 92.4016 242.913 92.587C243.11 92.7725 243.229 93.0261 243.245 93.2962Z" fill="#167EFF"/>
<path d="M198.132 145.275C198.122 145.55 198.006 145.81 197.808 146.001C197.61 146.192 197.346 146.299 197.071 146.3C196.796 146.299 196.533 146.192 196.335 146.001C196.138 145.81 196.022 145.55 196.011 145.275C196.021 145.001 196.137 144.741 196.335 144.55C196.533 144.359 196.796 144.252 197.071 144.251C197.346 144.252 197.61 144.359 197.807 144.55C198.005 144.741 198.122 145.001 198.132 145.275Z" fill="#167EFF"/>
<path d="M179.441 138.887C179.431 139.162 179.315 139.422 179.117 139.613C178.919 139.804 178.655 139.911 178.38 139.912C178.105 139.911 177.842 139.803 177.644 139.612C177.447 139.422 177.331 139.162 177.32 138.887C177.33 138.613 177.446 138.353 177.644 138.162C177.842 137.971 178.105 137.864 178.38 137.863C178.655 137.864 178.919 137.971 179.116 138.162C179.314 138.353 179.431 138.613 179.441 138.887Z" fill="#167EFF"/>
<path d="M184.981 120.442C184.965 120.712 184.846 120.965 184.649 121.151C184.452 121.336 184.191 121.44 183.921 121.44C183.65 121.44 183.39 121.336 183.193 121.151C182.995 120.965 182.877 120.712 182.86 120.442C182.877 120.172 182.995 119.918 183.193 119.733C183.39 119.547 183.65 119.444 183.921 119.444C184.191 119.444 184.452 119.547 184.649 119.733C184.846 119.918 184.965 120.172 184.981 120.442Z" fill="#167EFF"/>
<path d="M180.115 101.182C180.094 101.449 179.973 101.698 179.777 101.88C179.58 102.061 179.322 102.162 179.055 102.162C178.787 102.162 178.529 102.061 178.332 101.88C178.136 101.698 178.015 101.449 177.994 101.182C178.01 100.912 178.129 100.658 178.326 100.473C178.524 100.287 178.784 100.184 179.055 100.184C179.325 100.184 179.586 100.287 179.783 100.473C179.98 100.658 180.099 100.912 180.115 101.182Z" fill="#167EFF"/>
<path d="M159.704 93.2962C159.687 93.5663 159.568 93.82 159.371 94.0054C159.174 94.1908 158.914 94.2941 158.643 94.2941C158.372 94.2941 158.112 94.1908 157.915 94.0054C157.718 93.82 157.599 93.5663 157.582 93.2962C157.599 93.0261 157.718 92.7725 157.915 92.587C158.112 92.4016 158.372 92.2983 158.643 92.2983C158.914 92.2983 159.174 92.4016 159.371 92.587C159.568 92.7725 159.687 93.0261 159.704 93.2962Z" fill="#167EFF"/>
<path d="M173.203 122.555H169.36L179.441 132.249L173.203 122.555Z" fill="#167EFF"/>
<path d="M205.892 120.495C204.951 120.245 204.045 119.876 203.197 119.397L205.742 122.766C205.675 122.006 205.725 121.24 205.892 120.495Z" fill="#167EFF"/>
<path d="M206.491 126.784C207.397 131.394 206.618 136.176 204.295 140.26L207.788 137.19C208.252 133.668 207.805 130.085 206.491 126.784Z" fill="#167EFF"/>
<path d="M210.908 105.574C210.009 56.5645 197.583 66.8957 199.58 75.4302C194.564 58.5858 185.159 56.0904 185.526 68.7923C185.681 75.4493 187.087 82.0179 189.669 88.1557C180.261 68.9919 177.119 82.5147 182.681 94.1698C185.436 100.311 189.288 105.898 194.046 110.657M200.273 119.173C200.035 117.125 199.06 115.687 197.568 114.111" stroke="#101623" stroke-linecap="round" stroke-linejoin="round"/>
<path d="M77.8551 166.361C69.6595 166.934 61.4487 165.485 53.9446 162.14C46.4406 158.796 39.8732 153.659 34.82 147.181C29.7668 140.704 26.3826 133.084 24.965 124.991C23.5474 116.899 24.1399 108.582 26.6903 100.772C28.8101 94.2706 32.2375 88.2712 36.7617 83.1429C41.286 78.0147 46.8114 73.8662 52.9982 70.9523C59.185 68.0385 65.9025 66.4209 72.7375 66.1992C79.5726 65.9775 86.3808 67.1562 92.7434 69.663C99.1061 72.1697 104.889 75.9514 109.736 80.7756C114.583 85.5999 118.392 91.3646 120.929 97.7153C123.466 104.066 124.676 110.869 124.487 117.705C124.298 124.541 122.712 131.266 119.827 137.466" stroke="#101623" stroke-linecap="round" stroke-linejoin="round"/>
<path d="M88.7353 126.186C81.3987 130.603 73.513 135.044 66.1265 138.838" stroke="#101623" stroke-linecap="round" stroke-linejoin="round"/>
<path d="M111.248 82.4163C127.344 76.3287 138.776 74.5543 141.118 78.5982C144.192 83.9109 130.637 97.8382 108.603 113.31" stroke="#101623" stroke-linecap="round" stroke-linejoin="round"/>
<path d="M50.032 146.598C27.5479 156.654 10.5801 160.652 7.66044 155.606C5.28975 151.513 12.8011 142.281 26.4998 131.176" stroke="#101623" stroke-linecap="round" stroke-linejoin="round"/>
<path d="M169.36 122.555L179.441 132.249L149.347 85.4106" stroke="#101623" stroke-linecap="round" stroke-linejoin="round"/>
<path d="M211.232 114.606C211.282 124.264 203.197 119.398 203.197 119.398" stroke="#101623" stroke-linecap="round" stroke-linejoin="round"/>
<path d="M203.197 119.397L205.743 122.71" stroke="#101623" stroke-linecap="round" stroke-linejoin="round"/>
<path d="M209.76 106.423C206.903 99.4618 200.93 103.491 201.813 109.609C201.899 110.212 201.419 110.791 200.179 109.417C198.952 108.051 197.518 108.803 197.365 110.272M197.783 119.523C199.43 121.195 201.401 121.245 199.605 114.058C199.52 113.997 199.437 113.935 199.355 113.871" stroke="#101623" stroke-linecap="round" stroke-linejoin="round"/>
<path d="M166.24 75.3306C173.304 87.423 189.863 114.258 201.252 122.542C201.882 123.066 202.624 123.44 203.421 123.634C204.217 123.829 205.047 123.839 205.849 123.665C205.688 122.605 205.705 121.525 205.898 120.471" stroke="#101623" stroke-linecap="round" stroke-linejoin="round"/>
<path d="M207.589 137.385C208.961 132.993 206.491 126.779 206.491 126.779C206.491 126.779 212.347 145.658 176.897 165.564" stroke="#101623" stroke-linecap="round" stroke-linejoin="round"/>
<path d="M173.203 122.555H159.161" stroke="#101623" stroke-linecap="round" stroke-linejoin="round"/>
<path d="M204.295 140.26C204.295 140.26 229.399 119.377 246.816 91.1753C244.625 87.4059 241.141 84.5592 237.01 83.1636C231.503 91.1062 225.539 98.7219 219.148 105.972" stroke="#101623" stroke-linecap="round" stroke-linejoin="round"/>
<path d="M167.068 163.192C151.398 168.133 134.627 170.762 117.136 172.35C113.638 172.664 110.135 171.807 107.177 169.915C104.219 168.022 101.973 165.201 100.791 161.894C94.7231 144.853 89.0952 128.385 81.5524 102.779C84.3557 100.455 87.5545 98.6538 90.9957 97.4624C94.0276 96.4246 97.1908 95.8201 100.392 95.667L120.077 137.989L167.04 130.108" stroke="#101623" stroke-linecap="round" stroke-linejoin="round"/>
<path d="M173.702 165.912C180.763 169.001 177.924 152.939 173.203 141.707C170.538 135.367 162.212 120.099 157.458 122.855C155.769 123.833 155.315 127.261 155.985 131.975" stroke="#101623" stroke-linecap="round" stroke-linejoin="round"/>
<path d="M96.8442 150.689L75.2598 140.839C70.5454 145.301 67.2918 151.086 65.9268 157.432C81.4997 169.597 98.1459 180.321 115.66 189.473C117.746 190.586 120.056 191.216 122.419 191.315C124.782 191.414 127.136 190.981 129.309 190.047C146.416 182.821 162.683 173.749 177.819 162.991" stroke="#101623" stroke-linecap="round" stroke-linejoin="round"/>
<path d="M97.6178 95.9168C92.7845 96.5011 88.1532 98.2011 84.0898 100.883C83.1915 97.6387 71.317 75.3319 72.2364 73.5838C74.0174 70.1939 83.592 82.7369 89.9292 85.6671C96.248 88.5762 95.9958 92.7476 97.6178 95.9168Z" stroke="#101623" stroke-linecap="round" stroke-linejoin="round"/>
<path d="M66.1265 138.837C64.4839 138.616 62.814 138.718 61.2104 139.137C54.4228 140.733 39.7508 136.666 39.8506 140.484C39.9255 143.003 65.7522 153.261 66.8003 154.308C68.1868 149.915 70.521 145.88 73.6378 142.487C71.321 141.408 69.4455 139.361 66.1265 138.837Z" stroke="#101623" stroke-linecap="round" stroke-linejoin="round"/>
<path d="M154.613 61.2562C154.613 61.2562 154.613 58.2866 154.588 53.67C154.562 48.8288 156.44 47.9016 157.158 53.3955C157.236 53.9944 158.156 60.0085 158.431 61.7803C158.581 62.7535 159.278 65.4407 160.178 65.3264C162.646 65.0047 167.296 59.6053 168.761 61.2089C169.714 62.2596 166.845 66.0527 164.718 68.6204C164.119 69.3418 163.747 70.2248 163.649 71.1576C163.552 72.0904 163.733 73.0312 164.17 73.8609C164.244 74.008 165.959 77.4583 166.092 77.6698" stroke="#101623" stroke-linecap="round" stroke-linejoin="round"/>
<path d="M154.985 62.4788C154.985 62.4788 151.792 52.3721 151.591 51.6984C150.007 46.4041 148.315 47.6071 149.095 52.3721C149.839 56.9152 150.671 62.4538 150.671 62.4538" stroke="#101623" stroke-linecap="round" stroke-linejoin="round"/>
<path d="M151.469 64.0972C149.923 61.0206 148.563 57.8539 147.397 54.6144C145.495 49.4265 144.073 50.7228 144.951 55.4878C145.43 58.4319 146.132 61.3351 147.053 64.172" stroke="#101623" stroke-linecap="round" stroke-linejoin="round"/>
<path d="M149.533 82.7172C148.456 84.774 149.209 86.1609 151.47 86.2844C156.067 86.534 164.16 81.7965 166.092 77.6724C166.922 75.9033 166.365 74.607 164.445 74.3574" stroke="#101623" stroke-linecap="round" stroke-linejoin="round"/>
<path d="M148.821 66.7736C147.007 64.3692 145.491 61.754 144.307 58.9851C142.141 53.8628 140.779 55.2695 141.986 60.133C142.308 61.4307 142.643 62.5523 142.934 63.5019C143.788 66.2206 144.606 68.9669 145.38 71.712C146.225 74.7328 149.17 82.9166 151.47 86.2907" stroke="#101623" stroke-linecap="round" stroke-linejoin="round"/>
<path d="M156.609 61.98C151.968 63.4523 149.347 65.823 146.328 69.666" stroke="#101623" stroke-linecap="round" stroke-linejoin="round"/>
<path d="M157.757 64.1509C156.122 65.8013 154.85 67.7744 154.021 69.9442C153.191 72.1141 152.824 74.433 152.941 76.753" stroke="#101623" stroke-linecap="round" stroke-linejoin="round"/>
<path d="M238.058 83.5893C238.058 83.5893 241.203 77.7998 240.278 73.2594C239.181 67.8744 240.065 67.7628 242.749 72.4608C244.528 75.5749 245.543 83.0403 245.543 83.0403" stroke="#101623" stroke-linecap="round" stroke-linejoin="round"/>
<path d="M246.068 89.9774C246.068 89.9774 250.857 82.1666 252.007 76.9011C253.004 72.3344 251.283 74.382 250.659 75.8504" stroke="#101623" stroke-linecap="round" stroke-linejoin="round"/>
<path d="M246.602 73.082C246.848 71.3895 246.928 69.677 246.841 67.9689C246.517 63.1277 245.365 63.4508 244.595 67.6196C244.247 69.576 243.781 71.5094 243.198 73.409" stroke="#101623" stroke-linecap="round" stroke-linejoin="round"/>
<path d="M245.693 72.0366C247.832 74.3249 249.187 77.2351 249.561 80.3452" stroke="#101623" stroke-linecap="round" stroke-linejoin="round"/>
<path d="M246.841 70.4892C247.215 69.4385 247.566 68.2656 247.892 66.9706C249.034 62.4276 250.038 63.3522 249.813 67.4448C249.635 70.3189 249.121 73.1624 248.283 75.9175" stroke="#101623" stroke-linecap="round" stroke-linejoin="round"/>
<path d="M249.561 70.4144C250.734 65.4734 251.909 66.2719 251.582 70.7388C251.302 73.7342 250.57 76.67 249.411 79.4466" stroke="#101623" stroke-linecap="round" stroke-linejoin="round"/>
<path d="M73.2135 190.216L73.8124 193.66" stroke="#101623" stroke-linecap="round" stroke-linejoin="round"/>
<path d="M71.1423 197.478L67.6736 198.102" stroke="#101623" stroke-linecap="round" stroke-linejoin="round"/>
<path d="M81.0992 195.731L77.6305 196.33" stroke="#101623" stroke-linecap="round" stroke-linejoin="round"/>
<path d="M75.5592 203.617L74.9603 200.148" stroke="#101623" stroke-linecap="round" stroke-linejoin="round"/>
<path d="M77.6253 196.33C76.9832 196.449 76.3205 196.372 75.7223 196.111C75.1242 195.849 74.6182 195.414 74.2695 194.862C74.0375 194.496 73.8804 194.087 73.8072 193.66C73.8859 194.086 73.8791 194.524 73.787 194.948C73.695 195.372 73.5197 195.773 73.2712 196.128C73.0227 196.483 72.7061 196.786 72.3397 197.017C71.9734 197.249 71.5645 197.406 71.1371 197.478C71.5633 197.401 72.0006 197.409 72.4239 197.501C72.8472 197.593 73.2481 197.768 73.6037 198.015C73.9591 198.264 74.2617 198.58 74.4937 198.946C74.7258 199.312 74.8826 199.721 74.9551 200.148C74.8765 199.722 74.8833 199.284 74.9753 198.861C75.0674 198.437 75.2427 198.036 75.4912 197.681C75.7396 197.325 76.0563 197.023 76.4226 196.791C76.789 196.559 77.1978 196.403 77.6253 196.33Z" stroke="#101623" stroke-linecap="round" stroke-linejoin="round"/>
<path d="M123.072 42.166L123.496 44.5866" stroke="#101623" stroke-linecap="round" stroke-linejoin="round"/>
<path d="M121.599 47.2817L119.179 47.706" stroke="#101623" stroke-linecap="round" stroke-linejoin="round"/>
<path d="M128.635 46.0586L126.191 46.4828" stroke="#101623" stroke-linecap="round" stroke-linejoin="round"/>
<path d="M124.719 51.6238L124.294 49.1782" stroke="#101623" stroke-linecap="round" stroke-linejoin="round"/>
<path d="M126.191 46.483C125.889 46.5363 125.58 46.5296 125.281 46.463C124.982 46.3965 124.699 46.2715 124.449 46.0952C124.198 45.919 123.985 45.6949 123.822 45.436C123.658 45.177 123.547 44.8883 123.496 44.5864C123.55 44.8883 123.543 45.1978 123.477 45.4971C123.41 45.7965 123.285 46.0797 123.109 46.3306C122.933 46.5815 122.709 46.795 122.45 46.9589C122.19 47.1227 121.901 47.2337 121.599 47.2855C121.901 47.2321 122.21 47.2389 122.509 47.3054C122.808 47.372 123.091 47.497 123.341 47.6732C123.592 47.8495 123.805 48.0735 123.968 48.3325C124.132 48.5914 124.243 48.8801 124.294 49.182C124.241 48.8802 124.247 48.5706 124.313 48.2713C124.38 47.972 124.505 47.6887 124.681 47.4378C124.857 47.187 125.081 46.9734 125.341 46.8096C125.6 46.6457 125.889 46.5347 126.191 46.483Z" stroke="#101623" stroke-linecap="round" stroke-linejoin="round"/>
<path d="M242.973 110.191L244.046 116.229" stroke="#101623" stroke-linecap="round" stroke-linejoin="round"/>
<path d="M239.355 122.917L233.317 123.99" stroke="#101623" stroke-linecap="round" stroke-linejoin="round"/>
<path d="M256.773 119.847L250.734 120.92" stroke="#101623" stroke-linecap="round" stroke-linejoin="round"/>
<path d="M247.116 133.622L246.042 127.583" stroke="#101623" stroke-linecap="round" stroke-linejoin="round"/>
<path d="M250.731 120.92C249.984 121.051 249.218 121.034 248.478 120.869C247.738 120.704 247.037 120.395 246.416 119.959C245.795 119.524 245.266 118.97 244.859 118.33C244.452 117.69 244.175 116.976 244.044 116.229C244.308 117.737 243.962 119.289 243.082 120.543C242.202 121.798 240.861 122.651 239.352 122.916C240.099 122.785 240.865 122.803 241.605 122.967C242.346 123.132 243.047 123.441 243.668 123.877C244.289 124.313 244.818 124.866 245.225 125.506C245.632 126.147 245.909 126.861 246.04 127.608C245.776 126.099 246.122 124.547 247.001 123.293C247.881 122.039 249.223 121.185 250.731 120.92Z" stroke="#101623" stroke-linecap="round" stroke-linejoin="round"/>
<path d="M212.854 182.407L166.565 201.421" stroke="#101623" stroke-linecap="round" stroke-linejoin="round"/>
<path d="M155.636 215.57L212.854 182.407L143.159 236.606" stroke="#101623" stroke-linecap="round" stroke-linejoin="round"/>
<path d="M218.544 181.284C218.767 182.409 218.651 183.576 218.21 184.635C217.77 185.695 217.025 186.599 216.069 187.235C215.115 187.87 213.993 188.208 212.846 188.207C211.699 188.205 210.578 187.864 209.625 187.226C208.832 186.695 208.183 185.976 207.735 185.135C207.287 184.293 207.053 183.353 207.054 182.4C207.055 181.446 207.292 180.507 207.743 179.667C208.193 178.826 208.845 178.11 209.638 177.581C210.432 177.052 211.344 176.727 212.293 176.635C213.243 176.543 214.2 176.686 215.081 177.052C215.961 177.419 216.738 177.996 217.342 178.734C217.946 179.473 218.359 180.348 218.544 181.284Z" stroke="#101623" stroke-linecap="round" stroke-linejoin="round"/>
<path d="M214.975 104.826C242.773 77.3006 194.414 54.9163 222.212 27.394" stroke="#101623" stroke-linecap="round" stroke-linejoin="round"/>
<path d="M92.9014 96.8652L110.894 145.7" stroke="#101623" stroke-linecap="round" stroke-linejoin="round"/>
<path d="M110.894 145.7C111.79 148.121 113.499 150.157 115.729 151.458C117.959 152.76 120.572 153.247 123.121 152.835" stroke="#101623" stroke-linecap="round" stroke-linejoin="round"/>
<path d="M123.146 152.835L174.326 144.502" stroke="#101623" stroke-linecap="round" stroke-linejoin="round"/>
<path d="M196.76 114.184L204.195 113.285L203.621 109.467L193.391 110.79L196.76 114.184Z" stroke="#101623" stroke-linecap="round" stroke-linejoin="round"/>
<path d="M211.881 105.275L206.541 106.073C205.848 106.18 205.202 106.49 204.684 106.963C204.167 107.436 203.801 108.052 203.633 108.733C203.521 109.185 203.5 109.656 203.571 110.116L203.965 112.743C204.102 113.672 204.602 114.509 205.355 115.07C206.108 115.631 207.053 115.871 207.983 115.736L213.3 114.926" stroke="#101623" stroke-linecap="round" stroke-linejoin="round"/>
<path d="M217.296 114.332C217.757 114.262 218.199 114.102 218.597 113.861C218.996 113.62 219.343 113.302 219.618 112.927C220.174 112.168 220.407 111.22 220.266 110.291L219.872 107.664C219.736 106.734 219.236 105.896 218.483 105.335C217.729 104.773 216.784 104.534 215.854 104.669L211.886 105.268C211.193 105.375 210.547 105.684 210.03 106.158C209.512 106.631 209.146 107.247 208.978 107.928C208.867 108.38 208.846 108.85 208.917 109.311L209.311 111.931C209.408 112.622 209.709 113.268 210.174 113.788C210.639 114.308 211.248 114.678 211.924 114.852C212.374 114.966 212.841 114.991 213.299 114.926L217.296 114.332Z" stroke="#101623" stroke-linecap="round" stroke-linejoin="round"/>
<path d="M231.171 36.6468C229.145 36.7718 227.201 37.4952 225.586 38.7255C223.971 39.9558 222.758 41.6376 222.099 43.5579C221.606 44.9932 221.438 46.5201 221.606 48.0283C221.774 49.5366 222.275 50.9888 223.072 52.2803C223.869 53.5717 224.943 54.6703 226.216 55.4967C227.488 56.3232 228.929 56.857 230.433 57.0597C231.937 57.2633 233.467 57.1308 234.914 56.6716C236.36 56.2125 237.687 55.4382 238.798 54.4046C239.909 53.3709 240.777 52.1036 241.339 50.694C241.902 49.2845 242.144 47.7677 242.05 46.253C241.882 43.5363 240.641 40.9976 238.602 39.1948C237.592 38.3022 236.416 37.6177 235.14 37.1805C233.865 36.7433 232.516 36.5619 231.171 36.6468ZM226.405 51.6984C225.961 51.5638 225.572 51.2901 225.296 50.9176C225.02 50.5452 224.87 50.0938 224.87 49.6301C224.87 49.1664 225.019 48.7149 225.295 48.3424C225.571 47.9698 225.96 47.6959 226.404 47.5611C226.847 47.4263 227.323 47.4377 227.759 47.5937C228.196 47.7497 228.571 48.042 228.829 48.4274C229.087 48.8128 229.214 49.2709 229.191 49.7341C229.169 50.1972 228.998 50.6409 228.704 50.9996C228.34 51.4428 227.816 51.7238 227.245 51.7811C226.961 51.81 226.676 51.7811 226.405 51.6984ZM233.167 45.7093C232.575 45.5319 232.049 45.1829 231.655 44.7066C231.262 44.2302 231.018 43.6478 230.955 43.033C230.892 42.4181 231.013 41.7984 231.302 41.2522C231.591 40.706 232.036 40.2578 232.58 39.9642C233.124 39.6706 233.742 39.5449 234.358 39.6028C234.973 39.6607 235.557 39.8998 236.037 40.2897C236.516 40.6797 236.869 41.203 237.052 41.7936C237.234 42.3842 237.237 43.0155 237.06 43.6078C236.82 44.4009 236.276 45.0668 235.547 45.4604C234.817 45.854 233.962 45.9435 233.167 45.7093ZM234.789 52.8016C234.638 52.7592 234.497 52.6871 234.374 52.5895C234.25 52.4919 234.148 52.3708 234.072 52.2333C233.996 52.0957 233.948 51.9444 233.931 51.7882C233.915 51.632 233.929 51.474 233.974 51.3234C234.019 51.1728 234.093 51.0326 234.192 50.911C234.292 50.7893 234.414 50.6887 234.553 50.615C234.692 50.5412 234.844 50.4958 235 50.4813C235.157 50.4669 235.315 50.4837 235.464 50.5308C235.761 50.624 236.009 50.8302 236.155 51.1048C236.301 51.3794 236.334 51.7004 236.245 51.9986C236.156 52.2967 235.954 52.548 235.682 52.6983C235.409 52.8485 235.089 52.8856 234.789 52.8016Z" stroke="#101623"/>
</svg>
