<svg width="20" height="20" viewBox="0 0 20 20" fill="none" xmlns="http://www.w3.org/2000/svg">
<path d="M0 10C0 4.47715 4.47715 0 10 0C15.5228 0 20 4.47715 20 10C20 15.5228 15.5228 20 10 20C4.47715 20 0 15.5228 0 10Z" fill="#0456A9"/>
<path d="M9.18405 17C8.49261 17 7.81776 16.8613 7.17827 16.588C5.93806 16.0578 4.98098 15.0819 4.48335 13.8401L4.48315 13.8396C3.98543 12.5973 4.00711 11.2378 4.54419 10.0116C4.8463 9.3218 5.30816 8.7005 5.88211 8.2112C5.85044 7.4628 5.99271 6.7047 6.29482 6.0148C7.09705 4.1834 8.9201 3 10.9394 3C11.6303 3 12.3048 3.1385 12.9438 3.4115C12.9442 3.4117 12.9451 3.412 12.9451 3.412C14.1854 3.9422 15.1423 4.9181 15.6401 6.1599C16.138 7.4024 16.1164 8.762 15.5792 9.9884C15.2771 10.6782 14.8151 11.2995 14.2413 11.7888C14.2731 12.5372 14.1308 13.2953 13.8286 13.9852C13.0263 15.8166 11.2032 17 9.18405 17ZM6.19791 9.748C6.01408 9.9861 5.85963 10.247 5.73745 10.5261C5.34263 11.4276 5.32495 12.4294 5.6879 13.3469C6.05575 14.2769 6.76786 15.0069 7.69318 15.4025C8.16892 15.6059 8.67064 15.709 9.18445 15.709C10.6851 15.709 12.0396 14.8306 12.6353 13.4711L12.6355 13.4707C12.7569 13.1936 12.8433 12.9058 12.8934 12.6125C12.2746 12.8685 11.6019 13.003 10.9344 13.003C10.2431 13.003 9.56848 12.8644 8.92919 12.5911C8.1869 12.2737 7.52614 11.7805 7.01852 11.1648C6.67295 10.7461 6.39182 10.26 6.19791 9.748ZM7.26898 8.8079C7.53003 9.9658 8.33756 10.9328 9.4438 11.4058C9.91944 11.6092 10.4212 11.7123 10.9348 11.7123C11.6113 11.7123 12.2731 11.5327 12.8544 11.1923C12.5933 10.0344 11.7858 9.0674 10.6796 8.5944C10.204 8.391 9.70235 8.2879 9.18864 8.2879C8.51209 8.2878 7.85032 8.4674 7.26898 8.8079ZM9.18924 6.9969C9.88048 6.9969 10.5551 7.1355 11.1945 7.4088C11.9368 7.7261 12.5975 8.2193 13.1052 8.8351C13.4505 9.2539 13.7316 9.7399 13.9256 10.252C14.1094 10.0138 14.2639 9.7529 14.3861 9.4739C14.7841 8.5651 14.8002 7.5575 14.4312 6.6369C14.062 5.7155 13.3515 4.9913 12.4304 4.5975C11.9547 4.3941 11.453 4.291 10.9392 4.291C9.4383 4.291 8.0837 5.1696 7.48817 6.5293C7.36679 6.8064 7.28037 7.0941 7.23032 7.3875C7.84913 7.1315 8.52168 6.9969 9.18924 6.9969Z" fill="#F5F5F5"/>
</svg>
