<svg width="144" height="144" viewBox="0 0 144 144" fill="none" xmlns="http://www.w3.org/2000/svg">
<path d="M50.1243 22.4073C50.1243 22.4073 63.9039 38.2041 93.5702 20.1549C119.917 4.12561 131.205 40.3706 128.104 55.9648C124.088 76.1657 98.5044 87.6928 106.552 103.175C114.6 118.658 77.8699 133.858 64.4408 111.332C47.7353 83.3108 37.9224 101.232 25.6184 98.6818C16.7879 96.8517 3.20526 71.1527 18.8313 57.366C31.9805 45.7648 27.3066 40.0414 25.5723 34.7152C23.0711 27.0337 36.2557 10.3232 50.1243 22.4073Z" fill="#DFECF6"/>
<path d="M33.7406 99.9865L104.93 99.8713C105.558 99.8703 106.18 99.7456 106.76 99.5043C107.34 99.263 107.866 98.9098 108.31 98.465C108.753 98.0201 109.105 97.4923 109.344 96.9116C109.583 96.331 109.706 95.7088 109.705 95.0807L109.634 51.1071C109.633 50.4791 109.508 49.8573 109.267 49.2774C109.026 48.6975 108.673 48.1708 108.228 47.7274C107.783 47.284 107.255 46.9326 106.675 46.6931C106.094 46.4537 105.472 46.331 104.844 46.332L33.1778 46.3414C30.7365 46.3414 28.7835 44.0048 28.8714 42.002V46.4547L28.9501 95.2111C28.9511 95.8392 29.0757 96.461 29.317 97.0409C29.5583 97.6208 29.9114 98.1476 30.3563 98.591C30.8011 99.0344 31.329 99.3859 31.9096 99.6254C32.4903 99.8648 33.1125 99.9875 33.7406 99.9865V99.9865Z" fill="#7BB8F7"/>
<path d="M82.3286 63.8797L109.764 63.8352C110.718 63.8337 111.635 64.2115 112.311 64.8855C112.987 65.5595 113.368 66.4746 113.369 67.4294L113.388 78.745C113.389 79.6997 113.012 80.616 112.338 81.2923C111.664 81.9685 110.748 82.3493 109.794 82.3508L82.3586 82.3953C82.176 82.3956 82.0006 82.3233 81.8712 82.1944C81.7419 82.0654 81.669 81.8903 81.6687 81.7076L81.6409 64.5697C81.6406 64.387 81.7129 64.2117 81.8419 64.0823C81.9708 63.9529 82.1459 63.88 82.3286 63.8797V63.8797Z" fill="#0565C7"/>
<path d="M91.2382 77.3628C93.5791 77.3628 95.4768 75.4652 95.4768 73.1243C95.4768 70.7834 93.5791 68.8857 91.2382 68.8857C88.8973 68.8857 86.9996 70.7834 86.9996 73.1243C86.9996 75.4652 88.8973 77.3628 91.2382 77.3628Z" fill="white"/>
<path d="M32.4715 37.1284H93.9654C94.9201 37.1284 95.8358 37.5077 96.5109 38.1828C97.1861 38.858 97.5654 39.7736 97.5654 40.7284V46.3419H33.498C32.2709 46.3419 31.0942 45.8545 30.2265 44.9868C29.3589 44.1192 28.8715 42.9424 28.8715 41.7154V40.7284C28.8715 39.7736 29.2507 38.858 29.9259 38.1828C30.601 37.5077 31.5167 37.1284 32.4715 37.1284V37.1284Z" fill="#0565C7"/>
<path d="M80.3395 41.1738C80.2559 41.1738 80.1749 41.1448 80.1104 41.0916C80.0458 41.0385 80.0018 40.9645 79.9859 40.8824C79.9699 40.8003 79.983 40.7152 80.023 40.6418C80.0629 40.5683 80.1272 40.5111 80.2048 40.4798C80.2192 40.4739 80.5738 40.3313 81.2243 40.092C81.3139 40.059 81.4129 40.063 81.4996 40.103C81.5863 40.1431 81.6535 40.2159 81.6865 40.3055C81.7194 40.3951 81.7154 40.4942 81.6754 40.5808C81.6353 40.6675 81.5625 40.7347 81.4729 40.7677C80.8328 41.0032 80.4776 41.1462 80.474 41.1476C80.4313 41.1648 80.3856 41.1737 80.3395 41.1738Z" fill="#0565C7"/>
<path d="M95.4055 124.074C95.1546 124.074 94.8989 124.069 94.6453 124.059C94.5978 124.057 94.5512 124.046 94.5079 124.027C94.4647 124.007 94.4258 123.979 94.3935 123.944C94.3611 123.909 94.336 123.869 94.3195 123.824C94.303 123.78 94.2954 123.732 94.2973 123.685C94.2992 123.637 94.3104 123.591 94.3304 123.548C94.3503 123.505 94.3786 123.466 94.4136 123.434C94.4486 123.402 94.4896 123.377 94.5342 123.361C94.5788 123.344 94.6262 123.337 94.6737 123.339C95.3848 123.368 96.097 123.354 96.8065 123.298C96.8536 123.294 96.9011 123.3 96.946 123.315C96.991 123.329 97.0327 123.352 97.0687 123.383C97.1047 123.414 97.1343 123.451 97.1558 123.493C97.1774 123.535 97.1904 123.581 97.1942 123.628C97.198 123.675 97.1924 123.723 97.1779 123.768C97.1633 123.813 97.1401 123.854 97.1094 123.89C97.0788 123.926 97.0413 123.956 96.9993 123.978C96.9572 123.999 96.9112 124.012 96.8641 124.016C96.3866 124.054 95.8959 124.074 95.4055 124.074ZM92.4942 123.857C92.4768 123.857 92.4594 123.856 92.4421 123.853C91.7397 123.751 91.01 123.612 90.2734 123.438C90.1805 123.416 90.1 123.358 90.0498 123.277C89.9995 123.196 89.9836 123.098 90.0055 123.005C90.0274 122.912 90.0853 122.832 90.1665 122.781C90.2477 122.731 90.3455 122.715 90.4385 122.737C91.1547 122.906 91.8636 123.042 92.5454 123.14C92.6355 123.153 92.7173 123.2 92.7745 123.271C92.8316 123.342 92.8597 123.432 92.8532 123.522C92.8467 123.613 92.8061 123.698 92.7395 123.76C92.6729 123.822 92.5852 123.857 92.4942 123.857V123.857ZM98.9875 123.704C98.8986 123.704 98.8128 123.671 98.7467 123.611C98.6805 123.552 98.6388 123.47 98.6295 123.381C98.6203 123.293 98.6441 123.204 98.6964 123.132C98.7487 123.06 98.8258 123.01 98.9128 122.992C99.6071 122.843 100.291 122.649 100.96 122.411C101.05 122.379 101.149 122.384 101.235 122.425C101.321 122.466 101.388 122.54 101.42 122.63C101.452 122.72 101.446 122.819 101.405 122.905C101.364 122.991 101.291 123.058 101.201 123.09C100.502 123.338 99.7882 123.541 99.063 123.696C99.0382 123.701 99.0129 123.704 98.9875 123.704V123.704ZM88.2561 122.87C88.2197 122.87 88.1835 122.865 88.1488 122.854C87.4799 122.645 86.7808 122.404 86.0697 122.137C85.9803 122.104 85.9078 122.036 85.8683 121.949C85.8289 121.862 85.8255 121.763 85.8591 121.674C85.8926 121.584 85.9603 121.512 86.0473 121.472C86.1342 121.433 86.2333 121.43 86.3227 121.463C87.0211 121.725 87.7073 121.962 88.3633 122.167C88.4455 122.192 88.5157 122.246 88.5613 122.319C88.607 122.392 88.6249 122.479 88.612 122.564C88.599 122.65 88.556 122.727 88.4907 122.783C88.4254 122.839 88.3422 122.87 88.2561 122.87ZM103.079 122.253C102.998 122.253 102.919 122.226 102.856 122.176C102.792 122.126 102.747 122.055 102.729 121.977C102.71 121.898 102.718 121.815 102.752 121.741C102.786 121.668 102.844 121.608 102.917 121.572C103.552 121.25 104.169 120.893 104.764 120.502C104.803 120.475 104.848 120.457 104.894 120.448C104.941 120.439 104.989 120.439 105.035 120.448C105.082 120.458 105.126 120.476 105.166 120.503C105.205 120.53 105.239 120.564 105.265 120.604C105.291 120.644 105.309 120.688 105.318 120.735C105.326 120.782 105.326 120.83 105.316 120.876C105.306 120.923 105.287 120.967 105.26 121.006C105.233 121.045 105.198 121.078 105.158 121.104C104.541 121.51 103.9 121.881 103.241 122.214C103.191 122.24 103.135 122.253 103.079 122.253V122.253ZM84.1735 121.348C84.125 121.348 84.0771 121.339 84.0325 121.32C83.3965 121.049 82.7233 120.748 82.0313 120.425C81.988 120.406 81.949 120.378 81.9166 120.343C81.8842 120.308 81.859 120.267 81.8424 120.223C81.8259 120.178 81.8184 120.13 81.8204 120.083C81.8223 120.035 81.8337 119.989 81.8538 119.946C81.8738 119.902 81.9023 119.864 81.9374 119.832C81.9726 119.8 82.0137 119.775 82.0585 119.759C82.1033 119.743 82.1509 119.736 82.1984 119.738C82.2459 119.74 82.2925 119.752 82.3354 119.773C83.0201 120.092 83.686 120.389 84.3147 120.657C84.3911 120.69 84.4539 120.748 84.4924 120.821C84.531 120.895 84.543 120.979 84.5264 121.06C84.5097 121.142 84.4655 121.215 84.4012 121.267C84.3369 121.32 84.2565 121.348 84.1735 121.348V121.348ZM106.718 119.88C106.644 119.88 106.571 119.856 106.51 119.813C106.449 119.77 106.403 119.71 106.379 119.639C106.354 119.569 106.351 119.493 106.372 119.421C106.392 119.35 106.434 119.286 106.492 119.239C107.031 118.805 107.573 118.328 108.103 117.822C108.172 117.756 108.264 117.72 108.36 117.722C108.455 117.724 108.546 117.764 108.612 117.833C108.678 117.903 108.713 117.995 108.711 118.09C108.709 118.186 108.669 118.277 108.6 118.342C108.056 118.862 107.498 119.352 106.944 119.8C106.88 119.852 106.8 119.88 106.718 119.88L106.718 119.88ZM80.2187 119.513C80.1634 119.513 80.1088 119.5 80.0593 119.476C79.4519 119.175 78.8137 118.852 78.1088 118.488C78.0668 118.467 78.0294 118.437 77.9989 118.401C77.9683 118.365 77.9452 118.323 77.9308 118.278C77.9164 118.233 77.911 118.186 77.915 118.139C77.9189 118.091 77.9321 118.046 77.9537 118.004C77.9754 117.962 78.0051 117.924 78.0412 117.894C78.0773 117.863 78.1191 117.84 78.1641 117.826C78.2091 117.811 78.2565 117.806 78.3037 117.81C78.3508 117.814 78.3967 117.827 78.4387 117.848C79.1403 118.21 79.7749 118.531 80.3788 118.831C80.4516 118.867 80.5101 118.926 80.5447 119C80.5794 119.073 80.5881 119.156 80.5696 119.235C80.551 119.314 80.5063 119.385 80.4426 119.435C80.3789 119.486 80.3 119.513 80.2187 119.513V119.513ZM76.3405 117.52C76.282 117.52 76.2245 117.505 76.1729 117.478C75.5734 117.162 74.9716 116.844 74.3674 116.522L74.245 116.458C74.2028 116.436 74.1652 116.406 74.1346 116.369C74.104 116.333 74.0809 116.291 74.0667 116.245C74.0525 116.2 74.0475 116.152 74.0519 116.105C74.0562 116.057 74.07 116.011 74.0923 115.969C74.1146 115.927 74.145 115.89 74.1818 115.86C74.2186 115.829 74.261 115.807 74.3065 115.793C74.3521 115.779 74.4 115.775 74.4473 115.78C74.4946 115.785 74.5405 115.799 74.5824 115.822L74.7048 115.886C75.3084 116.207 75.9097 116.525 76.5086 116.841C76.5799 116.879 76.6364 116.939 76.6694 117.012C76.7023 117.086 76.7097 117.168 76.6903 117.246C76.671 117.324 76.626 117.394 76.5626 117.443C76.4992 117.493 76.421 117.52 76.3405 117.52L76.3405 117.52ZM109.869 116.883C109.8 116.883 109.731 116.863 109.673 116.825C109.614 116.787 109.568 116.732 109.54 116.669C109.512 116.605 109.503 116.534 109.514 116.465C109.525 116.396 109.556 116.332 109.603 116.281C110.07 115.766 110.542 115.215 111.003 114.642C111.063 114.569 111.15 114.523 111.244 114.513C111.338 114.503 111.433 114.531 111.507 114.591C111.58 114.65 111.628 114.736 111.638 114.831C111.649 114.925 111.622 115.019 111.564 115.094C111.093 115.678 110.613 116.24 110.136 116.765C110.102 116.802 110.061 116.832 110.015 116.852C109.969 116.873 109.919 116.883 109.869 116.883V116.883ZM72.4886 115.482C72.4303 115.482 72.3729 115.468 72.3213 115.44C71.6085 115.066 70.9773 114.737 70.3917 114.436C70.3068 114.392 70.2426 114.317 70.2134 114.226C70.1842 114.135 70.1923 114.036 70.2359 113.951C70.2796 113.866 70.3552 113.802 70.4462 113.773C70.5371 113.744 70.6359 113.752 70.7209 113.795C71.3084 114.097 71.9415 114.427 72.6564 114.803C72.7276 114.84 72.7843 114.901 72.8173 114.974C72.8503 115.047 72.8577 115.13 72.8384 115.208C72.819 115.286 72.7741 115.356 72.7107 115.405C72.6472 115.455 72.569 115.482 72.4885 115.482L72.4886 115.482ZM112.604 113.498C112.538 113.498 112.473 113.479 112.416 113.445C112.36 113.41 112.314 113.36 112.284 113.301C112.254 113.242 112.24 113.176 112.246 113.11C112.251 113.044 112.274 112.98 112.313 112.926C112.723 112.36 113.137 111.762 113.543 111.149C113.596 111.069 113.678 111.014 113.772 110.995C113.865 110.976 113.963 110.995 114.042 111.047C114.122 111.1 114.177 111.182 114.196 111.276C114.215 111.369 114.196 111.466 114.144 111.546C113.732 112.168 113.312 112.775 112.896 113.349C112.863 113.395 112.819 113.433 112.768 113.459C112.717 113.485 112.661 113.498 112.604 113.498V113.498ZM68.6106 113.493C68.5553 113.493 68.5007 113.48 68.4511 113.456C67.7653 113.116 67.125 112.807 66.4939 112.511C66.4087 112.47 66.3432 112.396 66.3115 112.307C66.2799 112.218 66.2848 112.12 66.325 112.034C66.3652 111.948 66.4376 111.882 66.5265 111.849C66.6153 111.816 66.7135 111.82 66.7997 111.859C67.4354 112.157 68.0802 112.469 68.7706 112.811C68.8434 112.847 68.9019 112.906 68.9365 112.98C68.9712 113.053 68.9799 113.136 68.9614 113.215C68.9428 113.294 68.8981 113.365 68.8344 113.415C68.7707 113.466 68.6918 113.493 68.6106 113.493V113.493ZM64.6599 111.644C64.6103 111.644 64.5613 111.634 64.5159 111.614C63.8339 111.317 63.1601 111.035 62.5134 110.779C62.4695 110.761 62.4294 110.735 62.3955 110.702C62.3616 110.669 62.3345 110.63 62.3157 110.587C62.297 110.543 62.287 110.497 62.2863 110.449C62.2856 110.402 62.2942 110.355 62.3116 110.311C62.3291 110.267 62.355 110.227 62.388 110.193C62.4209 110.159 62.4602 110.132 62.5036 110.113C62.547 110.095 62.5937 110.085 62.6409 110.084C62.6882 110.083 62.7352 110.092 62.7791 110.109C63.4333 110.369 64.1146 110.653 64.8039 110.954C64.8797 110.987 64.9418 111.046 64.9798 111.119C65.0178 111.193 65.0293 111.277 65.0124 111.358C64.9955 111.439 64.9512 111.512 64.887 111.564C64.8228 111.616 64.7426 111.644 64.6599 111.644V111.644ZM60.6033 110.039C60.5627 110.039 60.5224 110.032 60.4841 110.018C59.789 109.774 59.0967 109.549 58.4261 109.349C58.3808 109.335 58.3386 109.313 58.302 109.283C58.2653 109.253 58.2349 109.216 58.2124 109.175C58.1899 109.133 58.1759 109.088 58.171 109.041C58.1662 108.994 58.1707 108.946 58.1842 108.901C58.1977 108.855 58.22 108.813 58.2499 108.777C58.2797 108.74 58.3164 108.71 58.358 108.687C58.3996 108.665 58.4453 108.651 58.4923 108.646C58.5393 108.641 58.5868 108.645 58.6321 108.659C59.3136 108.862 60.0169 109.091 60.7226 109.339C60.8028 109.367 60.8704 109.423 60.9136 109.496C60.9567 109.569 60.9725 109.655 60.9583 109.739C60.944 109.823 60.9005 109.899 60.8356 109.954C60.7706 110.009 60.6883 110.039 60.6033 110.039V110.039ZM115.01 109.869C114.946 109.869 114.883 109.852 114.828 109.82C114.773 109.787 114.727 109.741 114.696 109.685C114.665 109.629 114.649 109.566 114.65 109.503C114.651 109.439 114.669 109.376 114.703 109.322C115.068 108.722 115.437 108.094 115.799 107.454C115.822 107.412 115.853 107.374 115.89 107.344C115.927 107.314 115.97 107.292 116.016 107.279C116.062 107.265 116.111 107.261 116.158 107.267C116.206 107.273 116.252 107.288 116.294 107.311C116.335 107.335 116.372 107.367 116.401 107.404C116.43 107.442 116.452 107.486 116.464 107.532C116.476 107.578 116.479 107.627 116.473 107.674C116.466 107.722 116.45 107.767 116.426 107.808C116.06 108.455 115.687 109.09 115.317 109.697C115.285 109.749 115.24 109.793 115.186 109.823C115.132 109.853 115.072 109.869 115.01 109.869V109.869ZM41.3658 109.05C41.2795 109.05 41.1961 109.019 41.1307 108.963C41.0653 108.906 41.0224 108.828 41.0097 108.743C40.997 108.658 41.0153 108.571 41.0614 108.498C41.1075 108.425 41.1783 108.371 41.2608 108.346C41.9656 108.13 42.6841 107.942 43.3961 107.787C43.4894 107.766 43.587 107.784 43.6673 107.835C43.7477 107.887 43.8043 107.968 43.8247 108.062C43.8451 108.155 43.8275 108.252 43.776 108.333C43.7244 108.413 43.6431 108.47 43.5498 108.49C42.8567 108.641 42.1573 108.825 41.4711 109.034C41.437 109.045 41.4015 109.05 41.3658 109.05V109.05ZM56.4245 108.796C56.3961 108.796 56.3678 108.793 56.3402 108.786C55.6306 108.616 54.9205 108.468 54.2295 108.347C54.1366 108.329 54.0544 108.276 54.0007 108.198C53.9469 108.12 53.9259 108.025 53.9422 107.931C53.9586 107.838 54.0109 107.755 54.0879 107.7C54.1649 107.645 54.2604 107.623 54.3537 107.638C55.0593 107.762 55.7842 107.912 56.5083 108.086C56.5941 108.107 56.6695 108.158 56.72 108.23C56.7705 108.302 56.7927 108.391 56.7824 108.478C56.7721 108.566 56.7299 108.647 56.6639 108.705C56.598 108.764 56.5128 108.796 56.4245 108.796V108.796ZM45.618 108.122C45.5266 108.122 45.4386 108.087 45.372 108.025C45.3053 107.962 45.2648 107.877 45.2588 107.786C45.2529 107.694 45.2818 107.604 45.3398 107.534C45.3977 107.463 45.4804 107.417 45.571 107.405C46.2952 107.309 47.035 107.241 47.7698 107.204C47.817 107.202 47.8642 107.209 47.9088 107.225C47.9533 107.241 47.9943 107.265 48.0293 107.297C48.0644 107.329 48.0929 107.367 48.1131 107.41C48.1334 107.453 48.145 107.499 48.1474 107.546C48.1497 107.593 48.1428 107.641 48.1269 107.685C48.111 107.73 48.0865 107.771 48.0548 107.806C48.0231 107.841 47.9847 107.869 47.942 107.889C47.8993 107.91 47.853 107.921 47.8058 107.924C47.0907 107.96 46.3707 108.025 45.6659 108.119C45.65 108.121 45.634 108.122 45.618 108.122V108.122ZM52.1378 108.05C52.1251 108.05 52.1124 108.049 52.0997 108.048C51.3817 107.973 50.6597 107.924 49.955 107.903C49.8596 107.9 49.7691 107.859 49.7037 107.79C49.6382 107.72 49.603 107.627 49.6058 107.532C49.6087 107.436 49.6494 107.346 49.7189 107.281C49.7885 107.215 49.8812 107.18 49.9766 107.183C50.6995 107.204 51.4392 107.255 52.175 107.332C52.2666 107.341 52.351 107.386 52.4108 107.456C52.4706 107.526 52.5013 107.616 52.4965 107.708C52.4917 107.8 52.4519 107.887 52.3852 107.95C52.3185 108.014 52.23 108.05 52.1379 108.05L52.1378 108.05ZM117.158 106.081C117.096 106.081 117.035 106.065 116.981 106.034C116.927 106.004 116.881 105.96 116.849 105.906C116.817 105.853 116.8 105.793 116.798 105.731C116.796 105.669 116.811 105.607 116.84 105.552C117.17 104.929 117.503 104.279 117.831 103.623C117.852 103.58 117.881 103.543 117.916 103.512C117.952 103.481 117.994 103.457 118.038 103.442C118.083 103.427 118.131 103.421 118.178 103.424C118.225 103.427 118.271 103.44 118.313 103.461C118.356 103.482 118.393 103.511 118.424 103.547C118.455 103.583 118.479 103.624 118.494 103.669C118.509 103.714 118.515 103.761 118.512 103.808C118.509 103.855 118.496 103.901 118.475 103.944C118.145 104.606 117.809 105.26 117.476 105.889C117.445 105.947 117.4 105.996 117.344 106.029C117.287 106.063 117.223 106.081 117.158 106.081V106.081ZM119.102 102.183C119.041 102.183 118.981 102.168 118.928 102.138C118.875 102.109 118.83 102.067 118.798 102.016C118.765 101.964 118.746 101.906 118.743 101.845C118.739 101.785 118.75 101.724 118.776 101.669C119.078 101.029 119.383 100.365 119.682 99.6962C119.701 99.6531 119.729 99.6141 119.763 99.5816C119.797 99.5492 119.838 99.5238 119.882 99.5069C119.926 99.49 119.973 99.482 120.021 99.4833C120.068 99.4847 120.114 99.4953 120.157 99.5146C120.201 99.5339 120.24 99.5615 120.272 99.5959C120.305 99.6302 120.33 99.6706 120.347 99.7148C120.364 99.759 120.372 99.806 120.37 99.8533C120.369 99.9006 120.358 99.9471 120.339 99.9903C120.038 100.664 119.731 101.332 119.428 101.976C119.399 102.038 119.352 102.09 119.295 102.127C119.237 102.163 119.17 102.183 119.102 102.183L119.102 102.183ZM120.882 98.207C120.822 98.207 120.764 98.1922 120.711 98.164C120.659 98.1358 120.614 98.0951 120.582 98.0454C120.549 97.9958 120.529 97.9388 120.523 97.8795C120.518 97.8202 120.527 97.7605 120.551 97.7058C120.829 97.054 121.11 96.3792 121.387 95.7004C121.404 95.6559 121.43 95.6154 121.463 95.5811C121.496 95.5468 121.536 95.5195 121.58 95.5007C121.624 95.4819 121.671 95.472 121.719 95.4715C121.766 95.4711 121.814 95.4801 121.858 95.4981C121.902 95.5162 121.942 95.5428 121.976 95.5764C122.01 95.6101 122.036 95.6502 122.055 95.6943C122.073 95.7384 122.082 95.7856 122.082 95.8334C122.082 95.8811 122.072 95.9282 122.053 95.9722C121.775 96.6546 121.492 97.333 121.213 97.9882C121.185 98.053 121.139 98.1083 121.08 98.1472C121.022 98.1861 120.953 98.2068 120.882 98.2069L120.882 98.207ZM122.528 94.1732C122.469 94.1731 122.411 94.1588 122.359 94.1315C122.308 94.1041 122.263 94.0645 122.23 94.0161C122.197 93.9677 122.177 93.912 122.17 93.8538C122.163 93.7956 122.171 93.7366 122.192 93.6821C122.451 93.0209 122.713 92.338 122.97 91.6522C123.004 91.5628 123.071 91.4905 123.158 91.451C123.245 91.4116 123.344 91.4083 123.434 91.4419C123.523 91.4755 123.595 91.5432 123.635 91.6301C123.674 91.7171 123.678 91.8161 123.644 91.9055C123.385 92.5942 123.122 93.2801 122.863 93.9441C122.836 94.0115 122.79 94.0694 122.731 94.1103C122.671 94.1511 122.6 94.173 122.528 94.1731L122.528 94.1732ZM124.061 90.0951C124.003 90.0951 123.946 90.0811 123.895 90.0544C123.844 90.0278 123.8 89.9891 123.767 89.9418C123.733 89.8945 123.712 89.8399 123.704 89.7826C123.697 89.7253 123.703 89.667 123.723 89.6127C123.965 88.9438 124.21 88.2545 124.452 87.5639C124.467 87.5187 124.491 87.477 124.522 87.4411C124.554 87.4053 124.592 87.3761 124.635 87.3551C124.677 87.3342 124.724 87.3219 124.772 87.3191C124.819 87.3163 124.867 87.3229 124.912 87.3386C124.957 87.3543 124.998 87.3788 125.034 87.4107C125.069 87.4425 125.098 87.4811 125.118 87.5242C125.139 87.5672 125.15 87.6139 125.153 87.6615C125.155 87.7091 125.148 87.7567 125.131 87.8014C124.889 88.4945 124.643 89.1864 124.4 89.8578C124.374 89.9273 124.328 89.9873 124.268 90.0297C124.207 90.0722 124.135 90.095 124.061 90.095L124.061 90.0951ZM125.497 85.9809C125.44 85.9809 125.384 85.9674 125.333 85.9413C125.282 85.9153 125.238 85.8776 125.205 85.8313C125.172 85.7849 125.15 85.7313 125.141 85.6749C125.133 85.6185 125.138 85.5608 125.156 85.5067C125.388 84.8123 125.615 84.1171 125.831 83.4403C125.86 83.3493 125.923 83.2735 126.008 83.2297C126.093 83.1859 126.192 83.1775 126.283 83.2065C126.374 83.2355 126.45 83.2994 126.493 83.3842C126.537 83.469 126.546 83.5678 126.517 83.6588C126.3 84.3389 126.072 85.0374 125.839 85.735C125.815 85.8066 125.769 85.8688 125.708 85.9129C125.646 85.957 125.573 85.9808 125.497 85.9809L125.497 85.9809ZM126.819 81.8283C126.763 81.8283 126.707 81.8151 126.657 81.7899C126.607 81.7647 126.563 81.7281 126.53 81.683C126.496 81.6379 126.474 81.5856 126.464 81.5303C126.454 81.475 126.458 81.4181 126.474 81.3644C126.684 80.666 126.889 79.9643 127.083 79.2786C127.109 79.1867 127.171 79.1089 127.254 79.0623C127.337 79.0157 127.436 79.0041 127.528 79.0301C127.619 79.0561 127.697 79.1175 127.744 79.2009C127.79 79.2842 127.802 79.3826 127.776 79.4745C127.581 80.164 127.375 80.8698 127.163 81.572C127.141 81.646 127.096 81.7109 127.034 81.7571C126.972 81.8032 126.896 81.8282 126.819 81.8283L126.819 81.8283ZM128.003 77.6344C127.948 77.6344 127.894 77.6218 127.844 77.5975C127.795 77.5733 127.752 77.5379 127.718 77.4943C127.684 77.4507 127.661 77.4 127.65 77.346C127.639 77.292 127.641 77.2362 127.655 77.1829C127.841 76.4757 128.019 75.7672 128.186 75.0771C128.209 74.985 128.267 74.9058 128.349 74.8566C128.43 74.8075 128.527 74.7924 128.619 74.8146C128.712 74.8369 128.791 74.8947 128.841 74.9754C128.891 75.0562 128.907 75.1534 128.886 75.2459C128.718 75.9408 128.538 76.654 128.351 77.3658C128.331 77.4427 128.286 77.5107 128.223 77.5593C128.16 77.6078 128.083 77.6342 128.004 77.6343L128.003 77.6344ZM129.024 73.3977C128.97 73.3978 128.917 73.3858 128.868 73.3626C128.82 73.3394 128.777 73.3056 128.743 73.2637C128.709 73.2218 128.685 73.1729 128.673 73.1205C128.661 73.0682 128.66 73.0137 128.672 72.9611C128.827 72.2462 128.974 71.531 129.108 70.8353C129.116 70.7885 129.134 70.744 129.16 70.7041C129.186 70.6643 129.219 70.6299 129.259 70.6031C129.298 70.5763 129.342 70.5575 129.388 70.5478C129.435 70.5382 129.483 70.5378 129.53 70.5468C129.576 70.5557 129.621 70.5739 129.66 70.6001C129.7 70.6263 129.734 70.6601 129.761 70.6996C129.787 70.739 129.806 70.7834 129.815 70.83C129.824 70.8766 129.824 70.9246 129.815 70.9712C129.68 71.6726 129.532 72.3937 129.376 73.1142C129.358 73.1945 129.314 73.2664 129.25 73.318C129.186 73.3696 129.106 73.3977 129.024 73.3977V73.3977ZM129.844 69.1181C129.792 69.1181 129.74 69.1067 129.693 69.0848C129.645 69.0629 129.603 69.0309 129.57 68.9911C129.536 68.9513 129.511 68.9047 129.497 68.8544C129.483 68.8041 129.48 68.7513 129.488 68.6998C129.607 67.9758 129.715 67.2543 129.808 66.5554C129.813 66.5081 129.828 66.4625 129.852 66.4211C129.875 66.3797 129.907 66.3433 129.945 66.3142C129.982 66.2851 130.025 66.2637 130.071 66.2513C130.117 66.2389 130.165 66.2358 130.212 66.242C130.26 66.2483 130.305 66.2639 130.346 66.2879C130.387 66.3119 130.423 66.3438 130.452 66.3817C130.481 66.4197 130.502 66.463 130.514 66.5091C130.525 66.5552 130.528 66.6032 130.521 66.6504C130.428 67.3564 130.319 68.0852 130.199 68.8163C130.185 68.9004 130.142 68.9769 130.077 69.0321C130.012 69.0874 129.93 69.1179 129.845 69.1181H129.844ZM130.416 64.7987C130.404 64.7987 130.392 64.798 130.38 64.7969C130.333 64.7922 130.287 64.7784 130.246 64.7561C130.204 64.7338 130.167 64.7035 130.137 64.6669C130.107 64.6304 130.085 64.5883 130.071 64.543C130.057 64.4978 130.053 64.4503 130.057 64.4032C130.129 63.6742 130.187 62.9481 130.229 62.2451C130.235 62.1498 130.278 62.0607 130.35 61.9973C130.421 61.934 130.515 61.9016 130.61 61.9074C130.705 61.9131 130.795 61.9564 130.858 62.0279C130.921 62.0993 130.954 62.193 130.948 62.2883C130.905 63.0004 130.847 63.7355 130.774 64.474C130.765 64.5628 130.724 64.6451 130.658 64.7051C130.592 64.7651 130.506 64.7984 130.416 64.7987H130.416ZM130.673 60.4499H130.667C130.62 60.4491 130.573 60.439 130.53 60.4202C130.487 60.4014 130.447 60.3743 130.415 60.3403C130.382 60.3063 130.356 60.2662 130.338 60.2222C130.321 60.1783 130.313 60.1313 130.313 60.084C130.317 59.8302 130.32 59.5769 130.32 59.3308C130.32 58.8583 130.312 58.3848 130.297 57.9232C130.295 57.8756 130.302 57.8281 130.318 57.7835C130.335 57.7388 130.36 57.6978 130.392 57.6629C130.425 57.628 130.464 57.5998 130.507 57.58C130.55 57.5603 130.597 57.5493 130.644 57.5477C130.692 57.5461 130.739 57.554 130.784 57.5709C130.828 57.5877 130.869 57.6133 130.904 57.646C130.938 57.6787 130.966 57.7179 130.985 57.7614C131.005 57.8049 131.015 57.8518 131.016 57.8994C131.032 58.3688 131.04 58.8505 131.04 59.3308C131.04 59.5807 131.037 59.8381 131.033 60.0957C131.032 60.19 130.993 60.28 130.926 60.3461C130.859 60.4123 130.768 60.4495 130.674 60.4496L130.673 60.4499ZM130.524 56.0988C130.434 56.0987 130.347 56.065 130.281 56.0043C130.215 55.9437 130.174 55.8605 130.166 55.771C130.1 55.0421 130.012 54.3231 129.904 53.6341C129.896 53.5871 129.898 53.539 129.908 53.4925C129.919 53.4461 129.939 53.4022 129.967 53.3635C129.995 53.3248 130.03 53.292 130.071 53.267C130.111 53.242 130.156 53.2254 130.204 53.218C130.251 53.2106 130.299 53.2127 130.345 53.2241C130.391 53.2355 130.435 53.2559 130.473 53.2843C130.512 53.3127 130.544 53.3484 130.568 53.3893C130.593 53.4303 130.609 53.4757 130.616 53.5229C130.726 54.2273 130.816 54.962 130.883 55.7064C130.887 55.7534 130.882 55.8009 130.868 55.846C130.854 55.8912 130.831 55.9331 130.801 55.9694C130.77 56.0057 130.733 56.0356 130.691 56.0576C130.649 56.0795 130.604 56.093 130.556 56.0973C130.546 56.098 130.535 56.0985 130.524 56.0985L130.524 56.0988ZM129.845 51.8027C129.764 51.8026 129.685 51.7751 129.621 51.7247C129.558 51.6742 129.513 51.6038 129.495 51.5247C129.328 50.816 129.135 50.1207 128.917 49.4596C128.901 49.4144 128.895 49.3664 128.898 49.3186C128.9 49.2707 128.913 49.2239 128.934 49.1809C128.955 49.1379 128.985 49.0996 129.021 49.0682C129.057 49.0368 129.099 49.0129 129.145 48.998C129.19 48.983 129.238 48.9773 129.286 48.9812C129.334 48.9851 129.38 48.9985 129.423 49.0206C129.466 49.0427 129.503 49.0731 129.534 49.11C129.564 49.1468 129.587 49.1894 129.601 49.2353C129.825 49.9166 130.025 50.6315 130.195 51.3604C130.208 51.4133 130.208 51.4683 130.196 51.5213C130.184 51.5742 130.161 51.6239 130.127 51.6664C130.093 51.7089 130.05 51.7433 130.001 51.7669C129.952 51.7905 129.899 51.8027 129.845 51.8027H129.845ZM128.484 47.6756C128.414 47.6756 128.346 47.6553 128.287 47.6171C128.229 47.5789 128.182 47.5245 128.154 47.4606C127.868 46.8084 127.546 46.1724 127.19 45.5553C127.144 45.4728 127.133 45.3757 127.158 45.2849C127.184 45.1941 127.243 45.1168 127.325 45.0697C127.407 45.0226 127.504 45.0093 127.595 45.0328C127.686 45.0563 127.765 45.1146 127.813 45.1953C128.182 45.8351 128.516 46.4945 128.813 47.1707C128.837 47.2255 128.847 47.2854 128.843 47.3451C128.838 47.4048 128.818 47.4623 128.785 47.5125C128.753 47.5626 128.708 47.6039 128.655 47.6324C128.603 47.6609 128.544 47.6759 128.484 47.6759V47.6756ZM126.305 43.9196C126.249 43.9197 126.194 43.9067 126.144 43.8817C126.094 43.8567 126.05 43.8204 126.016 43.7756C125.59 43.2068 125.13 42.6649 124.637 42.1529C124.57 42.0842 124.534 41.9919 124.536 41.8965C124.538 41.801 124.577 41.7102 124.646 41.6439C124.715 41.5776 124.807 41.5414 124.902 41.5432C124.998 41.5449 125.089 41.5845 125.155 41.6533C125.669 42.1866 126.149 42.7513 126.593 43.344C126.633 43.3974 126.657 43.461 126.663 43.5276C126.669 43.5942 126.657 43.6612 126.627 43.721C126.597 43.7808 126.551 43.831 126.494 43.8662C126.437 43.9013 126.372 43.92 126.305 43.92L126.305 43.9196ZM123.291 40.7939C123.209 40.794 123.129 40.7657 123.065 40.7139C122.511 40.2671 121.931 39.8536 121.328 39.4755C121.247 39.4248 121.19 39.344 121.169 39.2509C121.148 39.1578 121.164 39.0601 121.215 38.9792C121.266 38.8984 121.346 38.841 121.439 38.8197C121.533 38.7984 121.63 38.8149 121.711 38.8657C122.338 39.2589 122.942 39.6891 123.518 40.1538C123.576 40.2006 123.618 40.2642 123.638 40.3358C123.658 40.4075 123.656 40.4837 123.631 40.5539C123.606 40.6241 123.56 40.6848 123.499 40.7278C123.438 40.7708 123.366 40.7938 123.291 40.7938V40.7939ZM83.4046 40.0693C83.3191 40.0693 83.2364 40.0389 83.1713 39.9836C83.1062 39.9282 83.0628 39.8515 83.0491 39.7672C83.0353 39.6828 83.0521 39.5963 83.0962 39.5232C83.1404 39.45 83.2092 39.3949 83.2903 39.3678C83.9695 39.1401 84.6708 38.9147 85.3746 38.6982C85.42 38.6835 85.4679 38.678 85.5155 38.6819C85.563 38.6859 85.6093 38.6992 85.6517 38.7213C85.694 38.7433 85.7316 38.7735 85.7621 38.8101C85.7927 38.8468 85.8157 38.8891 85.8297 38.9347C85.8438 38.9803 85.8486 39.0283 85.8439 39.0758C85.8393 39.1233 85.8252 39.1694 85.8026 39.2114C85.78 39.2534 85.7492 39.2905 85.7121 39.3205C85.675 39.3505 85.6324 39.3729 85.5865 39.3863C84.8881 39.6014 84.1928 39.825 83.5191 40.0508C83.4822 40.0631 83.4435 40.0693 83.4046 40.0693V40.0693ZM87.5715 38.7848C87.4846 38.7848 87.4005 38.7533 87.335 38.6962C87.2694 38.6391 87.2267 38.5602 87.2148 38.4741C87.2029 38.3879 87.2226 38.3004 87.2702 38.2276C87.3178 38.1549 87.3902 38.1018 87.4739 38.0782C88.1752 37.8802 88.8863 37.6884 89.5872 37.5084C89.6793 37.4857 89.7766 37.5003 89.858 37.549C89.9394 37.5977 89.9983 37.6765 90.0219 37.7684C90.0455 37.8602 90.0319 37.9577 89.984 38.0396C89.9362 38.1214 89.858 38.1811 89.7664 38.2057C89.071 38.3843 88.3655 38.5746 87.6696 38.7712C87.6377 38.7802 87.6047 38.7848 87.5716 38.7848H87.5715ZM119.614 38.4783C119.56 38.4783 119.507 38.466 119.458 38.4423C118.83 38.1387 118.166 37.8581 117.485 37.6082C117.396 37.5749 117.324 37.5077 117.284 37.4213C117.244 37.3349 117.241 37.2363 117.273 37.1471C117.306 37.0578 117.373 36.9852 117.459 36.9449C117.545 36.9047 117.644 36.9001 117.733 36.9323C118.436 37.1903 119.122 37.4803 119.771 37.7941C119.845 37.8297 119.904 37.889 119.939 37.9625C119.974 38.036 119.983 38.1192 119.965 38.1987C119.947 38.2781 119.902 38.349 119.839 38.3998C119.775 38.4505 119.696 38.4782 119.614 38.4781L119.614 38.4783ZM91.7945 37.7007C91.706 37.7007 91.6206 37.6682 91.5547 37.6093C91.4887 37.5504 91.4467 37.4692 91.4367 37.3813C91.4268 37.2934 91.4495 37.2049 91.5006 37.1328C91.5517 37.0606 91.6276 37.0097 91.7138 36.9899C92.4282 36.825 93.1481 36.6686 93.8532 36.5251C93.9468 36.5061 94.0441 36.525 94.1237 36.5777C94.2033 36.6304 94.2588 36.7126 94.2778 36.8061C94.2968 36.8997 94.2779 36.997 94.2252 37.0766C94.1725 37.1563 94.0904 37.2117 93.9968 37.2307C93.2978 37.3731 92.5841 37.5282 91.8757 37.6915C91.8491 37.6976 91.8218 37.7006 91.7945 37.7005L91.7945 37.7007ZM115.533 36.9725C115.501 36.9724 115.469 36.9682 115.439 36.9599C114.765 36.7776 114.059 36.6158 113.342 36.4793C113.295 36.4709 113.25 36.4534 113.21 36.4276C113.17 36.4018 113.135 36.3684 113.108 36.3291C113.081 36.2899 113.062 36.2457 113.052 36.1991C113.043 36.1524 113.042 36.1043 113.051 36.0575C113.06 36.0107 113.078 35.9661 113.104 35.9264C113.131 35.8866 113.164 35.8524 113.204 35.8259C113.244 35.7993 113.288 35.7809 113.335 35.7716C113.382 35.7624 113.43 35.7625 113.476 35.772C114.212 35.912 114.935 36.0778 115.627 36.2648C115.711 36.2875 115.784 36.3401 115.833 36.4127C115.881 36.4854 115.901 36.5731 115.89 36.6597C115.879 36.7462 115.836 36.8257 115.77 36.8832C115.705 36.9407 115.62 36.9725 115.533 36.9725H115.533ZM96.0662 36.8325C95.9761 36.8325 95.8893 36.7986 95.8229 36.7377C95.7565 36.6768 95.7154 36.5932 95.7077 36.5034C95.7 36.4136 95.7262 36.3242 95.7812 36.2528C95.8361 36.1814 95.9159 36.1333 96.0047 36.1178C96.7302 35.991 97.4581 35.875 98.168 35.7728C98.2625 35.7592 98.3586 35.7837 98.435 35.8409C98.5115 35.8982 98.562 35.9834 98.5756 36.0779C98.5892 36.1725 98.5647 36.2685 98.5075 36.345C98.4503 36.4214 98.365 36.472 98.2705 36.4856C97.5677 36.5868 96.8471 36.7016 96.1286 36.8272C96.1081 36.8306 96.0873 36.8323 96.0666 36.8322L96.0662 36.8325ZM100.379 36.2139C100.287 36.2139 100.199 36.1786 100.132 36.1152C100.065 36.0519 100.025 35.9654 100.02 35.8735C100.015 35.7816 100.046 35.6913 100.105 35.6211C100.165 35.5509 100.249 35.5062 100.34 35.4961C101.076 35.4147 101.811 35.3468 102.523 35.2945C102.618 35.2875 102.712 35.3185 102.785 35.3809C102.857 35.4433 102.901 35.5318 102.909 35.627C102.916 35.7222 102.884 35.8163 102.822 35.8886C102.76 35.9609 102.671 36.0055 102.576 36.0126C101.872 36.0645 101.147 36.1316 100.419 36.2119C100.406 36.2132 100.393 36.2138 100.38 36.2137L100.379 36.2139ZM111.256 36.1515C111.241 36.1515 111.227 36.1506 111.212 36.1489C110.517 36.064 109.794 35.9977 109.062 35.9513C109.015 35.9485 108.969 35.9364 108.926 35.9156C108.883 35.8949 108.845 35.8659 108.814 35.8304C108.783 35.7949 108.759 35.7536 108.743 35.7087C108.728 35.6639 108.721 35.6165 108.724 35.5692C108.727 35.5219 108.74 35.4757 108.761 35.4331C108.781 35.3906 108.811 35.3526 108.846 35.3214C108.882 35.2901 108.923 35.2662 108.968 35.251C109.013 35.2358 109.06 35.2296 109.108 35.2327C109.853 35.2798 110.59 35.3479 111.299 35.4343C111.39 35.4453 111.474 35.4907 111.533 35.5611C111.591 35.6316 111.621 35.7218 111.616 35.8134C111.61 35.905 111.57 35.991 111.503 36.0539C111.436 36.1167 111.348 36.1518 111.256 36.1517V36.1515ZM104.726 35.8958C104.63 35.8973 104.538 35.8609 104.469 35.7945C104.401 35.7281 104.361 35.6372 104.36 35.5417C104.358 35.4462 104.395 35.354 104.461 35.2854C104.527 35.2168 104.618 35.1773 104.714 35.1758C105.266 35.1573 105.818 35.1479 106.354 35.1479C106.543 35.1464 106.725 35.149 106.91 35.1512C107.006 35.1518 107.097 35.1903 107.164 35.2582C107.232 35.3261 107.269 35.4179 107.268 35.5133C107.268 35.6088 107.229 35.7002 107.161 35.7673C107.094 35.8344 107.002 35.8718 106.906 35.8712H106.902C106.721 35.8691 106.539 35.868 106.357 35.868H106.354C105.826 35.868 105.283 35.8772 104.738 35.8954C104.734 35.8954 104.73 35.8955 104.726 35.8955L104.726 35.8958Z" fill="#0565C7"/>
<path d="M38.2507 110.207C38.1681 110.207 38.0878 110.179 38.0236 110.126C37.9594 110.074 37.915 110.002 37.8981 109.921C37.8811 109.84 37.8925 109.756 37.9303 109.682C37.9682 109.609 38.0302 109.55 38.106 109.517C38.4398 109.371 38.7793 109.229 39.1153 109.096C39.1593 109.079 39.2063 109.071 39.2535 109.071C39.3008 109.072 39.3475 109.082 39.3908 109.101C39.4342 109.12 39.4735 109.147 39.5063 109.181C39.5392 109.215 39.5651 109.255 39.5825 109.299C39.5998 109.343 39.6084 109.39 39.6076 109.437C39.6069 109.484 39.5968 109.531 39.578 109.574C39.5592 109.618 39.532 109.657 39.498 109.69C39.4641 109.723 39.424 109.749 39.38 109.766C39.0523 109.896 38.7208 110.034 38.3951 110.176C38.3496 110.197 38.3005 110.207 38.2507 110.207V110.207Z" fill="#0565C7"/>
<path d="M34.0795 110.571C34.6276 110.433 34.8711 109.525 34.6234 108.544C34.3757 107.562 33.7306 106.879 33.1825 107.017C32.6344 107.155 32.3909 108.063 32.6386 109.045C32.8863 110.026 33.5314 110.71 34.0795 110.571Z" fill="#7BB8F7"/>
<path d="M36.1574 115.793C36.6856 115.592 36.8214 114.662 36.4608 113.716C36.1002 112.77 35.3796 112.166 34.8514 112.368C34.3232 112.569 34.1874 113.499 34.548 114.445C34.9087 115.391 35.6292 115.994 36.1574 115.793Z" fill="#7BB8F7"/>
<path d="M34.3227 112.294C34.7408 112.294 35.0797 111.955 35.0797 111.537C35.0797 111.119 34.7408 110.78 34.3227 110.78C33.9047 110.78 33.5658 111.119 33.5658 111.537C33.5658 111.955 33.9047 112.294 34.3227 112.294Z" fill="#0565C7"/>
</svg>
