<svg width="164" height="164" viewBox="0 0 164 164" fill="none" xmlns="http://www.w3.org/2000/svg">
<path d="M120.348 75.6414L96.2725 82.0805C89.8365 84.0499 83.0452 84.5751 76.3829 83.6187C74.4277 88.4358 73.298 94.4607 75.7033 99.0904V99.1083C72.8873 105.737 69.4308 112.074 65.3828 118.03C55.5524 116.659 45.8068 114.736 36.1923 112.271C32.7205 117.254 31.1173 120.394 32.0069 128.726C42.5777 132.125 51.2347 134.682 61.3584 136.954C64.5836 137.681 67.9494 137.469 71.0585 136.345C74.1676 135.221 76.8902 133.231 78.9049 130.61C84.1633 123.574 89.001 116.234 93.3928 108.628L83.9357 105.306C92.1709 107.552 102.738 103.406 109.475 99.9668V99.9847L104.015 122.86C108.285 126.313 114.794 127.618 120.06 126.742L131.954 87.6742C132.45 86.0434 132.501 84.3098 132.102 82.6527C131.703 80.9955 130.869 79.4749 129.686 78.2482C128.502 77.0214 127.013 76.1329 125.371 75.6746C123.729 75.2164 121.995 75.2049 120.348 75.6414Z" fill="#0565C7"/>
<path d="M65.2394 87.7851C65.1858 87.2486 64.3451 86.6762 62.3955 86.4258L62.7532 89.1982C64.2378 89.0193 65.2959 88.4112 65.2394 87.7851Z" fill="#1E1F1F"/>
<path d="M55.3833 86.6406C52.9357 87.0172 51.9566 87.6413 51.9321 88.2146C51.902 88.8943 53.2378 89.5024 55.0801 89.4309C55.2355 89.2963 55.3531 89.124 55.42 88.9301C55.505 88.1685 55.4921 87.3992 55.3833 86.6406Z" fill="#1E1F1F"/>
<path d="M34.4569 114.777C32.4656 114.003 30.4287 113.351 28.3577 112.827C22.8487 115.993 15.1783 119.382 7.41277 126.081C7.26081 126.207 7.14893 126.375 7.09082 126.564C11.8524 126.76 16.6214 126.629 21.3641 126.17C24.7089 125.902 28.4113 125.329 31.7561 125.83C31.6685 121.667 32.1374 118.671 34.4569 114.777Z" fill="#1E1F1F"/>
<path d="M117.753 137.67C117.471 134.236 116.877 130.408 117.449 127.032C113.605 127.158 109.794 126.277 106.396 124.475C105.671 126.385 105.044 128.331 104.518 130.306C107.844 135.904 111.279 143.828 118.146 152.126C118.345 147.304 118.213 142.474 117.753 137.67Z" fill="#1E1F1F"/>
<path d="M86.1308 29.4588C85.9936 29.1282 85.7477 28.8543 85.4337 28.6824C85.1197 28.5105 84.7564 28.4509 84.404 28.5135C84.0515 28.576 83.731 28.757 83.4953 29.0265C83.2597 29.2959 83.123 29.6378 83.108 29.9954C83.0722 29.9954 83.0544 30.0133 83.0186 30.0133C82.8679 29.6728 82.602 29.3963 82.2676 29.2324C81.9333 29.0685 81.5519 29.0277 81.1904 29.1171C80.8286 29.2068 80.5102 29.4215 80.2916 29.7234C80.073 30.0252 79.9682 30.3947 79.9958 30.7664C79.9779 30.7664 79.96 30.7843 79.9421 30.7843C79.7639 30.4185 79.4508 30.1359 79.0687 29.9959C78.6866 29.8558 78.2651 29.8693 77.8927 30.0333C77.5202 30.1974 77.2258 30.4993 77.0712 30.8757C76.9166 31.2522 76.9138 31.6739 77.0634 32.0523C76.8995 31.755 76.6433 31.5192 76.3335 31.3804C76.0238 31.2417 75.6772 31.2075 75.3463 31.2832C75.096 31.3444 74.8641 31.4652 74.6705 31.6352C74.4768 31.8052 74.3271 32.0195 74.234 32.2598C74.1409 32.5001 74.1073 32.7594 74.1359 33.0155C74.1645 33.2716 74.2545 33.517 74.3983 33.7308C75.4536 35.7162 80.8553 46.3049 79.639 50.111C81.1772 46.641 80.3921 41.7938 80.0683 41.5255C76.9203 38.9141 79.2455 35.9986 80.7658 37.9482C81.4992 38.8783 81.839 38.8426 82.0358 38.2523C82.6618 35.2116 86.4358 30.7758 88.4372 36.8751C85.87 28.5946 86.2777 29.9003 86.1308 29.4588Z" fill="#1E1F1F"/>
<path d="M72.9486 68.5589C71.4054 69.1021 69.9098 69.7722 68.4771 70.5621L72.0007 66.5735C72.3518 67.2174 72.669 67.8801 72.9486 68.5589Z" fill="#1E1F1F"/>
<path d="M96.8444 79.6309L88.6167 66.7706L96.9875 76.4114C97.0572 77.4866 97.0092 78.5661 96.8444 79.6309Z" fill="#1E1F1F"/>
<path d="M95.3423 105.224C94.6984 106.354 94.0545 107.478 93.3748 108.623L83.0723 105.01C86.739 106.315 91.2463 106.101 95.3423 105.224Z" fill="#1E1F1F"/>
<path d="M146.318 148.975C146.35 149.221 146.475 149.445 146.667 149.601C146.86 149.757 147.105 149.832 147.352 149.812C147.599 149.791 147.829 149.675 147.993 149.489C148.157 149.304 148.243 149.061 148.232 148.814L148.089 147.308C148.079 147.182 148.043 147.06 147.985 146.947C147.928 146.835 147.848 146.736 147.752 146.654C147.656 146.573 147.544 146.511 147.424 146.473C147.304 146.435 147.177 146.421 147.052 146.431C146.926 146.442 146.804 146.477 146.692 146.535C146.58 146.593 146.48 146.672 146.399 146.768C146.317 146.865 146.256 146.976 146.217 147.096C146.179 147.216 146.165 147.343 146.175 147.469L146.318 148.975Z" fill="#1E1F1F"/>
<path d="M111.547 147.348C106.735 152.125 101.288 156.218 95.3599 159.511C83.0004 155.307 71.7311 147.348 62.2344 137.135" stroke="#1E1F1F" stroke-width="1.25217" stroke-linecap="round" stroke-linejoin="round"/>
<path d="M119.453 27.2782C106.702 22.332 94.286 16.5603 82.285 10C65.5415 22.3992 48.0776 33.7949 29.9854 44.1271L32.3285 70.8136C33.8543 86.1944 38.5238 101.098 46.0473 114.599" stroke="#1E1F1F" stroke-width="1.25217" stroke-linecap="round" stroke-linejoin="round"/>
<path d="M117.861 140.426C135.55 118.766 144.386 87.7332 142.061 61.1898L139.718 34.5213C136.549 33.492 133.395 32.4187 130.256 31.3018" stroke="#1E1F1F" stroke-width="1.25217" stroke-linecap="round" stroke-linejoin="round"/>
<path d="M76.3647 53.2842C81.9095 51.3703 80.5191 41.9207 80.0672 41.5328C76.9531 38.863 79.2388 36.0097 80.7648 37.9556C81.2986 38.6371 81.8615 39.0589 82.0451 38.2088C82.7596 34.8998 87.1747 29.9886 88.9388 38.8499C91.3497 50.9599 82.5713 45.8792 82.5713 45.8792" stroke="#1E1F1F" stroke-width="1.25217" stroke-linecap="round" stroke-linejoin="round"/>
<path d="M55.0801 89.433C53.2378 89.5045 51.902 88.8954 51.9321 88.2167C52.0009 86.6672 57.6247 86.3725 59.1545 86.3255C60.64 86.2803 65.1436 86.3038 65.2396 87.7874C65.2396 87.9945 65.0673 88.9171 62.7534 89.1995" stroke="#1E1F1F" stroke-width="1.25217" stroke-linecap="round" stroke-linejoin="round"/>
<path d="M62.7886 89.7379C63.1115 91.9172 63.2848 94.1163 63.3074 96.32C63.0927 97.5184 60.1066 103.544 58.2455 106.158C57.0631 107.82 55.4562 108.305 56.8683 104.959C57.6765 102.95 58.3458 100.889 58.8715 98.7884C60.3401 93.2078 56.2234 92.0273 54.5967 94.2989C52.263 97.5589 50.4819 98.5201 51.2698 96.0339C51.7518 94.5135 52.0032 93.6013 52.343 92.4387C52.6066 91.5435 54.3642 90.2123 55.0561 89.4686C55.2114 89.3265 55.33 89.1486 55.4016 88.9509C55.4769 88.1893 55.4656 87.4211 55.3658 86.6614C57.6809 86.3179 60.0287 86.2518 62.3594 86.4647C62.3594 86.4647 62.477 87.2827 62.7886 89.7379Z" stroke="#1E1F1F" stroke-width="1.25217" stroke-linecap="round" stroke-linejoin="round"/>
<path d="M58.0848 101.522C56.9106 102.93 55.5646 104.186 54.0782 105.26C52.235 106.529 51.5045 105.566 53.5774 103.275C55.0294 101.67 56.3121 99.9196 57.4051 98.0518" stroke="#1E1F1F" stroke-width="1.25217" stroke-linecap="round" stroke-linejoin="round"/>
<path d="M55.9761 97.0527C56.8421 97.7748 57.8127 98.3603 58.8558 98.7877" stroke="#1E1F1F" stroke-width="1.25217" stroke-linecap="round" stroke-linejoin="round"/>
<path d="M55.7593 100.539C54.3489 101.389 52.8413 102.067 51.2689 102.556C49.2308 103.167 49.3861 101.924 51.5193 100.804C53.2257 99.8168 54.8209 98.649 56.2771 97.3204" stroke="#1E1F1F" stroke-width="1.25217" stroke-linecap="round" stroke-linejoin="round"/>
<path d="M53.5954 99.4835C52.4964 99.7711 51.3683 99.9331 50.2328 99.9665C48.6945 99.9062 48.1946 99.0759 50.4653 98.5356C52.2566 98.1191 53.9719 97.4251 55.5488 96.4786C55.6266 95.3436 55.9501 94.239 56.4967 93.2412" stroke="#1E1F1F" stroke-width="1.25217" stroke-linecap="round" stroke-linejoin="round"/>
<path d="M68.4766 70.5621L72.0002 66.5735C72.357 67.2146 72.678 67.8745 72.9642 68.5504" stroke="#1E1F1F" stroke-width="1.25217" stroke-linecap="round" stroke-linejoin="round"/>
<path d="M96.8444 79.6315L88.6167 66.7891L96.9875 76.4298" stroke="#1E1F1F" stroke-width="1.25217" stroke-linecap="round" stroke-linejoin="round"/>
<path d="M65.2396 87.7861C64.9356 83.869 64.4865 74.7111 64.5242 72.6363C66.8776 71.5133 70.229 69.413 72.9646 68.5535C74.7373 72.8105 75.6485 78.4823 76.3649 83.6364C83.027 84.6014 89.8201 84.076 96.2545 82.0982C96.8712 80.2752 97.1205 78.3481 96.9879 76.4282C96.8937 76.2004 101.202 82.0831 107.398 78.199L128.396 65.285C127.341 60.3484 124.944 55.7337 120.902 53.5695L103.624 65.431C96.2545 54.2341 96.2536 49.6505 84.2886 51.4043C75.6664 52.6705 66.711 56.5979 58.3176 62.315C52.0602 66.5766 51.9162 68.915 51.7175 75.1574C51.5352 79.5104 51.6128 83.8706 51.9501 88.2144" stroke="#1E1F1F" stroke-width="1.25217" stroke-linecap="round" stroke-linejoin="round"/>
<path d="M114.606 97.1063C114.606 97.1063 112.602 98.3941 109.472 99.986" stroke="#1E1F1F" stroke-width="1.25217" stroke-linecap="round" stroke-linejoin="round"/>
<path d="M95.3262 105.333C90.44 114.135 84.9475 122.585 78.8887 130.625C76.8743 133.246 74.152 135.237 71.0429 136.363C67.9339 137.488 64.5679 137.7 61.3422 136.974C51.2194 134.697 42.5615 132.145 31.9907 128.729C31.7083 125.218 31.4258 121.883 32.8191 118.14C33.6561 116.04 34.7798 114.065 36.1582 112.273C45.7727 114.739 55.5182 116.662 65.3487 118.033C69.4445 112.081 72.8867 105.706 75.6155 99.0166" stroke="#1E1F1F" stroke-width="1.25217" stroke-linecap="round" stroke-linejoin="round"/>
<path d="M85.2711 46.8563C85.0735 48.515 84.7383 49.9629 86.0243 51.2093" stroke="#1E1F1F" stroke-width="1.25217" stroke-linecap="round" stroke-linejoin="round"/>
<path d="M7.09078 126.562C6.55419 126.526 5.98183 126.512 5.44524 126.473C5.3004 126.462 5.15985 126.419 5.03418 126.346C4.9085 126.273 4.80097 126.173 4.71968 126.052C4.6384 125.932 4.58546 125.795 4.56487 125.651C4.54429 125.507 4.55657 125.361 4.60082 125.222C4.66012 125.038 4.77309 124.875 4.92654 124.755C8.54265 121.928 12.3898 119.408 16.4275 117.224C19.9906 115.281 23.1885 113.772 25.7641 112.252C26.6406 112.431 27.4991 112.592 28.3576 112.824" stroke="#1E1F1F" stroke-width="1.25217" stroke-linecap="round" stroke-linejoin="round"/>
<path d="M34.4569 114.778C32.1505 118.65 31.6667 121.642 31.7561 125.831C28.4113 125.331 24.7089 125.902 21.3641 126.171C16.6214 126.629 11.8524 126.76 7.09082 126.563C7.14893 126.374 7.26081 126.206 7.41277 126.08C15.183 119.38 22.8515 115.992 28.3577 112.826C30.4271 113.357 32.4637 114.009 34.4569 114.778Z" stroke="#1E1F1F" stroke-width="1.25217" stroke-linecap="round" stroke-linejoin="round"/>
<path d="M118.146 152.124C118.112 152.602 118.093 153.097 118.04 153.574C118.025 153.767 117.952 153.951 117.83 154.102C117.709 154.253 117.545 154.364 117.359 154.421C117.173 154.477 116.975 154.476 116.79 154.417C116.605 154.358 116.443 154.245 116.323 154.093C109.961 145.982 106.861 138.406 103.82 133.255C104.017 132.253 104.267 131.287 104.518 130.304" stroke="#1E1F1F" stroke-width="1.25217" stroke-linecap="round" stroke-linejoin="round"/>
<path d="M117.26 132.088C117.135 130.401 117.192 128.705 117.432 127.03C113.587 127.156 109.776 126.275 106.378 124.473C105.656 126.495 105.06 128.2 104.518 130.304C107.844 135.902 111.278 143.825 118.146 152.124C118.608 143.864 117.463 135.695 117.26 132.088Z" stroke="#1E1F1F" stroke-width="1.25217" stroke-linecap="round" stroke-linejoin="round"/>
<path d="M8.91553 95.4959L12.9221 100.2L16.4457 92.5625" stroke="#1E1F1F" stroke-width="1.25217" stroke-linecap="round" stroke-linejoin="round"/>
<path d="M41.4508 14.0406C41.4978 14.4752 41.4576 14.9148 41.3325 15.3337C41.2075 15.7525 41.0001 16.1422 40.7226 16.4799C40.445 16.8176 40.1029 17.0965 39.7162 17.3003C39.3295 17.5041 38.9061 17.6287 38.4706 17.6668C38.0352 17.7049 37.5965 17.6557 37.1803 17.5221C36.7641 17.3885 36.3787 17.1732 36.0468 16.8888C35.7148 16.6044 35.443 16.2566 35.2471 15.8659C35.0513 15.4751 34.9354 15.0491 34.9062 14.613C34.8489 13.7552 35.1301 12.9091 35.6894 12.2563C36.2487 11.6034 37.0417 11.1958 37.8981 11.1209C38.7546 11.046 39.6062 11.3098 40.2704 11.8556C40.9346 12.4015 41.3583 13.1859 41.4508 14.0406Z" stroke="#1E1F1F" stroke-width="1.25217" stroke-linecap="round" stroke-linejoin="round"/>
<path d="M133.082 60.4393C134.924 60.2783 135.247 62.7645 133.741 62.9971C133.616 63.0168 130.039 63.641 128.125 64.1418C127.105 60.2247 125.206 56.6474 122.276 54.4455C123.653 53.7301 125.37 53.4439 130.253 52.5627C130.951 52.4375 132.846 52.0582 133.509 51.9367C135.313 51.6053 135.806 54.1687 134.331 54.5302C134.171 54.5698 132.614 54.9068 132.435 54.9416C132.525 54.9237 133.347 54.8861 133.437 54.8701C135.361 54.5349 135.834 57.1595 134.26 57.5173L132.739 57.7498C132.847 57.7319 133.187 57.6961 133.294 57.6782C135.19 57.4636 135.596 59.9592 134.047 60.2896C133.814 60.3461 133.332 60.4035 133.082 60.4393Z" stroke="#1E1F1F" stroke-width="1.25217" stroke-linecap="round" stroke-linejoin="round"/>
<path d="M88.4382 36.8822L86.1487 29.4594C86.0016 29.1307 85.7489 28.8607 85.4308 28.692C85.1127 28.5234 84.7473 28.4659 84.3928 28.5286C84.0382 28.5913 83.7148 28.7707 83.4738 29.0383C83.2329 29.3058 83.0882 29.6462 83.0628 30.0054C82.9431 29.7514 82.7597 29.5326 82.5304 29.3705C82.3011 29.2084 82.0338 29.1084 81.7544 29.0802C81.4749 29.0521 81.193 29.0968 80.936 29.2099C80.679 29.323 80.4556 29.5007 80.2876 29.7258C80.0631 30.0279 79.9503 30.3985 79.9685 30.7745C79.0958 28.8729 76.2029 30.2624 77.0624 32.0529C76.9497 31.8482 76.7926 31.6714 76.6025 31.5355C76.4124 31.3996 76.1943 31.308 75.9641 31.2675C75.734 31.2271 75.4977 31.2387 75.2726 31.3017C75.0476 31.3646 74.8396 31.4772 74.6638 31.6312C74.3683 31.8862 74.1762 32.2406 74.1238 32.6274C74.0715 33.0143 74.1624 33.4069 74.3795 33.7314C75.4348 35.7168 80.8365 46.2876 79.6202 50.0974" stroke="#1E1F1F" stroke-width="1.25217" stroke-linecap="round" stroke-linejoin="round"/>
<path d="M150.092 18.5664L150.361 21.7144" stroke="#1E1F1F" stroke-width="1.25217" stroke-linecap="round" stroke-linejoin="round"/>
<path d="M147.66 24.9336L144.512 25.2198" stroke="#1E1F1F" stroke-width="1.25217" stroke-linecap="round" stroke-linejoin="round"/>
<path d="M156.728 24.1289L153.58 24.4151" stroke="#1E1F1F" stroke-width="1.25217" stroke-linecap="round" stroke-linejoin="round"/>
<path d="M151.148 30.7829L150.879 27.6349" stroke="#1E1F1F" stroke-width="1.25217" stroke-linecap="round" stroke-linejoin="round"/>
<path d="M153.58 24.4158C152.994 24.4679 152.407 24.3448 151.891 24.0622C151.375 23.7797 150.955 23.3503 150.684 22.8286C150.504 22.4822 150.394 22.1038 150.361 21.715C150.395 22.1037 150.352 22.4955 150.235 22.8677C150.118 23.24 149.928 23.5855 149.677 23.8845C149.427 24.1835 149.119 24.4301 148.773 24.6103C148.427 24.7905 148.048 24.9006 147.66 24.9345C148.245 24.8833 148.833 25.0068 149.348 25.2892C149.863 25.5717 150.284 26.0006 150.555 26.5217C150.735 26.8681 150.845 27.2466 150.879 27.6353C150.827 27.0498 150.95 26.4619 151.233 25.9464C151.516 25.4309 151.945 25.0109 152.466 24.7396C152.813 24.5598 153.191 24.4497 153.58 24.4158Z" stroke="#1E1F1F" stroke-width="1.25217" stroke-linecap="round" stroke-linejoin="round"/>
<path d="M93.4283 108.644L83.395 105.163" stroke="#1E1F1F" stroke-width="1.25217" stroke-linecap="round" stroke-linejoin="round"/>
<path d="M96.2366 82.099L120.312 75.6599C121.962 75.219 123.7 75.2271 125.345 75.6834C126.991 76.1397 128.485 77.0276 129.673 78.2552C130.86 79.4828 131.698 81.0055 132.099 82.6656C132.501 84.3257 132.451 86.0629 131.956 87.6974L120.061 126.765C117.384 127.191 114.651 127.113 112.003 126.535C109.092 125.961 106.356 124.71 104.017 122.884L109.477 99.9891C103.344 103.131 94.7068 106.42 87.4704 105.898C79.1947 105.301 73.0898 99.9825 74.5273 90.0829C74.8634 87.8723 75.4826 85.7142 76.3696 83.6617" stroke="#1E1F1F" stroke-width="1.25217" stroke-linecap="round" stroke-linejoin="round"/>
<path d="M103.624 65.4287L104.572 66.7881" stroke="#1E1F1F" stroke-width="1.25217" stroke-linecap="round" stroke-linejoin="round"/>
</svg>
