<svg width="264" height="264" viewBox="0 0 264 264" fill="none" xmlns="http://www.w3.org/2000/svg">
<path d="M153.767 125.208C137.524 119.969 133.63 103.574 133.63 103.574C134.176 102.795 134.708 102.007 135.227 101.21L135.753 92.7516C127.268 90.4058 132.084 80.0746 132.084 80.0746C128.194 74.3881 124.946 68.2872 122.402 61.884C117.691 62.343 113.179 64.0101 109.301 66.7239C112.544 77.5503 118.02 90.9167 129.659 108.725C124.651 114.977 116.476 124.862 112.538 130.002L81.1481 115.949L73.9927 130.748L109.226 148.789C111.66 149.928 114.414 150.182 117.015 149.507C119.615 148.833 121.9 147.273 123.474 145.096L131.185 134.465C134.279 139.207 136.65 143.099 145.238 146.693C154.374 142.582 158.33 137.603 161.757 130.748C158.792 129.38 156.088 127.506 153.767 125.208Z" fill="#151C1C"/>
<path d="M154.191 189.163L152.918 182.201L182.662 176.712L183.934 183.673L154.191 189.163Z" fill="#151C1C"/>
<path d="M180.218 183.299L175.551 178.009L200.679 155.851L205.344 161.14L180.218 183.299Z" fill="#151C1C"/>
<path fill-rule="evenodd" clip-rule="evenodd" d="M54.0616 10.513C63.6442 9.34137 73.3649 10.8002 82.1815 14.733C99.1454 22.2903 109.566 37.0293 112.675 53.1302C112.675 53.1302 112.751 55.3 112.915 56.9719C111.879 57.5971 109.839 55.8595 108.057 54.3399C106.449 52.97 105.05 51.7788 104.788 52.6627C104.536 53.5124 105.142 54.4226 106.106 55.8674C107.4 57.8059 109.335 60.7059 110.698 65.7139L109.385 66.7817C109.783 68.3736 110.724 71.0503 111.831 74.2024L112.286 75.4988C110.082 85.0288 105.203 94.1044 97.4931 101.526C90.9082 107.896 82.7896 112.456 73.9241 114.765C73.7271 114.818 72.3848 113.946 70.789 112.91C68.6075 111.491 65.9518 109.767 65.0981 109.672C63.744 109.521 66.946 113.652 68.329 115.438C68.4551 115.598 68.5655 115.74 68.6548 115.858C61.6776 116.948 54.5531 116.638 47.6971 114.946C40.8411 113.253 34.3908 110.212 28.7226 106C23.0545 101.788 18.2819 96.489 14.6834 90.4127C11.085 84.3365 8.73264 77.6044 7.76372 70.6093C6.7948 63.6143 7.22868 56.4963 9.04006 49.6707C10.8514 42.8451 14.004 36.4486 18.3139 30.8544C22.6237 25.2602 28.0045 20.5803 34.1424 17.0879C40.2802 13.5955 47.0507 11.3604 54.0616 10.513ZM55.4617 21.8963C62.958 20.9794 70.5626 22.1204 77.4598 25.1968C104.637 37.3038 110.341 72.9731 89.438 93.0931C84.6955 97.681 78.9297 101.075 72.6167 102.995C66.3036 104.915 59.6244 105.306 53.1306 104.135C46.6367 102.965 40.5144 100.266 35.2692 96.2626C30.024 92.259 25.8063 87.0652 22.9644 81.11C20.1224 75.1548 18.7378 68.609 18.9248 62.0131C19.1117 55.4172 20.8649 48.9604 24.0396 43.1758C27.2143 37.3911 31.7194 32.4446 37.183 28.7446C42.6466 25.0445 48.9119 22.6972 55.4617 21.8963Z" fill="#7F62E9"/>
<path d="M205.419 170.798L208.463 166.181L203.772 162.488L201.303 164.709L205.419 170.798Z" fill="#7F62E9"/>
<path d="M221.54 176.393L217.6 185.455C216.411 188.216 214.363 190.519 211.76 192.022L231.424 207.354L243.003 193.081L221.54 176.393Z" fill="#7F62E9"/>
<path d="M200.804 107.317C204.081 107.775 207.407 106.944 210.083 104.998C212.759 103.052 214.576 100.144 215.151 96.8861C211.113 95.5871 206.855 95.11 202.63 95.4828C198.404 95.8557 194.296 97.0711 190.547 99.0572C191.354 101.231 192.732 103.146 194.538 104.6C196.343 106.054 198.508 106.993 200.804 107.317Z" fill="#7F62E9"/>
<path d="M125.62 102.326L107.454 88.2034C104.842 93.7392 101.063 98.6438 96.3755 102.58L119.754 121.02L129.686 108.719L125.62 102.326Z" fill="#7F62E9"/>
<path d="M140.192 122.189L131.212 134.566C131.844 135.727 132.579 136.829 133.408 137.859L140.192 122.189Z" fill="#7F62E9"/>
<path d="M135.602 95.3391L139.169 92.82C138.038 92.8938 136.903 92.8687 135.776 92.7451L135.602 95.3391Z" fill="#7F62E9"/>
<path d="M159.33 108.34C159.593 106.328 159.136 104.288 158.041 102.581C156.945 100.873 155.281 99.6072 153.343 99.0073C153.591 98.2948 153.667 97.534 153.567 96.7863C151.92 84.7595 149.425 77.348 145.307 73.107C142.512 70.186 136.799 70.6615 133.405 74.9274C130.035 79.1999 130.882 84.8357 130.86 85.3033C131.202 81.1051 133.161 77.2039 136.325 74.4231C137.21 73.6961 138.252 73.1836 139.368 72.9258C139.193 76.7202 142.213 82.7329 145.856 81.2357C148.293 80.2414 148.586 84.6505 143.785 84.6505C142.487 95.0553 142.887 106.978 147.678 116.691L148.452 118.162C150.806 122.451 154.173 126.1 158.259 128.793C160.972 128.934 163.631 127.992 165.65 126.174C167.669 124.356 168.883 121.81 169.026 119.097C169.167 116.384 168.225 113.726 166.407 111.707C164.589 109.688 162.044 108.474 159.33 108.331V108.34Z" fill="#7F62E9"/>
<path d="M205.419 170.798L208.463 166.181L203.772 162.488L201.303 164.709L205.419 170.798Z" stroke="#9CF2A0" stroke-linejoin="round"/>
<path d="M221.54 176.393L217.6 185.455C216.411 188.216 214.363 190.519 211.76 192.022L231.424 207.354L243.003 193.081L221.54 176.393Z" stroke="#9CF2A0"/>
<path d="M125.62 102.326L107.454 88.2031C104.842 93.739 101.063 98.6435 96.3755 102.58L119.754 121.02L129.686 108.718L125.62 102.326Z" stroke="#9CF2A0"/>
<path d="M131.709 79.544C127.94 74.0346 124.825 68.106 122.426 61.8774C117.714 62.3346 113.201 64.0043 109.326 66.7239C112.57 77.5529 118.034 90.9036 129.683 108.72" stroke="#9CF2A0" stroke-linecap="round" stroke-linejoin="round"/>
<path d="M113.318 59.1822C112.619 55.5419 112.351 51.8318 112.52 48.1287C112.445 46.2152 112.577 44.2992 112.914 42.4141C113.833 37.2432 115.093 37.7476 115.509 42.7385C116.527 54.9636 119.449 59.0076 120.524 62.1518" stroke="#9CF2A0" stroke-linecap="round" stroke-linejoin="round"/>
<path d="M112.693 43.9864C111.856 42.2217 110.772 40.5854 109.474 39.1268C109.08 38.7485 108.161 38.7104 109.299 41.8718C109.544 42.5469 110.519 45.4652 110.821 46.5133C111.522 48.6042 112.089 50.7376 112.518 52.9004" stroke="#9CF2A0" stroke-linecap="round" stroke-linejoin="round"/>
<path d="M112.869 56.2625C112.695 58.733 108.879 54.9123 107.08 53.4676C105.46 52.1673 103.14 51.3412 106.406 56.0629C108.342 59.0753 109.806 62.3656 110.748 65.8201" stroke="#9CF2A0" stroke-linecap="round" stroke-linejoin="round"/>
<path d="M207.191 173.393L201.303 164.709" stroke="#9CF2A0" stroke-linecap="round" stroke-linejoin="round"/>
<path d="M135.809 92.6807C135.809 92.6807 135.533 96.1375 135.259 101.203C134.708 101.984 134.167 102.772 133.637 103.567" stroke="#9CF2A0" stroke-linecap="round" stroke-linejoin="round"/>
<path d="M139.17 92.8945L135.612 95.3086" stroke="#9CF2A0" stroke-linecap="round" stroke-linejoin="round"/>
<path d="M176.799 176.887L156.861 154.903" stroke="#9CF2A0" stroke-linecap="round" stroke-linejoin="round"/>
<path d="M140.167 122.164L133.405 137.834" stroke="#9CF2A0" stroke-linecap="round" stroke-linejoin="round"/>
<path d="M191.57 163.86C183.824 151.41 172.574 141.523 159.232 135.44" stroke="#9CF2A0" stroke-linecap="round" stroke-linejoin="round"/>
<path d="M154.994 181.818L145.308 146.668" stroke="#9CF2A0" stroke-linecap="round" stroke-linejoin="round"/>
<path d="M183.335 180.554L183.934 183.673L154.191 189.163L152.918 182.201L175.551 178.034" stroke="#9CF2A0" stroke-linecap="round" stroke-linejoin="round"/>
<path d="M158.234 128.827C160.907 128.898 163.502 127.922 165.467 126.109C167.432 124.295 168.612 121.786 168.755 119.116C168.897 116.446 167.993 113.825 166.232 111.812C164.472 109.799 161.996 108.552 159.331 108.338C159.593 106.326 159.136 104.286 158.041 102.578C156.945 100.87 155.281 99.6045 153.343 99.0046C154.151 96.6628 151.653 81.9462 147.154 75.3765C142.933 69.2114 136.763 70.6549 133.381 74.9247C129.999 79.1946 130.857 84.8317 130.835 85.3006" stroke="#9CF2A0" stroke-linecap="round" stroke-linejoin="round"/>
<path d="M205.419 170.798L222.413 144.946C225.656 139.73 225.531 138.083 226.978 134.491C233.766 130.798 249.162 126.456 256.773 125.458C251.183 134.192 238.083 139.356 232.918 150.186L217.572 185.42C216.665 187.507 215.266 189.343 213.495 190.771C211.724 192.199 209.633 193.177 207.401 193.621C205.169 194.064 202.863 193.961 200.68 193.319C198.497 192.678 196.501 191.517 194.864 189.937L184.284 179.731" stroke="#9CF2A0" stroke-linecap="round" stroke-linejoin="round"/>
<path d="M180.218 183.299L175.551 178.009L200.679 155.851L205.344 161.14L180.218 183.299Z" stroke="#9CF2A0" stroke-linecap="round" stroke-linejoin="round"/>
<path d="M68.3004 117.921C71.0205 117.647 66.4984 113.334 65.7551 112.011C64.7503 110.218 63.6851 108.142 68.3753 111.437C72.175 113.835 76.1162 116.002 80.1775 117.924" stroke="#9CF2A0" stroke-linecap="round" stroke-linejoin="round"/>
<path d="M158.982 188.264L161.052 195.701C162.403 200.479 165.563 204.543 169.861 207.029C174.154 209.524 213.355 228.339 213.355 228.339C223.811 234.249 228.076 247.652 236.411 253.841C235.937 246.18 232.643 230.51 229.424 223.502C225.989 221.834 224.318 221.827 219.543 218.412L182.088 192.086L179.943 184.4" stroke="#9CF2A0" stroke-linecap="round" stroke-linejoin="round"/>
<path d="M140.167 122.164C138.746 124.01 130.223 135.803 123.474 145.121C121.898 147.295 119.613 148.853 117.013 149.527C114.413 150.2 111.66 149.947 109.226 148.811L73.9927 130.773L81.1284 115.976L112.519 129.999" stroke="#9CF2A0" stroke-linecap="round" stroke-linejoin="round"/>
<path d="M153.767 125.208C156.104 127.498 158.807 129.38 161.764 130.778C158.455 138.396 152.791 143.328 145.258 146.718C136.646 143.113 134.288 139.256 131.179 134.494" stroke="#9CF2A0" stroke-linecap="round" stroke-linejoin="round"/>
<path d="M199.232 157.099C183.773 136.379 167.392 133.099 161.764 130.778" stroke="#9CF2A0" stroke-linecap="round" stroke-linejoin="round"/>
<path d="M133.63 103.574C133.63 103.574 137.523 119.968 153.767 125.208C151.262 122.738 149.195 119.861 147.653 116.699C142.85 106.999 142.463 95.0644 143.76 84.6597H144.409C148.349 84.4351 148.276 80.2401 145.832 81.2449C142.187 82.7382 139.17 76.7281 139.345 72.9363C138.229 73.1961 137.188 73.7078 136.3 74.4322C134.455 76.048 133.008 78.0681 132.072 80.3352C131.136 82.6022 130.736 85.0549 130.904 87.5019C131.368 90.6737 133.553 93.2086 139.17 92.8986" stroke="#9CF2A0" stroke-linecap="round" stroke-linejoin="round"/>
<path d="M133.63 103.574C131.284 107.12 112.994 128.802 110.548 132.77" stroke="#9CF2A0" stroke-linecap="round" stroke-linejoin="round"/>
<path d="M58.9949 120.766C57.7971 120.916 55.3279 121.416 54.6029 121.565C51.3102 122.243 51.7344 123.112 52.2585 123.162C54.3783 123.363 57.822 123.338 59.7934 123.586C62.9627 123.987 69.0765 124.559 71.4722 125.982" stroke="#9CF2A0" stroke-linecap="round" stroke-linejoin="round"/>
<path d="M59.6184 123.561C59.0931 123.761 58.6202 123.936 58.3956 124.035C55.2514 125.233 55.8266 126.038 56.3494 126.006C58.4718 125.881 61.8656 125.258 63.8607 125.182C66.26 125.137 68.6582 125.321 71.0227 125.731" stroke="#9CF2A0" stroke-linecap="round" stroke-linejoin="round"/>
<path d="M150.772 51.8719C150.734 52.514 150.505 53.1301 150.116 53.642C149.727 54.1539 149.194 54.5385 148.585 54.747C148.131 54.9032 147.648 54.9566 147.17 54.9036C146.692 54.8505 146.232 54.6921 145.823 54.4399C145.414 54.1877 145.066 53.8479 144.804 53.4451C144.542 53.0422 144.372 52.5862 144.308 52.11C144.243 51.6338 144.285 51.1491 144.43 50.691C144.575 50.2328 144.82 49.8126 145.147 49.4605C145.474 49.1083 145.875 48.8331 146.322 48.6546C146.768 48.4761 147.248 48.3988 147.728 48.4282C148.587 48.4847 149.389 48.8782 149.959 49.5232C150.529 50.1682 150.822 51.0124 150.772 51.8719Z" stroke="#9CF2A0" stroke-linecap="round" stroke-linejoin="round"/>
<path d="M237.035 130.374C237.76 123.342 236.12 116.27 232.372 110.276C228.625 104.282 222.986 99.709 216.347 97.2813C210.829 95.2649 204.861 94.818 199.105 95.9901C193.349 97.1623 188.031 99.9077 183.742 103.921C179.452 107.935 176.36 113.059 174.808 118.724C173.257 124.39 173.307 130.375 174.952 136.013" stroke="#9CF2A0" stroke-linecap="round" stroke-linejoin="round"/>
<path d="M203.273 158.793C206.844 159.047 210.431 158.683 213.879 157.72" stroke="#9CF2A0" stroke-linecap="round" stroke-linejoin="round"/>
<path d="M204.346 81.9896C202.476 81.7318 200.572 81.8916 198.771 82.4575C196.97 83.0235 195.317 83.9814 193.931 85.2626C192.544 86.5437 191.459 88.1161 190.752 89.8668C190.046 91.6175 189.737 93.503 189.846 95.3876C189.995 97.9081 190.887 100.328 192.41 102.342C193.933 104.356 196.018 105.874 198.403 106.703C200.788 107.533 203.365 107.637 205.809 107.002C208.253 106.368 210.454 105.024 212.135 103.139C213.815 101.254 214.898 98.9129 215.247 96.412C215.71 93.0545 214.823 89.6504 212.779 86.9466C210.735 84.2428 207.703 82.46 204.346 81.9896Z" stroke="#9CF2A0" stroke-linecap="round" stroke-linejoin="round"/>
<path d="M110.001 43.9114C106.818 35.795 101.691 28.5848 95.0686 22.9148C88.4463 17.2448 80.5324 13.2888 72.0228 11.3945C63.5131 9.50031 54.6684 9.72592 46.2663 12.0515C37.8643 14.3772 30.1624 18.7316 23.8379 24.7318C17.5134 30.732 12.76 38.1943 9.99571 46.4624C7.23145 54.7305 6.54101 63.5511 7.98511 72.1486C9.4292 80.7461 12.9636 88.8571 18.2775 95.7683C23.5913 102.68 30.5219 108.179 38.4597 111.784C47.9182 116.003 58.3878 117.424 68.6285 115.876" stroke="#9CF2A0" stroke-linecap="round" stroke-linejoin="round"/>
<path d="M112.247 75.4014C110.63 82.3924 107.611 88.9826 103.373 94.773C99.1352 100.563 93.7663 105.434 87.5914 109.089C83.3246 111.608 78.7209 113.507 73.9189 114.729" stroke="#9CF2A0" stroke-linecap="round" stroke-linejoin="round"/>
<path d="M77.46 25.1967C70.563 22.1202 62.9587 20.9791 55.4625 21.8957C47.9662 22.8123 40.8609 25.7521 34.9084 30.3998C28.9559 35.0475 24.3807 41.2278 21.6736 48.278C18.9664 55.3281 18.2293 62.9822 19.5414 70.4194C20.8535 77.8566 24.1652 84.7964 29.1214 90.4946C34.0776 96.1928 40.4914 100.434 47.675 102.765C54.8585 105.095 62.5409 105.426 69.8982 103.722C77.2555 102.018 84.0103 98.3438 89.4382 93.093C110.341 72.973 104.637 37.3037 77.46 25.1967Z" stroke="#9CF2A0" stroke-linecap="round" stroke-linejoin="round"/>
<path d="M39.5815 150.486L50.6614 159.269L61.9645 141.927" stroke="#9CF2A0" stroke-linecap="round" stroke-linejoin="round"/>
<path d="M136.6 158.197L125.819 159.568" stroke="#9CF2A0" stroke-linecap="round" stroke-linejoin="round"/>
<path d="M131.883 164.285L130.511 153.48" stroke="#9CF2A0" stroke-linecap="round" stroke-linejoin="round"/>
<path d="M75.2142 128.228C71.7201 125.92 68.0197 123.942 64.1606 122.317C61.0623 121.185 57.846 120.406 54.5728 119.997C49.7565 119.406 49.2062 118.109 54.448 117.401C56.3767 117.168 58.3207 117.084 60.2624 117.152C63.9439 117.199 67.6096 117.651 71.1925 118.499" stroke="#9CF2A0" stroke-linecap="round" stroke-linejoin="round"/>
<path d="M17.0498 107.965C17.0277 108.753 16.7725 109.516 16.3167 110.158C15.8609 110.8 15.2248 111.293 14.4889 111.574C13.753 111.855 12.9504 111.911 12.1825 111.736C11.4146 111.56 10.716 111.161 10.175 110.589C9.63397 110.016 9.27486 109.296 9.14306 108.52C9.01127 107.743 9.11271 106.945 9.43457 106.226C9.75642 105.507 10.2842 104.9 10.9512 104.481C11.6183 104.062 12.3945 103.85 13.1818 103.873C14.2365 103.905 15.2354 104.354 15.9601 105.121C16.6849 105.888 17.0767 106.91 17.0498 107.965Z" stroke="#9CF2A0" stroke-linecap="round" stroke-linejoin="round"/>
<path d="M48.8757 43.5601H39.6001L39.7999 52.359" stroke="#151C1C" stroke-linecap="round" stroke-linejoin="round"/>
<path d="M69.54 43.5601H78.8156L79.0155 52.359" stroke="#151C1C" stroke-linecap="round" stroke-linejoin="round"/>
<path d="M49.7899 83.16H40.5143L40.3145 74.3611" stroke="#151C1C" stroke-linecap="round" stroke-linejoin="round"/>
<path d="M70.4546 83.16H79.7302L79.5303 74.3611" stroke="#151C1C" stroke-linecap="round" stroke-linejoin="round"/>
<path fill-rule="evenodd" clip-rule="evenodd" d="M54.4385 57.4116H65.7754L66.0372 68.7486H54.7003L54.4385 57.4116Z" fill="#151C1C"/>
<path fill-rule="evenodd" clip-rule="evenodd" d="M44.6553 61.6055H49.6013L49.7152 66.5525H44.7692L44.6553 61.6055Z" fill="#151C1C"/>
<path fill-rule="evenodd" clip-rule="evenodd" d="M57.416 47.9595H62.3621L62.476 52.9055H57.5299L57.416 47.9595Z" fill="#151C1C"/>
<path fill-rule="evenodd" clip-rule="evenodd" d="M69.625 60.6074H74.572L74.6859 65.5535H69.7399L69.625 60.6074Z" fill="#151C1C"/>
<path fill-rule="evenodd" clip-rule="evenodd" d="M57.4336 73.8142H62.3796L62.4935 78.7602H57.5475L57.4336 73.8142Z" fill="#151C1C"/>
<path fill-rule="evenodd" clip-rule="evenodd" d="M44.3394 47.9583H50.8501L51 54.469H44.4902L44.3394 47.9583Z" fill="#151C1C"/>
<path fill-rule="evenodd" clip-rule="evenodd" d="M44.8999 72.2502H51.4107L51.5616 78.761H45.0508L44.8999 72.2502Z" fill="#151C1C"/>
<path fill-rule="evenodd" clip-rule="evenodd" d="M67.7695 47.9583H74.2793L74.4302 54.469H67.9194L67.7695 47.9583Z" fill="#151C1C"/>
<path fill-rule="evenodd" clip-rule="evenodd" d="M68.3301 72.2502H74.8409L74.9907 78.761H68.48L68.3301 72.2502Z" fill="#151C1C"/>
<path d="M54.4385 57.4116H65.7754L66.0372 68.7486H54.7003L54.4385 57.4116Z" fill="#151C1C" stroke="#151C1C" stroke-linecap="round" stroke-linejoin="round"/>
<path d="M44.6553 61.6055H49.6013L49.7152 66.5525H44.7692L44.6553 61.6055Z" fill="#151C1C" stroke="#151C1C" stroke-linecap="round" stroke-linejoin="round"/>
<path d="M57.416 47.9595H62.3621L62.476 52.9055H57.5299L57.416 47.9595Z" fill="#151C1C" stroke="#151C1C" stroke-linecap="round" stroke-linejoin="round"/>
<path d="M69.625 60.6074H74.572L74.6859 65.5535H69.7399L69.625 60.6074Z" fill="#151C1C" stroke="#151C1C" stroke-linecap="round" stroke-linejoin="round"/>
<path d="M57.4336 73.8142H62.3796L62.4935 78.7602H57.5475L57.4336 73.8142Z" fill="#151C1C" stroke="#151C1C" stroke-linecap="round" stroke-linejoin="round"/>
<path d="M44.3394 47.9583H50.8501L51 54.469H44.4902L44.3394 47.9583Z" fill="#151C1C" stroke="#151C1C" stroke-linecap="round" stroke-linejoin="round"/>
<path d="M44.8999 72.2502H51.4107L51.5616 78.761H45.0508L44.8999 72.2502Z" fill="#151C1C" stroke="#151C1C" stroke-linecap="round" stroke-linejoin="round"/>
<path d="M67.7695 47.9583H74.2793L74.4302 54.469H67.9194L67.7695 47.9583Z" fill="#151C1C" stroke="#151C1C" stroke-linecap="round" stroke-linejoin="round"/>
<path d="M68.3301 72.2502H74.8409L74.9907 78.761H68.48L68.3301 72.2502Z" fill="#151C1C" stroke="#151C1C" stroke-linecap="round" stroke-linejoin="round"/>
</svg>
