<svg width="164" height="164" viewBox="0 0 164 164" fill="none" xmlns="http://www.w3.org/2000/svg">
<path d="M68.1877 61.4441C65.8159 63.4284 58.4679 64.8236 51.5695 82.2324L41.4156 73.1017C36.7287 75.48 33.0972 79.5206 31.2307 84.4337L46.5003 98.1547C48.2691 99.7384 50.5938 100.556 52.9646 100.428C55.3353 100.301 57.5586 99.2374 59.1467 97.4726L65.474 90.4289L62.9602 107.099L52.6669 118.571C55.2496 123.106 59.2304 126.683 64.0144 128.77L74.9124 116.647C76.5257 114.853 77.6659 112.684 78.2298 110.338C80.6016 100.384 79.7955 82.8215 81.3302 67.6914C75.1792 66.5443 72.9004 65.1491 68.1877 61.4441Z" fill="#5E6AD2"/>
<path d="M152.197 62.1418L134.524 80.7908L141.531 49.9416L159.204 31.2926L152.197 62.1418Z" fill="#167EFF"/>
<path d="M96.169 55.3053C95.9365 55.1503 95.5334 55.2898 95.0063 55.6618L96.2302 56.6695C96.4325 55.9564 96.4325 55.4603 96.169 55.3053Z" fill="#167EFF"/>
<path d="M85.2246 64.8391C84.8983 65.6762 84.9415 66.3795 85.1936 66.5443C85.4457 66.7092 86.1727 66.5443 86.6623 65.9088L85.2246 64.8391Z" fill="#167EFF"/>
<path d="M92.2803 55.9874C92.0478 55.8324 91.6447 55.9719 91.1177 56.344L92.3415 57.3516C92.5414 56.654 92.5251 56.1579 92.2803 55.9874Z" fill="#167EFF"/>
<path d="M56.0186 114.756L52.5918 118.569C55.1745 123.104 59.1553 126.682 63.9393 128.768L67.5203 124.784C62.8116 122.602 58.822 119.123 56.0186 114.756Z" fill="#167EFF"/>
<path d="M75.7373 58.5298L81.4731 67.4435L82.9923 64.6841L75.7373 58.5298Z" fill="#167EFF"/>
<path d="M81.6125 36.0518L82.4032 37.757L82.8372 36.5943L81.6125 36.0518Z" fill="#167EFF"/>
<path d="M77.5044 77.0393L65.4593 90.4331L64.2346 98.6492L77.5044 77.0393Z" fill="#167EFF"/>
<path d="M48.2364 128.553C47.2288 129.638 46.1901 130.723 45.1205 131.839C44.2679 136.877 44.6709 148.442 46.2986 153.821C50.6229 146.628 52.1894 142.072 54.3761 134.661C52.0204 132.961 49.9482 130.899 48.2364 128.553Z" fill="#167EFF"/>
<path d="M31.1695 69.1021C30.4254 68.358 29.5728 67.4434 28.4411 66.2188C19.6653 67.4589 10.0083 70.3888 5.91577 72.3266C12.1579 74.6871 18.8444 75.6399 25.4974 75.117L25.8384 75.427C27.3017 73.073 29.0972 70.9427 31.1695 69.1021Z" fill="#167EFF"/>
<path d="M44.764 76.0316L41.4188 73.0128C36.7354 75.3957 33.1053 79.4348 31.2339 84.3448L34.6288 87.3988C36.9776 82.8036 40.4675 78.8898 44.764 76.0316Z" fill="#167EFF"/>
<path d="M88.4334 25.9599C88.4995 25.5843 88.4294 25.1975 88.236 24.8687C88.0434 24.5399 87.7391 24.2905 87.3793 24.1649C87.611 23.9507 87.775 23.6735 87.8517 23.3672C87.9284 23.061 87.9137 22.7391 87.8093 22.441C87.7057 22.1431 87.5164 21.8819 87.2667 21.6897C87.0162 21.4975 86.7152 21.3825 86.4002 21.359C86.5283 21.0858 86.5789 20.7822 86.5446 20.4822C86.5112 20.1822 86.3945 19.8975 86.2085 19.6597C86.0225 19.422 85.7744 19.2404 85.4913 19.1354C85.2082 19.0303 84.9014 19.0059 84.6052 19.0647C84.6436 18.7639 84.5963 18.4583 84.469 18.1829C84.3417 17.9076 84.1402 17.6734 83.8864 17.5071C83.6327 17.3407 83.3373 17.2489 83.0346 17.242C82.7311 17.235 82.4325 17.3134 82.1714 17.468C82.1159 17.159 81.973 16.8725 81.759 16.6428C81.545 16.4131 81.2692 16.2501 80.9649 16.1731C80.6605 16.0962 80.3405 16.1088 80.043 16.2092C79.7456 16.3096 79.4834 16.4937 79.288 16.7394C79.1402 16.4435 78.9093 16.197 78.6236 16.03C78.338 15.8631 78.0099 15.783 77.6795 15.7994C77.349 15.8159 77.0305 15.9281 76.7628 16.1226C76.4951 16.3171 76.2899 16.5853 76.1721 16.8944C75.9848 16.697 75.7508 16.5498 75.4916 16.4665C75.2325 16.3832 74.9566 16.3664 74.6892 16.4178C74.4219 16.4692 74.1718 16.587 73.9621 16.7604C73.7522 16.9338 73.5895 17.1572 73.4886 17.41C73.5153 17.0224 73.4306 16.6353 73.2447 16.2941C73.0588 15.9529 72.7793 15.672 72.4391 15.4843C72.0989 15.2966 71.7122 15.21 71.3244 15.2345C70.9367 15.2592 70.564 15.394 70.2503 15.6232C70.0785 15.2268 69.7898 14.8922 69.4227 14.6642C69.0557 14.4363 68.6277 14.3259 68.1962 14.3478C67.7646 14.3698 67.35 14.5229 67.0079 14.7868C66.6658 15.0508 66.4125 15.4129 66.2818 15.8248C65.9269 15.6102 65.5149 15.5094 65.1011 15.5361C64.6872 15.5628 64.2915 15.7156 63.9672 15.9739C63.6429 16.2323 63.4055 16.5839 63.287 16.9813C63.1685 17.3786 63.1746 17.8028 63.3045 18.1966C62.8895 18.2436 62.499 18.4174 62.1862 18.6944C61.8735 18.9713 61.6537 19.3379 61.5569 19.7443C61.46 20.1506 61.4907 20.5769 61.6449 20.9652C61.7991 21.3534 62.0693 21.6846 62.4185 21.9138C62.0915 22.1787 61.8546 22.5384 61.7408 22.9435C61.6269 23.3486 61.6416 23.779 61.7828 24.1754C61.924 24.5719 62.1848 24.9146 62.5291 25.1565C62.8734 25.3984 63.2844 25.5274 63.7051 25.5258C63.6207 25.93 63.6617 26.3504 63.8226 26.7306C63.9835 27.1109 64.2567 27.4329 64.6056 27.6537C64.9544 27.8745 65.3625 27.9835 65.775 27.9662C66.1875 27.9488 66.5849 27.8059 66.9141 27.5566C67.0445 27.891 67.2637 28.1834 67.5481 28.4023C67.8325 28.6211 68.1713 28.7581 68.5279 28.7984C68.4624 29.0298 68.4492 29.2731 68.4893 29.5103C68.5292 29.7475 68.6215 29.9729 68.7594 30.17C68.8972 30.3672 69.0771 30.5313 69.2861 30.6504C69.4952 30.7694 69.7281 30.8406 69.968 30.8585C69.8384 31.1327 69.7883 31.4376 69.8232 31.7388C69.8581 32.0399 69.9766 32.3253 70.1655 32.5625C70.3543 32.7998 70.6058 32.9794 70.8914 33.081C71.1772 33.1825 71.4856 33.2021 71.7817 33.1373C71.7462 33.4387 71.7958 33.7441 71.925 34.0187C72.0542 34.2933 72.2579 34.5262 72.5128 34.6908C72.7677 34.8555 73.0637 34.9454 73.3671 34.9503C73.6706 34.9552 73.9693 34.875 74.2294 34.7185C74.2848 35.0279 74.4285 35.3145 74.6433 35.5438C74.8581 35.7732 75.1348 35.9354 75.4397 36.0108C75.7447 36.0862 76.0651 36.0716 76.362 35.9689C76.6589 35.8661 76.9197 35.6795 77.1128 35.4316C77.3083 35.712 77.5617 35.947 77.856 36.1208C78.1502 36.2946 78.4782 36.4033 78.8181 36.4393C79.3374 35.5012 79.6889 34.4796 79.8567 33.4205C80.0292 32.3421 79.8277 31.2371 79.2856 30.289C76.9758 29.5294 78.0144 26.8166 79.5801 27.8707C80.3242 28.3823 80.6065 28.3496 80.6653 27.8552C80.6696 27.7123 80.7125 27.5734 80.7895 27.453C80.8665 27.3325 80.9747 27.2353 81.1026 27.1715C81.2404 27.4623 81.4611 27.7057 81.7369 27.8714C82.0123 28.0371 82.3313 28.1174 82.6528 28.1026C82.9743 28.0876 83.2843 27.9781 83.5429 27.7876C83.8024 27.5971 83.9998 27.3342 84.11 27.032C84.2601 27.1906 84.4404 27.3174 84.6403 27.4051C84.8402 27.4928 85.0556 27.5394 85.2735 27.5423C85.4921 27.5452 85.7083 27.5043 85.9107 27.4219C86.113 27.3395 86.2966 27.2176 86.4508 27.063C86.8343 27.9665 87.1256 28.9066 87.3189 29.8688C87.5515 29.7377 87.7489 29.5515 87.8925 29.3263C88.0369 29.1012 88.1234 28.8442 88.1446 28.5779C88.1658 28.3115 88.1218 28.044 88.0157 27.7988C87.9096 27.5536 87.7448 27.3382 87.536 27.1715C87.7693 27.0531 87.9716 26.882 88.1275 26.6717C88.2833 26.4614 88.3886 26.2177 88.4334 25.9599Z" fill="#167EFF"/>
<path d="M122.29 21.5264C122.186 20.8979 121.898 20.3144 121.462 19.8498C121.025 19.3851 120.462 19.0602 119.841 18.916C119.221 18.7718 118.571 18.8148 117.976 19.0397C117.379 19.2645 116.863 19.6611 116.492 20.1792C116.122 20.6973 115.913 21.3138 115.893 21.9505C115.872 22.5872 116.041 23.2157 116.378 23.7565C116.715 24.2973 117.204 24.726 117.785 24.9885C118.366 25.251 119.011 25.3356 119.639 25.2314C120.481 25.0906 121.233 24.6215 121.73 23.9269C122.227 23.2323 122.429 22.369 122.29 21.5264Z" fill="#167EFF"/>
<path d="M26.053 93.7979L18.7825 96.1379L21.7866 113.873L26.053 93.7979Z" fill="#167EFF"/>
<path d="M127.018 63.1339L122.848 66.9629C124.311 67.2725 125.732 67.7565 127.08 68.4046C127.651 68.6478 128.176 68.9889 128.631 69.4122C129.266 70.1408 125.856 69.1022 124.181 68.9162H124.166C124.505 69.0945 124.813 69.3246 125.081 69.5983C125.63 70.2273 121.424 68.8036 121.05 69.0712C122.662 69.7998 125.158 71.1795 125.763 72.2532C126.476 73.5399 122.817 70.9812 120.445 70.9037C121.949 71.6013 123.592 72.5787 124.181 73.6639C124.988 75.1325 122.073 72.44 118.601 72.3307H118.585C121.903 74.346 123.453 76.0023 118.74 73.9584C117.876 73.5719 116.954 73.3309 116.012 73.2453L106.54 81.9069L134.506 80.8218L138.614 62.7153L127.018 63.1339Z" fill="#167EFF"/>
<path d="M152.197 62.1418L134.524 80.7908L141.531 49.9416L159.204 31.2926L152.197 62.1418Z" stroke="#101623" stroke-linejoin="round"/>
<path d="M127.018 63.1339L122.848 66.9629C124.311 67.2725 125.732 67.7565 127.08 68.4046C127.651 68.6478 128.176 68.9889 128.63 69.4122C129.266 70.1408 125.856 69.1022 124.181 68.9162H124.166C124.504 69.0945 124.813 69.3246 125.08 69.5983C125.63 70.2273 121.424 68.8036 121.05 69.0712C122.662 69.7998 125.158 71.1795 125.762 72.2532C126.475 73.5399 122.817 70.9812 120.445 70.9037C121.949 71.6013 123.592 72.5787 124.181 73.6639C124.987 75.1325 122.073 72.44 118.6 72.3307H118.585C121.902 74.346 123.453 76.0023 118.74 73.9584C117.876 73.5719 116.954 73.3309 116.012 73.2453L106.54 81.9069L134.506 80.8218L138.614 62.7153L127.018 63.1339Z" stroke="#101623" stroke-linejoin="round"/>
<path d="M88.4334 25.9599C88.4995 25.5843 88.4294 25.1975 88.236 24.8687C88.0434 24.5399 87.7391 24.2905 87.3793 24.1649C87.611 23.9507 87.775 23.6735 87.8517 23.3672C87.9284 23.061 87.9137 22.7391 87.8093 22.441C87.7057 22.1431 87.5164 21.8819 87.2667 21.6897C87.0162 21.4975 86.7152 21.3825 86.4002 21.359C86.5283 21.0858 86.5789 20.7822 86.5446 20.4822C86.5112 20.1822 86.3945 19.8975 86.2085 19.6597C86.0225 19.422 85.7744 19.2404 85.4913 19.1354C85.2082 19.0303 84.9014 19.0059 84.6052 19.0647C84.6436 18.7639 84.5963 18.4583 84.469 18.1829C84.3417 17.9076 84.1402 17.6734 83.8864 17.5071C83.6327 17.3407 83.3373 17.2489 83.0346 17.242C82.7311 17.235 82.4325 17.3134 82.1714 17.468C82.1159 17.159 81.973 16.8725 81.759 16.6428C81.545 16.4131 81.2692 16.2501 80.9649 16.1731C80.6605 16.0962 80.3405 16.1088 80.043 16.2092C79.7456 16.3096 79.4834 16.4937 79.288 16.7394C79.1402 16.4435 78.9093 16.197 78.6236 16.03C78.338 15.8631 78.0099 15.783 77.6795 15.7994C77.349 15.8159 77.0305 15.9281 76.7628 16.1226C76.4951 16.3171 76.2899 16.5853 76.1721 16.8944C75.9848 16.697 75.7508 16.5498 75.4916 16.4665C75.2325 16.3832 74.9566 16.3664 74.6892 16.4178C74.4219 16.4692 74.1718 16.587 73.9621 16.7604C73.7522 16.9338 73.5895 17.1572 73.4886 17.41C73.5153 17.0224 73.4306 16.6353 73.2447 16.2941C73.0588 15.9529 72.7793 15.672 72.4391 15.4843C72.0989 15.2966 71.7122 15.21 71.3244 15.2345C70.9367 15.2592 70.564 15.394 70.2503 15.6232C70.0785 15.2268 69.7898 14.8922 69.4227 14.6642C69.0557 14.4363 68.6277 14.3259 68.1962 14.3478C67.7646 14.3698 67.35 14.5229 67.0079 14.7868C66.6658 15.0508 66.4125 15.4129 66.2818 15.8248C65.9269 15.6102 65.5149 15.5094 65.1011 15.5361C64.6872 15.5628 64.2915 15.7156 63.9672 15.9739C63.6429 16.2323 63.4055 16.5839 63.287 16.9813C63.1685 17.3786 63.1746 17.8028 63.3045 18.1966C62.8895 18.2436 62.499 18.4174 62.1862 18.6944C61.8735 18.9713 61.6537 19.3379 61.5569 19.7443C61.46 20.1506 61.4907 20.5769 61.6449 20.9652C61.7991 21.3534 62.0693 21.6846 62.4185 21.9138C62.0915 22.1787 61.8546 22.5384 61.7408 22.9435C61.6269 23.3486 61.6416 23.779 61.7828 24.1754C61.924 24.5719 62.1848 24.9146 62.5291 25.1565C62.8734 25.3984 63.2844 25.5274 63.7051 25.5258C63.6207 25.93 63.6617 26.3504 63.8226 26.7306C63.9835 27.1109 64.2567 27.4329 64.6056 27.6537C64.9544 27.8745 65.3625 27.9835 65.775 27.9662C66.1875 27.9488 66.5849 27.8059 66.9141 27.5566C67.0445 27.891 67.2637 28.1834 67.5481 28.4023C67.8325 28.6211 68.1713 28.7581 68.5279 28.7984C68.4624 29.0298 68.4492 29.2731 68.4893 29.5103C68.5292 29.7475 68.6215 29.9729 68.7594 30.17C68.8972 30.3672 69.0771 30.5313 69.2861 30.6504C69.4952 30.7694 69.7281 30.8406 69.968 30.8585C69.8384 31.1327 69.7883 31.4376 69.8232 31.7388C69.8581 32.0399 69.9766 32.3253 70.1655 32.5625C70.3543 32.7998 70.6058 32.9794 70.8914 33.081C71.1772 33.1825 71.4856 33.2021 71.7817 33.1373C71.7462 33.4387 71.7958 33.7441 71.925 34.0187C72.0542 34.2933 72.2579 34.5262 72.5128 34.6908C72.7677 34.8555 73.0637 34.9454 73.3671 34.9503C73.6706 34.9552 73.9693 34.875 74.2294 34.7185C74.2848 35.0279 74.4285 35.3145 74.6433 35.5438C74.8581 35.7732 75.1348 35.9354 75.4397 36.0108C75.7447 36.0862 76.0651 36.0716 76.362 35.9689C76.6589 35.8661 76.9197 35.6795 77.1128 35.4316C77.3083 35.712 77.5617 35.947 77.856 36.1208C78.1502 36.2946 78.4782 36.4033 78.8181 36.4393C79.3374 35.5012 79.6889 34.4796 79.8567 33.4205C80.0292 32.3421 79.8277 31.2371 79.2856 30.289C76.9758 29.5294 78.0144 26.8166 79.5801 27.8707C80.3242 28.3823 80.6065 28.3496 80.6653 27.8552C80.6696 27.7123 80.7125 27.5734 80.7895 27.453C80.8665 27.3325 80.9747 27.2353 81.1026 27.1715C81.2404 27.4623 81.4611 27.7057 81.7369 27.8714C82.0123 28.0371 82.3313 28.1174 82.6528 28.1026C82.9743 28.0876 83.2843 27.9781 83.5429 27.7876C83.8024 27.5971 83.9998 27.3342 84.11 27.032C84.2601 27.1906 84.4404 27.3174 84.6403 27.4051C84.8402 27.4928 85.0556 27.5394 85.2735 27.5423C85.4921 27.5452 85.7083 27.5043 85.9107 27.4219C86.113 27.3395 86.2966 27.2176 86.4508 27.063C86.8343 27.9665 87.1256 28.9066 87.3189 29.8688C87.5515 29.7377 87.7489 29.5515 87.8925 29.3263C88.0369 29.1012 88.1234 28.8442 88.1446 28.5779C88.1658 28.3115 88.1218 28.044 88.0157 27.7988C87.9096 27.5536 87.7448 27.3382 87.536 27.1715C87.7693 27.0531 87.9716 26.882 88.1275 26.6717C88.2833 26.4614 88.3886 26.2177 88.4334 25.9599Z" stroke="#101623" stroke-linejoin="round"/>
<path d="M87.0227 35.5556L133.296 27.7736" stroke="#101623" stroke-linecap="round" stroke-linejoin="round"/>
<path d="M11.0935 48.2983L78.5276 36.9818" stroke="#101623" stroke-linecap="round" stroke-linejoin="round"/>
<path d="M82.3101 42.8417L96.1844 55.3054" stroke="#101623" stroke-linecap="round" stroke-linejoin="round"/>
<path d="M96.2465 56.6695C96.4325 55.9719 96.4334 55.4742 96.1845 55.3053C95.9528 55.1486 95.5318 55.2873 95.0064 55.6618C94.219 56.2835 93.5067 56.9955 92.885 57.7832" stroke="#101623" stroke-linecap="round" stroke-linejoin="round"/>
<path d="M38.2678 75.0394C33.0281 70.8694 32.5941 70.7454 28.4395 66.2032C19.6653 67.4434 10.0083 70.3733 5.91577 72.3111C12.1626 74.6714 18.8531 75.6241 25.5104 75.1015L32.6259 81.5038" stroke="#101623" stroke-linecap="round" stroke-linejoin="round"/>
<path d="M77.6748 42.8727L92.2933 55.9875" stroke="#101623" stroke-linecap="round" stroke-linejoin="round"/>
<path d="M85.1933 66.5444L75.7371 58.5298L81.4639 67.441" stroke="#101623" stroke-linecap="round" stroke-linejoin="round"/>
<path d="M118.941 68.2928C119.513 68.4169 124.742 70.2445 125.84 72.1994C126.574 73.5007 122.863 70.9127 120.461 70.8352" stroke="#101623" stroke-linecap="round" stroke-linejoin="round"/>
<path d="M118.43 70.0013C119.887 70.5284 123.341 71.9872 124.243 73.6288C125.059 75.1187 122.122 72.3887 118.6 72.2801" stroke="#101623" stroke-linecap="round" stroke-linejoin="round"/>
<path d="M118.027 71.9546C121.716 74.1094 123.75 76.1043 118.74 73.9389C116.152 72.8203 97.2817 72.2492 97.2817 72.2492C95.6255 72.0778 94.0442 71.4731 92.6964 70.4958L85.2244 64.822" stroke="#101623" stroke-linecap="round" stroke-linejoin="round"/>
<path d="M91.1152 56.344L98.7113 63.0874C98.7113 63.0874 117.748 66.6529 119.205 67.069C120.662 67.4851 124.152 68.3695 125.173 69.5338C125.717 70.1531 122.726 69.0843 120.91 68.9913" stroke="#101623" stroke-linecap="round" stroke-linejoin="round"/>
<path d="M92.3555 57.3516C92.5415 56.654 92.5423 56.1563 92.2935 55.9874C92.0618 55.8308 91.6408 55.9703 91.1153 56.344C88.9703 57.8705 85.7826 62.6027 85.116 65.1957C84.9528 65.8321 84.9822 66.4056 85.1935 66.5443C85.4383 66.7075 86.1392 66.5133 86.6621 65.9243" stroke="#101623" stroke-linecap="round" stroke-linejoin="round"/>
<path d="M61.5063 71.5981C65.249 71.7557 68.9306 70.6107 71.9238 68.3582" stroke="#101623" stroke-linecap="round" stroke-linejoin="round"/>
<path d="M81.3335 67.676L82.9922 64.6841" stroke="#101623" stroke-linecap="round" stroke-linejoin="round"/>
<path d="M82.062 41.3681C81.0388 42.8563 79.1631 42.2052 76.5742 39.7094" stroke="#101623" stroke-linecap="round" stroke-linejoin="round"/>
<path d="M65.4568 90.4503L77.5044 77.0393L64.2346 98.6492" stroke="#101623" stroke-linecap="round" stroke-linejoin="round"/>
<path d="M46.5003 98.1376C47.3753 98.9233 48.3966 99.5295 49.5058 99.9203C50.615 100.311 51.7904 100.48 52.9648 100.416C54.1393 100.354 55.2897 100.059 56.3504 99.5515C57.4111 99.0432 58.3613 98.3309 59.1467 97.4555L65.4536 90.4502L62.9602 107.095L52.6669 118.566C55.2496 123.101 59.2304 126.679 64.0144 128.765L74.9124 116.627C76.5256 114.833 77.6659 112.664 78.2298 110.317C80.6025 100.363 79.7955 82.7856 81.3302 67.6711C75.1604 66.5239 72.8816 65.1287 68.1845 61.4237C65.1493 63.6421 58.3749 65.2886 51.567 82.2169L41.4156 73.0862C36.7323 75.4691 33.1021 79.508 31.2307 84.4182L46.5003 98.1376Z" stroke="#101623" stroke-linecap="round" stroke-linejoin="round"/>
<path d="M82.8158 36.5699C82.4054 36.4168 82.0048 36.2386 81.6165 36.0363L82.4038 37.7496" stroke="#101623" stroke-linecap="round" stroke-linejoin="round"/>
<path d="M83.4572 48.0659C82.315 44.7697 81.3669 39.7298 82.8119 36.5699C88.6814 38.723 88.1846 31.1131 86.4646 27.0916M68.1836 61.4132C68.8432 59.3402 69.2899 57.2054 69.5168 55.0418C69.9117 51.7131 70.8777 48.4774 72.3724 45.477C73.8329 42.4084 77.1862 39.5789 78.8996 36.3153C79.4131 35.4187 79.7392 34.4272 79.8583 33.4009C80.0312 32.3225 79.8296 31.2175 79.2872 30.2695C76.9774 29.5099 78.0209 26.7905 79.5817 27.8512C80.3283 28.3595 80.6204 28.3317 80.6669 27.8357C80.7089 27.5748 80.7612 27.3266 80.8229 27.0916" stroke="#101623" stroke-linecap="round" stroke-linejoin="round"/>
<path d="M56.0959 114.756C58.8998 119.124 62.8903 122.603 67.6001 124.786" stroke="#101623" stroke-linecap="round" stroke-linejoin="round"/>
<path d="M34.6101 87.4102C37.2145 82.6779 40.4699 78.791 44.7485 76.0936" stroke="#101623" stroke-linecap="round" stroke-linejoin="round"/>
<path d="M54.5148 121.375C51.2397 125.373 48.3098 128.511 45.1205 131.839C44.2679 136.877 44.6709 148.442 46.2986 153.821C50.6229 146.628 52.1894 142.055 54.3761 134.647L61.0109 127.268" stroke="#101623" stroke-linecap="round" stroke-linejoin="round"/>
<path d="M25.8513 75.4115C27.3147 73.0618 29.1109 70.9366 31.184 69.1022" stroke="#101623" stroke-linecap="round" stroke-linejoin="round"/>
<path d="M124.243 68.8542C125.933 69.0247 129.371 70.078 128.739 69.3502C128.28 68.9221 127.75 68.5761 127.173 68.3271C124.987 67.2583 122.895 66.9164 120.569 66.2808L102.538 61.9092L95.0137 55.6545" stroke="#101623" stroke-linecap="round" stroke-linejoin="round"/>
<path d="M66.5754 70.9934L52.6701 91.4252L39.2297 80.7752" stroke="#101623" stroke-linecap="round" stroke-linejoin="round"/>
<path d="M104.587 24.4716C104.691 25.1001 104.606 25.7454 104.343 26.3259C104.081 26.9064 103.652 27.396 103.111 27.7328C102.571 28.0696 101.942 28.2385 101.306 28.2181C100.669 28.1977 100.053 27.989 99.5345 27.6182C99.0164 27.2476 98.6199 26.7315 98.3947 26.1354C98.1703 25.5394 98.1271 24.89 98.2715 24.2695C98.4151 23.649 98.7406 23.0851 99.2049 22.6492C99.6699 22.2134 100.253 21.925 100.882 21.8208C101.724 21.6814 102.588 21.8824 103.283 22.3794C103.977 22.8765 104.446 23.629 104.587 24.4716Z" stroke="#101623" stroke-linecap="round" stroke-linejoin="round"/>
<path d="M113.361 23.0145C113.465 23.643 113.38 24.2883 113.118 24.8688C112.856 25.4492 112.427 25.9388 111.886 26.2756C111.345 26.6124 110.716 26.7813 110.08 26.7609C109.443 26.7405 108.827 26.5318 108.309 26.1611C107.791 25.7904 107.394 25.2744 107.169 24.6783C106.944 24.0823 106.901 23.4329 107.046 22.8123C107.189 22.1918 107.515 21.6279 107.979 21.1921C108.444 20.7562 109.027 20.4679 109.656 20.3636C110.499 20.2243 111.362 20.4251 112.057 20.9223C112.751 21.4193 113.22 22.1718 113.361 23.0145Z" stroke="#101623" stroke-linecap="round" stroke-linejoin="round"/>
<path d="M122.29 21.5262C122.394 22.1547 122.309 22.8 122.047 23.3805C121.785 23.9609 121.356 24.4506 120.815 24.7874C120.275 25.1242 119.646 25.293 119.009 25.2727C118.372 25.2523 117.756 25.0435 117.238 24.6728C116.72 24.3021 116.323 23.7861 116.098 23.19C115.874 22.594 115.83 21.9446 115.975 21.324C116.118 20.7035 116.444 20.1397 116.908 19.7038C117.373 19.268 117.957 18.9796 118.585 18.8753C119.428 18.7357 120.292 18.9366 120.986 19.4337C121.681 19.9308 122.15 20.6835 122.29 21.5262Z" stroke="#101623" stroke-linecap="round" stroke-linejoin="round"/>
<path d="M30.0214 10.1787L24.0996 18.5188" stroke="#101623" stroke-linecap="round" stroke-linejoin="round"/>
<path d="M31.2306 17.3096L22.906 11.3878" stroke="#101623" stroke-linecap="round" stroke-linejoin="round"/>
<path d="M6.50478 100.075L6.31875 100.137L12.039 105.207L4.4895 113.5L8.53555 117.112L16.0851 108.803L21.789 113.873L26.0529 93.7979L6.50478 100.075Z" stroke="#101623" stroke-linecap="round" stroke-linejoin="round"/>
<path d="M106.338 111.516L94.3396 107.795L104.431 100.788" stroke="#101623" stroke-linecap="round" stroke-linejoin="round"/>
<path d="M116.198 109.935L126.212 102.525L114.291 99.1918" stroke="#101623" stroke-linecap="round" stroke-linejoin="round"/>
<path d="M112.446 94.7737L108.059 116.136" stroke="#101623" stroke-linecap="round" stroke-linejoin="round"/>
<path d="M15.3911 74.7524L23.433 124.336C23.7204 126.028 24.3382 127.645 25.2511 129.097C26.1641 130.549 27.3542 131.807 28.7536 132.799C30.1529 133.791 31.7341 134.497 33.4066 134.878C35.0792 135.259 36.8103 135.306 38.5011 135.017L44.9486 133.933" stroke="#101623" stroke-linecap="round" stroke-linejoin="round"/>
<path d="M140.816 74.2118L145.605 103.734C145.894 105.424 145.847 107.156 145.466 108.828C145.085 110.501 144.379 112.082 143.387 113.481C142.395 114.881 141.137 116.071 139.685 116.984C138.233 117.897 136.616 118.515 134.924 118.802L56.8513 131.931" stroke="#101623" stroke-linecap="round" stroke-linejoin="round"/>
<path d="M61.8024 22.8281L21.2008 29.6494C19.5098 29.9368 17.892 30.5546 16.4398 31.4675C14.9877 32.3804 13.7297 33.5706 12.7377 34.97C11.7459 36.3694 11.0394 37.9505 10.6588 39.623C10.2783 41.2955 10.2311 43.0267 10.5199 44.7174L14.4969 69.2383" stroke="#101623" stroke-linecap="round" stroke-linejoin="round"/>
<path d="M84.6199 18.9946L117.624 13.4497C119.314 13.1609 121.046 13.2081 122.718 13.5886C124.391 13.9692 125.972 14.6757 127.371 15.6676C128.771 16.6595 129.961 17.9175 130.874 19.3696C131.787 20.8218 132.405 22.4396 132.692 24.1306L138.812 61.8599" stroke="#101623" stroke-linecap="round" stroke-linejoin="round"/>
<path d="M48.2363 128.553C49.9438 130.898 52.0164 132.955 54.3752 134.645" stroke="#101623" stroke-linecap="round" stroke-linejoin="round"/>
</svg>
